<?xml version="1.0" encoding="utf-8"?>
<!-- Generator: Adobe Illustrator 22.1.0, SVG Export Plug-In . SVG Version: 6.00 Build 0)  -->
<svg version="1.1" id="Layer_1" xmlns="http://www.w3.org/2000/svg" xmlns:xlink="http://www.w3.org/1999/xlink" x="0px" y="0px"
	 viewBox="0 0 69 69" style="enable-background:new 0 0 69 69;" xml:space="preserve">
<style type="text/css">
	.st0{fill-rule:evenodd;clip-rule:evenodd;fill:#999999;}
</style>
<g>
	<path class="st0" d="M33.6,40.6c0.8,0.3,1.6,0.6,2.3,1c-2.4,1-4.8,2.2-7.1,3.5c-0.8-0.4-1.5-0.8-2.3-1.1
		C28.8,42.6,31.2,41.5,33.6,40.6L33.6,40.6z"/>
	<path class="st0" d="M30.7,39.6c-2.5,0.8-5,1.9-7.3,3.1c0.7,0.3,1.5,0.6,2.2,0.9c2.2-1.3,4.6-2.4,7.1-3.3
		C32,40,31.4,39.7,30.7,39.6L30.7,39.6z"/>
	<path class="st0" d="M49.1,44.3c0,0.1,0.2,0.2,0.3,0.2c0.1,0,0.1,0,0.2,0c0,0,0-0.1,0-0.1c0-0.1-0.1-0.1-0.2-0.1l-0.2,0
		c0,0-0.1,0-0.2-0.1c0,0-0.1-0.1-0.1-0.2c0-0.2,0.2-0.2,0.3-0.2c0.1,0,0.3,0.1,0.3,0.2l-0.1,0c0-0.1-0.1-0.2-0.2-0.2
		c-0.1,0-0.2,0-0.2,0.1c0,0.1,0.1,0.1,0.2,0.2l0.1,0c0.1,0,0.1,0,0.2,0.1c0,0.1,0.1,0.1,0.1,0.2c0,0.1,0,0.2-0.1,0.2
		c-0.1,0-0.2,0.1-0.2,0.1C49.1,44.6,49,44.5,49.1,44.3L49.1,44.3L49.1,44.3z"/>
	<polygon class="st0" points="49.9,44.6 49.8,44.6 49.8,43.7 50,43.7 50.3,44.4 50.5,43.7 50.7,43.7 50.7,44.6 50.6,44.6 50.6,43.8 
		50.6,43.8 50.3,44.6 50.2,44.6 49.9,43.8 49.9,43.8 49.9,44.6 	"/>
	<path class="st0" d="M38.9,40.5c-2-1-4.1-1.8-6.2-2.4c-0.8,0.2-1.5,0.5-2.2,0.7c2.2,0.7,4.3,1.5,6.4,2.5
		C37.5,40.9,38.2,40.7,38.9,40.5L38.9,40.5z"/>
	<path class="st0" d="M42.1,39.5c-2-0.9-4.1-1.6-6.3-2.2c-0.7,0.1-1.4,0.3-2,0.5c2.1,0.6,4.2,1.4,6.2,2.4
		C40.7,39.9,41.5,39.7,42.1,39.5L42.1,39.5z"/>
	<path class="st0" d="M47.4,41.3c-5.1,1.7-9.9,4.2-14.3,7.3c1.1,0.7,2.1,1.4,3.2,2.1c4.1-3.2,8.7-6,13.5-8
		C49,42.1,48.2,41.7,47.4,41.3L47.4,41.3z"/>
	<path class="st0" d="M43.8,39.6C38.5,41,33.5,43.3,29,46.3c1,0.5,2,1,3,1.6c4.4-3.1,9.3-5.4,14.6-7C45.7,40.4,44.8,40,43.8,39.6
		L43.8,39.6z"/>
	<path class="st0" d="M29.2,29.2c1.3,0,1.9,1,1.9,2.2c0,1.3-0.6,2.3-1.9,2.3c-1.3,0-1.9-0.9-1.9-2.3C27.3,30.2,27.9,29.2,29.2,29.2
		L29.2,29.2z M29.2,32.8c0.3,0,0.5-0.3,0.5-1.4c0-1-0.1-1.4-0.5-1.4c-0.4,0-0.5,0.4-0.5,1.4C28.7,32.5,28.9,32.8,29.2,32.8
		L29.2,32.8z"/>
	<path class="st0" d="M32.1,30.3h-0.6v-1h0.6v-0.5c0-1.1,0.5-1.5,1.4-1.5c0.3,0,0.5,0,0.7,0.1v1.1c-0.1,0-0.2,0-0.3,0
		c-0.4,0-0.5,0.2-0.5,0.4v0.4h0.8v1h-0.8v3.3h-1.4V30.3L32.1,30.3z"/>
	<path class="st0" d="M15.9,30.5c0-0.3-0.1-0.4-0.3-0.4c-0.3,0-0.5,0.3-0.5,0.6l-1.2-0.3c0.2-0.8,0.9-1.2,1.7-1.2
		c0.8,0,1.7,0.3,1.7,1.3v2.4c0,0.5,0.1,0.6,0.1,0.7h-1.4c0-0.1,0-0.3,0-0.4c-0.2,0.2-0.7,0.5-1,0.5c-0.7,0-1.2-0.5-1.2-1.3
		c0-1.1,1.3-1.5,2.2-1.6V30.5L15.9,30.5z M15.9,31.6c-0.5,0-0.9,0.2-0.9,0.8c0,0.3,0.2,0.5,0.4,0.5c0.2,0,0.3-0.1,0.4-0.3V31.6
		L15.9,31.6z"/>
	<path class="st0" d="M19.5,30.5v3.1h-1.4v-4.3h1.4l0,0.4l0,0c0.3-0.3,0.7-0.5,1.2-0.5c0.6,0,1,0.4,1,1v3.4h-1.4v-3
		c0-0.2-0.1-0.4-0.3-0.4C19.7,30.3,19.6,30.4,19.5,30.5L19.5,30.5z"/>
	<polygon class="st0" points="22.5,27.5 23.9,27.5 23.9,30.6 23.9,30.6 24.9,29.3 26.3,29.3 25.1,30.6 26.3,33.6 24.8,33.6 
		24.2,31.7 24.1,31.7 23.9,32.1 23.9,33.6 22.5,33.6 22.5,27.5 	"/>
	<path class="st0" d="M12.2,30.4c0.7,0.2,1.1,0.8,1.1,1.5c0,1-0.8,1.6-2,1.6H9v-6.1h2.4c1.1,0,1.8,0.7,1.8,1.5
		C13.2,29.8,12.6,30.2,12.2,30.4L12.2,30.4L12.2,30.4z M10.5,32.5H11c0.3,0,0.8-0.2,0.8-0.8c0-0.5-0.3-0.8-0.8-0.8h-0.6V32.5
		L10.5,32.5z M10.5,29.9H11c0.5,0,0.8-0.3,0.8-0.7c0-0.6-0.4-0.7-0.7-0.7h-0.5V29.9L10.5,29.9z"/>
	<path class="st0" d="M62.3,30.5c0-0.3-0.1-0.4-0.4-0.4c-0.3,0-0.4,0.3-0.5,0.6l-1.2-0.3c0.2-0.8,0.9-1.2,1.7-1.2
		c0.8,0,1.7,0.3,1.7,1.3v2.4c0,0.5,0.1,0.6,0.1,0.7h-1.4c0-0.1,0-0.3,0-0.4c-0.2,0.2-0.7,0.5-1.1,0.5c-0.7,0-1.2-0.5-1.2-1.3
		c0-1.1,1.3-1.5,2.2-1.6V30.5L62.3,30.5z M62.3,31.6c-0.5,0-0.9,0.2-0.9,0.8c0,0.3,0.2,0.5,0.4,0.5c0.2,0,0.3-0.1,0.5-0.3V31.6
		L62.3,31.6z"/>
	<path class="st0" d="M48.1,31.8c0,0.4,0.1,1,0.7,1c0.3,0,0.6-0.3,0.7-0.6l0.9,0.3c-0.1,0.2-0.5,1.2-1.7,1.2c-1.3,0-1.9-1.1-1.9-2.3
		c0-1.2,0.7-2.2,1.9-2.2c1.3,0,1.8,1.2,1.8,2.3v0.3H48.1L48.1,31.8z M49.1,30.9c0-0.4,0-0.9-0.5-0.9c-0.4,0-0.5,0.5-0.5,0.9H49.1
		L49.1,30.9z"/>
	<polygon class="st0" points="54.1,29.3 55.5,29.3 55.5,33.6 54.1,33.6 54.1,29.3 	"/>
	<polygon class="st0" points="54.1,27.5 55.5,27.5 55.5,28.8 54.1,28.8 54.1,27.5 	"/>
	<path class="st0" d="M58.6,30.9c0-0.2,0-0.4-0.1-0.5c-0.1-0.2-0.2-0.3-0.4-0.3c-0.5,0-0.5,0.6-0.5,1.4c0,1,0.2,1.3,0.5,1.3
		c0.5,0,0.5-0.5,0.5-0.8l1.1,0.2c-0.1,1-0.7,1.6-1.7,1.6c-1.2,0-1.9-1.1-1.9-2.2c0-1.2,0.7-2.4,2-2.4c1.5,0,1.7,1.3,1.7,1.7H58.6
		L58.6,30.9z"/>
	<path class="st0" d="M36.6,27.5h2l1.3,6.1h-1.5l-0.2-1.2h-1.4l-0.3,1.2h-1.3L36.6,27.5L36.6,27.5z M37,31.3h1l-0.4-2.5h0L37,31.3
		L37,31.3z"/>
	<path class="st0" d="M51,29.3h1.4v0.6h0c0.3-0.5,0.8-0.7,1.4-0.7v1.4c-0.2-0.1-0.3-0.1-0.6-0.1c-0.4,0-0.6,0.1-0.8,0.3v2.8H51V29.3
		L51,29.3z"/>
	<path class="st0" d="M43.9,30.5v3.1h-1.4v-2.9c0-0.2-0.1-0.4-0.3-0.4c-0.1,0-0.3,0.1-0.5,0.3v3.1h-1.4v-4.3h1.4l0,0.4l0,0
		c0.3-0.3,0.7-0.5,1.2-0.5c0.4,0,0.7,0.2,0.8,0.6h0c0.2-0.3,0.7-0.6,1.2-0.6c0.6,0,1,0.4,1,1v3.4h-1.4v-2.9c0-0.2-0.1-0.4-0.3-0.4
		C44.2,30.3,44,30.4,43.9,30.5L43.9,30.5z"/>
	<path class="st0" d="M64.4,33.1c0-0.3,0.3-0.6,0.6-0.6c0.3,0,0.6,0.3,0.6,0.6c0,0.3-0.3,0.6-0.6,0.6C64.7,33.7,64.4,33.4,64.4,33.1
		L64.4,33.1z M64.5,33.1c0,0.3,0.2,0.5,0.5,0.5c0.3,0,0.5-0.2,0.5-0.5c0-0.3-0.2-0.5-0.5-0.5C64.7,32.6,64.5,32.9,64.5,33.1
		L64.5,33.1z"/>
	<path class="st0" d="M65.3,33.4h-0.1L65,33.1h-0.1v0.3h-0.1v-0.7h0.3c0,0,0.1,0,0.2,0c0.1,0,0.1,0.1,0.1,0.2c0,0.1-0.1,0.2-0.2,0.2
		L65.3,33.4L65.3,33.4z M65,33.1c0.1,0,0.2,0,0.2-0.1c0-0.1-0.1-0.1-0.2-0.1h-0.2v0.2H65L65,33.1z"/>
</g>
</svg>
