<?xml version="1.0" encoding="utf-8"?>
<!-- Generator: Adobe Illustrator 22.1.0, SVG Export Plug-In . SVG Version: 6.00 Build 0)  -->
<svg version="1.1" id="Layer_1" xmlns="http://www.w3.org/2000/svg" xmlns:xlink="http://www.w3.org/1999/xlink" x="0px" y="0px"
	 viewBox="0 0 96 85" style="enable-background:new 0 0 96 85;" xml:space="preserve">
<style type="text/css">
	.st0{fill:#999999;}
	.st1{font-family:'ArialMT';}
	.st2{font-size:7.6307px;}
</style>
<text transform="matrix(1 0 0 1 21.3242 21.3584)" class="st0 st1 st2"> </text>
<path class="st0" d="M35.7,50.8C35.6,51,35.6,51,35.6,51c-1.4,1.4-2.9,2.1-4.6,2.1c-3.4,0-5.8-2.5-5.8-6c0-3.5,2.5-6.1,5.8-6.1
	c1.6,0,3.2,0.7,4.6,2.1c0.1,0.2,0.1,0.2,0.1,0.2c2.2-2.7,2.2-2.7,2.2-2.7c-0.1-0.1-0.1-0.1-0.1-0.1c-1.8-2.2-4-3.2-6.7-3.2
	s-5.2,0.9-6.9,2.5c-1.9,1.8-2.9,4.3-2.9,7.3c0,2.9,1,5.5,2.9,7.2c1.7,1.6,4.2,2.5,6.9,2.5s4.9-1.1,6.7-3.2c0.1-0.1,0.1-0.1,0.1-0.1"
	/>
<rect x="40.1" y="37.5" class="st0" width="3.9" height="18.9"/>
<path class="st0" d="M59.2,52.3c-1.1,0.7-2,1-2.9,1c-1.3,0-1.9-0.7-1.9-2.2c0-10,0-10,0-10c3.9,0,3.9,0,3.9,0c0-3.6,0-3.6,0-3.6
	c-3.9,0-3.9,0-3.9,0c0-5.9,0-5.9,0-5.9c-3.8,2-3.8,2-3.8,2c0,3.8,0,3.8,0,3.8c-3.2,0-3.2,0-3.2,0c0,3.6,0,3.6,0,3.6
	c3.2,0,3.2,0,3.2,0c0,10.6,0,10.6,0,10.6c0,2.8,1.8,4.9,4.3,4.9c1.8,0.1,2.8-0.5,3.4-0.8c0.1,0,0.1,0,0.1,0c0.9-3.7,0.9-3.7,0.9-3.7
	"/>
<rect x="62.3" y="37.5" class="st0" width="3.9" height="18.9"/>
<g>
	<path class="st0" d="M68.7,34.5c-3.3-4.9-9.2-8.3-15.6-8.3c-6.2,0-12.2,3.3-15.5,8.3c4.5,0,4.5,0,4.5,0c3-3.2,6.9-4.9,11.1-4.9
		c4.1,0,8,1.7,11.2,4.9"/>
</g>
<path class="st0" d="M73.1,33c0,0.2-0.1,0.3-0.3,0.3c-0.6,0-0.6,0-0.6,0c0-0.7,0-0.7,0-0.7c0.6,0,0.6,0,0.6,0
	C73.1,32.6,73.1,32.8,73.1,33 M73.6,33c0-0.5-0.4-0.7-0.7-0.7c-1,0-1,0-1,0c0,2.2,0,2.2,0,2.2c0.4,0,0.4,0,0.4,0c0-0.8,0-0.8,0-0.8
	c0.5,0,0.5,0,0.5,0c0.4,0.8,0.4,0.8,0.4,0.8c0.5,0,0.5,0,0.5,0c-0.5-0.9-0.5-0.9-0.5-0.9C73.4,33.5,73.6,33.3,73.6,33z M74.7,33.4
	c0-1.1-0.8-2-2-2c-1.1,0-2,0.9-2,2c0,1.2,0.8,2,2,2C73.8,35.5,74.7,34.6,74.7,33.4z M74.3,33.4c0,1-0.7,1.7-1.7,1.7
	c-1,0-1.7-0.7-1.7-1.7s0.7-1.7,1.7-1.7C73.6,31.7,74.3,32.5,74.3,33.4z"/>
</svg>
