<?xml version="1.0" encoding="utf-8"?>
<!-- Generator: Adobe Illustrator 22.1.0, SVG Export Plug-In . SVG Version: 6.00 Build 0)  -->
<svg version="1.1" id="Layer_1" xmlns="http://www.w3.org/2000/svg" xmlns:xlink="http://www.w3.org/1999/xlink" x="0px" y="0px"
	 viewBox="0 0 69 69" style="enable-background:new 0 0 69 69;" xml:space="preserve">
<style type="text/css">
	.st0{fill:#666666;}
</style>
<g id="layer1" inkscape:groupmode="layer" inkscape:label="Layer 1">
	<path id="path33" class="st0" d="M8.3,32.7V33h1.1v5.6c0,1.7-0.5,2.1-1.5,2.1c-0.7,0-0.8-0.5-0.8-0.8c0-0.6,0-1-0.6-1
		c-0.6,0-0.6,0.6-0.6,0.7c0,0.8,0.3,1.4,1.9,1.4c1.8,0,2.8-0.6,2.8-2.7V33l1.1,0v-0.3H8.3 M11.7,40c-0.1,0.1-0.2,0.3-0.2,0.5
		c0,0.2,0.1,0.3,0.2,0.5c0.1,0.1,0.3,0.2,0.5,0.2c0.2,0,0.3-0.1,0.5-0.2c0.1-0.1,0.2-0.3,0.2-0.5c0-0.2-0.1-0.3-0.2-0.5
		c-0.1-0.1-0.3-0.2-0.5-0.2C11.9,39.8,11.8,39.8,11.7,40 M19.1,40c-0.1,0.1-0.2,0.3-0.2,0.5c0,0.2,0.1,0.3,0.2,0.5
		c0.1,0.1,0.3,0.2,0.5,0.2c0.2,0,0.3-0.1,0.5-0.2c0.1-0.1,0.2-0.3,0.2-0.5c0-0.2-0.1-0.3-0.2-0.5c-0.1-0.1-0.3-0.2-0.5-0.2
		C19.4,39.8,19.3,39.8,19.1,40 M14,32.7V33h1v6.4c0,0.5,0,0.6-0.1,0.8c-0.1,0.2-0.2,0.3-0.4,0.4c-0.1,0.1-0.4,0.1-0.7,0.1v0.3h3.5
		v-0.3c-0.3,0-0.5,0-0.7-0.1c-0.2-0.1-0.3-0.2-0.4-0.4c-0.1-0.1-0.1-0.3-0.1-0.5v-2.2l0.9,0c2.5,0,3.3-1,3.3-2.4
		c0-1.4-0.4-2.4-3-2.4L14,32.7 M16.1,33l0.6,0c2,0,2.4,0.8,2.4,2.1c0,1.3-0.8,2-2.3,2h-0.7V33 M29.5,32.7c0,0.1-2.5,6.2-2.5,6.2
		l-0.1,0l-0.1,0c0,0-2.6-6.1-2.7-6.2h-2.3V33h1v6.3l0,0.6c0,0.2-0.1,0.3-0.1,0.4c-0.1,0.1-0.2,0.2-0.4,0.3c-0.1,0-0.3,0.1-0.5,0.1
		v0.3h2.3v-0.3c-0.2,0-0.3,0-0.4-0.1c-0.2-0.1-0.3-0.1-0.4-0.3c-0.1-0.1-0.1-0.2-0.1-0.4l0-0.6v-5.5h0.1c0,0,3,6.9,3,7h0.2l2.8-6.9
		h0.1v5.6c0,0.2,0,0.4-0.1,0.6c-0.1,0.2-0.2,0.3-0.3,0.4c-0.1,0.1-0.3,0.1-0.6,0.1v0.3h3.2v-0.3c-0.3,0-0.5,0-0.6-0.1
		c-0.2-0.1-0.3-0.2-0.4-0.4c0-0.1-0.1-0.3-0.1-0.6V33l0.9,0v-0.3H29.5 M32.3,38c0,2.9,2.3,3.1,2.8,3.1c1,0,2.8-0.6,2.8-3.2
		c0-2-1.2-3.1-2.8-3.1C33.4,34.9,32.3,36,32.3,38 M33.6,38c0-1.6,0.1-2.8,1.5-2.8c1.5,0,1.5,1.2,1.5,2.7c0,2.1-0.4,2.8-1.5,2.8
		C33.8,40.7,33.6,40.1,33.6,38 M40.7,36.2L40.7,36.2c-0.1,0-0.2-0.9-0.3-1.2c-0.4,0-2,0-2,0v0.3h1.1c0,0,0,0.9,0,1.2v2.8
		c0,0.4,0,0.7-0.1,0.8c-0.1,0.2-0.4,0.3-0.8,0.3h-0.2v0.4h3.3v-0.4h-0.2c-0.4,0-0.6-0.1-0.7-0.3c-0.1-0.2-0.2-0.4-0.2-0.9v-2.1
		c0-0.7,0.5-1.5,1.2-1.5c0.7,0,0.7,1,1.4,0.6c0.4-0.2,0.3-1.4-0.9-1.4C41.3,35,41,35.6,40.7,36.2 M51.1,35.3
		c-0.4,0.3-0.5,0.6-0.5,0.9c0,0.2,0,0.3,0.1,0.4c0.1,0.1,0.2,0.1,0.4,0.1c0.3,0,0.5-0.2,0.6-0.6c0.1-0.3,0.1-0.5,0.3-0.7
		c0.2-0.2,0.4-0.3,0.8-0.3c0.4,0,0.7,0.1,0.9,0.3c0.2,0.2,0.2,0.5,0.2,0.9v1c-1.1,0.1-3.6,0.3-3.5,2.2c0,0.7,0.7,1.4,1.6,1.4
		c0.9,0,1.5-0.5,1.9-1c0.1,0.4,0.4,0.9,1.1,0.9c0.8,0,1.2-0.4,1.3-1.3h-0.2c-0.1,0.4-0.3,0.6-0.5,0.6c-0.4,0-0.5-0.2-0.5-0.5l0-0.7
		v-2.4c0-0.5-0.1-0.9-0.4-1.2c-0.3-0.3-0.9-0.5-1.8-0.5C52.1,34.9,51.5,35,51.1,35.3 M51.5,39.4c0-1.1,1.5-1.6,2.3-1.6v1.9l0,0l0,0
		c-0.6,0.5-1,0.7-1.3,0.7C51.7,40.4,51.5,39.7,51.5,39.4 M58.6,36.1l-0.1,0L58.3,35l-1.8,0v0.3c0.3,0,0.9,0,0.9,0v4
		c0,0.3,0,0.5-0.1,0.7c0,0.2-0.2,0.3-0.3,0.4c-0.1,0-0.3,0.1-0.5,0.1v0.4h2.9v-0.4c-0.3,0-0.5-0.1-0.6-0.2c-0.1-0.2-0.2-0.4-0.2-0.8
		v-1.5c0-0.6,0-1.3,0.2-1.7c0.2-0.4,0.7-0.7,1.2-0.7c0.4,0,0.7,0.1,0.8,0.4c0.1,0.2,0.2,0.9,0.2,1.4l0,1.9c0,0.3,0,0.6,0,0.7
		c0,0.2-0.1,0.3-0.3,0.4c-0.1,0.1-0.3,0.1-0.5,0.1v0.4h2.8v-0.4c-0.4,0-0.6-0.1-0.7-0.3c-0.1-0.2-0.2-0.4-0.2-0.9l0-2.6
		c0-0.4-0.1-0.7-0.2-1c-0.1-0.3-0.3-0.5-0.6-0.6c-0.3-0.1-0.6-0.2-0.9-0.2C59.4,34.9,58.9,35.7,58.6,36.1 M49.4,34.6
		c-0.2,0.1-0.3,0.2-0.3,0.5c0,0.2-0.1,0.4-0.3,0.4c-0.1,0-0.3,0-0.4,0c-0.3-0.3-0.9-0.6-1.9-0.6c-1.6,0-2.3,1.2-2.3,2.2
		c0,1.2,0.5,1.8,1.5,2c0.1,0,0.1,0.1,0,0.1c-0.9,0.2-1.7,0.4-1.7,1.3c0,0.5,0.3,0.8,0.7,0.9c0.4,0.2,1,0.3,1.7,0.3
		c0.6,0,1.1,0,1.4,0.1c0.3,0,0.6,0.1,0.8,0.3c0.2,0.1,0.3,0.4,0.3,0.7c0,0.4-0.2,0.7-0.6,0.9c-0.4,0.2-0.9,0.3-1.6,0.3
		c-0.6,0-1-0.1-1.4-0.3c-0.3-0.2-0.4-0.6-0.3-0.8c0.1-0.3,0-0.6-0.4-0.6c-0.2,0-0.4,0.1-0.5,0.2c-0.1,0.1-0.1,0.3-0.1,0.5
		c0,0.7,0.5,1,0.9,1.1c0.6,0.2,1,0.2,1.6,0.2c0.8,0,1.4-0.1,1.8-0.3c0.4-0.2,0.8-0.5,0.9-0.8c0.2-0.3,0.3-0.6,0.3-1
		c0-0.4-0.1-0.8-0.3-1c-0.6-0.8-1.4-0.7-3.2-0.8c-0.9,0-1.1-0.2-1.1-0.4c0-0.4,0.3-0.6,1.6-0.8c1.3-0.2,2.4-0.7,2.4-2.2
		c0-0.4-0.1-0.8-0.2-1.1c0.3,0.1,0.5,0.1,0.7,0c0.3-0.1,0.4-0.2,0.5-0.4c0.1-0.2,0.1-0.3,0.1-0.5c-0.1-0.3-0.2-0.4-0.4-0.4
		C49.5,34.6,49.5,34.6,49.4,34.6 M45.3,37.1c0-1.1,0.4-1.9,1.2-1.9c0.9,0,1.2,0.7,1.2,1.9c0,1.6-0.5,1.8-1.2,1.8
		C45.8,38.9,45.3,38.6,45.3,37.1"/>
</g>
</svg>
