<?xml version="1.0" encoding="utf-8"?>
<!-- Generator: Adobe Illustrator 22.1.0, SVG Export Plug-In . SVG Version: 6.00 Build 0)  -->
<svg version="1.1" id="Layer_1" xmlns="http://www.w3.org/2000/svg" xmlns:xlink="http://www.w3.org/1999/xlink" x="0px" y="0px"
	 viewBox="0 0 50 50" style="enable-background:new 0 0 50 50;" xml:space="preserve">
<style type="text/css">
	.st0{display:none;}
	.st1{display:inline;fill:#231F20;}
	.st2{display:inline;fill:#FFFFFF;}
	.st3{display:inline;}
	.st4{fill:#FFFFFF;}
	.st5{display:inline;fill:none;}
	.st6{fill:#999999;}
</style>
<g id="bk" class="st0">
	<rect class="st1" width="50" height="50"/>
</g>
<g id="guides">
</g>
<g id="citi" class="st0">
	<path class="st2" d="M17.4,28C17.4,28.1,17.4,28.1,17.4,28c-0.8,0.9-1.8,1.3-2.7,1.3c-2,0-3.5-1.5-3.5-3.6c0-2.1,1.4-3.6,3.5-3.6
		c1,0,1.9,0.4,2.7,1.2c0,0.1,0,0.1,0,0.1c1.3-1.6,1.3-1.6,1.3-1.6c0,0,0,0,0,0c-1.1-1.3-2.4-1.9-4-1.9c-1.6,0-3.1,0.5-4.1,1.5
		c-1.1,1.1-1.7,2.5-1.7,4.3c0,1.8,0.6,3.2,1.7,4.3c1,1,2.5,1.5,4.1,1.5c1.6,0,2.9-0.6,4-1.9c0-0.1,0-0.1,0-0.1"/>
	<rect x="20" y="20.1" class="st2" width="2.3" height="11.2"/>
	<path class="st2" d="M31.4,28.9c-0.6,0.4-1.2,0.6-1.7,0.6c-0.8,0-1.1-0.4-1.1-1.3c0-5.9,0-5.9,0-5.9c2.3,0,2.3,0,2.3,0
		c0-2.1,0-2.1,0-2.1c-2.3,0-2.3,0-2.3,0c0-3.5,0-3.5,0-3.5c-2.3,1.2-2.3,1.2-2.3,1.2c0,2.3,0,2.3,0,2.3c-1.9,0-1.9,0-1.9,0
		c0,2.1,0,2.1,0,2.1c1.9,0,1.9,0,1.9,0c0,6.3,0,6.3,0,6.3c0,1.7,1.1,2.9,2.6,2.9c1.1,0.1,1.7-0.3,2-0.5c0,0,0,0,0,0
		C31.5,28.8,31.5,28.8,31.4,28.9"/>
	<rect x="33.2" y="20.1" class="st2" width="2.3" height="11.2"/>
	<path class="st2" d="M39.6,17.4c0,0.1-0.1,0.2-0.2,0.2c-0.4,0-0.4,0-0.4,0c0-0.4,0-0.4,0-0.4c0.4,0,0.4,0,0.4,0
		C39.6,17.2,39.6,17.3,39.6,17.4 M39.9,17.4c0-0.3-0.2-0.4-0.4-0.4c-0.6,0-0.6,0-0.6,0c0,1.3,0,1.3,0,1.3c0.2,0,0.2,0,0.2,0
		c0-0.5,0-0.5,0-0.5c0.3,0,0.3,0,0.3,0c0.2,0.5,0.2,0.5,0.2,0.5c0.3,0,0.3,0,0.3,0c-0.3-0.5-0.3-0.5-0.3-0.5
		C39.7,17.7,39.9,17.6,39.9,17.4z M40.5,17.7c0-0.7-0.5-1.2-1.2-1.2s-1.2,0.5-1.2,1.2c0,0.7,0.5,1.2,1.2,1.2S40.5,18.4,40.5,17.7z
		 M40.3,17.7c0,0.6-0.4,1-1,1c-0.6,0-1-0.4-1-1c0-0.6,0.4-1,1-1C39.9,16.6,40.3,17.1,40.3,17.7z"/>
</g>
<g id="bofa" class="st0">
	<g class="st3">
		<path class="st4" d="M22.5,32.9c0.4-0.2,0.7-0.5,1-0.7c1.3-0.8,2.6-1.6,3.9-2.3c1.4-0.7,2.8-1.4,4.3-2c0.7-0.3,1.4-0.5,2.2-0.8
			c0,0,0.1,0,0.1,0c0.6,0.4,1.2,0.7,1.9,1.1c0,0,0,0,0,0c-0.1,0-0.1,0.1-0.2,0.1c-1.7,0.7-3.3,1.5-4.8,2.4c-1.6,0.9-3.1,1.9-4.6,3
			c-0.4,0.3-0.8,0.6-1.2,0.9c-0.1,0-0.1,0.1-0.2,0c-0.7-0.5-1.5-1-2.3-1.5C22.6,33,22.5,33,22.5,32.9z"/>
		<path class="st4" d="M19.2,31.1c0.3-0.2,0.6-0.4,0.8-0.5c0.8-0.5,1.7-1,2.5-1.5c1.2-0.7,2.4-1.2,3.7-1.7c1-0.4,2.1-0.8,3.1-1.1
			c0.5-0.2,1-0.3,1.6-0.5c0.1,0,0.2,0,0.3,0c0.7,0.3,1.4,0.6,2,0.9c0,0,0,0,0,0c-0.2,0.1-0.4,0.1-0.6,0.2c-1.2,0.4-2.4,0.8-3.6,1.3
			c-1.1,0.5-2.1,1-3.2,1.5c-1.2,0.6-2.3,1.3-3.4,2c-0.3,0.2-0.6,0.4-0.8,0.5c0,0-0.1,0-0.2,0C20.7,31.9,20,31.5,19.2,31.1
			C19.2,31.1,19.2,31.1,19.2,31.1z"/>
		<path class="st4" d="M5.5,18.3c0.1,0.1,0.3,0.1,0.4,0.2c0.4,0.3,0.6,0.7,0.5,1.2c-0.1,0.5-0.4,0.8-0.8,1c-0.2,0.1-0.5,0.1-0.7,0.1
			c-0.6,0-1.2,0-1.8,0c-0.1,0-0.2-0.1-0.2-0.2c0-1.4,0-2.8,0-4.2c0-0.1,0-0.3,0-0.4C2.9,16,3,16,3.1,16c0.6,0,1.3,0,1.9,0
			c0.4,0,0.8,0.2,1.1,0.5c0.4,0.6,0.2,1.4-0.4,1.7C5.6,18.2,5.5,18.3,5.5,18.3z M4.1,19.4C4.1,19.4,4.1,19.4,4.1,19.4
			c0,0.2,0,0.3,0,0.5c0,0,0.1,0.1,0.1,0.1c0.2,0,0.4,0,0.6,0c0.3,0,0.4-0.3,0.4-0.6c0-0.3-0.1-0.6-0.4-0.6c-0.2,0-0.4,0-0.6,0
			c0,0-0.1,0.1-0.1,0.1C4.1,19,4.1,19.2,4.1,19.4z M4.1,17.4C4.1,17.4,4.1,17.4,4.1,17.4c0,0.1,0,0.3,0,0.4c0,0,0.1,0.1,0.1,0.1
			c0.2,0,0.4,0,0.6,0c0.2,0,0.4-0.3,0.4-0.5c0-0.3-0.1-0.5-0.4-0.5c-0.2,0-0.4,0-0.6,0c0,0-0.1,0.1-0.1,0.1
			C4.1,17.1,4.1,17.2,4.1,17.4z"/>
		<path class="st4" d="M29.4,17.8c0.3-0.2,0.6-0.4,0.9-0.4c0.4,0,0.6,0.1,0.8,0.4c0.2-0.1,0.4-0.3,0.6-0.3c0.3-0.1,0.7-0.1,1,0.1
			c0.2,0.1,0.2,0.3,0.2,0.5c0,0.9,0,1.8,0,2.7c0,0.1,0,0.1-0.1,0.1c-0.3,0-0.6,0-0.8,0c-0.1,0-0.1-0.1-0.1-0.2c0-0.7,0-1.4,0-2
			c0-0.1,0-0.2,0-0.2c0-0.2-0.1-0.3-0.3-0.2c-0.2,0-0.4,0.2-0.4,0.4c0,0.7,0,1.4,0,2.1c0,0.1,0,0.2-0.2,0.2c-0.3,0-0.5,0-0.8,0
			c-0.1,0-0.1,0-0.1-0.1c0-0.7,0-1.4,0-2.1c0,0,0-0.1,0-0.1c0-0.1,0-0.3-0.2-0.4c-0.1,0-0.4,0-0.5,0.2c0,0,0,0.1,0,0.1
			c0,0.7,0,1.4,0,2.2c0,0.1,0,0.1,0,0.2c-0.2,0-0.4,0-0.6,0c-0.1,0-0.2,0-0.3,0c-0.1,0-0.2,0-0.2-0.2c0-1,0-2.1,0-3.1
			c0-0.1,0-0.2,0.2-0.2c0.2,0,0.5,0,0.7,0c0.2,0,0.2,0.1,0.2,0.2C29.4,17.7,29.4,17.7,29.4,17.8z"/>
		<path class="st4" d="M24.1,20.9c0.1-0.3,0.2-0.7,0.2-1c0.3-1.1,0.5-2.2,0.8-3.3c0-0.2,0.1-0.3,0.1-0.5c0-0.1,0.1-0.1,0.2-0.1
			c0.5,0,0.9,0,1.4,0c0.1,0,0.1,0,0.1,0.1c0.2,0.9,0.4,1.7,0.5,2.6c0.1,0.7,0.3,1.3,0.4,2c0,0,0,0.1,0,0.1c-0.1,0-0.1,0-0.2,0
			c-0.3,0-0.6,0-0.9,0c-0.1,0-0.1,0-0.2-0.1c0-0.2-0.1-0.5-0.1-0.7c0-0.1-0.1-0.1-0.2-0.1c-0.3,0-0.6,0-0.9,0c-0.1,0-0.1,0-0.2,0.1
			c-0.1,0.3-0.1,0.5-0.2,0.8c0,0-0.1,0.1-0.1,0.1C24.8,20.9,24.5,20.9,24.1,20.9z M25.6,19c0.3,0,0.6,0,0.8,0
			c-0.1-0.7-0.2-1.3-0.4-2c0,0,0,0-0.1,0C25.8,17.7,25.7,18.3,25.6,19z"/>
		<path class="st4" d="M17.2,29.2c0.3-0.2,0.5-0.3,0.8-0.5c1.5-0.8,3-1.5,4.6-2.2c0.1-0.1,0.3-0.1,0.4,0c0.5,0.2,1.1,0.5,1.6,0.7
			c0,0,0,0,0.1,0c0,0-0.1,0-0.1,0.1c-1.3,0.5-2.5,1.1-3.7,1.7c-0.6,0.3-1.2,0.7-1.8,1c0,0-0.1,0-0.1,0
			C18.4,29.8,17.8,29.5,17.2,29.2C17.2,29.2,17.2,29.2,17.2,29.2z"/>
		<path class="st4" d="M13.9,16c0.3,0,0.7,0,1,0c0,0,0.1,0.1,0.1,0.1c0,0.2,0,0.4,0,0.6c0,0.5,0,1.1,0,1.6c0,0,0,0.1,0,0.1
			c0.1-0.1,0.1-0.1,0.2-0.2c0.2-0.2,0.4-0.5,0.6-0.7c0-0.1,0.1-0.1,0.2-0.1c0.3,0,0.6,0,0.9,0c-0.1,0.2-0.3,0.3-0.4,0.5
			c-0.1,0.2-0.3,0.3-0.4,0.5c-0.1,0.1-0.1,0.1,0,0.2c0.2,0.5,0.4,1,0.6,1.5c0.1,0.2,0.2,0.5,0.3,0.8c-0.4,0-0.7,0-1.1,0
			c0,0-0.1-0.1-0.1-0.1c-0.2-0.4-0.3-0.8-0.5-1.3c0,0,0-0.1-0.1-0.1c-0.1,0.1-0.3,0.2-0.3,0.5c0,0.3,0,0.6,0,0.9
			c0,0.1,0,0.1-0.1,0.1c-0.3,0-0.6,0-0.8,0c-0.1,0-0.1,0-0.1-0.1C13.8,19.2,13.8,17.6,13.9,16C13.8,16,13.9,16,13.9,16z"/>
		<path class="st4" d="M11.4,17.8c0.1-0.1,0.2-0.1,0.3-0.2c0.3-0.2,0.7-0.3,1-0.2c0.3,0.1,0.5,0.3,0.5,0.7c0,0.9,0,1.8,0,2.7
			c0,0,0,0.1-0.1,0.1c-0.3,0-0.7,0-1,0c0-0.1,0-0.1,0-0.2c0-0.7,0-1.4,0-2c0,0,0-0.1,0-0.1c0-0.1,0-0.3-0.2-0.4
			c-0.1,0-0.3,0-0.4,0.2c0,0,0,0.1,0,0.1c0,0.7,0,1.5,0,2.2c0,0.1,0,0.2-0.2,0.2c-0.3,0-0.5,0-0.8,0c-0.1,0-0.1,0-0.1-0.1
			c0-1.1,0-2.1,0-3.2c0-0.1,0-0.1,0.1-0.1c0.2,0,0.5,0,0.7,0c0.2,0,0.2,0,0.2,0.2C11.4,17.7,11.4,17.7,11.4,17.8z"/>
		<path class="st4" d="M22,26.2c-0.4,0.2-0.8,0.3-1.2,0.5c-1.2,0.5-2.3,1-3.4,1.6c-0.4,0.2-0.7,0.4-1,0.6c0,0-0.1,0-0.1,0
			c-0.6-0.2-1.1-0.4-1.7-0.7c0.2-0.1,0.4-0.2,0.7-0.4c1.2-0.6,2.4-1.1,3.6-1.6c0.5-0.2,1-0.4,1.5-0.5c0,0,0.1,0,0.1,0
			C21,25.9,21.5,26,22,26.2z"/>
		<path class="st4" d="M17.7,19.2c0-0.4,0-0.7,0.2-1c0.2-0.5,0.6-0.8,1.1-0.8c0.7-0.1,1.3,0.2,1.6,0.9c0.1,0.3,0.2,0.6,0.2,0.9
			c0,0.3,0,0.6-0.1,0.8c-0.2,0.6-0.7,1-1.4,1c-0.3,0-0.6,0-0.8-0.2c-0.5-0.3-0.7-0.7-0.7-1.2C17.8,19.4,17.8,19.3,17.7,19.2z
			 M18.9,19.2c0,0.2,0.1,0.6,0.1,0.9c0,0.1,0.1,0.2,0.3,0.2c0.1,0,0.2,0,0.3-0.2c0-0.1,0.1-0.1,0.1-0.2c0.1-0.5,0.1-1.1,0-1.6
			c0-0.2-0.2-0.3-0.4-0.3c-0.2,0-0.3,0.1-0.4,0.3C18.9,18.6,18.9,18.9,18.9,19.2z"/>
		<path class="st4" d="M6.9,18.3c0-0.3,0.2-0.5,0.4-0.6c0.5-0.4,1.5-0.4,2,0c0.2,0.2,0.4,0.4,0.4,0.7c0,0.7,0,1.3,0,2
			c0,0.2,0,0.4,0,0.5c-0.3,0-0.7,0-1.1,0c0-0.1,0-0.2-0.1-0.3c-0.1,0.1-0.2,0.1-0.3,0.2c-0.4,0.2-0.7,0.2-1.1,0
			c-0.6-0.4-0.6-1.3,0-1.7c0.4-0.3,0.8-0.4,1.2-0.4c0.1,0,0.2-0.1,0.2-0.2c0-0.1,0-0.1,0-0.2c0-0.1-0.1-0.3-0.2-0.3
			c-0.1,0-0.3,0-0.4,0.2c0,0.1-0.1,0.2-0.1,0.3C7.5,18.4,7.2,18.3,6.9,18.3z M8.5,19.6C8.5,19.6,8.5,19.6,8.5,19.6
			c0-0.1,0-0.2,0-0.3c0-0.1,0-0.1-0.1-0.1c-0.4,0-0.6,0.3-0.6,0.7c0,0.2,0.1,0.4,0.3,0.4c0.2,0,0.4-0.2,0.4-0.4
			C8.5,19.8,8.5,19.7,8.5,19.6z"/>
		<path class="st4" d="M47.2,20.9c-0.3,0-0.6,0-1,0c-0.1,0-0.1,0-0.1-0.1c0-0.1,0-0.1,0-0.2c-0.1,0.1-0.2,0.1-0.3,0.2
			c-0.4,0.2-0.9,0.2-1.1,0c-0.5-0.4-0.5-1.2,0-1.6c0.4-0.3,0.8-0.4,1.3-0.5c0.1,0,0.2-0.1,0.2-0.2c0-0.1,0-0.1,0-0.2
			c0-0.2-0.1-0.3-0.3-0.3c-0.2,0-0.3,0.1-0.4,0.2c0,0.1,0,0.2-0.1,0.2c-0.1,0-0.2,0-0.2,0c-0.2,0-0.4-0.1-0.5-0.1
			c-0.1,0-0.1-0.1-0.1-0.2c0.1-0.4,0.4-0.6,0.8-0.7c0.4-0.1,0.8-0.1,1.2,0.1c0.5,0.2,0.7,0.5,0.7,1c0,0.6,0,1.2,0,1.9
			C47.2,20.5,47.2,20.7,47.2,20.9z M46.1,19.6L46.1,19.6c0-0.1,0-0.2,0-0.3c0-0.1,0-0.1-0.1-0.1c-0.5,0.1-0.7,0.4-0.6,0.8
			c0,0.1,0.1,0.2,0.2,0.2c0.2,0.1,0.5-0.1,0.5-0.4C46.1,19.8,46.1,19.7,46.1,19.6z"/>
		<path class="st4" d="M35.6,19.8c0.2,0.1,0.5,0.2,0.7,0.2c-0.1,0.3-0.3,0.5-0.5,0.7c-0.7,0.5-1.9,0.4-2.3-0.8
			c-0.2-0.7-0.2-1.3,0.2-1.9c0.5-0.8,2-0.9,2.4,0.2c0.2,0.4,0.2,0.8,0.2,1.1c0,0.1-0.1,0.1-0.2,0.1c-0.5,0-1,0-1.5,0
			c-0.2,0-0.2,0-0.2,0.2c0,0.1,0,0.2,0.1,0.3c0.1,0.2,0.2,0.3,0.4,0.4c0.2,0,0.4-0.1,0.5-0.3C35.6,19.9,35.6,19.8,35.6,19.8z
			 M35,18.7C35,18.7,35,18.7,35,18.7c0.1,0,0.2,0,0.3,0c0,0,0.1-0.1,0.1-0.1c0-0.1,0-0.3-0.1-0.4C35.2,18.1,35.1,18,35,18
			c-0.2,0-0.3,0.1-0.3,0.2s-0.1,0.3-0.1,0.4c0,0.1,0,0.1,0.1,0.1C34.7,18.7,34.8,18.7,35,18.7z"/>
		<path class="st4" d="M23.3,16.7c-0.2,0-0.3,0-0.4,0c-0.1,0-0.2,0.1-0.2,0.2c0,0.1,0,0.2,0,0.4c0,0,0.1,0.1,0.1,0.1
			c0.1,0,0.3,0,0.4,0c0.1,0,0.1,0,0.1,0.1c0,0.2,0,0.3,0,0.5c0,0.1,0,0.1-0.1,0.1c-0.1,0-0.2,0-0.3,0c-0.1,0-0.2,0-0.2,0.2
			c0,0.8,0,1.5,0,2.3c0,0.2,0,0.2-0.2,0.2c-0.2,0-0.4,0-0.7,0c-0.2,0-0.2,0-0.2-0.2c0-0.8,0-1.6,0-2.3c0-0.1,0-0.2-0.2-0.2
			c-0.3,0-0.3,0-0.3-0.3c0-0.1,0-0.2,0-0.4c0-0.1,0-0.1,0.1-0.1c0.3,0,0.3,0,0.3-0.3c0-0.2,0-0.5,0.1-0.7c0.1-0.4,0.5-0.5,0.9-0.5
			c0.2,0,0.4,0,0.6,0c0,0,0.1,0.1,0.1,0.1C23.3,16.2,23.3,16.5,23.3,16.7z"/>
		<path class="st4" d="M43.9,19.7c0,0.5-0.3,1-0.8,1.2c-0.5,0.1-0.9,0.1-1.4-0.1c-0.4-0.3-0.6-0.7-0.7-1.1c-0.1-0.6,0-1.1,0.3-1.6
			c0.4-0.7,1.2-0.9,1.9-0.5c0.4,0.2,0.7,0.7,0.7,1.2c-0.3,0-0.6,0-0.8,0c0,0-0.1-0.1-0.1-0.1c0-0.1,0-0.3-0.1-0.4
			c0-0.1-0.2-0.2-0.3-0.2c-0.1,0-0.2,0.1-0.3,0.2c-0.1,0.1-0.1,0.3-0.1,0.5c0,0.4,0,0.8,0,1.2c0.1,0.2,0.2,0.3,0.4,0.3
			c0.2,0,0.4-0.1,0.4-0.4c0-0.1,0-0.2,0-0.3C43.4,19.6,43.7,19.6,43.9,19.7z"/>
		<path class="st4" d="M27.1,26.4c-0.4,0.2-0.9,0.3-1.3,0.5c-0.3,0.1-0.5,0.1-0.7,0c-1.3-0.6-2.7-1.1-4-1.6
			c-0.2-0.1-0.4-0.1-0.7-0.2c0.3-0.1,0.5-0.2,0.7-0.2c0.3-0.1,0.7-0.2,1-0.3c0.1,0,0.1,0,0.2,0C23.8,25,25.4,25.6,27.1,26.4
			C27,26.4,27,26.4,27.1,26.4z"/>
		<path class="st4" d="M29.7,25.6c-0.2,0-0.4,0.1-0.5,0.1c-0.3,0.1-0.7,0.2-1,0.3c-0.1,0-0.2,0-0.2,0c-1.5-0.7-3.1-1.3-4.7-1.8
			c0,0-0.1,0-0.1-0.1c0.3-0.1,0.5-0.1,0.8-0.2c0.1,0,0.2,0,0.3-0.1c0.3-0.1,0.6-0.1,0.9,0c1.1,0.3,2.3,0.7,3.4,1.2
			C28.9,25.3,29.3,25.5,29.7,25.6C29.7,25.6,29.7,25.6,29.7,25.6z"/>
		<path class="st4" d="M38,20.9c-0.3,0-0.7,0-1,0c0,0-0.1-0.1-0.1-0.1c0-0.4,0-0.7,0-1.1c0-0.7,0-1.4,0-2c0-0.1,0-0.2,0.2-0.2
			c0.3,0,0.6,0,0.9,0c0,0.1,0,0.3,0,0.4c0,0,0,0,0,0c0.3-0.3,0.6-0.5,1.1-0.5c0,0.4,0,0.7,0,1c-0.2,0-0.5,0-0.7,0
			c-0.3,0-0.4,0.2-0.4,0.4c0,0.6,0,1.2,0,1.8C38,20.7,38,20.8,38,20.9z"/>
		<path class="st4" d="M39.4,17.4c0.4,0,0.7,0,1.1,0c0,0.1,0,0.1,0,0.2c0,1,0,2.1,0,3.1c0,0.1,0,0.2-0.1,0.2c-0.3,0-0.5,0-0.8,0
			c-0.1,0-0.1,0-0.1-0.1C39.4,19.7,39.4,18.6,39.4,17.4C39.4,17.5,39.4,17.5,39.4,17.4z"/>
		<path class="st4" d="M40.5,16c0,0.3,0,0.6,0,0.9c0,0-0.1,0.1-0.1,0.1c-0.3,0-0.6,0-0.9,0c-0.1,0-0.1,0-0.1-0.1c0-0.2,0-0.5,0-0.7
			c0,0,0-0.1,0.1-0.1C39.8,16,40.2,16,40.5,16z"/>
	</g>
</g>
<g id="disney" class="st0">
	<g class="st3">
		<g>
			<path class="st4" d="M22.8,23.6c-0.7,0-0.6,3.7-0.5,4.5c0.1,0.7,0.2,0.9,0.7,1c0.5,0.1,0.6-0.8,0.6-1.2
				C23.5,27.5,23.8,23.6,22.8,23.6"/>
			<path class="st4" d="M27.1,24.7c1.2-0.1,2.5-0.1,2.5-0.8c0-0.6-3.4-0.7-4.7,0.1c-1.1,0.6-1.5,1.9,0.1,2.1c1,0.2,3.5,0,3.5,0.8
				c0,1.1-4.3,1.3-3.6,0.3c0.5-0.7,1,0.3,2.2,0.3c0.6,0,1.8-0.7-0.1-1c-1.9-0.3-2.4,0.2-2.6,0.7c-0.2,0.5,0.4,2,2.8,1.9
				c2.1-0.1,2.4-1.6,2.3-2.2c-0.3-2-4.3-1.1-4.3-1.7C25.2,24.9,26.1,24.7,27.1,24.7"/>
			<path class="st4" d="M32.7,22.6c-0.6,0.1,1.1,4,0.4,4.2c-0.3,0.1-1.6-3-2.4-2.9c-0.7,0.1-1.6,5-0.4,5.1c0.9,0.1,0.5-3,0.9-3.1
				c0.3,0,1.1,2.6,2,2.7c0.8,0.1,1.3-0.7,1.3-2C34.6,25.1,33.5,22.5,32.7,22.6"/>
			<path class="st4" d="M37.9,27.2c-0.4,0.1-1.4,0.4-1.6,0.3c-0.2-0.1-0.1-0.9,0.2-1c0.2-0.1,1.1,0,1.4-0.1c0.7-0.1,0.8-0.9,0.1-1
				c-0.6,0-0.9,0.1-1.2,0c-0.1-0.3,0.1-0.6,0.3-0.7c0.2-0.1,1.9,0,2.2-0.3c0.2-0.2-0.2-1-0.6-1.1c-0.5-0.1-3.2,0.2-3.4,0.3
				c-0.3,0.1-0.4,0.4-0.2,0.5c0.2,0.2,0.6,0.3,0.7,0.5c0,0.1-0.1,0.6-0.3,0.7c-0.2,0.1-0.6,0.1-0.5,0.7c0.2,0.5-1,2.1,0.4,3
				c0.8,0.5,2.4-0.5,2.8-0.8C38.7,28.1,38.8,27.1,37.9,27.2"/>
			<path class="st4" d="M41.8,27.5c0.2-0.7,1.6-2.7,1.8-2.6C44.4,25.2,43.3,27.7,41.8,27.5 M43.5,23.7c-1-0.1-3.1,2.9-3.2,2.8
				c-0.3-0.2,0.6-1.8,0.9-2.3c0.5-0.8,0.2-2-1.4,0.7c-0.3,0.6-0.9,1.5-0.3,3.1c-0.3,0.7-1.3,3.5-1.1,4.2c0.2,0.7,0.8,1,1.2,0.9
				c0.1-0.3,0.8-3.6,1.3-4c0.9,0,2.6-0.6,3.3-2C45,25.7,44.6,23.9,43.5,23.7z"/>
			<path class="st4" d="M11.9,28c-0.3,0.2-3.2-1.4-3.2-2c0-0.5,3-1,3.2-0.9C12,25.2,11.9,27.9,11.9,28 M9.6,17.5
				c-3.3,0.1-3.9,1.1-3.6,1.7c0.2,0.4,1.2,0.3,1.2,0c0-0.3-0.4-0.3-0.4-0.4c0-0.3,2.5-0.4,4.8,0c5,0.9,8.6,4.2,8.7,6.6
				c0.1,3.8-6.2,3.4-6.8,2.9c0-0.2,0-3,0-3.3c0.6-0.1,3.5,0,3.5,0.7c0,0.7-0.6,0.6-0.6,0.8c0.1,0.6,1.9,0.1,1.8-1
				c-0.1-1.8-4.1-1.8-4.7-1.8c0-0.4,0.1-2.7-0.8-2.7c-0.7,0-0.7,2.1-0.7,2.8c-1.1,0.1-3.8,1-3.7,2c0.2,1.4,2.4,2.9,3.7,3.5
				c0,1.9,1.6,1.5,1.6,0.6c6.9,1,8.3-2.7,8.3-4.2C21.7,20.5,13.2,17.4,9.6,17.5z"/>
			<path class="st4" d="M25.4,19.9c0.8,0.8-1.6,2-2.5,1.7C23,21.1,24.8,19.3,25.4,19.9 M21.8,20.9c-0.1-0.1,0.4-1,1-1.1
				C22.5,20.5,21.9,21,21.8,20.9z M25.9,21.1c0.9-1.1,0.3-1.9-0.4-2c-0.2,0-0.6-0.8-1.9-0.6c-1.3,0.2-2.8,1.6-2.7,2.4
				c0.1,0.9,0.3,0.6,0.3,1.1c0.1,0.4,0,0.9,0.4,0.9c0.4,0.1,0.5-0.3,0.5-0.3C23,22.7,24.3,23,25.9,21.1z"/>
		</g>
	</g>
</g>
<g id="ogilvy" class="st0">
	<g class="st3">
		<path class="st4" d="M11.3,28.6c-2.1,0-3.7-0.7-4.8-2.2c-1-1.3-1.2-2.8-0.8-4.4c0.6-2.4,2.2-3.7,4.5-4.1c1.9-0.3,3.6,0.1,5,1.5
			c1.3,1.3,1.7,2.9,1.4,4.6c-0.3,2-1.4,3.4-3.3,4.2C12.6,28.5,11.8,28.6,11.3,28.6z M14.4,22.9c0-0.7-0.2-1.7-0.7-2.7
			c-0.6-1.1-1.4-1.8-2.6-1.8c-1.2,0-2.1,0.6-2.6,1.6c-0.6,1-0.7,2-0.7,3.1c0,1.3,0.2,2.5,1,3.6c1.2,1.7,3.4,1.6,4.6,0.1
			C14.1,25.8,14.4,24.5,14.4,22.9z"/>
		<path class="st4" d="M18.5,26.3c-0.2-0.2-0.4-0.3-0.5-0.5c-1.1-1.2-0.7-3.2,0.9-3.8c0.7-0.3,1.3-0.5,2.8-0.1
			c0.1-0.4,0.1-0.9,0.2-1.3c0.4-1.2,1.6-1.9,3-1.8c0.6,0,1.2,0.2,1.6,0.7c0.2,0.3,0.2,0.8-0.1,1.2c-0.2,0.3-0.7,0.4-1.1,0.3
			c-0.3-0.1-0.6-0.5-0.6-0.9c0-0.5-0.2-0.6-0.6-0.5c-1.1,0.2-1.7,1-1.7,2.2c0,0.4,0.1,0.8,0.4,1.1c0.7,0.9,0.5,2.5-0.5,3.2
			c-0.6,0.5-1.3,0.7-2.1,0.7c-0.5,0-1.1,0.1-1.6,0.1c-0.1,0-0.2,0-0.2,0.1c-0.4,0.2-0.6,0.5-0.5,0.8c0.1,0.3,0.4,0.5,0.8,0.4
			c0.8-0.1,1.6-0.2,2.4-0.3c0.5,0,1-0.1,1.5,0.1c1.1,0.3,1.4,1.2,1.2,2.2c-0.3,1.4-1.6,2.5-3.1,2.5c-0.7,0-1.4,0-2-0.2
			c-0.7-0.3-1.2-0.7-1.3-1.5c0-0.3,0-0.6,0.3-0.7c0.2-0.1,0.4-0.1,0.6-0.1c0.3,0.1,0.3,0.3,0.4,0.6c0,0.9,0.4,1.2,1.3,1.3
			c0.8,0,1.5,0,2.1-0.5c0.4-0.3,0.6-0.8,0.6-1.3c0-0.4-0.3-0.7-0.7-0.7c-0.6,0-1.1,0.1-1.7,0.1c-0.8,0.1-1.5,0.3-2.3,0.1
			c-0.7-0.2-1.2-0.7-1.3-1.3c-0.1-0.8,0.2-1.5,0.9-1.8C17.9,26.5,18.2,26.4,18.5,26.3z M21.6,24.2c-0.1-0.6-0.2-1.2-0.6-1.6
			c-0.5-0.5-1.2-0.5-1.6,0.1c-0.6,0.8-0.6,2.2,0,3c0.5,0.7,1.4,0.7,1.8-0.1C21.4,25.1,21.4,24.6,21.6,24.2z"/>
		<path class="st4" d="M35,26.6c0.2-0.4,0.3-0.8,0.5-1.2c0.3-0.8,0.6-1.6,0.9-2.3c0.2-0.5,0.1-0.6-0.4-0.6c-0.3,0-0.4-0.2-0.3-0.5
			c1.7,0,3.5,0,5.2,0c0.1,0.3,0,0.5-0.3,0.5c-0.4,0-0.5,0.2-0.4,0.5c0.4,1.1,0.9,2.3,1.3,3.4c0,0,0,0.1,0.1,0.1
			c0.2-0.5,0.4-1,0.6-1.5c0.3-0.6,0.5-1.2,0.8-1.8c0.2-0.5,0.1-0.6-0.4-0.7c-0.2,0-0.4,0-0.3-0.3c0-0.1,0.1-0.2,0.2-0.2
			c0.8,0,1.6,0,2.4,0c0,0.2,0,0.3,0,0.5c-1,0-1.1,0.8-1.3,1.4c-1,2.3-2,4.6-2.9,6.9c-0.3,0.7-0.7,1.4-1.4,1.8
			c-0.3,0.2-0.7,0.2-1.1,0.1c-0.3-0.1-0.5-0.4-0.5-0.7c0.1-0.3,0.4-0.6,0.7-0.6c0.1,0,0.1,0,0.2,0c0.7,0.1,1.1-0.2,1.4-0.8
			c0.2-0.6,0.5-1.2,0.7-1.7c0-0.1,0-0.2,0-0.3c-0.8-1.9-1.5-3.8-2.3-5.7c-0.1-0.2-0.3-0.3-0.5-0.3c-0.3,0-0.4,0.1-0.5,0.4
			c-0.7,1.8-1.5,3.5-2.1,5.3c-0.2,0.5-0.6,0.3-0.9,0.4c-0.3,0.1-0.4-0.2-0.5-0.4c-0.7-1.7-1.4-3.5-2.1-5.2c-0.1-0.2-0.3-0.4-0.4-0.4
			c-0.4,0-0.3-0.2-0.3-0.5c0.1,0,0.2,0,0.3,0c0.9,0,1.8,0,2.8,0c0.1,0,0.3,0.1,0.3,0.2c0.1,0.2-0.1,0.3-0.3,0.3c0,0-0.1,0-0.1,0
			c-0.4,0.1-0.5,0.2-0.3,0.5c0.3,0.8,0.6,1.6,0.9,2.4C34.6,25.7,34.8,26.1,35,26.6C35,26.6,35,26.6,35,26.6z"/>
		<path class="st4" d="M26.6,21.7c0,0.2,0,0.3,0,0.5c0,1.8,0,3.5,0,5.3c0,0.4,0.2,0.5,0.5,0.5c0.4,0,0.7,0,1.1,0
			c0.3,0,0.5-0.1,0.4-0.5c0-2.9,0-5.7,0-8.6c0-0.3-0.1-0.4-0.3-0.5c-0.1,0-0.1,0-0.2-0.1c-0.1-0.1-0.3-0.2-0.4-0.3
			c0.1-0.1,0.3-0.2,0.4-0.2c0.6-0.2,1.3-0.3,1.9-0.5c0.1,0,0.2,0,0.3,0c0,0.2,0,0.3,0,0.4c0,3.2,0,6.4,0,9.6c0,0.5,0,0.6,0.6,0.6
			c0.4,0,0.4,0.2,0.3,0.5c-2.4,0-4.8,0-7.1,0c0-0.2,0-0.3,0-0.4c0,0,0.1,0,0.1,0c0.7-0.1,0.7-0.1,0.7-0.8c0-1.3,0-2.5,0-3.8
			c0-0.3-0.1-0.5-0.4-0.6c-0.1,0-0.2,0-0.3-0.1c-0.1-0.1-0.1-0.2-0.2-0.2c0.1-0.1,0.1-0.2,0.2-0.2c0.7-0.2,1.4-0.4,2-0.5
			C26.3,21.7,26.4,21.7,26.6,21.7z"/>
	</g>
</g>
<g id="ey" class="st0">
	<g class="st3">
		<path class="st4" d="M9.6,38.1c0-0.1,0-0.2,0-0.3c0-3.6,0-7.2,0-10.7c0-0.2,0-0.2,0.2-0.2c2,0,3.9,0,5.9,0c0.1,0,0.2,0,0.3,0.2
			c0.4,0.8,0.9,1.6,1.3,2.3c0,0,0,0,0,0.1c-1.5,0-3,0-4.5,0c0,0.1,0,0.3,0,0.4c0,0.4,0,0.9,0,1.3c0,0.2,0,0.2,0.2,0.2
			c1.2,0,2.4,0,3.6,0c0.2,0,0.2,0,0.2,0.2c0,0.6,0,1.2,0,1.9c0,0.2,0,0.2-0.2,0.2c-1.2,0-2.4,0-3.7,0c-0.2,0-0.2,0-0.2,0.2
			c0,0.5,0,1,0,1.5c0,0.2,0,0.2,0.2,0.2c1.7,0,3.5,0,5.2,0c0.2,0,0.2,0,0.2,0.2c0,0.8,0,1.6,0,2.3C15.6,38.1,12.6,38.1,9.6,38.1z"/>
		<path class="st4" d="M21,38.1c0-0.1,0-0.1,0-0.2c0-1.3,0-2.7,0-4c0-0.2,0-0.3-0.1-0.5c-0.9-1.6-1.9-3.2-2.8-4.8
			c-0.3-0.6-0.6-1.1-1-1.7c0.1,0,0.1,0,0.2,0c1.1,0,2.2,0,3.3,0c0.1,0,0.2,0,0.2,0.2c0.5,0.9,1,1.9,1.5,2.8c0.1,0.2,0.2,0.5,0.4,0.7
			c0.1-0.1,0.1-0.2,0.2-0.3c0.6-1.1,1.1-2.2,1.7-3.3c0.1-0.1,0.2-0.2,0.3-0.2c1.1,0,2.1,0,3.2,0c0.1,0,0.1,0,0.2,0
			c-0.1,0.3-0.3,0.5-0.4,0.7c-1,1.8-2,3.5-3,5.3c-0.1,0.1-0.1,0.3-0.2,0.4c-0.2,0.3-0.3,0.6-0.3,0.9c0,1.2,0,2.5,0,3.7
			c0,0.1,0,0.2,0,0.2C23.3,38.1,22.1,38.1,21,38.1z"/>
	</g>
	<polygon class="st2" points="9.4,23.4 40.6,12 40.6,17.7 	"/>
</g>
<g id="tiaa" class="st0">
	<path class="st2" d="M10.2,18.4c-1.2,0.7-2.4,1.4-1.8,3.4c1.4,0,2.9,0,4.6,0c0,1.7,0,3.3,0,4.8c1.9,0,3-0.6,3.1-1.9
		c0.1-2.1-0.1-4.2-0.2-6.3C14,18.4,12.1,18.4,10.2,18.4z"/>
	<path class="st2" d="M7.7,19.5c-1,1-1.8,1.9-2.7,2.8c0,2.4,0,4.9,0,7.3c1.7,0,3.5,0.1,5.1,0.1c2.2-0.1,3.6-0.8,4.8-2.6
		c-2.5,0-4.8,0-7.2,0C7.7,24.5,7.7,22.2,7.7,19.5z"/>
	<path class="st2" d="M40.1,24.8l0.8-2C40.7,23.5,40.4,24.1,40.1,24.8z"/>
	<path class="st5" d="M41,22.8c-0.3,0.6-0.5,1.3-0.8,2c0.6,0,1.2,0,1.8,0c-0.3-0.7-0.6-1.4-0.8-2C41.1,22.8,41,22.8,41,22.8z"/>
	<path class="st2" d="M37,28.4C37,28.3,37,28.3,37,28.4C37,28.3,37,28.3,37,28.4C37,28.3,37,28.3,37,28.4z"/>
	<path class="st2" d="M44.8,27.8c-1.1-2.5-2.1-5.1-3.2-7.6c-0.1-0.3-0.2-0.5-0.6-0.5c-0.4,0-0.4,0.2-0.6,0.5
		c-1.1,2.5-2.1,5.1-3.2,7.6c0,0.1-0.1,0.2-0.1,0.3c0,0,0,0.1,0,0.1c0,0.1-0.1,0.1-0.1,0.2c0.2,0,0.5,0,0.7,0c0.9,0,0.9,0,1.3-0.9
		c0.5-1.2,0.5-1.2,1.9-1.2c0.5,0,1.1-0.2,1.5,0.1c0.4,0.2,0.5,0.9,0.7,1.4c0.1,0.1,0.1,0.3,0.2,0.4c0.1,0.1,0.2,0.2,0.4,0.3
		c0.4,0,0.9,0,1.4,0C44.9,28.1,44.9,28,44.8,27.8z M40.1,24.8c0.3-0.7,0.6-1.3,0.8-2c0,0,0.1,0,0.1,0c0.3,0.6,0.5,1.3,0.8,2
		C41.3,24.8,40.8,24.8,40.1,24.8z"/>
	<path class="st2" d="M32.1,24.8l0.8-2C32.7,23.5,32.4,24.1,32.1,24.8z"/>
	<path class="st5" d="M33,22.8c-0.3,0.6-0.5,1.3-0.8,2c0.6,0,1.2,0,1.8,0c-0.3-0.7-0.6-1.4-0.8-2C33.1,22.8,33,22.8,33,22.8z"/>
	<path class="st2" d="M29,28.4C29,28.3,29,28.3,29,28.4C29,28.3,29,28.3,29,28.4C29,28.3,29,28.3,29,28.4z"/>
	<path class="st2" d="M36.8,27.8c-1.1-2.5-2.1-5.1-3.2-7.6c-0.1-0.3-0.2-0.5-0.6-0.5c-0.4,0-0.4,0.2-0.6,0.5
		c-1.1,2.5-2.1,5.1-3.2,7.6c0,0.1-0.1,0.2-0.1,0.3c0,0,0,0.1,0,0.1c0,0.1-0.1,0.1-0.1,0.2c0.2,0,0.5,0,0.7,0c0.9,0,0.9,0,1.3-0.9
		c0.5-1.2,0.5-1.2,1.9-1.2c0.5,0,1.1-0.2,1.5,0.1c0.4,0.2,0.5,0.9,0.7,1.4c0.1,0.1,0.1,0.3,0.2,0.4c0.1,0.1,0.2,0.2,0.4,0.3
		c0.4,0,0.9,0,1.4,0C36.9,28.1,36.9,28,36.8,27.8z M32.1,24.8c0.3-0.7,0.6-1.3,0.8-2c0,0,0.1,0,0.1,0c0.3,0.6,0.5,1.3,0.8,2
		C33.3,24.8,32.8,24.8,32.1,24.8z"/>
	<path class="st2" d="M25.7,19.8c-2,0-4.1,0-6.1,0c-0.1,0-0.3,0.2-0.4,0.3c0,0.4,0,0.7,0,1.2c0.9,0,1.7,0,2.6,0c0,2.4,0,4.7,0,7
		c0.6,0,1,0,1.6,0c0-2.4,0-4.7,0-7c0.9,0,1.7,0,2.6,0c0-0.4,0-0.8,0-1.1C26,20,25.8,19.8,25.7,19.8z"/>
	<path class="st2" d="M27,19.9c-0.1,0-0.2,0.4-0.2,0.6c0,2.2,0,4.3,0,6.5c0,1.4,0,1.4,1.5,1.3c0-0.1,0.1-0.1,0.1-0.1
		c0-2.7,0-5.3,0-8c0-0.1,0-0.3-0.1-0.3C27.9,19.9,27.5,19.8,27,19.9z"/>
	<rect x="26.8" y="19.9" class="st2" width="1.6" height="8.5"/>
</g>
<g id="mhe">
	<g>
		<path class="st6" d="M13.9,14.1v20.8h20.7V14.1H13.9z M34.5,34.8H14.1V14.1h20.5V34.8z"/>
		<path class="st6" d="M14.1,34.8h20.5V14.1H14.1V34.8z M19.6,34.4h-1.5V32h-1.9v2.4h-1.5v-6.2h1.5v2.3h1.9v-2.3h1.5V34.4z
			 M21.4,34.4h-1.3v-4.4h1.3V34.4z M21.4,29.3h-1.3v-1.1h1.3V29.3z M23.3,34.4H22v-6.2h1.3V34.4z M25.3,34.4H24v-6.2h1.3V34.4z
			 M28.9,23.3l0.4,3.4h0.1l0.6-3.4h1.5l0.6,3.4h0.1l0.5-3.4h1.2l-0.7,4.4h-1.8l-0.5-3.1h0l-0.5,3.1h-1.9l-0.7-4.4
			C27.7,23.3,28.9,23.3,28.9,23.3z M27.4,24.9v2.7h-1.3l0-0.6h0c-0.1,0.6-0.7,0.7-1.1,0.7c-0.9,0-1.4-0.2-1.4-1.4
			c0-1,0.5-1.4,1.4-1.4c0.4,0,0.9,0,1.1,0.5h0.1v-0.7c0-0.4,0-0.7-0.6-0.7c-0.3,0-0.5,0.1-0.5,0.5h-1.3c0-1.4,0.9-1.3,1.8-1.3
			C26.8,23.2,27.4,23.4,27.4,24.9z M23.9,16.5c1.1,0,1.9,0.1,1.9,1.7h-1.3c0-0.2,0-0.4-0.1-0.5c-0.1-0.1-0.2-0.1-0.5-0.1
			c-0.5,0-0.6,0.1-0.6,1.1c0,1,0.1,1.1,0.6,1.1c0.6,0,0.6-0.2,0.6-0.7h1.3c0,0.8-0.1,1.3-0.4,1.5c-0.3,0.2-0.8,0.3-1.5,0.3
			c-1.5,0-1.9-0.5-1.9-2.2C22.1,17.2,22.3,16.5,23.9,16.5z M22.3,23.2c0.9,0,1,0.8,1,1.6v0.3h-1.2V25c0-0.3,0-0.6-0.3-0.6
			c-0.4,0-0.5,0.3-0.5,0.7v2.6h-1.3v-4.4h1.2v0.6h0.1C21.5,23.4,21.9,23.2,22.3,23.2z M14.6,14.7H17l1.1,3.9h0.1l1-3.9h2.4v6.2H20
			l0.1-4.8h-0.1l-1.4,4.8h-1.3L16,16.1h0l0.1,4.8h-1.5C14.6,20.9,14.6,14.7,14.6,14.7z M14.4,23.7c0-2.1,1-2.4,2.6-2.4
			c1.4,0,2.5,0,2.5,2H18c0-0.6-0.5-0.6-1-0.6c-1.1,0-1.1,0.4-1.1,1.4v1c0,1.1,0.3,1.2,1.1,1.2c0.8,0,1-0.2,1-1.1h-1v-1.2h2.5v1.1
			c0,2.1-0.5,2.5-2.5,2.5c-1.8,0-2.6-0.3-2.6-2.4V23.7z"/>
		<path class="st6" d="M25.4,25.9c-0.3,0-0.6,0.1-0.6,0.5c0,0.5,0.4,0.5,0.6,0.5c0.5,0,0.7-0.1,0.7-0.5
			C26.1,25.9,25.8,25.9,25.4,25.9z"/>
	</g>
</g>
<g id="jpmorgan" class="st0">
	<g class="st3">
		<path class="st4" d="M36.3,22.1c-0.2-0.1-0.4,0.1-0.5,0.3c0,0,0,0.1,0,0.1c-0.1,0.2-0.3,0.3-0.5,0.2c-0.7-0.5-1.4-0.6-2.2-0.2
			c-0.9,0.4-1.2,1.7-0.6,2.5c0.2,0.3,0.5,0.4,0.8,0.5c0,0,0.1,0,0.1,0c0,0,0,0,0,0c0,0-0.1,0-0.1,0c-0.3,0.1-0.6,0.1-0.8,0.3
			c-0.5,0.3-0.4,1.1,0.1,1.3c0.2,0.1,0.4,0.1,0.6,0.2c0.4,0,0.9,0,1.3,0.1c0.3,0,0.5,0,0.7,0.1c0.5,0.2,0.6,0.7,0.3,1.1
			c-0.1,0.1-0.2,0.2-0.4,0.3c-0.3,0.1-0.6,0.2-1,0.2c-0.3,0-0.7,0-1-0.2c-0.3-0.1-0.4-0.4-0.4-0.7c0,0,0-0.1,0-0.1
			c0-0.3-0.3-0.4-0.5-0.3c-0.1,0.1-0.2,0.2-0.2,0.3c-0.1,0.4,0,0.8,0.4,1c0.2,0.1,0.3,0.2,0.5,0.2c0.3,0.1,0.5,0.1,0.8,0.1
			c0.1,0,0.3,0,0.4,0c0,0,0.1,0,0.1,0c0.2,0,0.5-0.1,0.7-0.1c0.5-0.2,0.9-0.4,1.1-1c0.2-0.5,0.1-1-0.3-1.4c-0.3-0.2-0.6-0.3-0.9-0.3
			c-0.5,0-1,0-1.5-0.1c-0.1,0-0.3,0-0.4-0.1c-0.2-0.1-0.3-0.3-0.1-0.5c0.1-0.1,0.1-0.1,0.2-0.1c0.2-0.1,0.4-0.1,0.5-0.1
			c0.4-0.1,0.8-0.1,1.1-0.3c0.7-0.3,1.1-0.8,1-1.6c0-0.2-0.1-0.4-0.1-0.6c0.1,0,0.2,0,0.3,0c0.3,0,0.6-0.2,0.7-0.5
			C36.6,22.4,36.4,22.2,36.3,22.1z M34.7,24.8c-0.1,0.4-0.3,0.5-0.7,0.5c0,0,0,0,0,0c-0.6,0-0.8-0.2-0.9-0.7
			c-0.1-0.5-0.1-0.9,0.1-1.4c0.1-0.3,0.3-0.6,0.6-0.6c0.4-0.1,0.8,0.1,0.9,0.5c0.1,0.3,0.1,0.6,0.2,0.9
			C34.8,24.2,34.8,24.5,34.7,24.8z"/>
		<path class="st4" d="M22.2,26c0-0.1,0-0.2,0-0.3c0-1.5,0-3.1,0-4.7c0,0,0-0.1,0-0.1c0.2,0,0.4,0,0.6,0c0-0.1,0-0.1,0-0.2
			c0,0-0.1,0-0.1,0c-0.4,0-0.9,0-1.3,0c-0.1,0-0.1,0-0.2,0.1c-0.6,1.5-1.2,2.9-1.8,4.4c0,0-0.1,0.1-0.1,0.1c0,0-0.1-0.1-0.1-0.1
			c0,0,0,0,0,0c-0.6-1.5-1.2-2.9-1.9-4.4c0-0.1-0.1-0.1-0.2-0.1c-0.5,0-1,0-1.5,0c0,0-0.1,0-0.1,0c0,0.1,0,0.1,0,0.2
			c0.2,0,0.5,0,0.7,0c0,0,0,0.1,0,0.1c0,1.7,0,3.3,0,5c0,0.3-0.2,0.5-0.5,0.6c-0.1,0-0.1,0-0.2,0c0,0.1,0,0.1,0,0.2
			c0.6,0,1.1,0,1.7,0c0-0.1,0-0.1,0-0.2c-0.1,0-0.1,0-0.2,0c-0.3-0.1-0.5-0.2-0.5-0.6c0-0.2,0-0.3,0-0.5c0-1.3,0-2.5,0-3.8
			c0,0,0-0.1,0-0.1c0.1,0,0.1,0,0.1,0.1c0.7,1.7,1.4,3.3,2.1,5c0,0.1,0,0.1,0.1,0.1c0.1,0,0.1-0.1,0.1-0.1c0.3-0.6,0.5-1.3,0.8-1.9
			c0.4-1,0.8-2,1.2-3c0,0,0-0.1,0.1-0.1c0,0,0,0,0,0c0,0,0,0.1,0,0.1c0,1.3,0,2.7,0,4c0,0.1,0,0.2,0,0.2c0,0.4-0.2,0.5-0.6,0.6
			c-0.1,0-0.1,0-0.2,0c0,0.1,0,0.1,0,0.2c0.8,0,1.6,0,2.4,0c0-0.1,0-0.1,0-0.2c-0.1,0-0.1,0-0.2,0C22.4,26.5,22.2,26.4,22.2,26z"/>
		<path class="st4" d="M13.4,24c0.6-0.2,0.9-0.6,1-1.2c0-0.3,0-0.6,0-0.9c-0.1-0.6-0.4-0.9-1-1.1c-0.3-0.1-0.7-0.1-1.1-0.1
			c-0.8,0-1.7,0-2.5,0c0,0-0.1,0-0.1,0c0,0.1,0,0.1,0,0.2c0.2,0,0.5,0,0.7,0c0,0.1,0,0.1,0,0.1c0,1.5,0,3,0,4.6c0,0.1,0,0.3,0,0.4
			c0,0.3-0.2,0.5-0.5,0.5c-0.1,0-0.2,0-0.4,0.1c0,0.1,0,0.1,0,0.2c0.9,0,1.8,0,2.6,0c0-0.1,0-0.1,0-0.2c-0.1,0-0.2,0-0.3,0
			c-0.4,0-0.6-0.2-0.6-0.6c0-0.6,0-1.1,0-1.7c0.3,0,0.5,0,0.8,0C12.6,24.2,13,24.2,13.4,24z M11.4,24c0-1,0-2,0-3c0.5,0,1,0,1.5,0.2
			c0.4,0.1,0.6,0.4,0.6,0.8c0.1,0.3,0.1,0.6,0,1c-0.1,0.5-0.3,0.8-0.8,1C12.3,24,11.8,24,11.4,24z"/>
		<path class="st4" d="M46.1,26.5c-0.3,0-0.4-0.1-0.5-0.4c0-0.2-0.1-0.3-0.1-0.5c0-0.7,0-1.4,0-2.1c0-0.6-0.3-1-0.8-1.1
			c-0.3-0.1-0.6-0.1-0.8,0c-0.4,0.1-0.7,0.4-0.9,0.7c0,0-0.1,0-0.1,0.1c0,0,0-0.1-0.1-0.1c0-0.2-0.1-0.4-0.1-0.6
			c0-0.1-0.1-0.1-0.1-0.1c-0.4,0-0.7,0-1.1,0c0,0-0.1,0-0.1,0c0,0.1,0,0.1,0,0.2c0.2,0,0.4,0,0.7,0c0,0.1,0,0.1,0,0.1
			c0,0.9,0,1.9,0,2.8c0,0.2,0,0.3,0,0.5c0,0.2-0.2,0.3-0.3,0.4c-0.1,0-0.2,0-0.3,0c0,0.1,0,0.2,0,0.3c0.7,0,1.4,0,2.1,0
			c0-0.1,0-0.2,0-0.3c-0.4-0.1-0.5-0.2-0.5-0.6c0-0.7,0-1.4,0-2.1c0-0.7,0.5-1,1.1-0.9c0.2,0,0.4,0.2,0.5,0.4c0,0.2,0.1,0.4,0.1,0.6
			c0,0.7,0,1.5,0,2.2c0,0.2-0.1,0.4-0.3,0.4c-0.1,0-0.1,0-0.2,0c0,0.1,0,0.2,0,0.3c0.7,0,1.4,0,2,0c0-0.1,0-0.2,0-0.3
			C46.2,26.5,46.1,26.5,46.1,26.5z"/>
		<path class="st4" d="M41,26c0,0.1,0,0.1-0.1,0.2c-0.1,0.2-0.2,0.2-0.4,0.2c-0.1,0-0.2-0.1-0.2-0.3c0-0.2,0-0.3,0-0.5
			c0-0.7,0-1.4,0-2.1c0-0.6-0.3-1-0.9-1.1c-0.4-0.1-0.8-0.1-1.2,0c-0.4,0-0.7,0.1-1,0.4c-0.2,0.2-0.3,0.4-0.3,0.6
			c0,0.2,0.1,0.4,0.3,0.4c0.2,0,0.4-0.1,0.5-0.3c0-0.1,0-0.1,0.1-0.2c0.1-0.4,0.3-0.6,0.7-0.7c0.1,0,0.1,0,0.2,0
			c0.4,0,0.6,0.2,0.6,0.6c0,0.3,0,0.7,0,1c-0.1,0-0.1,0-0.2,0c-0.3,0-0.6,0.1-0.9,0.1c-0.4,0.1-0.8,0.2-1.1,0.5
			c-0.4,0.3-0.5,0.7-0.4,1.2c0.1,0.4,0.4,0.7,0.8,0.8c0.5,0.1,1,0,1.4-0.4c0.1-0.1,0.2-0.2,0.3-0.3c0.2,0.5,0.6,0.7,1.1,0.6
			c0.4-0.1,0.7-0.5,0.6-0.9C41,25.9,41,25.9,41,26z M39.3,26c-0.2,0.2-0.5,0.4-0.8,0.4c-0.5,0.1-0.8-0.2-0.9-0.6
			c0-0.3,0.1-0.6,0.3-0.8c0.4-0.3,0.8-0.5,1.4-0.5c0,0.3,0,0.5,0,0.8c0,0.2,0,0.3,0,0.5C39.4,25.9,39.3,25.9,39.3,26z"/>
		<path class="st4" d="M25.6,22.3c-1-0.1-1.9,0.4-2.1,1.5c-0.1,0.5-0.1,1,0,1.5c0.2,0.9,0.7,1.4,1.6,1.6c0.8,0.2,1.7-0.2,2.1-0.9
			c0.3-0.4,0.4-0.9,0.4-1.4c0-0.2,0-0.3,0-0.5C27.3,23.1,26.6,22.4,25.6,22.3z M26.5,25.7c0,0.2-0.1,0.3-0.1,0.5
			c-0.1,0.3-0.3,0.5-0.6,0.5c-0.2,0-0.4,0-0.6,0c-0.3,0-0.5-0.2-0.6-0.5c-0.1-0.3-0.1-0.6-0.1-1c0-0.1,0-0.3,0-0.4c0,0,0,0,0,0
			c0-0.4,0.1-0.9,0.1-1.3c0-0.1,0-0.1,0-0.2c0.1-0.5,0.4-0.7,0.9-0.7c0.2,0,0.3,0,0.5,0c0.4,0.1,0.5,0.3,0.6,0.7
			c0,0.2,0.1,0.4,0.1,0.6C26.5,24.5,26.6,25.1,26.5,25.7z"/>
		<path class="st4" d="M8.1,20.7c-0.8,0-1.7,0-2.5,0c0,0.1,0,0.1,0,0.2c0.3,0,0.5,0,0.8,0c0,0,0,0.1,0,0.1c0,1.4,0,2.7,0,4.1
			c0,0.2,0,0.4-0.1,0.7c-0.1,0.6-0.4,0.9-1,0.9c-0.4,0-0.6-0.2-0.6-0.6c0-0.1,0-0.3,0-0.4c0-0.1-0.1-0.2-0.2-0.3
			c-0.3-0.1-0.6,0-0.6,0.3c-0.1,0.4,0,1,0.7,1.1c0.5,0.1,1,0.1,1.5,0c0.6-0.1,1.1-0.5,1.2-1.2c0.1-0.2,0.1-0.5,0.1-0.8
			c0-1.3,0-2.6,0-3.8c0-0.1,0-0.1,0-0.2c0.3,0,0.5,0,0.8,0C8.1,20.8,8.1,20.8,8.1,20.7z"/>
		<path class="st4" d="M31.2,22.4c-0.4-0.1-1.1-0.1-1.4,0.5c0,0.1-0.1,0.2-0.1,0.3c0,0,0,0-0.1,0.1c-0.1-0.3-0.1-0.6-0.2-0.9
			c-0.5,0-1,0-1.5,0c0,0.1,0,0.1,0,0.2c0.3,0,0.5,0,0.8,0c0,0,0,0.1,0,0.1c0,1,0,1.9,0,2.9c0,0.1,0,0.3,0,0.4c0,0.2-0.2,0.3-0.4,0.4
			c-0.1,0-0.2,0-0.3,0c0,0.1,0,0.2,0,0.2c0.8,0,1.6,0,2.5,0c0-0.1,0-0.2,0-0.2c-0.1,0-0.2,0-0.3,0c-0.2,0-0.4-0.1-0.4-0.4
			c0-0.1,0-0.1,0-0.2c0-0.4,0-0.9,0-1.3c0-0.2,0-0.5,0-0.7c0-0.4,0.2-0.7,0.6-0.9c0.2-0.1,0.5-0.1,0.6,0.1c0.1,0.1,0.1,0.2,0.2,0.2
			c0.1,0.1,0.2,0.1,0.4,0.1c0.1,0,0.2-0.1,0.3-0.3C31.7,22.9,31.5,22.5,31.2,22.4z"/>
		<path class="st4" d="M13.9,26c-0.3,0-0.5,0.2-0.5,0.5c0,0.3,0.2,0.5,0.5,0.5s0.5-0.2,0.5-0.5C14.4,26.2,14.2,26,13.9,26z"/>
		<path class="st4" d="M8.4,26c-0.3,0-0.5,0.2-0.5,0.5c0,0.3,0.2,0.5,0.5,0.5c0.3,0,0.5-0.2,0.5-0.5C8.9,26.2,8.7,26,8.4,26z"/>
	</g>
</g>
<g id="oppenheimer" class="st0">
	<g class="st3">
		<path class="st4" d="M24.6,12.3c0.3,0.2,0.5,0.3,0.8,0.5c0.3,0.2,0.7,0.3,1,0.6c0.2,0.1,0.3,0.3,0.5,0.5c0.3,0.3,0.6,0.7,0.9,1
			c0.1,0.1,0.3,0.2,0.4,0.2c0.2,0.1,0.3,0.1,0.4,0.3c0.1,0.1,0.2,0.3,0.4,0.4c0.2,0.1,0.3,0.3,0.4,0.5c0,0.1,0,0.2,0,0.3
			c0.3,0.3,0.4,0.4,0.2,0.7c0.3,0.2,0.4,0.5,0.3,0.9c-0.3,0.4-0.5,0.9-0.7,1.4c-0.2,0.4-0.4,0.6-0.7,0.8c-0.4,0.3-0.7,0.6-1.1,0.9
			c-0.1,0-0.1,0.1-0.1,0.2c-0.1,0.3-0.2,0.5-0.5,0.7c-0.1,0.1-0.2,0.2-0.2,0.2c-0.2,0.3-0.5,0.5-0.8,0.3c-0.2,0.3-0.4,0.4-0.7,0.3
			c-0.1,0.1-0.3,0.2-0.4,0.3c-0.1,0-0.2,0-0.4,0c-0.4-0.2-0.8-0.4-1.1-0.6c-0.3-0.2-0.7-0.3-1-0.7c-0.3-0.4-0.6-0.7-0.9-1.1
			c-0.1-0.2-0.3-0.4-0.5-0.4c-0.2,0-0.4-0.2-0.5-0.4c-0.1-0.1-0.2-0.2-0.3-0.3c-0.2-0.1-0.4-0.5-0.3-0.8c-0.3-0.3-0.4-0.4-0.3-0.7
			c-0.1-0.1-0.2-0.3-0.3-0.4c0-0.1,0-0.2,0-0.4c0.2-0.4,0.4-0.7,0.6-1c0.2-0.4,0.3-0.8,0.7-1.1c0.4-0.3,0.7-0.6,1.1-0.9
			c0.2-0.1,0.4-0.3,0.4-0.5c0-0.2,0.2-0.4,0.4-0.5c0.1-0.1,0.2-0.2,0.3-0.4c0.1-0.2,0.5-0.4,0.8-0.3c0.2-0.2,0.4-0.4,0.7-0.3
			c0.1-0.1,0.3-0.2,0.4-0.3C24.3,12.3,24.5,12.3,24.6,12.3z M25.3,17.2c0,0.2,0,0.3,0,0.5c0,0.6,0,1.1,0,1.7c0,0.3,0.1,0.5,0.3,0.7
			c0.2,0.2,0.5,0.4,0.7,0.6c0.2,0.2,0.4,0.2,0.6,0c0.4-0.3,0.7-0.6,1.1-0.9c0.2-0.1,0.4-0.3,0.5-0.5c0.3-0.5,0.6-1,0.9-1.5
			c0.1-0.2,0.1-0.3-0.1-0.4c-0.3,0.4-0.5,0.8-0.8,1.2c-0.2-0.1-0.2-0.2-0.1-0.4c0.2-0.4,0.5-0.7,0.7-1.1c0.2-0.2,0.2-0.2-0.1-0.5
			c-0.3,0.4-0.6,0.9-1,1.3c-0.2-0.1-0.2-0.2-0.1-0.4c0.1-0.1,0.2-0.3,0.3-0.4c0.2-0.3,0.4-0.6,0.6-0.9c0.1-0.2,0-0.3-0.1-0.4
			c-0.1-0.1-0.2,0-0.2,0.1c-0.3,0.4-0.6,0.7-0.8,1.1c0,0-0.1,0.1-0.1,0.1c0,0-0.1-0.1-0.1-0.1c0-0.1,0-0.2,0-0.2
			c0.2-0.3,0.5-0.6,0.7-0.9c0.2-0.3,0.2-0.4-0.1-0.6c-0.3,0.3-0.6,0.7-0.9,1c-0.3,0.4-0.6,0.7-0.9,1.1c-0.1,0.1-0.3,0.1-0.4-0.1
			c0-0.1,0-0.1-0.1-0.2C25.7,17.2,25.5,17.2,25.3,17.2z M23.4,18.3c0-0.7,0-1.4,0-2.1c0-0.3-0.1-0.5-0.3-0.7
			c-0.2-0.2-0.5-0.5-0.7-0.7s-0.3-0.3-0.6,0c-0.2,0.2-0.5,0.4-0.7,0.6c-0.3,0.3-0.7,0.5-1,1c-0.3,0.5-0.5,0.9-0.8,1.4
			c-0.1,0.1,0,0.2,0.1,0.3c0.1,0.1,0.1,0,0.2-0.1c0.2-0.3,0.4-0.6,0.6-0.9c0,0,0.1-0.1,0.2-0.1c0,0.1,0.1,0.2,0.1,0.2
			c0,0.1-0.1,0.2-0.1,0.2c-0.2,0.4-0.5,0.7-0.7,1.1c-0.1,0.1,0,0.2,0.1,0.3c0.1,0,0.2,0,0.2-0.1c0.2-0.3,0.4-0.5,0.6-0.8
			c0.1-0.1,0.2-0.2,0.3-0.4c0.1,0.1,0.1,0.3,0,0.4c-0.3,0.4-0.6,0.9-0.9,1.3c-0.1,0.1,0,0.3,0.1,0.3c0.1,0.1,0.1,0,0.2-0.1
			c0.3-0.4,0.5-0.7,0.8-1.1c0-0.1,0.2-0.1,0.2-0.1c0.1,0.1,0.1,0.2,0,0.3c0,0,0,0.1-0.1,0.1c-0.2,0.3-0.5,0.6-0.7,0.9
			c-0.1,0.1-0.1,0.3,0,0.4c0,0,0.1,0.1,0.1,0.1c0.1,0,0.1-0.1,0.2-0.1c0.2-0.3,0.5-0.6,0.7-0.8c0.3-0.4,0.6-0.7,0.9-1.1
			c0.1-0.1,0.2-0.1,0.3-0.1c0.1,0,0.1,0.1,0.2,0.2c0,0.1,0.1,0.1,0.1,0.2C23.1,18.3,23.2,18.3,23.4,18.3z M24.9,18.7
			c-0.7,0-1.4,0-2.2,0c-0.2,0-0.4,0.1-0.5,0.2c-0.3,0.3-0.6,0.6-0.9,0.9c-0.1,0.2-0.1,0.3,0,0.5c0.3,0.3,0.5,0.7,0.8,1
			c0.1,0.2,0.3,0.4,0.5,0.5c0.5,0.4,1.1,0.7,1.6,1c0.1,0.1,0.2,0,0.3-0.1c0,0,0-0.1-0.1-0.2c-0.3-0.2-0.6-0.4-0.9-0.7
			c0,0-0.1-0.1-0.1-0.1c0,0,0.1-0.1,0.1-0.1c0.1,0,0.1,0,0.2,0.1c0.2,0.1,0.4,0.3,0.6,0.4c0.2,0.1,0.4,0.3,0.6,0.4
			c0.1,0.1,0.2,0,0.3-0.1c0,0,0-0.1-0.1-0.2c-0.3-0.3-0.7-0.5-1.1-0.8c-0.1-0.1-0.1-0.2,0-0.2c0.1,0,0.2,0,0.2,0
			c0.1,0.1,0.3,0.2,0.4,0.3c0.3,0.2,0.6,0.4,0.9,0.6c0.1,0.1,0.3,0,0.4-0.1c0.1-0.1-0.1-0.2-0.1-0.2c-0.3-0.3-0.7-0.5-1-0.8
			c-0.1,0-0.1-0.2-0.1-0.2c0.1-0.1,0.2-0.1,0.3-0.1c0,0,0.1,0,0.1,0.1c0.3,0.2,0.6,0.5,0.9,0.7c0.2,0.2,0.3,0.1,0.5,0
			c0.1-0.1,0.1-0.2,0-0.2c-0.1-0.1-0.3-0.2-0.4-0.4c-0.3-0.2-0.6-0.5-0.9-0.7c-0.2-0.2-0.4-0.3-0.6-0.5c-0.1-0.1-0.1-0.2-0.1-0.3
			c0-0.1,0.1-0.2,0.2-0.2c0,0,0.1-0.1,0.1-0.1C24.9,19,24.9,18.9,24.9,18.7z M24.1,12.8c0.4,0.3,0.8,0.6,1.2,0.9
			c-0.1,0.2-0.3,0.1-0.4,0.1c-0.4-0.3-0.8-0.5-1.2-0.8c-0.2-0.1-0.2,0-0.3,0.1c-0.1,0.1,0,0.1,0.1,0.2c0,0,0.1,0.1,0.1,0.1
			c0.3,0.2,0.6,0.4,0.9,0.6c0,0,0.1,0.1,0.1,0.2c-0.1,0-0.1,0.1-0.2,0.1c0,0-0.1,0-0.1-0.1c-0.4-0.3-0.8-0.5-1.1-0.8
			c-0.3-0.2-0.3-0.2-0.6,0.1c0.4,0.3,0.8,0.6,1.2,1c0,0,0.1,0.1,0.1,0.2c-0.1,0-0.1,0.1-0.2,0.1c0,0-0.1-0.1-0.1-0.1
			c-0.3-0.3-0.7-0.5-1-0.8c-0.1-0.1-0.2-0.1-0.3,0c-0.3,0.2-0.3,0.2,0,0.4c0,0,0,0,0,0c0.6,0.5,1.2,1,1.8,1.5
			c0.1,0.1,0.1,0.2,0.1,0.3c0,0.1-0.1,0.1-0.2,0.2c-0.1,0-0.1,0.1-0.1,0.1c0,0.2,0,0.3,0,0.5c0.7,0,1.4,0,2,0c0,0,0.1,0,0.1,0
			c0.2-0.1,0.4-0.1,0.6-0.2c0.3-0.2,0.5-0.5,0.7-0.7c0.3-0.3,0.3-0.4,0-0.8c-0.3-0.4-0.6-0.7-0.9-1c-0.1-0.1-0.2-0.3-0.3-0.4
			c-0.5-0.3-1.1-0.6-1.6-1C24.3,12.6,24.2,12.6,24.1,12.8z M24.9,18.3c0-0.3,0-0.7,0-1c-0.3,0-0.7,0-1,0c0,0.3,0,0.7,0,1
			C24.2,18.3,24.5,18.3,24.9,18.3z"/>
		<path class="st4" d="M5.3,30.4c-0.4,0-0.8-0.1-1.1-0.4c-0.3-0.2-0.4-0.5-0.5-0.8C3.6,28.6,3.6,28,4,27.5c0.2-0.4,0.6-0.5,1-0.6
			c0.4-0.1,0.8,0,1.1,0.1c0.4,0.2,0.7,0.5,0.8,0.9c0.2,0.5,0.1,1-0.1,1.6c-0.2,0.4-0.5,0.7-1,0.8C5.7,30.3,5.5,30.4,5.3,30.4z
			 M4.5,28.6c0,0.2,0,0.3,0.1,0.5c0.1,0.3,0.4,0.6,0.7,0.6c0.3,0,0.6-0.2,0.7-0.5c0.1-0.2,0.1-0.5,0.1-0.7c0-0.5-0.2-0.8-0.7-0.9
			c-0.2,0-0.5,0-0.6,0.2C4.6,28,4.5,28.3,4.5,28.6z"/>
		<path class="st4" d="M27.2,30.3c-0.2,0-0.5,0-0.7,0c0-0.2,0-0.4,0-0.6c0-0.3,0-0.6,0-0.9c0-0.1,0-0.2,0-0.3c0-0.2-0.2-0.3-0.3-0.3
			c-0.2,0-0.3,0.1-0.4,0.3c0,0.1-0.1,0.2-0.1,0.3c0,0.4,0,0.9,0,1.3c0,0,0,0.1,0,0.1c-0.3,0-0.5,0-0.8,0c0-0.8,0-1.6,0-2.4
			c0.2,0,0.5,0,0.7,0c0,0.1,0,0.2,0,0.3c0.2-0.2,0.4-0.4,0.8-0.4c0.3,0,0.5,0.2,0.7,0.4c0.1-0.1,0.3-0.3,0.5-0.3
			c0.5-0.2,1.1,0,1.2,0.7c0,0.6,0,1.1,0,1.7c0,0,0,0.1,0,0.1c-0.2,0-0.5,0-0.8,0c0,0,0-0.1,0-0.1c0-0.5,0-0.9,0-1.4
			c0-0.2,0-0.3-0.2-0.4c-0.2-0.1-0.5,0.1-0.5,0.4c0,0.1,0,0.3,0,0.4C27.2,29.5,27.2,29.9,27.2,30.3z"/>
		<path class="st4" d="M10.8,30.1c0,0.4,0,0.7,0,1c-0.3,0-0.5,0-0.8,0c0-1.1,0-2.2,0-3.3c0.2,0,0.5,0,0.7,0c0,0.1,0,0.2,0,0.3
			c0.2-0.2,0.3-0.3,0.6-0.3c0.5-0.1,1,0.1,1.2,0.6c0.2,0.5,0.2,1.1-0.2,1.5c-0.2,0.2-0.4,0.4-0.7,0.4C11.3,30.4,11,30.3,10.8,30.1z
			 M11.8,29c0-0.1-0.1-0.3-0.2-0.5c-0.2-0.3-0.6-0.3-0.8,0c-0.2,0.4-0.2,0.8,0,1.2c0.2,0.3,0.6,0.3,0.7,0.1
			C11.8,29.5,11.8,29.3,11.8,29z"/>
		<path class="st4" d="M8,30.1c0,0.3,0,0.7,0,1c-0.2,0-0.5,0-0.7,0c0-1.1,0-2.2,0-3.3c0.2,0,0.5,0,0.7,0c0,0.1,0,0.1,0,0.2
			c0,0,0.1,0,0.1-0.1c0.3-0.4,1.1-0.4,1.5,0c0.2,0.2,0.3,0.4,0.3,0.6c0.1,0.3,0.1,0.7-0.1,1c-0.2,0.5-0.7,0.7-1.2,0.6
			C8.3,30.3,8.2,30.2,8,30.1z M7.9,29C8,29.2,8,29.4,8,29.5c0.1,0.2,0.2,0.3,0.4,0.4c0.2,0,0.4-0.1,0.5-0.3c0.1-0.3,0.1-0.6,0-0.9
			c-0.1-0.2-0.2-0.3-0.4-0.3c-0.2,0-0.4,0.1-0.5,0.3C8,28.7,8,28.9,7.9,29z"/>
		<path class="st4" d="M43.1,28.1c0-0.4,0-0.7,0-1.1c0.2,0,0.5,0,0.7,0c0,1.1,0,2.2,0,3.3c-0.2,0-0.5,0-0.7,0c0-0.1,0-0.1,0-0.2
			c-0.1,0.1-0.1,0.1-0.2,0.1c-0.5,0.4-1.3,0.2-1.5-0.5c-0.1-0.4-0.1-0.9,0-1.3c0.2-0.4,0.5-0.6,0.9-0.6
			C42.6,27.8,42.9,27.8,43.1,28.1z M42.1,29.1C42.1,29.1,42.1,29.1,42.1,29.1c0,0.2,0,0.4,0.1,0.5c0.1,0.4,0.6,0.4,0.8,0
			c0.2-0.4,0.2-0.7,0-1.1c-0.2-0.3-0.6-0.3-0.8,0C42.1,28.7,42.1,28.9,42.1,29.1z"/>
		<path class="st4" d="M20.7,30.3c-0.2,0-0.5,0-0.7,0c0-0.1,0-0.1,0-0.2c0-0.5,0-0.9,0-1.4c0-0.3-0.3-0.5-0.6-0.4
			c-0.2,0.1-0.2,0.2-0.3,0.4c0,0.1,0,0.3,0,0.4c0,0.4,0,0.8,0,1.2c-0.2,0-0.5,0-0.7,0c0-1.1,0-2.2,0-3.3c0.2,0,0.5,0,0.7,0
			c0,0.4,0,0.7,0,1.1c0.3-0.2,0.5-0.3,0.9-0.3c0.5,0,0.7,0.2,0.7,0.6C20.7,29,20.7,29.6,20.7,30.3z"/>
		<path class="st4" d="M35.7,28.4c0,0.2,0,0.4,0,0.7c-0.4,0-0.8,0-1.2,0c0,0.4,0,0.8,0,1.2c-0.3,0-0.5,0-0.8,0c0-1.1,0-2.2,0-3.3
			c0.7,0,1.5,0,2.2,0c0,0.2,0,0.4,0,0.7c-0.5,0-1,0-1.4,0c0,0.2,0,0.5,0,0.7C34.9,28.4,35.3,28.4,35.7,28.4z"/>
		<path class="st4" d="M29.7,29.2c0,0.3,0.1,0.5,0.4,0.6c0.2,0.1,0.5,0,0.6-0.2c0,0,0.1-0.1,0.1-0.1c0.2,0,0.5,0,0.7,0
			c-0.1,0.5-0.4,0.7-0.9,0.8c-0.3,0-0.6,0-0.8,0c-0.5-0.1-0.7-0.5-0.8-0.9c0-0.3,0-0.6,0.1-0.9c0.2-0.4,0.4-0.6,0.8-0.7
			c0.4-0.1,0.8-0.1,1.2,0.2c0.3,0.2,0.4,0.5,0.4,0.8c0,0.2,0,0.3,0,0.5C30.9,29.2,30.3,29.2,29.7,29.2z M29.7,28.8c0.4,0,0.7,0,1,0
			c0-0.4-0.2-0.6-0.5-0.6C30,28.3,29.7,28.5,29.7,28.8z"/>
		<path class="st4" d="M15.4,29.6c-0.1,0.1-0.1,0.3-0.2,0.4c-0.2,0.3-0.5,0.4-0.8,0.4c-0.3,0-0.6,0-0.9-0.1
			c-0.3-0.1-0.5-0.4-0.6-0.7c-0.1-0.3-0.1-0.7,0.1-1c0.1-0.3,0.4-0.6,0.8-0.7c0.4-0.1,0.7-0.1,1.1,0c0.4,0.2,0.6,0.5,0.7,0.9
			c0,0.2,0,0.3,0,0.5c-0.6,0-1.2,0-1.8,0c0,0.2,0.1,0.4,0.3,0.5c0.3,0.2,0.6,0.1,0.8-0.2c0,0,0.1,0,0.1,0
			C14.9,29.5,15.1,29.5,15.4,29.6C15.3,29.6,15.4,29.6,15.4,29.6z M13.6,28.8c0.4,0,0.7,0,1.1,0c0-0.3-0.2-0.5-0.4-0.6
			C14,28.2,13.6,28.4,13.6,28.8z"/>
		<path class="st4" d="M23.6,29.3c-0.6,0-1.2,0-1.8,0c0,0.3,0.1,0.5,0.4,0.6c0.3,0.1,0.5,0,0.6-0.2c0,0,0.1-0.1,0.1-0.1
			c0.2,0,0.4,0,0.7,0c0,0.3-0.2,0.4-0.4,0.6c-0.2,0.2-0.5,0.2-0.7,0.2c-0.3,0-0.5,0-0.8-0.1c-0.4-0.2-0.6-0.5-0.7-1
			c0-0.2,0-0.5,0.1-0.7c0.2-0.4,0.5-0.7,0.9-0.7c0.2,0,0.5,0,0.8,0c0.4,0.1,0.7,0.4,0.8,0.8C23.5,28.8,23.6,29,23.6,29.3z
			 M21.7,28.8c0.4,0,0.7,0,1.1,0c0-0.4-0.3-0.6-0.5-0.6C22,28.3,21.8,28.5,21.7,28.8z"/>
		<path class="st4" d="M18,30.3c-0.2,0-0.5,0-0.7,0c0-0.1,0-0.1,0-0.2c0-0.5,0-0.9,0-1.4c0-0.2,0-0.4-0.2-0.4
			c-0.2-0.1-0.5,0-0.5,0.2c0,0.1-0.1,0.2-0.1,0.3c0,0.5,0,0.9,0,1.4c0,0,0,0,0,0c-0.2,0-0.5,0-0.7,0c0-0.8,0-1.6,0-2.4
			c0.2,0,0.5,0,0.7,0c0,0.1,0,0.1,0,0.2c0.2-0.2,0.5-0.3,0.8-0.3c0.4,0,0.6,0.2,0.7,0.6c0,0.1,0,0.2,0,0.3c0,0.5,0,1,0,1.5
			C18,30.2,18,30.2,18,30.3z"/>
		<path class="st4" d="M44.1,29.5c0.2,0,0.5,0,0.7,0c0.1,0.3,0.3,0.5,0.7,0.3c0.1,0,0.2-0.1,0.2-0.2c0-0.1-0.1-0.2-0.1-0.2
			c-0.1-0.1-0.3-0.1-0.5-0.1c-0.2-0.1-0.4-0.1-0.6-0.2c-0.4-0.2-0.5-0.9,0.1-1.2c0.4-0.2,0.9-0.2,1.3,0c0.3,0.1,0.5,0.3,0.5,0.7
			c-0.2,0-0.4,0-0.6,0c0,0-0.1,0-0.1-0.1c0,0,0-0.1-0.1-0.1c-0.1-0.1-0.5-0.1-0.6,0c-0.1,0.1,0,0.3,0.1,0.3c0.2,0,0.3,0.1,0.5,0.1
			c0.2,0,0.3,0.1,0.5,0.1c0.3,0.1,0.4,0.3,0.4,0.6c0,0.3-0.1,0.5-0.4,0.7c-0.1,0.1-0.3,0.1-0.5,0.1c-0.4,0-0.7,0-1.1-0.2
			C44.2,30,44.1,29.8,44.1,29.5z"/>
		<path class="st4" d="M39.5,30.3c-0.2,0-0.5,0-0.7,0c0-0.8,0-1.6,0-2.4c0.2,0,0.5,0,0.7,0c0,0.1,0,0.1,0,0.2
			c0.3-0.4,0.8-0.4,1.2-0.3c0.3,0.1,0.4,0.3,0.4,0.6c0,0.6,0,1.2,0,1.8c-0.2,0-0.5,0-0.7,0c0-0.4,0-0.7,0-1.1c0-0.2,0-0.4,0-0.5
			c0-0.1-0.1-0.3-0.3-0.3c-0.2,0-0.4,0-0.5,0.2c-0.1,0.2-0.1,0.3-0.1,0.5C39.4,29.4,39.5,29.8,39.5,30.3z"/>
		<path class="st4" d="M36,27.9C36.1,27.9,36.1,27.9,36,27.9c0.3,0,0.5,0,0.7,0c0,0.1,0,0.1,0,0.2c0,0.4,0,0.9,0,1.3
			c0,0.1,0,0.2,0,0.3c0.1,0.2,0.2,0.2,0.3,0.2c0.2,0,0.3-0.1,0.4-0.3c0-0.1,0.1-0.2,0.1-0.4c0-0.4,0-0.9,0-1.4c0.2,0,0.5,0,0.7,0
			c0,0.8,0,1.6,0,2.4c-0.2,0-0.5,0-0.7,0c0-0.1,0-0.1,0-0.3c-0.2,0.2-0.3,0.3-0.6,0.3c-0.6,0.1-1-0.1-1-0.7C36,29,36,28.5,36,27.9z"
			/>
		<path class="st4" d="M33.5,27.7c0,0.2,0,0.4,0,0.6c-0.1,0-0.2,0-0.3,0c-0.3,0-0.5,0.3-0.6,0.6c0,0.4,0,0.7,0,1.1
			c0,0.1,0,0.1,0,0.2c-0.3,0-0.5,0-0.7,0c0-0.8,0-1.6,0-2.4c0.2,0,0.5,0,0.7,0c0,0.1,0,0.2,0,0.3c0.1-0.1,0.3-0.2,0.4-0.3
			C33.1,27.8,33.3,27.8,33.5,27.7z"/>
		<path class="st4" d="M23.8,27.9c0.3,0,0.5,0,0.7,0c0,0.8,0,1.6,0,2.4c-0.2,0-0.5,0-0.7,0C23.8,29.5,23.8,28.7,23.8,27.9z"/>
		<path class="st4" d="M24.6,27.5c-0.2,0-0.5,0-0.7,0c0-0.2,0-0.4,0-0.6c0.2,0,0.5,0,0.7,0C24.6,27.1,24.6,27.3,24.6,27.5z"/>
	</g>
</g>
</svg>
