<?xml version="1.0" encoding="utf-8"?>
<!-- Generator: Adobe Illustrator 22.1.0, SVG Export Plug-In . SVG Version: 6.00 Build 0)  -->
<svg version="1.1" id="Layer_1" xmlns="http://www.w3.org/2000/svg" xmlns:xlink="http://www.w3.org/1999/xlink" x="0px" y="0px"
	 viewBox="0 0 69 69" style="enable-background:new 0 0 69 69;" xml:space="preserve">
<style type="text/css">
	.st0{fill-rule:evenodd;clip-rule:evenodd;fill:#FFFFFF;}
	.st1{fill:#999999;}
	.st2{fill:#FFFFFF;}
	.st3{fill:none;}
	.st4{fill:none;stroke:#FFFFFF;stroke-width:5;stroke-miterlimit:10;}
</style>
<g>
	<path class="st0" d="M-1398.5-1300.9c-18,0-31.4-5.8-40.9-19c-8.1-11.3-10.2-24-7-37.4c4.8-20,18.3-31.4,37.9-34.7
		c15.8-2.6,30.6,1.1,42.3,12.9c10.7,10.9,14.5,24.3,12.2,39.2c-2.6,17.1-12.2,28.9-28,35.5
		C-1387.8-1301.9-1394-1300.5-1398.5-1300.9z M-1372-1349.4c0.2-6.1-1.4-14.7-5.7-22.6c-4.8-8.9-11.8-15-22.4-15.2
		c-10.3-0.2-17.5,5.3-22.5,14c-4.7,8.1-6.3,16.9-6.3,26.1c-0.1,10.9,2,21.3,8.7,30.3c10.3,14.1,29.2,13.6,38.9,1
		C-1374.3-1325-1372.1-1335.4-1372-1349.4z"/>
	<path class="st0" d="M-1337.6-1320.4c-1.5-1.3-3.2-2.4-4.5-3.9c-9.8-10.6-6.2-26.8,7.2-32.6c5.8-2.5,10.9-4.2,23.6-1
		c0.6-3.6,0.8-7.4,2-10.9c3.5-10.1,13.9-16,25.7-15.2c5.3,0.3,10.3,1.3,13.4,6.2c1.9,2.9,1.7,7.1-0.5,9.9c-1.9,2.4-5.6,3.4-9.1,2.4
		c-2.8-0.8-4.9-4.1-5-7.6c-0.1-3.9-1.4-4.9-5.5-4.3c-9.1,1.3-14.4,8.3-14.1,18.4c0.1,3.4,0.9,6.4,3.1,9.3c6,7.9,3.9,20.8-4.1,26.9
		c-5.4,4-11.4,5.7-18,6c-4.6,0.2-9.2,0.8-13.8,1.3c-0.7,0.1-1.4,0.4-2,0.6c-3.5,1.5-5,4.1-4.3,7.1c0.6,2.3,3.3,3.9,6.7,3.5
		c6.9-0.8,13.8-2,20.7-2.5c4.3-0.3,8.8-0.6,12.9,0.5c9.3,2.3,12,10.4,10.5,18.5c-2.3,12.3-13.3,21.1-25.9,21.5
		c-5.9,0.2-11.8,0.4-17.4-1.9c-5.9-2.4-10.3-6.1-11-12.9c-0.3-2.4,0.3-4.9,2.6-6c1.5-0.7,3.5-0.9,5.1-0.4c2.3,0.6,2.9,2.8,3,5.1
		c0.2,7.7,3.2,10.4,11,10.7c6.4,0.2,12.6-0.2,17.8-4.4c3.5-2.8,5.4-6.4,5.3-11c-0.1-3.6-2.3-6.3-6-6.3c-4.7,0-9.5,0.5-14.2,0.8
		c-6.5,0.5-12.9,2.6-19.5,1c-5.9-1.4-10.2-5.6-10.8-10.9c-0.8-6.9,2.1-12.6,8-15.2C-1342.5-1319-1340.1-1319.6-1337.6-1320.4z
		 M-1311.3-1338.2c-0.7-5.2-1.8-9.8-5-13.7c-3.9-4.6-9.9-4.3-13.4,0.6c-4.7,6.5-4.8,18.6-0.3,25.2c4.3,6.3,12,6.1,15.3-0.7
		C-1313-1330.3-1312.4-1334.4-1311.3-1338.2z"/>
	<path class="st0" d="M-1197.1-1318c1.4-3.4,2.8-6.8,4.2-10.2c2.5-6.6,5-13.1,7.4-19.7c1.4-3.9,0.9-4.9-3.2-5.4
		c-2.7-0.3-3.4-1.6-2.6-4.2c14.8,0,29.6,0,44.5,0c1.1,2.9-0.1,3.9-2.8,4.2c-3.5,0.4-4.4,1.5-3.4,4.2c3.7,9.7,7.5,19.3,11.3,29
		c0.1,0.3,0.3,0.5,0.8,1.2c1.9-4.5,3.7-8.7,5.5-12.9c2.2-5.2,4.3-10.4,6.4-15.7c1.7-4.2,1.2-5-3.2-5.9c-1.3-0.3-3.1-0.4-2.7-2.5
		c0.1-0.7,0.9-1.7,1.5-1.7c6.7-0.1,13.3-0.1,20.2-0.1c0,1.4,0,2.4,0,3.9c-8.1-0.1-8.9,6.8-11.2,12c-8.4,19.4-16.5,38.9-24.9,58.4
		c-2.6,6.2-5.7,12-11.9,15.6c-2.9,1.7-5.9,2-9.1,0.9c-2.7-0.9-4.5-3.6-4.1-5.7c0.5-2.9,3-5.2,5.8-5.3c0.6,0,1.2-0.1,1.8,0
		c5.9,1.1,9.3-1.9,11.5-7c2.1-4.9,4.2-9.8,6.2-14.8c0.3-0.8,0.3-2,0-2.8c-6.5-16.1-13.1-32.1-19.7-48.1c-0.8-2.1-2.3-2.8-4.5-2.8
		c-2.3,0-3.5,1.1-4.3,3c-6.1,14.9-12.4,29.8-18.1,44.8c-1.7,4.6-4.9,3-7.8,3.4c-2.9,0.4-3.2-1.6-4-3.5c-5.9-14.7-11.9-29.3-18-43.9
		c-0.6-1.5-2.3-3.3-3.7-3.4c-3.2-0.4-2.9-2-2.6-4.4c0.8-0.1,1.5-0.2,2.3-0.2c7.8,0,15.6-0.1,23.4,0c0.9,0,2.4,0.7,2.6,1.4
		c0.5,1.7-0.8,2.5-2.4,2.8c-0.4,0.1-0.8,0-1.2,0.1c-3.1,0.5-3.9,1.6-2.8,4.5c2.5,6.7,5.1,13.4,7.7,20.1c1.4,3.5,2.7,7.1,4.1,10.6
		C-1197.7-1318.1-1197.4-1318-1197.1-1318z"/>
	<path class="st0" d="M-1268.8-1359.7c0,1.6,0,2.9,0,4.2c0,15,0.1,30-0.1,45c0,3,1.3,4,3.9,4c3.1,0,6.3,0,9.4,0c2.5,0,3.8-1,3.8-3.8
		c-0.1-24.2-0.1-48.4,0-72.6c0-2.2-0.8-3.4-2.9-3.8c-0.5-0.1-1-0.2-1.4-0.4c-1.2-0.8-2.4-1.7-3.5-2.6c1.2-0.7,2.3-1.7,3.6-2.1
		c5.4-1.5,10.9-2.8,16.4-4.2c0.7-0.2,1.4-0.2,2.4-0.3c0,1.4,0,2.6,0,3.8c0,27,0,54.1,0,81.1c0,4.5,0.3,5,4.7,5c3.1,0,3.6,1.4,3,4.2
		c-20.1,0-40.3,0-60.6,0c0-1.3,0-2.5,0-3.6c0.3-0.2,0.5-0.4,0.7-0.4c5.9-0.6,5.9-0.6,5.9-6.5c0-10.7-0.1-21.5,0.1-32.2
		c0-2.9-0.9-4.6-3.7-5.2c-0.8-0.2-1.7-0.3-2.3-0.7c-0.7-0.5-1.3-1.3-1.9-2c0.6-0.6,1.2-1.5,1.9-1.7c5.7-1.6,11.5-3.1,17.2-4.6
		C-1271.2-1359.5-1270.2-1359.5-1268.8-1359.7z"/>
</g>
<g id="_x30_aV2oW.tif">
	<g>
		<path class="st1" d="M27.9,19.4c0,0.1,0,0.2,0,0.3c0,6.3,0,12.6,0,18.9c0,0.3,0,0.3-0.3,0.3c-1,0-2.1,0-3.1,0
			c-0.3,0-0.3,0-0.3-0.3c0-6.3,0-12.6,0-18.9c0-0.1,0-0.2,0-0.3C25.4,19.4,26.6,19.4,27.9,19.4z"/>
		<path class="st1" d="M32.9,19.4c0,0.1,0,0.2,0,0.3c0,6.3,0,12.6,0,18.9c0,0.3,0,0.3-0.3,0.3c-1,0-2.1,0-3.1,0
			c-0.3,0-0.3,0-0.3-0.3c0-6.3,0-12.6,0-18.9c0-0.1,0-0.2,0-0.3C30.4,19.4,31.6,19.4,32.9,19.4z"/>
		<path class="st1" d="M42.8,19.4c0,0.1,0,0.2,0,0.3c0,6.3,0,12.6,0,18.9c0,0.3,0,0.3-0.3,0.3c-1,0-2.1,0-3.1,0
			c-0.3,0-0.3,0-0.3-0.3c0-6.3,0-12.6,0-18.9c0-0.1,0-0.2,0-0.3C40.4,19.4,41.6,19.4,42.8,19.4z"/>
		<path class="st1" d="M22.9,19.4c0,0.1,0,0.2,0,0.3c0,6.3,0,12.5,0,18.8c0,0.3,0,0.3-0.3,0.3c-1,0-2,0-3.1,0c-0.3,0-0.3,0-0.3-0.3
			c0-2.9,0-5.8,0-8.7c0-3.5,0-6.9,0-10.4C20.4,19.4,21.6,19.4,22.9,19.4z"/>
		<path class="st1" d="M47.8,19.4c0,3.9,0,7.8,0,11.7c0,2.5,0,5,0,7.5c0,0.3,0,0.3-0.3,0.3c-1,0-2.1,0-3.1,0c-0.3,0-0.3,0-0.3-0.3
			c0-6.3,0-12.5,0-18.8c0-0.1,0-0.2,0-0.3C45.4,19.4,46.6,19.4,47.8,19.4z"/>
		<path class="st1" d="M37.8,19.4c0,0.1,0,0.2,0,0.3c0,6.2,0,12.5,0,18.7c0,0,0,0,0,0.1c0,0.3,0,0.3-0.3,0.3c-1,0-2.1,0-3.1,0
			c-0.3,0-0.3,0-0.3-0.3c0,0,0-0.1,0-0.1c0-6.2,0-12.4,0-18.6c0-0.1,0-0.2,0-0.4C35.4,19.4,36.6,19.4,37.8,19.4z"/>
		<path class="st1" d="M37.7,49.6c-0.1,0-0.2-0.1-0.3-0.1c-0.9-0.1-1.6-0.5-2.3-1.1c-0.1-0.1-0.1-0.1,0-0.2c0.2-0.4,0.5-0.8,0.7-1.2
			c0.1-0.1,0.1-0.1,0.2,0c0.4,0.4,0.8,0.7,1.3,0.8c0.5,0.2,1,0.2,1.5,0c0.5-0.3,0.6-0.9,0.1-1.3c-0.4-0.2-0.8-0.4-1.2-0.5
			c-0.8-0.3-1.5-0.6-2.1-1.3c-0.5-0.6-0.6-1.3-0.4-2c0.2-0.9,0.8-1.5,1.6-1.8c0.4-0.1,0.8-0.1,1.3-0.1c1,0,1.8,0.4,2.5,1
			c0,0,0,0,0.1,0c-0.3,0.5-0.5,0.9-0.8,1.3c-0.1,0.1-0.1,0.1-0.2,0c-0.4-0.3-0.8-0.5-1.2-0.7c-0.4-0.1-0.8-0.2-1.1,0
			c-0.4,0.2-0.6,0.8-0.1,1.2c0.3,0.2,0.7,0.4,1,0.5c0.7,0.2,1.3,0.4,1.9,0.9c0.6,0.5,0.9,1.2,0.8,1.9c-0.1,1-0.6,1.9-1.7,2.3
			c-0.3,0.1-0.5,0.2-0.8,0.3C38.2,49.6,38,49.6,37.7,49.6z"/>
		<path class="st1" d="M24.1,46.2c0-0.1,0-0.2,0-0.3c0-1.6,0-3.3,0-4.9c0-0.2,0-0.3,0.3-0.3c0.4,0,0.8,0,1.2,0
			c0.2,0,0.2,0.1,0.2,0.2c0,2.8,0,5.5,0,8.3c0,0.2-0.1,0.2-0.2,0.2c-0.4,0-0.8,0-1.1,0c-0.1,0-0.2-0.1-0.3-0.2
			c-0.7-1.2-1.5-2.5-2.2-3.7c-0.3-0.5-0.6-1.1-1-1.6c0,0,0-0.1-0.1-0.1c0,0.1,0,0.2,0,0.3c0,1.6,0,3.2,0,4.9c0,0.1,0,0.2,0,0.3
			c0,0.1-0.1,0.2-0.2,0.2c-0.4,0-0.8,0-1.3,0c-0.1,0-0.2-0.1-0.2-0.2c0-0.1,0-0.3,0-0.4c0-2.6,0-5.2,0-7.8c0-0.3,0-0.3,0.3-0.3
			c0.4,0,0.8,0,1.1,0c0.2,0,0.3,0.1,0.3,0.2c1,1.6,2,3.3,3,4.9C24,46,24,46.1,24.1,46.2C24.1,46.2,24.1,46.2,24.1,46.2z"/>
		<path class="st1" d="M44.1,44.4c0.1,0,0.2,0,0.3,0c0.9,0,1.8,0,2.7,0c0.2,0,0.2,0,0.2,0.2c0,0.3,0,0.7,0,1c0,0.2-0.1,0.3-0.3,0.3
			c-0.9,0-1.8,0-2.7,0c-0.3,0-0.3,0-0.3,0.3c0,0.5,0,1,0,1.5c0,0.3,0,0.3,0.3,0.3c1.1,0,2.1,0,3.2,0c0.3,0,0.3,0,0.3,0.3
			c0,0.3,0,0.7,0,1c0,0.2,0,0.2-0.2,0.2c-1.7,0-3.3,0-5,0c-0.2,0-0.2-0.1-0.2-0.2c0-2.8,0-5.5,0-8.3c0-0.2,0-0.2,0.2-0.2
			c1.7,0,3.3,0,5,0c0.2,0,0.2,0.1,0.2,0.2c0,0.4,0,0.7,0,1.1c0,0.2-0.1,0.2-0.2,0.2c-1,0-2,0-3,0c-0.5,0-0.5,0-0.5,0.5
			C44.1,43.3,44.1,43.8,44.1,44.4z"/>
		<path class="st1" d="M30.9,43.9c0.3-0.6,0.7-1.2,1-1.7c0.2-0.4,0.5-0.8,0.7-1.3c0.1-0.1,0.2-0.2,0.3-0.2c0.5,0,1,0,1.6,0
			c0.1,0,0.1,0,0.2,0c0,0.1,0,0.2-0.1,0.2c-0.5,0.8-1,1.6-1.5,2.4c-0.5,0.7-0.9,1.5-1.4,2.2c-0.1,0.1-0.1,0.3-0.1,0.4
			c0,1.1,0,2.1,0,3.2c0,0.3,0,0.3-0.3,0.3c-0.4,0-0.7,0-1.1,0c-0.2,0-0.2-0.1-0.2-0.2c0-1.1,0-2.2,0-3.3c0-0.3-0.1-0.5-0.3-0.7
			c-0.9-1.4-1.7-2.8-2.6-4.2c0,0-0.1-0.1-0.1-0.1c-0.1-0.1,0-0.2,0.1-0.2c0.6,0,1.1,0,1.7,0c0.1,0,0.2,0.1,0.3,0.2
			c0.5,0.9,1.1,1.9,1.6,2.8C30.8,43.8,30.8,43.9,30.9,43.9z"/>
	</g>
</g>
<g>
	<path class="st2" d="M-884.1-1156.4c-5.5,0-10.8,0-16.2,0c-3.8,0-4.6-0.9-4-4.7c2-12.8,3.9-25.6,6-38.5c1.9-12.1,3.8-24.2,5.8-36.4
		c0.4-2.8,2-4.5,4.8-4.5c11.6,0,23.2-0.3,34.8,0.2c6.9,0.3,13.5,2.4,18,8.6c2.9,4,3.4,8.6,3,13.3c-0.1,1.5,0.6,2.2,1.5,3.2
		c2,2.2,4.2,4.7,5.1,7.4c3.8,11.5-3.3,27.4-14.2,32.6c-5,2.4-10.4,2.9-15.9,3c-4.1,0-4.8,0.7-5.4,4.7c-0.9,5.8-1.8,11.6-2.7,17.4
		c-0.4,2.6-1.9,3.9-4.4,3.9c-4.7,0-9.3,0-14,0c-2.6,0-3.4-1-3.1-3.7C-884.8-1151.7-884.4-1153.9-884.1-1156.4z"/>
	<path class="st2" d="M-768-1219.1c5.7,0.5,11.5,0.6,17.1,1.6c6.3,1.2,11,6.1,10.8,13.9c-0.2,5.9-1.3,11.3-4.7,16.2
		c-3.6,5.2-8.9,7.6-15,8.3c-3.8,0.4-7.7,0.3-11.5,0.7c-0.9,0.1-2.4,1.2-2.5,2.1c-0.9,4.1-1.6,8.3-2.2,12.5c-0.6,4-1.8,5.1-5.3,4.9
		c-2.6-0.2-5.3,0-7.9-0.1c-2.2,0-2.8-1.1-2.4-3.2c1-6.1,1.9-12.3,2.9-18.4c1.1-7.2,2.3-14.5,3.5-21.7c0.6-3.9,1.3-7.8,1.8-11.8
		c0.4-3.2,1.6-4.5,4.8-4.5c3.5,0,7,0,10.5,0C-768-1218.8-768-1218.9-768-1219.1z M-771.7-1191.2c2,0,3.9,0,5.8,0
		c6.5,0,9.4-3.1,9.4-9.7c0-2.3-1-4.1-3.2-4.5c-2.5-0.5-5.2-0.4-7.8-0.6c-1.5-0.1-2.1,0.5-2.3,2.1
		C-770.2-1199.7-771-1195.6-771.7-1191.2z"/>
	<path class="st2" d="M-616.2-1178.5c-6.9-0.1-6.4-1-7.4,6.5c-0.5,3.4-1,6.9-1.6,10.3c-0.3,1.8-1.3,2.8-3.3,2.7c-3-0.1-6,0-9,0
		c-2.5,0-3.3-0.8-2.9-3.4c0.9-6,1.9-12,2.9-18.1c1.5-9.4,3-18.8,4.4-28.1c0.4-2.3,0.5-4.7,1.2-6.9c0.4-1.2,1.9-2.7,2.9-2.7
		c9.6,0.1,19.3-0.1,28.8,1c8.5,1,12.2,8.5,11,16.8c-0.8,6-2.5,11.6-7.1,16c-3.4,3.3-7.6,4.8-12.2,5.5
		C-610.9-1178.7-613.6-1178.7-616.2-1178.5z M-620.6-1191.2c3.1,0,5.9,0.3,8.5-0.1c3-0.4,5.3-2.1,6.3-5.1c1.7-5.1,0-9-4.3-9.5
		c-2.2-0.2-4.4-0.2-6.5-0.1c-0.7,0.1-1.7,0.9-1.8,1.6C-619.3-1200.1-619.9-1195.8-620.6-1191.2z"/>
	<path class="st2" d="M-708-1195.4c0.3-3.6,2.5-3.9,5.2-3.8c2,0.1,4,0,6.1,0c2.7,0,3.4,1,3,3.6c-1.6,10.6-3.1,21.2-4.8,31.7
		c-0.6,3.8-1.2,4.9-5.4,4.7c-1.9-0.1-3.9-0.1-5.8,0c-2.5,0.2-3.9-0.6-3.6-3.6c-2.1,1.1-3.9,2.3-5.8,3c-9.8,3.7-21.1,0.6-24-10.6
		c-3.5-13.3,6.7-29.8,22.2-29.5C-713.7-1199.5-711.7-1199-708-1195.4z M-729-1177.5c-0.6,5.2,3.8,8.1,8.3,8
		c6.4-0.1,10.9-4.9,11.1-11.1c0.1-4.5-2.7-7.8-8.3-8C-724.5-1188.7-729.7-1182.3-729-1177.5z"/>
	<path class="st2" d="M-561.9-1163.2c-3.6,2.7-7.1,4.4-11.4,4.8c-11.1,1.1-17.8-4.8-19-13.9c-1.5-11.4,4.8-23,16.4-26.5
		c5.2-1.6,10.6-1.5,15.6,0.8c1.2,0.6,2.3,1.6,3.5,2.5c-0.1-3.2,1.9-3.7,4.6-3.5c2.3,0.1,4.6,0,6.9,0c2.5,0.1,3.3,1.1,2.9,3.5
		c-1.7,11-3.5,22-5.2,33c-0.3,2.1-1.5,3.3-3.7,3.3c-2.4,0-4.7,0-7.1,0C-561.7-1159.1-562.1-1159.5-561.9-1163.2z M-569.9-1169.5
		c6.6,0,11.3-4.6,11.3-11.1c0-4.9-3.2-7.9-8.3-7.9c-6.2,0-11.2,5.1-11.2,11.4C-578.2-1172.4-575.1-1169.5-569.9-1169.5z"/>
	<path class="st2" d="M-668-1177.5c1.4-2,2.6-3.6,3.7-5.2c3.2-4.7,6.5-9.3,9.5-14c1.1-1.7,2.5-2.3,4.3-2.3c2.6-0.1,5.3-0.1,7.9,0
		c1,0.1,2.5,0.5,2.9,1.3c0.4,0.7-0.1,2.2-0.7,3c-9.5,13.8-19,27.5-28.5,41.2c-0.9,1.4-2.1,2.6-2.8,4.1c-1.6,3.4-4.2,4.7-7.9,4.2
		c-2.1-0.3-4.2,0-6.3-0.1c-2.4-0.1-3.3-1.6-2-3.6c2.8-4.2,5.8-8.3,8.7-12.4c1-1.4,1.3-2.6,0.7-4.3c-3.5-9.9-6.8-19.9-10.1-29.9
		c-0.8-2.4-0.1-3.5,2.3-3.6c2.9-0.1,5.8-0.2,8.7,0c1.9,0.1,3.3,0.9,3.9,3.1C-671.9-1189.9-670-1184-668-1177.5z"/>
	<path class="st2" d="M-525.6-1218.5c6.9,0,7,0,6,6.9c-2.4,15.4-4.9,30.8-7.3,46.2c-0.1,0.8-0.1,1.6-0.2,2.4c-0.5,3.1-1.5,4-4.7,4
		c-2.2,0-4.4,0-6.6,0c-2.2,0-3.1-1.1-2.7-3.2c1.1-7.1,2.3-14.3,3.5-21.4c1.3-8.3,2.6-16.5,3.9-24.8c0.4-2.6,0.7-5.2,1.1-7.8
		c0.3-1.6,1.3-2.4,2.9-2.4C-528.4-1218.5-527-1218.5-525.6-1218.5z"/>
</g>
<path class="st2" d="M-871.2-1238.9c6.9,0.4,13.9,0.4,20.7,1.2c3.5,0.4,6.9,2,10,3.7c3.9,2.2,6.4,6,6.9,10.4
	c1.3,11.3-1.3,21.5-9.9,29.5c-6.5,6-14.7,7.5-23.2,7.8c-2.8,0.1-5.6,0-8.4,0c-3.4,0-4.6,1-5.1,4.3c-1.3,7.7-2.6,15.4-3.6,23.2
	c-0.4,2.7-1.4,3.5-4,3.4c-4.6-0.2-9.1,0-13.7-0.1c-3,0-3.8-0.9-3.3-3.9c3.9-24.9,7.9-49.8,11.8-74.7c0.6-3.7,1.6-4.6,5.4-4.6
	c5.4,0,10.9,0,16.3,0C-871.2-1238.7-871.2-1238.8-871.2-1238.9z"/>
<path class="st3" d="M-1488-694.1c0,80.4,0,160.7,0,241c80.4,0,160.7,0,241,0c0-80.4,0-160.7,0-241
	C-1327.4-694.1-1407.7-694.1-1488-694.1z M-1370.3-596.1c0.2,8.6,0,17.2,0,26c-3.3,0-6.5,0-9.8,0c-0.1-0.6-0.2-1.2-0.3-2
	c-0.4,0.1-0.7,0.2-1,0.4c-3.9,2.5-8,3.4-12.5,2.2c-4.7-1.2-7.2-4.5-8-9.1c-0.8-4.6,0.6-8.4,4.6-11c4.3-2.9,9.2-3.5,14.2-3.9
	c0.4,0,0.9-0.1,1.5-0.1c0.4-3.3-0.7-4.9-3.6-4.8c-2.9,0.1-5.8,0.7-8.6,1.4c-1.3,0.3-2,0.4-2.6-1c-0.8-1.9-1.8-3.8-2.7-5.6
	c6-4.3,17.9-4.8,23.9-1.1C-1372-602.8-1370.3-599.8-1370.3-596.1z M-1387.1-556.6c0-2.2,0.7-2.7,2.7-2.6c3,0.2,6,0,9.2,0
	c0,16.4,0,32.3,0,48.5c-3.9,0-7.7,0-11.7,0c0-0.8-0.1-1.5-0.1-2.2C-1387-527.5-1387-542.1-1387.1-556.6z M-1401.8-664.4
	c7.1-4.2,14.5-3.9,21.7,0.2c0.6,0.4,1.2,0.9,1.9,1.5c-1.6,2.5-3.1,4.8-4.6,7.1c-5.4-2.5-10.7-3.6-14.7,2.2
	c-2.3,3.4-1.8,9.2,0.7,12.1c3,3.4,7.3,3.5,14.6,0.1c1.3,2.2,2.7,4.4,4,6.7c0.2,0.3-0.2,1.3-0.6,1.6c-8.2,5.8-22.2,5.9-28.8-3.6
	C-1413.9-645.6-1411.4-658.8-1401.8-664.4z M-1420.4-546.3c-3.5,0-6.3-2.8-6.4-6.3c0-3.5,2.7-6.2,6.4-6.2c3.5,0,6.2,2.7,6.2,6.1
	C-1414.1-549.1-1416.9-546.3-1420.4-546.3z M-1414.7-541.1c0,10.1,0,20.2,0,30.4c-4,0-7.8,0-11.6,0c0-10.2,0-20.2,0-30.4
	C-1422.4-541.1-1418.6-541.1-1414.7-541.1z M-1414.5-570.2c-4,0-7.8,0-11.8,0c0-11.9,0-23.9,0-36.1c3.3,0,6.4,0,9.7,0
	c0.1,1.2,0.2,2.3,0.2,3.4c2.1-1.2,4-2.7,6.2-3.6c2.1-0.8,4.4-1,7.3-1.6c-0.9,3.8-1.5,6.8-2.3,9.7c-0.1,0.3-1,0.5-1.5,0.7
	c-1.5,0.6-3.2,0.9-4.6,1.7c-2.3,1.2-3.4,3-3.3,5.9C-1414.4-583.5-1414.5-576.9-1414.5-570.2z M-1469.1-678.5c4.4,0,8.5-0.1,12.6,0.1
	c0.6,0,1.4,1,1.6,1.7c3.2,9,6.4,18,9.5,27.1c0.3,1,0.7,2,1.1,3c0.2,0,0.3,0,0.5,0c1.9-5.7,3.7-11.4,5.6-17.1
	c1.4-4.4,2.9-8.7,4.3-13.1c0.4-1.2,0.8-1.8,2.2-1.7c3.5,0.1,6.9,0,10.4,0c1,0,1.6,0.1,1.8,1.4c1.6,15.1,3.3,30.3,4.9,45.4
	c0,0.4,0,0.9,0,1.5c-3.9,0-7.7,0-11.7,0c-0.9-10.1-1.9-20.1-2.8-30c-0.1,0-0.2-0.1-0.3-0.1c-0.9,2.7-1.8,5.4-2.7,8.1
	c-2.2,6.8-4.5,13.6-6.6,20.4c-0.4,1.5-1.2,1.9-2.6,1.8c-1-0.1-2.1,0-3.2,0c-5.5,0-5.5,0-7.3-5.3c-2.8-8.3-5.7-16.7-8.9-25
	c-0.3,4.7-0.7,9.5-1,14.2c-0.3,4.8-0.6,9.6-1,14.4c-0.1,0.6-0.8,1.5-1.3,1.6c-3.2,0.1-6.5,0.1-10.1,0.1
	C-1472.4-646.3-1470.8-662.3-1469.1-678.5z M-1477.8-596.4c0.9-14.9,12.2-24.5,27.6-23.6c5.5,0.3,10.6,1.4,14.9,5
	c0.2,0.2,0.4,0.4,0.8,0.8c-1.8,2.6-3.4,5.1-5.1,7.7c-8.1-4.1-16.1-5.8-22.9,2c-4.3,5-4,14.8,0,20c3.7,4.9,10.9,6.7,17.4,4.3
	c0-2,0-4.1,0-6.4c-2.8,0-5.5,0-8.4,0c0-3,0-5.8,0-8.8c6.3,0,12.7,0,19.3,0c0,3.5,0,6.8,0,10.2c0,3.1,0.1,6.2-0.1,9.3
	c0,0.8-0.5,1.8-1.1,2.3c-8.9,6.1-27.3,7.3-36.5-3.2C-1476.7-582.5-1478.2-589.2-1477.8-596.4z M-1474.4-512.8c0-14.7,0-29.3,0-43.9
	c0-1.8,0.4-2.6,2.4-2.5c3.2,0.2,6.4,0,9.9,0c0,6.3,0,12.3,0,18.4c5.3,0,10.4,0,15.7,0c0-6.1,0-12.1,0-18.2c4.1,0,8,0,12,0
	c0,16.1,0,32.2,0,48.3c-3.9,0-7.7,0-11.8,0c0-6.5,0-13,0-19.7c-5.3,0-10.4,0-15.8,0c0,6.5,0,13,0,19.7c-4.2,0-8.1,0-12.2,0
	C-1474.3-511.5-1474.4-512.2-1474.4-512.8z M-1453.1-470.9c-0.1,1,0,2.1,0,3.3c-7.1,0-14,0-21.1,0c0-10.8,0-21.7,0-32.6
	c6.8,0,13.6,0,20.5,0c0,1.8,0,3.6,0,5.7c-4.5,0-8.9,0-13.3,0c0,2.5,0,4.7,0,7.1c4.2,0,8.3,0,12.6,0c0,2.1,0,3.9,0,6
	c-4.1,0-8.3,0-12.5,0c0,2.7,0,5.2,0,7.9c3.8,0,7.5,0.1,11.3,0C-1453.6-473.7-1452.8-473-1453.1-470.9z M-1426.2-467.2
	c-2.2-0.3-4.2-0.7-6.2-0.9c-0.3,0-0.7,0.1-1,0.2c-8.4,4-17.5-2.1-15.9-13.6c1.2-8.1,7-12.2,15-10.7c0.4,0.1,0.7,0.1,1.4,0.1
	c0-2.7,0-5.3,0-8.1c2.4,0,4.4,0,6.7,0C-1426.2-489.4-1426.2-478.6-1426.2-467.2z M-1399.1-467.6c-2.1-0.4-4.4,1-6.2-0.9
	c-1.8,0.6-3.6,1.4-5.4,1.6c-5.1,0.7-9.5-2.8-9.7-8.1c-0.2-4.9-0.1-9.8-0.1-14.7c0-0.7,0-1.3,0-2.4c2.1,0,3.9-0.1,5.6,0.1
	c0.5,0.1,1.2,1.2,1.2,1.8c0.1,4.3,0,8.6,0.1,12.9c0,4,2,5.3,5.7,4c1.3-0.5,2-1.2,1.9-2.8c-0.1-4.7,0-9.4-0.1-14c0-1.4,0.3-2.1,1.9-2
	c1.6,0.1,3.3,0,5,0C-1399.1-483.8-1399.1-475.8-1399.1-467.6z M-1394.7-510.8c-4,0-7.9,0-11.8,0c0-16.1,0-32.1,0-48.4
	c3.7,0,7.2,0,10.7,0.1c0.4,0,0.9,0.7,1.1,1.1c0.2,0.5,0.1,1,0.1,1.6c0,14.4,0,28.8,0,43.2C-1394.7-512.5-1394.7-511.7-1394.7-510.8z
	 M-1390.9-470c-5-4.9-5.1-13.7-0.1-18.8c4.6-4.7,13.1-5.1,17.8-0.6c-0.9,1.3-1.7,2.7-2.6,4.1c-5.6-2.1-8.3-1.8-10.4,1.1
	c-1.9,2.6-2.1,6.9-0.1,9.4c3.2,3.9,7,2.3,10.9,0.7c0.9,1.5,1.7,2.9,2.5,4.2C-1377.2-465.6-1386.4-465.7-1390.9-470z M-1349.9-467.5
	c-2.2-0.3-4.4,0.9-5.9-0.5c-3,0.3-5.8,1-8.5,0.8c-3.2-0.1-5.3-2.3-5.9-5.4c-0.7-3.3-0.4-6.6,2.7-8.4c2.3-1.3,5.2-1.8,7.8-2.6
	c1-0.3,2-0.2,3.2-0.3c-0.7-3.8-1.6-3.9-10.4-1.8c-0.1,0-0.2-0.1-0.2-0.1c-2.8-4.1-2.4-5,2.4-6.2c3.3-0.8,6.5-1,9.8,0.2
	c2.8,1,4.8,3,4.9,5.9C-1349.7-479.8-1349.9-473.8-1349.9-467.5z M-1333.2-466.7c-6.1,0.4-9.4-2.6-9.4-8.7c0-3.5,0-6.9,0-10.5
	c-1.5-0.1-2.7-0.1-4-0.2c0-1.9,0-3.7,0-5.7c1.3-0.1,2.5-0.2,4-0.4c0-2.1,0-4.1,0-6.2c2.4,0,4.5,0,6.9,0c0,2.1,0,4.1,0,6.4
	c1.8,0,3.5,0.1,5.1,0c1.3-0.1,2,0.3,1.9,1.7c-0.1,1.3,0,2.7,0,4.2c-2.4,0-4.5,0-6.9,0c0,3.7-0.1,7.1,0,10.5c0.1,2.3,1.5,3.2,3.9,2.8
	c0.7-0.1,1.3-0.3,1.8-0.4c0.2,0.2,0.3,0.2,0.4,0.2C-1327.3-468.2-1328-467.1-1333.2-466.7z M-1316.8-467.6c-0.7,0-1.2,0.1-1.7,0.1
	c-1.6,0-3.2,0-4.9,0c-0.1-0.8-0.2-1.4-0.2-2.1c0-6,0.1-11.9,0-17.9c0-2,0.7-2.5,2.5-2.4c1.4,0.1,2.8,0,4.4,0
	C-1316.8-482.3-1316.8-475.1-1316.8-467.6z M-1320-492.3c-2.3,0-4-1.6-4-3.9c0-2.2,1.8-4,4-4c2.2,0,3.8,1.7,3.9,3.9
	C-1316.1-494-1317.7-492.4-1320-492.3z M-1314-601.9c-2.7,10-5.4,19.9-8,29.9c-0.4,1.5-0.9,2-2.4,1.9c-2.4-0.1-4.8-0.2-7.2,0
	c-2.2,0.2-3.2-0.5-3.7-2.8c-1.2-5.4-2.7-10.7-4.1-16c-0.2-0.6-0.4-1.2-0.6-1.8c-0.2,0-0.3,0-0.5,0c-1.5,6.1-3,12.3-4.4,18.4
	c-0.3,1.5-0.9,2.2-2.5,2.1c-2.6-0.1-5.3,0.1-7.9-0.1c-0.7,0-1.8-0.7-2-1.2c-3.3-11.3-6.5-22.7-9.8-34.1c-0.1-0.2,0-0.4-0.1-0.9
	c3.4,0,6.8-0.1,10.2,0.1c0.5,0,1.2,1.1,1.4,1.8c1.7,6.5,3.2,13,5.2,19.5c0.9-3.6,1.9-7.2,2.8-10.9c0.8-3,1.6-6,2.3-9
	c0.3-1.3,0.8-1.8,2.2-1.7c0.5,0.1,1.1,0,1.6,0c2.2,0.1,5.1-0.6,6.5,0.5c1.4,1.1,1.5,4.1,2,6.3c1.3,5,2.5,9.9,4.1,14.9
	c1.7-7.1,3.4-14.3,5.1-21.5c3.5,0,7,0,10.8,0C-1313.3-604.7-1313.6-603.3-1314-601.9z M-1300.2-466.7c-7.2,0-12.1-5.3-12.1-12.9
	c0-7.8,5.3-13,12.9-13c7,0.1,12,5.4,12.1,12.6C-1287.3-472.2-1292.6-466.7-1300.2-466.7z M-1261.4-467.7c-2.3,0-4.4,0-6.9,0
	c0-2.5,0-5.2,0-7.8c0-2.7,0-5.4-0.3-8.1c-0.2-2.4-1.4-3.1-3.7-3c-2.8,0.2-3.9,1.2-3.9,3.6c0,5.1,0,10.1,0,15.3c-2.3,0-4.5,0-6.9,0
	c0-0.8-0.1-1.6-0.1-2.4c0-6.1,0-12.2,0-18.4c0-3.9-0.5-3.6,3.7-3.6c0.9,0,1.9,0.4,2.8,0.7c0,0.1,0,0.2,0,0.3
	c1.9-0.5,3.7-1.4,5.6-1.5c5.4-0.5,9.2,2.9,9.5,8.6c0.3,4.5,0.1,9.1,0.1,13.6C-1261.4-469.5-1261.4-468.7-1261.4-467.7z"/>
<path class="st2" d="M-1464-630.2c0.5,0,1.3-1,1.3-1.6c0.4-4.8,0.7-9.6,1-14.4c0.3-4.7,0.7-9.5,1-14.2c3.2,8.3,6.1,16.6,8.9,25
	c1.8,5.3,1.8,5.3,7.3,5.3c1.1,0,2.1-0.1,3.2,0c1.4,0.1,2.1-0.3,2.6-1.8c2.1-6.8,4.4-13.6,6.6-20.4c0.9-2.7,1.8-5.4,2.7-8.1
	c0.1,0,0.2,0.1,0.3,0.1c0.9,10,1.8,19.9,2.8,30c4,0,7.8,0,11.7,0c0-0.6,0-1,0-1.5c-1.6-15.1-3.3-30.3-4.9-45.4
	c-0.1-1.3-0.7-1.4-1.8-1.4c-3.5,0-6.9,0.1-10.4,0c-1.3,0-1.8,0.6-2.2,1.7c-1.4,4.4-2.8,8.7-4.3,13.1c-1.9,5.7-3.7,11.4-5.6,17.1
	c-0.2,0-0.3,0-0.5,0c-0.4-1-0.7-2-1.1-3c-3.2-9-6.3-18.1-9.5-27.1c-0.3-0.7-1-1.7-1.6-1.7c-4.1-0.1-8.3-0.1-12.6-0.1
	c-1.6,16.2-3.3,32.2-4.9,48.4C-1470.4-630.1-1467.2-630-1464-630.2z"/>
<path class="st2" d="M-1462-530.4c5.3,0,10.4,0,15.8,0c0,6.7,0,13.2,0,19.7c4.1,0,7.9,0,11.8,0c0-16.2,0-32.2,0-48.3
	c-4,0-7.9,0-12,0c0,6.2,0,12.2,0,18.2c-5.3,0-10.4,0-15.7,0c0-6.1,0-12.1,0-18.4c-3.4,0-6.7,0.1-9.9,0c-2-0.1-2.4,0.7-2.4,2.5
	c0.1,14.6,0,29.3,0,43.9c0,0.7,0.1,1.3,0.1,2.1c4.1,0,8,0,12.2,0C-1462-517.4-1462-523.9-1462-530.4z"/>
<path class="st2" d="M-1435.2-573.7c0.6-0.4,1-1.5,1.1-2.3c0.1-3.1,0.1-6.2,0.1-9.3c0-3.4,0-6.7,0-10.2c-6.7,0-13,0-19.3,0
	c0,3,0,5.8,0,8.8c2.9,0,5.6,0,8.4,0c0,2.3,0,4.4,0,6.4c-6.4,2.4-13.6,0.6-17.4-4.3c-4-5.2-4.3-15,0-20c6.7-7.8,14.7-6.1,22.9-2
	c1.7-2.5,3.4-5,5.1-7.7c-0.4-0.4-0.6-0.6-0.8-0.8c-4.3-3.6-9.5-4.7-14.9-5c-15.4-0.8-26.7,8.8-27.6,23.6c-0.4,7.2,1,13.9,6,19.6
	C-1462.5-566.4-1444.1-567.6-1435.2-573.7z"/>
<path class="st2" d="M-1328.9-584.6c-1.6-5-2.9-10-4.1-14.9c-0.6-2.2-0.6-5.1-2-6.3c-1.4-1.1-4.3-0.4-6.5-0.5c-0.5,0-1.1,0.1-1.6,0
	c-1.3-0.2-1.9,0.4-2.2,1.7c-0.7,3-1.5,6-2.3,9c-0.9,3.6-1.9,7.2-2.8,10.9c-2-6.6-3.6-13.1-5.2-19.5c-0.2-0.7-0.9-1.8-1.4-1.8
	c-3.4-0.2-6.8-0.1-10.2-0.1c0,0.5,0,0.7,0.1,0.9c3.2,11.4,6.4,22.8,9.8,34.1c0.2,0.6,1.3,1.2,2,1.2c2.6,0.1,5.3,0,7.9,0.1
	c1.6,0.1,2.2-0.6,2.5-2.1c1.4-6.2,2.9-12.3,4.4-18.4c0.2,0,0.3,0,0.5,0c0.2,0.6,0.4,1.2,0.6,1.8c1.4,5.3,2.9,10.6,4.1,16
	c0.5,2.2,1.5,2.9,3.7,2.8c2.4-0.2,4.8-0.1,7.2,0c1.5,0.1,2.1-0.5,2.4-1.9c2.6-10,5.3-19.9,8-29.9c0.4-1.4,0.7-2.8,1-4.3
	c-3.8,0-7.3,0-10.8,0C-1325.5-598.9-1327.2-591.8-1328.9-584.6z"/>
<path class="st2" d="M-1399.1-603.7c0.9,1.8,1.9,3.7,2.7,5.6c0.6,1.4,1.3,1.3,2.6,1c2.8-0.7,5.7-1.3,8.6-1.4c2.9-0.1,4,1.5,3.6,4.8
	c-0.6,0-1,0.1-1.5,0.1c-5,0.4-9.9,1-14.2,3.9c-4,2.6-5.4,6.4-4.6,11c0.8,4.6,3.3,7.9,8,9.1c4.5,1.2,8.7,0.2,12.5-2.2
	c0.3-0.2,0.6-0.2,1-0.4c0.1,0.8,0.2,1.4,0.3,2c3.4,0,6.6,0,9.8,0c0-8.8,0.1-17.4,0-26c-0.1-3.7-1.7-6.7-5-8.7
	C-1381.2-608.5-1393.2-608-1399.1-603.7z M-1381.1-581.8c0,2.7-2.5,4.2-6.6,4.1c-2.9-0.1-4.4-1.7-4.2-4.4c0.1-1.9,1.1-3.2,2.9-3.6
	c2.5-0.6,5.1-0.8,7.9-1.3C-1381.1-584.8-1381.1-583.3-1381.1-581.8z"/>
<path class="st2" d="M-1378.8-632.9c0.4-0.3,0.8-1.2,0.6-1.6c-1.3-2.3-2.7-4.5-4-6.7c-7.4,3.4-11.7,3.3-14.6-0.1
	c-2.6-2.9-3.1-8.7-0.7-12.1c4-5.8,9.3-4.6,14.7-2.2c1.5-2.4,3-4.6,4.6-7.1c-0.8-0.6-1.3-1.2-1.9-1.5c-7.2-4-14.6-4.4-21.7-0.2
	c-9.5,5.6-12.1,18.8-5.7,27.9C-1401-627-1387-627.1-1378.8-632.9z"/>
<path class="st2" d="M-1394.8-558c-0.2-0.5-0.7-1.1-1.1-1.1c-3.5-0.1-7-0.1-10.7-0.1c0,16.3,0,32.3,0,48.4c3.9,0,7.8,0,11.8,0
	c0-0.9,0-1.7,0-2.4c0-14.4,0-28.8,0-43.2C-1394.7-557-1394.6-557.5-1394.8-558z"/>
<path class="st2" d="M-1386.9-510.7c4,0,7.8,0,11.7,0c0-16.1,0-32.1,0-48.5c-3.2,0-6.2,0.1-9.2,0c-2-0.1-2.7,0.4-2.7,2.6
	c0.1,14.6,0.1,29.1,0.1,43.7C-1387-512.2-1386.9-511.5-1386.9-510.7z"/>
<path class="st2" d="M-1411.3-595.9c1.4-0.8,3.1-1.1,4.6-1.7c0.5-0.2,1.4-0.3,1.5-0.7c0.8-2.9,1.4-5.9,2.3-9.7
	c-2.9,0.6-5.2,0.8-7.3,1.6c-2.2,0.9-4.1,2.3-6.2,3.6c-0.1-1.1-0.1-2.2-0.2-3.4c-3.3,0-6.4,0-9.7,0c0,12.2,0,24.1,0,36.1
	c4,0,7.8,0,11.8,0c0-6.7,0.1-13.3-0.1-19.9C-1414.7-592.8-1413.5-594.7-1411.3-595.9z"/>
<path class="st2" d="M-1432.9-492.1c-0.7,0-1,0-1.4-0.1c-8-1.5-13.8,2.5-15,10.7c-1.6,11.5,7.5,17.6,15.9,13.6
	c0.3-0.1,0.7-0.3,1-0.2c2,0.3,4,0.6,6.2,0.9c0-11.4,0-22.1,0-32.9c-2.3,0-4.4,0-6.7,0C-1432.9-497.4-1432.9-494.8-1432.9-492.1z
	 M-1432.9-479.8c0,1.1,0,2.1,0,3.2c0,3.3-2.5,5.1-5.6,3.7c-1.2-0.5-2.4-1.7-3-2.8c-1.3-2.6-1.2-5.4,0.1-8c1.3-2.6,4.8-3.8,7.4-2.5
	c0.5,0.3,1,1.1,1.1,1.7C-1432.8-483-1432.9-481.4-1432.9-479.8C-1432.9-479.8-1432.9-479.8-1432.9-479.8z"/>
<path class="st2" d="M-1455.7-473.6c-3.7,0.2-7.5,0-11.3,0c0-2.8,0-5.2,0-7.9c4.2,0,8.4,0,12.5,0c0-2.1,0-3.9,0-6
	c-4.3,0-8.4,0-12.6,0c0-2.4,0-4.6,0-7.1c4.5,0,8.9,0,13.3,0c0-2.1,0-3.9,0-5.7c-6.9,0-13.7,0-20.5,0c0,11,0,21.8,0,32.6
	c7.1,0,14,0,21.1,0c0-1.2-0.1-2.2,0-3.3C-1452.8-473-1453.6-473.7-1455.7-473.6z"/>
<path class="st2" d="M-1299.4-492.6c-7.6-0.1-12.8,5.2-12.9,13c0,7.6,4.9,12.9,12.1,12.9c7.6,0,12.9-5.5,12.9-13.3
	C-1287.4-487.2-1292.4-492.5-1299.4-492.6z M-1299.6-472.6c-3.3,0.1-5.7-2.9-5.8-7c-0.1-4.7,2.7-7.6,6.5-6.9c2.7,0.5,4.4,3.1,4.4,7
	C-1294.5-475.3-1296.4-472.7-1299.6-472.6z"/>
<path class="st2" d="M-1404.2-492.1c-1.5-0.1-1.9,0.6-1.9,2c0.1,4.7-0.1,9.4,0.1,14c0,1.6-0.6,2.3-1.9,2.8c-3.7,1.3-5.7,0-5.7-4
	c0-4.3,0-8.6-0.1-12.9c0-0.6-0.7-1.7-1.2-1.8c-1.8-0.2-3.6-0.1-5.6-0.1c0,1.1,0,1.8,0,2.4c0,4.9-0.1,9.8,0.1,14.7
	c0.2,5.2,4.6,8.8,9.7,8.1c1.8-0.3,3.6-1.1,5.4-1.6c1.8,1.9,4.1,0.5,6.2,0.9c0-8.3,0-16.2,0-24.5
	C-1400.9-492-1402.5-492-1404.2-492.1z"/>
<path class="st2" d="M-1261.5-484c-0.3-5.7-4.1-9-9.5-8.6c-1.9,0.2-3.7,1-5.6,1.5c0-0.1,0-0.2,0-0.3c-0.9-0.2-1.8-0.6-2.8-0.7
	c-4.2-0.1-3.7-0.3-3.7,3.6c0,6.1,0,12.2,0,18.4c0,0.8,0.1,1.6,0.1,2.4c2.4,0,4.5,0,6.9,0c0-5.2,0-10.3,0-15.3c0-2.4,1.1-3.4,3.9-3.6
	c2.3-0.2,3.4,0.6,3.7,3c0.3,2.7,0.3,5.4,0.3,8.1c0,2.6,0,5.2,0,7.8c2.5,0,4.6,0,6.9,0c0-1,0-1.8,0-2.7
	C-1261.4-474.9-1261.2-479.4-1261.5-484z"/>
<path class="st2" d="M-1354.8-491.7c-3.2-1.2-6.5-1.1-9.8-0.2c-4.8,1.2-5.1,2.2-2.4,6.2c0,0.1,0.1,0.1,0.2,0.1
	c8.7-2.1,9.7-2,10.4,1.8c-1.2,0.1-2.3,0-3.2,0.3c-2.6,0.7-5.5,1.2-7.8,2.6c-3.2,1.8-3.4,5.2-2.7,8.4c0.6,3.1,2.7,5.2,5.9,5.4
	c2.8,0.1,5.5-0.5,8.5-0.8c1.5,1.4,3.7,0.2,5.9,0.5c0-6.3,0.2-12.3-0.1-18.3C-1350-488.7-1352-490.7-1354.8-491.7z M-1356.4-474.5
	c-0.4,2.2-2.5,2.1-4.1,2.2c-1.7,0.1-3.2-0.4-3.6-2.3c-0.4-1.8,0.5-3.2,2.2-3.6c1.7-0.5,3.5-0.6,5.6-0.9
	C-1356.4-477.3-1356.2-475.8-1356.4-474.5z"/>
<path class="st2" d="M-1426.3-510.7c3.9,0,7.6,0,11.6,0c0-10.2,0-20.2,0-30.4c-3.9,0-7.7,0-11.6,0
	C-1426.3-530.9-1426.3-520.8-1426.3-510.7z"/>
<path class="st2" d="M-1329.9-473.1c-0.5,0.1-1.1,0.3-1.8,0.4c-2.4,0.4-3.8-0.5-3.9-2.8c-0.2-3.4,0-6.9,0-10.5c2.4,0,4.5,0,6.9,0
	c0-1.5-0.1-2.9,0-4.2c0.1-1.5-0.6-1.8-1.9-1.7c-1.6,0.1-3.3,0-5.1,0c0-2.3,0-4.3,0-6.4c-2.4,0-4.5,0-6.9,0c0,2.2,0,4.2,0,6.2
	c-1.5,0.1-2.7,0.2-4,0.4c0,2,0,3.7,0,5.7c1.3,0.1,2.5,0.1,4,0.2c0,3.6,0,7.1,0,10.5c0,6.1,3.3,9.1,9.4,8.7c5.2-0.4,5.8-1.5,3.7-6.1
	C-1329.5-472.9-1329.6-472.9-1329.9-473.1z"/>
<path class="st2" d="M-1386.3-475c-2-2.4-1.8-6.8,0.1-9.4c2.1-2.8,4.8-3.1,10.4-1.1c0.9-1.3,1.7-2.7,2.6-4.1
	c-4.7-4.5-13.2-4.2-17.8,0.6c-5,5.1-5,13.9,0.1,18.8c4.5,4.4,13.7,4.4,18.1,0c-0.8-1.3-1.6-2.6-2.5-4.2
	C-1379.2-472.6-1383.1-471.1-1386.3-475z"/>
<path class="st2" d="M-1321.1-489.8c-1.8-0.2-2.5,0.4-2.5,2.4c0.1,5.9,0,11.9,0,17.9c0,0.6,0.1,1.3,0.2,2.1c1.8,0,3.4,0,4.9,0
	c0.5,0,1-0.1,1.7-0.1c0-7.5,0-14.7,0-22.2C-1318.3-489.8-1319.7-489.7-1321.1-489.8z"/>
<path class="st2" d="M-1420.4-558.8c-3.7,0-6.4,2.6-6.4,6.2c0,3.5,2.8,6.3,6.4,6.3c3.6,0,6.3-2.8,6.3-6.3
	C-1414.2-556.1-1416.9-558.8-1420.4-558.8z"/>
<path class="st2" d="M-1320.1-500.2c-2.2,0-4,1.8-4,4c0,2.3,1.7,3.9,4,3.9c2.3,0,3.9-1.7,3.9-4
	C-1316.2-498.5-1317.9-500.2-1320.1-500.2z"/>
<g>
	<polygon class="st2" points="-846.1,-843.4 -846.1,-810.7 -813.3,-794.5 -780.7,-810.8 -780.7,-843.4 -813.3,-832.6 	"/>
	<g>
		<path class="st2" d="M-771.7-815.7h12.7c0.1,4.4,1.8,4.7,5.5,4.7h15.5c2.7,0,5.4-0.3,5.4-3.5c0-3.6-1.5-3.8-17.8-3.8
			c-19,0-21.2-2.3-21.2-12.4c0-7.5,0.7-13.2,16.6-13.2h17.7c14.6,0,16,5,16,12.2v1.3h-12.7c0-3-0.3-4.3-6.2-4.3h-14
			c-2.8,0-4.8,1-4.8,3.2c0,3.6,1.5,3.7,15.1,3.6c19.7-0.1,24.2,1.1,24.2,13.2c0,11.1-3.8,12.9-20.6,12.9h-15.3
			c-11.5,0-16.1-2.2-16.1-11.1V-815.7z"/>
		<path class="st2" d="M-689.9-833.9l8.2,15.5h-16.2L-689.9-833.9z M-720.5-802.2h14.1l3.7-7.3h25.6l3.9,7.3h14.1l-22.7-41.3h-16.5
			L-720.5-802.2z"/>
		<path class="st2" d="M-655.6-843.5h19.6l23.8,30h0.1v-30h12.7v41.3h-19.6l-23.8-30h-0.1v30h-12.7V-843.5z"/>
		<path class="st2" d="M-592.1-843.5h43.1v9.9h-30.4v7.7h29v9.6h-29v14.1h-12.7V-843.5z"/>
		<path class="st2" d="M-532.7-825c0-5.1,1.3-8.3,7.9-8.3h14.8c6.7,0,7.9,3.1,7.9,8.3v4.4c0,6-1.3,8.3-7.2,8.3h-16.2
			c-6,0-7.2-2.3-7.2-8.3V-825z M-545.7-816.7c0,12.1,6.8,14.9,18.2,14.9h20.3c11.4,0,18.2-2.9,18.2-14.9V-829
			c0-12.1-6.8-14.9-18.2-14.9h-20.3c-11.4,0-18.2,2.8-18.2,14.9V-816.7z"/>
		<path class="st2" d="M-471-833.2h19.8c4,0,5.8,0.7,5.8,4.3v1.4c0,3-1.3,4.3-4.7,4.3H-471V-833.2z M-483.7-802.2h12.7v-10.7h19.9
			c3.9,0,5.2,1.4,5.2,5.8v5h12.7v-7c0-6.8-3.1-8.4-6.9-9.1v-0.1c5.8-1.4,7.1-4.6,7.1-10.1v-2.6c0-7.4-2.6-12.3-12.4-12.3h-38.2
			V-802.2z"/>
		<path class="st2" d="M-414.9-833.2h22.5c5.4,0,7.5,1.5,7.5,7.4v5.6c0,5.9-2.1,7.4-7.5,7.4h-22.5V-833.2z M-427.5-802.2h38.2
			c12.6,0,17.1-4.2,17.1-14.4v-12.5c0-10.2-4.4-14.4-17.1-14.4h-38.2V-802.2z"/>
	</g>
</g>
<rect x="-1488" y="-694.1" class="st4" width="241" height="241"/>
<g>
	<path class="st2" d="M-939.1-542c-2.1,2.5-4.5,3.7-7.4,3.7c-3.3,0-6.1-1.2-8.1-3.6c-0.6-0.7-1.1-1.5-1.5-2.3c-4.5,1-8.7,2-12.8,3.1
		v5.2c0,2.1,0.5,3.7,1.4,4.8c1,1.1,2.2,1.6,3.8,1.6c1.6,0,2.9-0.5,3.9-1.6c1-1.1,1.5-2.7,1.5-4.8v-1.1c1.2,1.4,2.2,2.5,3,3.2
		c0.8,0.7,1.7,1.4,2.8,2.1c1.1,0.7,2.4,1.2,3.9,1.6c1.5,0.4,3.2,0.6,4.9,0.6c2.8,0,5.5-0.6,7.8-1.7c2.4-1.1,4.4-2.8,6-4.9
		c1.7-2.1,2.9-4.6,3.8-7.5c0.7-2.1,1.1-4.5,1.2-6.9c-4,0.7-7.9,1.4-11.6,2.1C-936.8-545.7-937.7-543.6-939.1-542z"/>
	<path class="st2" d="M-914.9-536.4c0,2.2,0.5,3.9,1.6,5.1c1,1.2,2.4,1.8,4,1.8c1.7,0,3.1-0.6,4.1-1.7c1.1-1.1,1.6-2.9,1.6-5.2
		v-17.3c-3.8,0.5-7.6,1.1-11.3,1.7V-536.4z"/>
	<path class="st2" d="M-890.2-536.4c0,2.2,0.5,3.9,1.6,5.1c1,1.2,2.4,1.8,4,1.8c1.7,0,3-0.6,4.1-1.7c1.1-1.2,1.6-2.9,1.6-5.1v-20.2
		c-3.8,0.4-7.6,0.8-11.3,1.2V-536.4z"/>
	<path class="st2" d="M-865.1-556c1.5,1.7,3.4,3.1,5.9,4.2c2.4,1.1,5.6,2.1,9.5,3.1c3.5,0.8,5.9,1.7,7.5,2.6
		c1.5,0.9,2.3,2.4,2.3,4.4c0,1.3-0.7,2.5-2.2,3.5c-1.5,1-3.3,1.5-5.6,1.5c-2.8,0-5-0.5-6.6-1.5c-1.6-1-3-2.5-4.2-4.5
		c-0.6-1.1-1.2-1.9-1.8-2.4c-0.6-0.6-1.5-0.9-2.7-0.9c-1.4,0-2.5,0.4-3.4,1.3c-0.9,0.9-1.3,2-1.3,3.2c0,1.9,0.7,3.8,2.1,5.6
		c1.4,1.9,3.5,3.4,6.4,4.7c2.9,1.2,6.4,1.9,10.5,1.9c4.3,0,7.9-0.6,10.9-1.7c3-1.1,5.2-2.8,6.7-5.1c1.5-2.2,2.3-4.9,2.3-8
		c0-2.1-0.6-3.9-1.7-5.5c-1.1-1.6-2.8-3-5.1-4.2c-2.2-1.2-5.1-2.2-8.6-3.1c-2.3-0.6-4.2-1.1-5.8-1.5c-5.4,0.3-10.8,0.6-16,1
		C-865.9-557.1-865.6-556.5-865.1-556z"/>
	<path class="st2" d="M-817.4-556c1.5,1.7,3.4,3.1,5.9,4.2c2.4,1.1,5.6,2.1,9.5,3.1c3.5,0.8,5.9,1.7,7.5,2.6
		c1.5,0.9,2.3,2.4,2.3,4.4c0,1.3-0.7,2.5-2.2,3.5c-1.5,1-3.3,1.5-5.6,1.5c-2.8,0-5-0.5-6.6-1.5c-1.6-1-3-2.5-4.2-4.5
		c-0.6-1.1-1.2-1.9-1.8-2.4c-0.6-0.6-1.5-0.9-2.7-0.9c-1.4,0-2.5,0.4-3.4,1.3c-0.9,0.9-1.3,2-1.3,3.2c0,1.9,0.7,3.8,2.1,5.6
		c1.4,1.9,3.5,3.4,6.4,4.7c2.9,1.2,6.4,1.9,10.5,1.9c4.3,0,7.9-0.6,10.9-1.7c3-1.1,5.2-2.8,6.7-5.1c1.5-2.2,2.3-4.9,2.3-8
		c0-2.1-0.6-3.9-1.7-5.5c-1.1-1.6-2.8-3-5.1-4.2c-2.2-1.2-5.1-2.2-8.6-3.1c-3-0.7-5.3-1.3-7-1.8c0,0,0,0,0,0
		c-5.2-0.2-10.4-0.3-15.5-0.3C-818.7-558.1-818.2-557-817.4-556z"/>
	<path class="st2" d="M-772.1-552.1c0,6.9,2,12.3,5.9,16.4c3.9,4.1,9.4,6.1,16.4,6.1c3.3,0,6.3-0.4,8.9-1.3c2.6-0.9,4.8-2.1,6.5-3.5
		c1.7-1.5,3-3,3.9-4.6c0.8-1.6,1.3-3.1,1.3-4.5c0-1.2-0.5-2.3-1.4-3.4c-0.9-1.1-2.1-1.6-3.4-1.6c-1.2,0-2.1,0.4-2.9,1.1
		c-0.8,0.7-1.5,1.7-2.2,3c-1.2,2.2-2.7,3.8-4.3,4.8c-1.6,1.1-3.6,1.6-5.8,1.6c-1.7,0-3.2-0.3-4.6-1c-1.4-0.6-2.6-1.6-3.6-2.9
		c-1-1.3-1.8-2.8-2.3-4.6c-0.5-1.8-0.8-3.7-0.8-5.9c0-1.3,0.1-2.5,0.3-3.7c-3.8-0.4-7.5-0.8-11.3-1.1
		C-772-555.5-772.1-553.8-772.1-552.1z"/>
	<path class="st2" d="M-719.8-536.4c0,2.2,0.5,3.9,1.6,5.1c1,1.2,2.4,1.8,4,1.8c1.7,0,3.1-0.6,4.1-1.7c1.1-1.1,1.6-2.9,1.6-5.2
		v-11.9c-3.7-0.6-7.5-1.2-11.3-1.8V-536.4z"/>
	<path class="st2" d="M-664.6-541.1c-0.9,0.8-1.9,1.5-2.9,2.2c-1.1,0.7-2.1,1.2-3.3,1.5c-1.1,0.3-2.4,0.5-3.7,0.5
		c-2,0-3.9-0.5-5.5-1.5c-1.7-1-3-2.5-4-4.4c-0.3-0.6-0.6-1.3-0.8-2.1c-3.9-0.5-7.8-1-11.7-1.5c0.9,4.3,2.7,7.9,5.5,10.8
		c4,4.2,9.7,6.2,17,6.2c3.2,0,6-0.4,8.4-1.2c2.4-0.8,4.5-1.9,6.1-3.1c1.6-1.3,2.8-2.6,3.6-3.9c0.8-1.4,1.2-2.6,1.2-3.6
		c0-0.2,0-0.4,0-0.6c-2.7-0.2-5.4-0.4-8.1-0.7C-663.6-542.1-664.2-541.6-664.6-541.1z"/>
	<path class="st2" d="M-618.1-540.2c-0.7,0.7-1.6,1.3-2.6,1.8c-1.9,1-4,1.5-6.2,1.5c-2.1,0-3.8-0.6-5.1-1.8
		c-0.6-0.6-1.1-1.2-1.4-1.9c-3.9-0.2-7.8-0.4-11.8-0.6c0.1,1.9,0.7,3.7,1.7,5.4c1.2,2,2.9,3.5,5.1,4.7c2.2,1.1,4.8,1.7,7.7,1.7
		c3.2,0,6.1-0.5,8.6-1.6c2.6-1.1,5.2-2.7,7.9-4.8c1.3,2.1,2.5,3.7,3.6,4.8c1.1,1.1,2.3,1.6,3.4,1.6c1.4,0,2.6-0.5,3.7-1.4
		c1.1-1,1.6-2,1.6-3.2c0-0.7-0.4-2.2-1.1-4.5c-0.2-0.5-0.3-1.1-0.4-1.6C-608.2-540.1-613.1-540.1-618.1-540.2z"/>
	<path class="st2" d="M-591-536.4c0,2.2,0.5,3.9,1.6,5.1c1.1,1.2,2.4,1.8,4,1.8c1.7,0,3.1-0.6,4.1-1.7c1.1-1.1,1.6-2.9,1.6-5.2v-4.5
		c-3.7,0.2-7.5,0.4-11.3,0.5V-536.4z"/>
	<path class="st2" d="M-561.9-536.4c0,2.2,0.5,3.9,1.6,5.1c1.1,1.2,2.4,1.8,4.1,1.8c1.7,0,3-0.6,4-1.7c1-1.2,1.6-2.9,1.6-5.1v-7
		c-3.7,0.4-7.5,0.8-11.3,1.2V-536.4z"/>
	<path class="st2" d="M-537.6-536.4c0,2.2,0.5,3.9,1.6,5.1c1,1.2,2.4,1.8,4,1.8c1.7,0,3-0.6,4.1-1.7c1.1-1.2,1.6-2.9,1.6-5.1v-10.5
		c-3.7,0.6-7.5,1.3-11.3,1.8V-536.4z"/>
	<path class="st2" d="M-513.2-536.4c0,2.2,0.5,3.9,1.6,5.1c1.1,1.2,2.4,1.8,4,1.8c1.7,0,3.1-0.6,4.1-1.7c1.1-1.1,1.6-2.9,1.6-5.2
		v-14.2c0-0.5,0-0.9,0-1.3c-3.7,0.9-7.5,1.7-11.3,2.5V-536.4z"/>
	<path class="st2" d="M-484.1-555.3v18.9c0,2.2,0.5,3.9,1.6,5.1c1.1,1.2,2.4,1.8,4.1,1.8c1.7,0,3-0.6,4-1.7c1-1.2,1.6-2.9,1.6-5.1
		v-21.1c0-0.8,0-1.6,0-2.3c-3.7,1.1-7.5,2.2-11.3,3.3C-484.2-556-484.1-555.7-484.1-555.3z"/>
	<path class="st2" d="M-461-562.8c-0.9,2.7-1.4,5.8-1.4,9.2c0,4.6,0.8,8.6,2.3,12.1c1.5,3.5,3.7,6.2,6.5,8.1
		c2.8,1.9,6.1,2.9,9.9,2.9c3.2,0,5.9-0.6,8.2-1.9c2.3-1.3,4.3-3.1,6-5.6c-0.1,3.7-0.1,6.4-0.2,8.1c-0.1,1.7-0.5,3.2-1.1,4.7
		c-0.7,1.5-1.8,2.6-3.4,3.4c-1.6,0.8-3.9,1.2-6.8,1.2c-1.4,0-2.7-0.1-3.8-0.4c-1.1-0.3-2.1-0.7-2.8-1.2c-0.8-0.5-1.5-1.2-2.2-2
		c-0.7-0.8-1.3-1.5-1.9-2.3c-1.2-1.5-2.7-2.2-4.4-2.2c-1.3,0-2.5,0.4-3.4,1.3c-0.9,0.9-1.4,2-1.4,3.4c0,1.8,0.8,3.6,2.5,5.3
		c1.7,1.7,4,3.1,7.1,4.2c3.1,1.1,6.6,1.6,10.5,1.6c4.3,0,7.8-0.4,10.7-1.3c2.9-0.9,5.2-2.2,7-3.9c1.8-1.8,3.1-4,3.9-6.7
		c0.8-2.7,1.2-5.9,1.2-9.7v-32.9c0-2.7-0.4-4.7-1.1-6.2c-0.7-1.4-2.2-2.1-4.4-2.1c-1.5,0-2.8,0.5-3.7,1.6c-1,1.1-1.5,2.6-1.5,4.6
		v1.5c-1.9-2.4-3.8-4.2-6-5.5c-8.4,3.4-17,6.6-25.9,9.6C-460.8-563.4-460.9-563.1-461-562.8z M-448.1-563.4c2-2.5,4.5-3.7,7.8-3.7
		c3.3,0,6,1.3,8,3.9c2,2.6,3.1,6.2,3.1,10.8c0,2.9-0.5,5.4-1.6,7.4c-1.1,2-2.4,3.6-4.1,4.6c-1.7,1-3.5,1.5-5.3,1.5
		c-3.2,0-5.8-1.2-7.8-3.5c-2-2.4-3-5.8-3-10.4C-451-557.4-450.1-560.9-448.1-563.4z"/>
	<path class="st2" d="M-927-565c-1.6-3.4-3.8-6-6.6-7.8c-2.8-1.8-6.1-2.7-9.9-2.7c-3.3,0-6,0.6-8.2,1.8c-2.2,1.2-4.4,2.9-6.5,5.1
		v-17.3c0-2.1-0.5-3.7-1.4-4.8c-0.9-1.1-2.3-1.7-4-1.7c-1.7,0-3,0.6-3.9,1.8c-0.9,1.2-1.4,2.9-1.4,5.2v44.3c4.1-1,8.4-2.1,12.8-3.1
		c-1.1-2.2-1.6-4.8-1.6-8.1c0-3.1,0.5-5.7,1.5-7.9c1-2.2,2.3-3.9,4-5.1c1.7-1.2,3.6-1.8,5.8-1.8c2.1,0,3.9,0.6,5.5,1.8
		c1.6,1.2,2.8,2.8,3.7,5c0.9,2.2,1.3,4.7,1.3,7.7c0,1.5-0.1,3-0.4,4.3c3.8-0.7,7.7-1.4,11.6-2.1c0.1-0.8,0.1-1.7,0.1-2.5
		C-924.6-557.6-925.4-561.6-927-565z"/>
	<path class="st2" d="M-905.2-590.7c-1.1-1.1-2.4-1.7-4.2-1.7c-1.7,0-3.1,0.6-4.1,1.7c-1,1.2-1.5,2.9-1.5,5.1v33.5
		c3.7-0.6,7.5-1.1,11.3-1.7v-31.8C-903.6-587.8-904.1-589.5-905.2-590.7z"/>
	<path class="st2" d="M-880.5-573.8c-1.1-1.1-2.4-1.7-4.1-1.7c-1.7,0-3,0.6-4,1.7c-1,1.1-1.6,2.8-1.6,5.1v13.4
		c3.7-0.4,7.5-0.8,11.3-1.2v-12.6C-878.9-571.1-879.4-572.7-880.5-573.8z"/>
	<path class="st2" d="M-884.5-591.9c-1.5,0-2.9,0.5-4,1.6c-1.1,1-1.7,2.4-1.7,4c0,1.8,0.6,3.1,1.7,4.1c1.1,1,2.5,1.5,4,1.5
		c1.5,0,2.8-0.5,3.9-1.5c1.1-1,1.7-2.3,1.7-4.1c0-1.8-0.6-3.2-1.7-4.1C-881.7-591.4-883-591.9-884.5-591.9z"/>
	<path class="st2" d="M-855.4-560.8c-1-0.8-1.5-1.7-1.5-2.9c0-1.3,0.7-2.4,2-3.3c1.4-0.9,3.1-1.3,5.1-1.3c2,0,3.6,0.3,4.7,1
		c1.2,0.7,2.2,1.5,3,2.7c1.1,1.3,2,2.3,2.8,3c0.8,0.7,1.8,1,3,1c1.6,0,2.8-0.4,3.7-1.2c0.9-0.8,1.3-1.9,1.3-3.2
		c0-1.2-0.4-2.4-1.2-3.7c-0.8-1.2-2-2.4-3.6-3.4c-1.6-1-3.5-1.8-5.9-2.4c-2.3-0.6-5-0.9-7.9-0.9c-3.7,0-6.9,0.6-9.6,1.8
		c-2.6,1.2-4.6,2.8-6,4.8c-1.4,2-2,4.2-2,6.4c0,1.8,0.4,3.4,1.1,4.8c5.3-0.4,10.6-0.7,16-1c-0.4-0.1-0.8-0.2-1.2-0.3
		C-853.1-559.4-854.4-560.1-855.4-560.8z"/>
	<path class="st2" d="M-809.1-563.8c0-1.3,0.7-2.4,2-3.3c1.4-0.9,3.1-1.3,5.1-1.3c2,0,3.6,0.3,4.7,1c1.2,0.7,2.2,1.5,3,2.7
		c1.1,1.3,2,2.3,2.8,3c0.8,0.7,1.8,1,3,1c1.6,0,2.8-0.4,3.7-1.2c0.9-0.8,1.3-1.9,1.3-3.2c0-1.2-0.4-2.4-1.2-3.7
		c-0.8-1.2-2-2.4-3.6-3.4c-1.6-1-3.5-1.8-5.9-2.4c-2.3-0.6-5-0.9-7.9-0.9c-3.7,0-6.9,0.6-9.6,1.8c-2.6,1.2-4.6,2.8-6,4.8
		c-1.4,2-2,4.2-2,6.4c0,1.2,0.2,2.2,0.5,3.2c5.1,0,10.3,0.1,15.5,0.3c-1.7-0.5-3-1.1-4-1.9C-808.6-561.6-809.1-562.6-809.1-563.8z"
		/>
	<path class="st2" d="M-749.6-566.9c2.3,0,4.2,0.5,5.7,1.6c1.5,1.1,3,2.6,4.3,4.7c0.8,1.1,1.5,1.9,2.1,2.3c0.6,0.5,1.4,0.7,2.3,0.7
		c1.4,0,2.7-0.5,3.7-1.4c1-0.9,1.5-2.1,1.5-3.4c0-1.3-0.5-2.8-1.3-4.3c-0.9-1.5-2.2-3-3.9-4.3c-1.7-1.4-3.8-2.5-6.2-3.3
		c-2.4-0.9-5.1-1.3-8.1-1.3c-4.7,0-8.8,1-12.2,2.9c-3.4,2-6,4.7-7.8,8.3c-1.1,2.2-1.9,4.7-2.3,7.4c3.7,0.3,7.5,0.7,11.3,1.1
		c0.4-2.8,1.3-5.2,2.8-7.1C-755.6-565.6-752.9-566.9-749.6-566.9z"/>
	<path class="st2" d="M-710.1-590.7c-1.1-1.1-2.4-1.7-4.2-1.7c-1.7,0-3.1,0.6-4.1,1.7c-1,1.2-1.5,2.9-1.5,5.1v35.4
		c3.8,0.6,7.6,1.2,11.3,1.8v-37.3C-708.5-587.8-709-589.5-710.1-590.7z"/>
	<path class="st2" d="M-685.6-549.7h22.2c3,0,5.3-0.4,6.9-1.3c1.6-0.8,2.4-2.7,2.4-5.5c0-3.1-0.8-6.1-2.4-9c-1.6-3-4-5.4-7.1-7.2
		c-3.2-1.9-7-2.8-11.4-2.8c-3.4,0-6.5,0.5-9.3,1.6c-2.8,1.1-5.1,2.7-7.1,4.7c-1.9,2-3.4,4.5-4.4,7.4c-1,2.9-1.5,6-1.5,9.3
		c0,2.2,0.2,4.2,0.6,6.1c4,0.5,7.9,1,11.7,1.5C-685.4-546.4-685.6-548-685.6-549.7z M-685.6-556.2c0.4-3.8,1.5-6.7,3.3-8.7
		c1.8-2,4.1-2.9,7-2.9c3,0,5.3,1,7.2,2.9c1.8,1.9,2.9,4.8,3.1,8.7"/>
	<path class="st2" d="M-658.7-545c-1.1,0-1.9,0.2-2.5,0.7c-0.6,0.6-1.2,1.2-1.8,1.6c2.7,0.2,5.4,0.5,8.1,0.7c-0.1-0.9-0.4-1.6-1-2.1
		C-656.6-544.7-657.5-545-658.7-545z"/>
	<path class="st2" d="M-603.9-551.4c0-1.9,0-4.1,0-6.8c0-4.2-0.6-7.6-1.8-10.1c-1.2-2.5-3.2-4.4-6-5.6c-2.8-1.2-6.8-1.8-11.7-1.8
		c-4.5,0-8.2,0.6-11.2,1.8c-3,1.2-5.2,2.8-6.6,4.6c-1.4,1.9-2.1,3.8-2.1,5.8c0,1.3,0.5,2.3,1.4,3.1c0.9,0.8,2,1.2,3.3,1.2
		c1.4,0,2.3-0.3,2.8-0.8c0.4-0.5,1.2-1.6,2.2-3.2c1-1.6,2.3-2.8,3.7-3.6c1.5-0.8,3.6-1.2,6.5-1.2c3.3,0,5.6,0.7,6.6,2.1
		c1.1,1.4,1.7,3.6,1.8,6.6c-2.4,0.7-4.6,1.3-6.6,1.8c-2,0.5-4.5,1-7.3,1.6c-2.8,0.6-4.6,1-5.4,1.1c-3.4,0.7-6.1,2.2-8.1,4.4
		c-2,2.2-2.9,4.8-2.9,7.9c0,0.3,0,0.6,0.1,1c4,0.3,7.9,0.5,11.8,0.6c-0.3-0.7-0.5-1.6-0.5-2.4c0-1.7,0.6-3,1.7-3.9
		c1.1-0.9,2.3-1.5,3.5-1.9c1.2-0.3,3.4-0.8,6.6-1.5c3.2-0.7,5.6-1.3,7.2-1.9v1.6c0,3.9-0.5,6.8-1.5,8.5c-0.4,0.7-1,1.4-1.6,2
		c5,0.1,10,0.1,14.8,0.1c-0.4-1.7-0.6-3.4-0.6-5.1C-603.9-547.5-603.9-549.5-603.9-551.4z"/>
	<path class="st2" d="M-551-563.6c-0.2-1.6-0.7-3.1-1.5-4.5c-1.2-2.4-2.9-4.2-5.3-5.5c-2.4-1.3-5-2-8-2c-3.1,0-5.8,0.6-8.2,1.8
		c-2.4,1.2-4.5,3.2-6.5,5.8v-1.4c0-1.4-0.2-2.5-0.7-3.4c-0.5-0.9-1.1-1.6-1.9-2.1c-0.8-0.5-1.7-0.7-2.7-0.7c-1.6,0-2.9,0.5-3.9,1.6
		c-0.9,1.1-1.4,2.7-1.4,4.8v28.7c3.8-0.1,7.6-0.3,11.3-0.5v-9.7c0-4.6,0.3-7.8,0.8-9.5c0.8-2.1,2-3.8,3.7-5c1.7-1.2,3.5-1.8,5.5-1.8
		c3.1,0,5.2,1,6.2,3c1,2,1.6,4.8,1.6,8.6v13.1c3.8-0.4,7.6-0.7,11.3-1.2v-14.1C-550.6-559.9-550.7-562-551-563.6z"/>
	<path class="st2" d="M-531.9-591.9c-1.5,0-2.9,0.5-4,1.6c-1.1,1-1.7,2.4-1.7,4c0,1.8,0.6,3.1,1.7,4.1c1.1,1,2.5,1.5,4,1.5
		c1.5,0,2.8-0.5,3.9-1.5c1.1-1,1.7-2.3,1.7-4.1c0-1.8-0.6-3.2-1.7-4.1C-529.2-591.4-530.5-591.9-531.9-591.9z"/>
	<path class="st2" d="M-527.9-573.8c-1.1-1.1-2.4-1.7-4.1-1.7c-1.7,0-3,0.6-4,1.7c-1,1.1-1.6,2.8-1.6,5.1v23.7
		c3.8-0.6,7.6-1.2,11.3-1.8v-22.2C-526.3-571.1-526.9-572.7-527.9-573.8z"/>
	<path class="st2" d="M-474.6-568.1c-1.2-2.4-2.9-4.2-5.3-5.5c-2.4-1.3-5-2-8-2c-3.1,0-5.8,0.6-8.2,1.8c-2.4,1.2-4.5,3.2-6.5,5.8
		v-1.4c0-1.4-0.2-2.5-0.7-3.4c-0.5-0.9-1.1-1.6-1.9-2.1c-0.8-0.5-1.7-0.7-2.7-0.7c-1.6,0-2.9,0.5-3.9,1.6c-0.9,1.1-1.4,2.7-1.4,4.8
		v19.7c3.8-0.8,7.6-1.6,11.3-2.5c0-3.9,0.3-6.6,0.8-8.1c0.8-2.1,2-3.8,3.7-5c1.7-1.2,3.5-1.8,5.5-1.8c3.1,0,5.2,1,6.2,3
		c0.9,1.8,1.4,4.2,1.5,7.4c3.8-1.1,7.6-2.2,11.3-3.3c0-1.5-0.1-2.8-0.3-3.9C-473.4-565.2-473.9-566.7-474.6-568.1z"/>
	<path class="st2" d="M-443.7-575.5c-2.7,0-5.1,0.5-7.4,1.4c-2.2,1-4.2,2.4-5.9,4.3c-1.5,1.7-2.7,3.7-3.6,6.1
		c8.9-3,17.5-6.2,25.9-9.6c-0.2-0.1-0.4-0.2-0.6-0.3C-437.7-574.9-440.5-575.5-443.7-575.5z"/>
</g>
<g>
	<path class="st2" d="M-661.6-303.7c-5.3,6.3-10.1,13.1-15.3,19.6c-1.9,2.3-4,4.5-6.2,6.8c-2.1-2.7-3.6-4.6-5.7-7.1
		c-1.8,3.2-3,5.9-4.6,8.3c-1.6,2.6-3.4,5-5.4,7.9c-2.6-2.8-4.6-4.9-6.6-7c-2,2.1-4.1,4.3-6,6.3c12.8,15.9,30.7,20.7,47.3,13.3
		c16.3-7.3,24.8-23.5,21.9-41.6c-0.8-4.9-2.2-9.4-7.7-11.1C-655-309.8-658.7-307.1-661.6-303.7z"/>
	<path class="st2" d="M-703.3-285.8c0.5,0.9,0.7,1.5,1.1,2c1.4,1.7,2.8,3.4,4.2,5.1c1.6-1.5,3.6-2.8,4.6-4.7c2.1-4,3.7-8.3,5.8-13.1
		c1.2,2.3,2,3.9,2.9,5.4c3,4.8,5.1,4.9,8.5,0.5c3.9-5.1,8-10.2,11.9-15.4c4-5.3,8.2-10,16.5-5.5c-14.5-18.3-37.1-21.9-54.3-9.5
		c-16,11.6-20.6,33.8-9.8,50.6C-709.1-275.5-706.3-280.4-703.3-285.8z"/>
	<path class="st2" d="M-823-233.6c-5.6-2.7-11.9-4.2-17.8-6.1c-8.7-2.8-17.8-4.6-25.9-8.4c-8.4-4-8.1-13.1,0.1-17.5
		c11.1-6,22.7-5.8,34-0.3c2.7,1.3,4.9,3.7,7.7,5.9c1.8-3.2,3.4-6,5.7-10.2c-7.8-1.4-14.8-3.4-21.9-3.9c-13.1-0.9-26.1,0.1-37.6,7.3
		c-11.5,7.2-11,20.4,1.1,26.5c5.1,2.6,10.9,4,16.4,5.7c8.4,2.6,17.2,4.3,25.1,7.7c9,3.9,9.6,13.5,1.7,19.6c-2.3,1.8-5.1,3.4-7.9,4.1
		c-14.6,3.8-28.4,2.7-40.4-7.5c-0.9-0.8-2-1.4-3.4-2.2c-1.3,3.6-2.5,6.6-3.8,10.3c2.7,1,5.2,2.1,7.7,2.8c14.1,3.8,28.3,4.3,42.5,0.8
		c8.1-2,15.9-5,21.5-11.8C-811.5-219.2-813.2-228.9-823-233.6z"/>
	<path class="st2" d="M-644.6-211c-2.3-1.3-3.9-2.2-5.4-3.1c-20.1-12.3-40.2-24.7-60.4-37c-2.1-1.3-4.6-1.8-7.6-3
		c0,19.3,0,37.4,0,55.4c2.4,0,4.6,0,7,0c0-14.5,0-28.6,0-43.5c3,1.9,5.4,3.3,7.7,4.8c19.7,12.4,39.3,24.9,59,37.3
		c1.9,1.2,4.3,1.6,6.7,2.4c0-19.1,0-37.2,0-55.1c-2.5,0-4.5,0-7.2,0C-644.6-239-644.6-225.4-644.6-211z"/>
	<g>
		<path class="st2" d="M-501.4-253.3c-1.8-2.4-3.8-1.4-5.3,0.6c-13.5,17.9-27,35.7-40.8,54.2c9.3,0,9.3,0,13.5-6.9
			c2.4-4,4.8-8,7.6-11.7c1-1.3,3.1-2.6,4.7-2.7c9.6-0.2,19.3-0.2,29,0c1.6,0,3.8,1.2,4.7,2.5c3.8,5.2,7.2,10.8,10.9,16.1
			c0.8,1.2,2.3,2.7,3.6,2.8c3.7,0.4,7.5,0.1,12.2,0.1C-475.2-217.1-488.3-235.2-501.4-253.3z M-521.9-223.5l14.7-20.6
			c5.2,7,9.9,13.6,15.1,20.6C-502.1-223.5-511.6-223.5-521.9-223.5z"/>
	</g>
	<path class="st2" d="M-779-202.2c0-7.7,0-15.2,0-23.3c10,0,19.6-0.1,29.2,0c3,0,4.3-0.7,3-4c-10.8,0-21.5,0-32.1,0
		c0-6.9,0-13.3,0-19.7c12.1,0,23.8,0,35.4,0c1.2-3.7-0.8-4.2-3.8-4.2c-13.3,0.1-26.6,0-40,0.1c-1.2,0-2.5,0.3-3.5,0.5
		c0,18.4,0,36.3,0,54.4c15.4,0,30.3,0,45.3,0c3.5,0,3.9-1.4,2.8-3.8C-754.9-202.2-766.8-202.2-779-202.2z"/>
	<path class="st2" d="M-569.7-226.4c-1.5-0.6-3.2-1-4.8-1.4c-6.1-1.6-12.2-3.1-18.3-4.9c-4.5-1.4-9-3.4-9.3-9.1
		c-0.2-4,4.6-7.6,10.8-8.8c0.3-0.1,0.7-0.1,1-0.1c8.8-1.4,16.8-0.1,23.2,6.4c0.6-0.6,0.9-0.7,1.1-1c0.9-1.6,1.8-3.2,3.3-6
		c-5.3-1.1-9.9-2.4-14.6-2.9c-9.6-1-19-0.1-27.7,4.4c-4.5,2.3-7.7,5.8-7.4,11.4c0.3,5.3,3.8,8,8.1,9.7c4.1,1.7,8.5,2.7,12.8,4
		c5.5,1.7,11.4,2.8,16.6,5.2c6.6,3.1,7.2,10.2,1.1,14.4c-3.3,2.2-7.5,3.7-11.4,4.3c-9.8,1.3-18.8-0.9-26.4-8.6c-1.1,3-1.9,5.2-3,8.1
		c16.2,5.7,31.8,6.3,47.1-1.5c5.3-2.7,9-7,8.4-13.6C-559.7-222.7-564.9-224.4-569.7-226.4z"/>
</g>
</svg>
