<?xml version="1.0" encoding="utf-8"?>
<!-- Generator: Adobe Illustrator 22.1.0, SVG Export Plug-In . SVG Version: 6.00 Build 0)  -->
<svg version="1.1" id="Layer_1" xmlns="http://www.w3.org/2000/svg" xmlns:xlink="http://www.w3.org/1999/xlink" x="0px" y="0px"
	 viewBox="0 0 465 349" style="enable-background:new 0 0 465 349;" xml:space="preserve">
<style type="text/css">
	.st0{fill-rule:evenodd;clip-rule:evenodd;fill:#999999;}
</style>
<g>
	<path class="st0" d="M112.7,203.3c-18,0-31.4-5.8-40.8-19c-8.1-11.3-10.1-24-7-37.4c4.8-20,18.2-31.4,37.9-34.6
		c15.8-2.6,30.6,1.1,42.3,12.9c10.7,10.9,14.5,24.2,12.2,39.2c-2.6,17.1-12.1,28.9-28,35.5C123.4,202.3,117.2,203.6,112.7,203.3z
		 M139.1,154.9c0.2-6.1-1.4-14.7-5.7-22.6c-4.8-8.9-11.8-15-22.3-15.2c-10.3-0.2-17.4,5.3-22.5,13.9c-4.7,8.1-6.3,16.9-6.3,26.1
		c-0.1,10.9,2,21.2,8.7,30.3c10.3,14.1,29.2,13.6,38.9,1C136.8,179.2,139.1,168.8,139.1,154.9z"/>
	<path class="st0" d="M173.5,183.8c-1.5-1.3-3.2-2.4-4.5-3.9c-9.7-10.6-6.2-26.7,7.2-32.6c5.8-2.5,10.9-4.2,23.6-1
		c0.6-3.6,0.8-7.4,2-10.9c3.5-10.1,13.9-16,25.7-15.2c5.3,0.3,10.2,1.3,13.4,6.2c1.9,2.9,1.7,7.1-0.5,9.9c-1.9,2.4-5.6,3.4-9.1,2.4
		c-2.8-0.8-4.9-4.1-5-7.6c-0.1-3.9-1.4-4.9-5.5-4.3c-9.1,1.3-14.4,8.3-14.1,18.4c0.1,3.4,0.9,6.4,3.1,9.2c6,7.9,3.9,20.8-4.1,26.9
		c-5.4,4-11.4,5.7-18,6c-4.6,0.2-9.2,0.8-13.8,1.3c-0.7,0.1-1.4,0.4-2,0.6c-3.5,1.5-5,4.1-4.3,7.1c0.6,2.3,3.3,3.9,6.7,3.5
		c6.9-0.8,13.8-2,20.7-2.5c4.3-0.3,8.8-0.6,12.8,0.5c9.3,2.3,12,10.4,10.5,18.4c-2.3,12.2-13.3,21.1-25.9,21.5
		c-5.9,0.2-11.8,0.4-17.3-1.9c-5.9-2.4-10.3-6.1-11-12.8c-0.3-2.4,0.3-4.9,2.6-6c1.5-0.7,3.5-0.9,5.1-0.4c2.3,0.6,2.9,2.8,3,5.1
		c0.2,7.7,3.2,10.4,11,10.7c6.4,0.2,12.5-0.2,17.8-4.4c3.5-2.8,5.4-6.4,5.3-11c-0.1-3.6-2.3-6.3-6-6.3c-4.7,0-9.5,0.5-14.2,0.8
		c-6.5,0.5-12.9,2.6-19.5,1c-5.9-1.4-10.1-5.6-10.8-10.9c-0.8-6.9,2.1-12.6,8-15.2C168.6,185.2,171,184.6,173.5,183.8z M199.8,166
		c-0.7-5.2-1.8-9.8-5-13.7c-3.9-4.6-9.9-4.3-13.4,0.6c-4.7,6.5-4.8,18.6-0.3,25.2c4.3,6.3,12,6.1,15.3-0.7
		C198.1,173.9,198.7,169.8,199.8,166z"/>
	<path class="st0" d="M313.9,186.2c1.4-3.4,2.8-6.8,4.2-10.2c2.5-6.6,5-13.1,7.4-19.7c1.4-3.9,0.9-4.9-3.2-5.4
		c-2.7-0.3-3.4-1.6-2.6-4.2c14.8,0,29.6,0,44.4,0c1.1,2.9-0.1,3.9-2.8,4.2c-3.5,0.4-4.4,1.5-3.4,4.2c3.7,9.7,7.5,19.3,11.3,28.9
		c0.1,0.3,0.3,0.5,0.8,1.2c1.9-4.5,3.7-8.7,5.5-12.9c2.2-5.2,4.3-10.4,6.4-15.6c1.7-4.2,1.2-4.9-3.2-5.9c-1.3-0.3-3.1-0.4-2.7-2.5
		c0.1-0.7,0.9-1.7,1.5-1.7c6.7-0.1,13.3-0.1,20.1-0.1c0,1.4,0,2.4,0,3.9c-8.1-0.1-8.9,6.8-11.2,12c-8.4,19.4-16.5,38.9-24.9,58.3
		c-2.6,6.1-5.7,12-11.9,15.6c-2.9,1.7-5.9,2-9,0.9c-2.6-0.9-4.5-3.6-4.1-5.7c0.5-2.9,3-5.2,5.8-5.3c0.6,0,1.2-0.1,1.8,0
		c5.9,1.1,9.3-1.9,11.5-7c2.1-4.9,4.2-9.8,6.2-14.8c0.3-0.8,0.3-2,0-2.8c-6.5-16-13.1-32.1-19.7-48.1c-0.8-2.1-2.3-2.8-4.5-2.8
		c-2.3,0-3.5,1.1-4.3,3c-6,14.9-12.4,29.7-18.1,44.8c-1.7,4.5-4.9,3-7.8,3.4c-2.9,0.4-3.2-1.6-4-3.5c-5.9-14.6-11.9-29.3-18-43.9
		c-0.6-1.5-2.3-3.3-3.7-3.4c-3.2-0.4-2.9-2-2.6-4.4c0.8-0.1,1.5-0.2,2.3-0.2c7.8,0,15.6-0.1,23.4,0c0.9,0,2.4,0.7,2.6,1.4
		c0.5,1.7-0.8,2.5-2.3,2.8c-0.4,0.1-0.8,0-1.2,0.1c-3.1,0.5-3.9,1.6-2.8,4.5c2.5,6.7,5.1,13.4,7.7,20c1.4,3.5,2.7,7.1,4.1,10.6
		C313.3,186.1,313.6,186.2,313.9,186.2z"/>
	<path class="st0" d="M242.2,144.5c0,1.6,0,2.9,0,4.2c0,15,0.1,30-0.1,44.9c0,3,1.3,4,3.9,4c3.1,0,6.3,0,9.4,0c2.5,0,3.8-1,3.8-3.8
		c-0.1-24.2-0.1-48.4,0-72.6c0-2.2-0.8-3.4-2.9-3.8c-0.5-0.1-1-0.2-1.4-0.4c-1.2-0.8-2.4-1.7-3.5-2.6c1.2-0.7,2.3-1.7,3.6-2.1
		c5.4-1.5,10.9-2.8,16.4-4.2c0.7-0.2,1.4-0.2,2.4-0.3c0,1.4,0,2.6,0,3.8c0,27,0,54,0,81.1c0,4.5,0.3,5,4.7,5c3.1,0,3.6,1.4,3,4.2
		c-20.1,0-40.3,0-60.5,0c0-1.3,0-2.5,0-3.6c0.3-0.2,0.5-0.4,0.7-0.4c5.9-0.6,5.9-0.6,5.9-6.5c0-10.7-0.1-21.5,0.1-32.2
		c0-2.9-0.9-4.6-3.7-5.2c-0.8-0.2-1.7-0.3-2.3-0.7c-0.7-0.5-1.3-1.3-1.9-2c0.6-0.6,1.2-1.5,1.9-1.7c5.7-1.6,11.5-3.1,17.2-4.6
		C239.8,144.8,240.8,144.7,242.2,144.5z"/>
</g>
</svg>
