<?xml version="1.0" encoding="utf-8"?>
<!-- Generator: Adobe Illustrator 22.1.0, SVG Export Plug-In . SVG Version: 6.00 Build 0)  -->
<svg version="1.1" id="Layer_1" xmlns="http://www.w3.org/2000/svg" xmlns:xlink="http://www.w3.org/1999/xlink" x="0px" y="0px"
	 viewBox="0 0 50 50" style="enable-background:new 0 0 50 50;" xml:space="preserve">
<style type="text/css">
	.st0{display:none;}
	.st1{display:inline;fill:#231F20;}
	.st2{display:inline;fill:#FFFFFF;}
	.st3{display:inline;}
	.st4{fill:#FFFFFF;}
	.st5{display:inline;fill:none;}
	.st6{fill:#999999;}
	.st7{enable-background:new    ;}
</style>
<g id="bk" class="st0">
	<rect class="st1" width="50" height="50"/>
</g>
<g id="guides">
</g>
<g id="citi" class="st0">
	<path class="st2" d="M18.1,27.6C18.1,27.7,18.1,27.7,18.1,27.6c-0.8,0.8-1.6,1.2-2.5,1.2c-1.8,0-3.1-1.4-3.1-3.2
		c0-1.9,1.3-3.3,3.1-3.3c0.9,0,1.7,0.4,2.4,1.1c0,0.1,0,0.1,0,0.1c1.2-1.4,1.2-1.4,1.2-1.4c0,0,0,0,0,0c-1-1.2-2.1-1.7-3.6-1.7
		c-1.4,0-2.8,0.5-3.7,1.4c-1,1-1.6,2.3-1.6,3.9c0,1.6,0.5,2.9,1.6,3.9c0.9,0.9,2.3,1.4,3.7,1.4c1.4,0,2.6-0.6,3.6-1.7
		c0-0.1,0-0.1,0-0.1"/>
	<rect x="20.5" y="20.5" class="st2" width="2.1" height="10.1"/>
	<path class="st2" d="M30.7,28.4c-0.6,0.4-1.1,0.5-1.6,0.5c-0.7,0-1-0.4-1-1.1c0-5.3,0-5.3,0-5.3c2.1,0,2.1,0,2.1,0
		c0-1.9,0-1.9,0-1.9c-2.1,0-2.1,0-2.1,0c0-3.1,0-3.1,0-3.1c-2,1.1-2,1.1-2,1.1c0,2,0,2,0,2c-1.7,0-1.7,0-1.7,0c0,1.9,0,1.9,0,1.9
		c1.7,0,1.7,0,1.7,0c0,5.7,0,5.7,0,5.7c0,1.5,1,2.6,2.3,2.6c1,0.1,1.5-0.2,1.8-0.4c0,0,0,0,0,0C30.8,28.3,30.8,28.3,30.7,28.4"/>
	<rect x="32.4" y="20.5" class="st2" width="2.1" height="10.1"/>
	<path class="st2" d="M38.2,18c0,0.1-0.1,0.2-0.2,0.2c-0.3,0-0.3,0-0.3,0c0-0.4,0-0.4,0-0.4c0.3,0,0.3,0,0.3,0
		C38.1,17.8,38.2,17.9,38.2,18 M38.4,18c0-0.2-0.2-0.4-0.4-0.4c-0.5,0-0.5,0-0.5,0c0,1.2,0,1.2,0,1.2c0.2,0,0.2,0,0.2,0
		c0-0.5,0-0.5,0-0.5c0.2,0,0.2,0,0.2,0c0.2,0.5,0.2,0.5,0.2,0.5c0.2,0,0.2,0,0.2,0c-0.2-0.5-0.2-0.5-0.2-0.5
		C38.3,18.3,38.4,18.2,38.4,18z M39,18.3c0-0.6-0.5-1.1-1.1-1.1c-0.6,0-1.1,0.5-1.1,1.1c0,0.6,0.5,1.1,1.1,1.1
		C38.5,19.4,39,18.9,39,18.3z M38.8,18.3c0,0.5-0.4,0.9-0.9,0.9c-0.5,0-0.9-0.4-0.9-0.9s0.4-0.9,0.9-0.9
		C38.4,17.4,38.8,17.8,38.8,18.3z"/>
</g>
<g id="bofa" class="st0">
	<g class="st3">
		<path class="st4" d="M22.2,33.7c0.4-0.3,0.8-0.5,1.1-0.8c1.4-0.9,2.8-1.8,4.3-2.6c1.5-0.8,3.1-1.6,4.8-2.2
			c0.8-0.3,1.6-0.6,2.4-0.9c0,0,0.1,0,0.1,0c0.7,0.4,1.4,0.8,2,1.2c0,0,0,0,0,0c-0.1,0-0.1,0.1-0.2,0.1c-1.8,0.8-3.6,1.7-5.3,2.6
			c-1.7,1-3.4,2.1-5,3.3c-0.5,0.3-0.9,0.7-1.4,1c-0.1,0.1-0.1,0.1-0.2,0c-0.8-0.6-1.7-1.1-2.5-1.7C22.4,33.8,22.3,33.8,22.2,33.7z"
			/>
		<path class="st4" d="M18.6,31.7c0.3-0.2,0.6-0.4,0.9-0.6c0.9-0.5,1.8-1.1,2.8-1.6c1.3-0.7,2.7-1.4,4.1-1.9
			c1.1-0.4,2.3-0.9,3.5-1.3c0.6-0.2,1.2-0.3,1.7-0.5c0.1,0,0.2,0,0.3,0c0.7,0.3,1.5,0.7,2.2,1c0,0,0,0,0,0.1
			c-0.2,0.1-0.5,0.1-0.7,0.2c-1.3,0.4-2.7,0.9-3.9,1.5c-1.2,0.5-2.4,1.1-3.5,1.7c-1.3,0.7-2.5,1.4-3.7,2.2c-0.3,0.2-0.6,0.4-0.9,0.6
			c0,0-0.1,0-0.2,0C20.3,32.6,19.4,32.2,18.6,31.7C18.6,31.7,18.6,31.7,18.6,31.7z"/>
		<path class="st4" d="M3.5,17.6c0.2,0.1,0.3,0.2,0.4,0.2c0.5,0.3,0.7,0.8,0.6,1.4c-0.1,0.6-0.4,0.9-0.9,1.1
			c-0.2,0.1-0.5,0.1-0.8,0.1c-0.6,0-1.3,0-2,0c-0.2,0-0.2-0.1-0.2-0.2c0-1.5,0-3.1,0-4.6c0-0.1,0-0.3,0-0.4c0-0.1,0-0.1,0.1-0.1
			c0.7,0,1.4,0,2.1,0c0.5,0,0.9,0.2,1.2,0.6c0.5,0.6,0.2,1.5-0.5,1.9C3.6,17.5,3.5,17.5,3.5,17.6z M2,18.8C2,18.8,2,18.8,2,18.8
			c0,0.2,0,0.4,0,0.5c0,0,0.1,0.1,0.1,0.1c0.2,0,0.4,0,0.7,0c0.3-0.1,0.5-0.3,0.5-0.6c0-0.4-0.1-0.6-0.4-0.7c-0.2,0-0.5,0-0.7,0
			c0,0-0.1,0.1-0.1,0.1C2,18.4,2,18.6,2,18.8z M2,16.6C2,16.6,2,16.6,2,16.6c0,0.2,0,0.3,0,0.5c0,0,0.1,0.1,0.1,0.1
			c0.2,0,0.5,0,0.7,0c0.3-0.1,0.4-0.3,0.4-0.6C3.1,16.2,3,16,2.7,16c-0.2,0-0.4,0-0.6,0C2,16,2,16,2,16.1C2,16.2,2,16.4,2,16.6z"/>
		<path class="st4" d="M29.9,17c0.3-0.2,0.6-0.4,1-0.5c0.4,0,0.7,0.1,0.9,0.5c0.2-0.1,0.4-0.3,0.7-0.4c0.4-0.1,0.7-0.2,1.1,0.1
			c0.2,0.2,0.3,0.4,0.3,0.6c0,1,0,2,0,3c0,0.1,0,0.1-0.1,0.1c-0.3,0-0.6,0-0.9,0c-0.1,0-0.1-0.1-0.1-0.2c0-0.7,0-1.5,0-2.2
			c0-0.1,0-0.2,0-0.3c0-0.2-0.1-0.3-0.3-0.3c-0.2,0-0.4,0.2-0.4,0.4c0,0.8,0,1.6,0,2.4c0,0.1,0,0.2-0.2,0.2c-0.3,0-0.6,0-0.9,0
			c-0.1,0-0.2,0-0.2-0.2c0-0.8,0-1.5,0-2.3c0,0,0-0.1,0-0.1c0-0.2,0-0.3-0.2-0.4c-0.2-0.1-0.4,0.1-0.5,0.2c0,0,0,0.1,0,0.2
			c0,0.8,0,1.6,0,2.4c0,0.1,0,0.1,0,0.2c-0.2,0-0.4,0-0.6,0c-0.1,0-0.3,0-0.4,0c-0.1,0-0.2,0-0.2-0.2c0-1.1,0-2.3,0-3.4
			c0-0.1,0-0.2,0.2-0.2c0.3,0,0.5,0,0.8,0c0.2,0,0.2,0.1,0.2,0.2C29.9,16.9,29.9,16.9,29.9,17z"/>
		<path class="st4" d="M24,20.4c0.1-0.4,0.2-0.7,0.3-1.1c0.3-1.2,0.6-2.4,0.9-3.6c0-0.2,0.1-0.3,0.1-0.5c0-0.1,0.1-0.1,0.2-0.1
			c0.5,0,1,0,1.5,0c0.1,0,0.1,0,0.2,0.1c0.2,1,0.4,1.9,0.6,2.9c0.2,0.7,0.3,1.5,0.5,2.2c0,0,0,0.1,0,0.2c-0.1,0-0.1,0-0.2,0
			c-0.3,0-0.6,0-1,0c-0.1,0-0.2,0-0.2-0.1c0-0.3-0.1-0.5-0.2-0.8c0-0.1-0.1-0.1-0.2-0.1c-0.3,0-0.7,0-1,0c-0.1,0-0.1,0.1-0.2,0.1
			c-0.1,0.3-0.1,0.6-0.2,0.8c0,0.1-0.1,0.1-0.1,0.1C24.7,20.4,24.4,20.4,24,20.4z M25.6,18.4c0.3,0,0.6,0,0.9,0
			c-0.1-0.7-0.3-1.5-0.4-2.2c0,0,0,0-0.1,0C25.9,16.9,25.8,17.6,25.6,18.4z"/>
		<path class="st4" d="M16.4,29.6c0.3-0.2,0.6-0.3,0.9-0.5c1.7-0.9,3.4-1.7,5.1-2.4c0.1-0.1,0.3-0.1,0.4,0c0.6,0.3,1.2,0.5,1.8,0.8
			c0,0,0,0,0.1,0c-0.1,0-0.1,0.1-0.1,0.1c-1.4,0.6-2.7,1.2-4.1,1.9c-0.7,0.4-1.3,0.7-1.9,1.1c0,0-0.1,0-0.2,0
			C17.7,30.3,17,30,16.4,29.6C16.4,29.7,16.4,29.7,16.4,29.6z"/>
		<path class="st4" d="M12.7,15c0.4,0,0.7,0,1.1,0c0,0,0.1,0.1,0.1,0.1c0,0.2,0,0.4,0,0.7c0,0.6,0,1.2,0,1.8c0,0,0,0.1,0,0.1
			c0.1-0.1,0.1-0.1,0.2-0.2c0.2-0.3,0.4-0.5,0.6-0.8c0.1-0.1,0.2-0.1,0.2-0.1c0.3,0,0.7,0,1,0c-0.2,0.2-0.3,0.3-0.4,0.5
			c-0.2,0.2-0.3,0.4-0.5,0.5c-0.1,0.1-0.1,0.2-0.1,0.3c0.2,0.6,0.4,1.1,0.6,1.7c0.1,0.3,0.2,0.5,0.3,0.8c-0.4,0-0.8,0-1.2,0
			c0,0-0.1-0.1-0.1-0.1c-0.2-0.5-0.3-0.9-0.5-1.4c0,0,0-0.1-0.1-0.2c-0.2,0.2-0.3,0.3-0.3,0.5c0,0.3,0,0.7,0,1c0,0.1,0,0.2-0.2,0.2
			c-0.3,0-0.6,0-0.9,0c-0.1,0-0.1,0-0.1-0.1C12.7,18.6,12.7,16.8,12.7,15C12.7,15.1,12.7,15.1,12.7,15z"/>
		<path class="st4" d="M10,17c0.1-0.1,0.2-0.2,0.3-0.2c0.3-0.2,0.7-0.3,1.1-0.2c0.3,0.1,0.5,0.4,0.5,0.7c0,1,0,2,0,3
			c0,0-0.1,0.1-0.1,0.1c-0.4,0-0.7,0-1.1,0c0-0.1,0-0.2,0-0.2c0-0.7,0-1.5,0-2.2c0,0,0-0.1,0-0.1c0-0.2,0-0.3-0.2-0.4
			c-0.2-0.1-0.4,0-0.5,0.2c0,0,0,0.1,0,0.1c0,0.8,0,1.6,0,2.4c0,0.1,0,0.2-0.2,0.2c-0.3,0-0.6,0-0.9,0c-0.1,0-0.2,0-0.2-0.1
			c0-1.2,0-2.3,0-3.5c0-0.1,0-0.2,0.2-0.1c0.3,0,0.5,0,0.8,0c0.2,0,0.2,0,0.2,0.2C10,16.9,10,16.9,10,17z"/>
		<path class="st4" d="M21.7,26.3c-0.5,0.2-0.9,0.3-1.3,0.5c-1.3,0.5-2.5,1.1-3.7,1.7c-0.4,0.2-0.8,0.4-1.2,0.6c0,0-0.1,0-0.1,0
			c-0.6-0.2-1.2-0.5-1.9-0.7c0.3-0.1,0.5-0.3,0.7-0.4c1.3-0.7,2.6-1.3,4-1.8c0.5-0.2,1.1-0.4,1.7-0.6c0,0,0.1,0,0.1,0
			C20.6,25.9,21.2,26.1,21.7,26.3z"/>
		<path class="st4" d="M17,18.6c0-0.5,0-0.8,0.2-1.1c0.2-0.5,0.7-0.9,1.2-0.9c0.8-0.1,1.5,0.2,1.8,1c0.1,0.3,0.2,0.7,0.2,1
			c0,0.3-0.1,0.6-0.2,0.9c-0.2,0.7-0.8,1-1.5,1.1c-0.3,0-0.6,0-0.9-0.2C17.3,20,17.1,19.6,17,19C17,18.9,17,18.7,17,18.6z
			 M18.2,18.6c0,0.3,0.1,0.6,0.2,1c0,0.1,0.2,0.2,0.3,0.2c0.1,0,0.3,0,0.3-0.2c0-0.1,0.1-0.1,0.1-0.2c0.1-0.6,0.1-1.2,0-1.8
			c0-0.2-0.2-0.4-0.4-0.4c-0.2,0-0.4,0.1-0.4,0.4C18.3,17.9,18.2,18.2,18.2,18.6z"/>
		<path class="st4" d="M5,17.6c0-0.3,0.2-0.5,0.4-0.7c0.5-0.4,1.6-0.4,2.2,0C7.9,17,8,17.3,8,17.6c0,0.7,0,1.4,0,2.2
			c0,0.2,0,0.4,0,0.6c-0.4,0-0.8,0-1.2,0c0-0.1,0-0.2-0.1-0.3c-0.1,0.1-0.2,0.2-0.3,0.2c-0.4,0.2-0.8,0.2-1.2,0
			c-0.6-0.4-0.6-1.4,0-1.8c0.4-0.3,0.8-0.4,1.3-0.5c0.1,0,0.2-0.1,0.2-0.2c0-0.1,0-0.2,0-0.2c0-0.2-0.1-0.3-0.2-0.3
			c-0.2,0-0.3,0-0.4,0.2c-0.1,0.1-0.1,0.2-0.1,0.3C5.7,17.7,5.4,17.6,5,17.6z M6.8,19.1C6.8,19.1,6.8,19.1,6.8,19.1
			c0-0.1,0-0.2,0-0.4c0-0.1,0-0.1-0.1-0.1c-0.4,0-0.7,0.3-0.7,0.7c0,0.3,0.1,0.4,0.4,0.4c0.2,0,0.4-0.2,0.4-0.4
			C6.8,19.2,6.8,19.1,6.8,19.1z"/>
		<path class="st4" d="M49.5,20.4c-0.3,0-0.7,0-1.1,0c-0.1,0-0.1,0-0.1-0.1c0-0.1,0-0.1,0-0.2c-0.1,0.1-0.2,0.2-0.3,0.2
			c-0.4,0.2-0.9,0.2-1.3,0c-0.5-0.4-0.5-1.3,0-1.7c0.4-0.3,0.9-0.5,1.4-0.5c0.2,0,0.2-0.1,0.2-0.2c0-0.1,0-0.2,0-0.2
			c0-0.2-0.1-0.3-0.3-0.3c-0.2,0-0.3,0.1-0.4,0.2c0,0.1,0,0.2-0.1,0.2c-0.1,0-0.2,0-0.3,0c-0.2,0-0.4-0.1-0.6-0.1
			c-0.1,0-0.1-0.1-0.1-0.2c0.2-0.4,0.5-0.7,0.9-0.8c0.4-0.1,0.9-0.1,1.3,0.1c0.5,0.2,0.7,0.5,0.7,1.1c0,0.7,0,1.4,0,2.1
			C49.4,20,49.5,20.2,49.5,20.4z M48.2,19L48.2,19c0-0.1,0-0.2,0-0.3c0-0.1,0-0.1-0.1-0.1c-0.5,0.1-0.8,0.4-0.6,0.9
			c0,0.1,0.1,0.2,0.2,0.2c0.2,0.1,0.6-0.1,0.6-0.4C48.2,19.2,48.2,19.1,48.2,19z"/>
		<path class="st4" d="M36.7,19.2c0.3,0.1,0.5,0.2,0.8,0.3c-0.1,0.3-0.3,0.6-0.6,0.8c-0.7,0.5-2.1,0.4-2.5-0.9
			c-0.2-0.7-0.2-1.5,0.3-2.1c0.6-0.9,2.2-0.9,2.7,0.2c0.2,0.4,0.2,0.8,0.2,1.3c0,0.1-0.1,0.1-0.2,0.1c-0.6,0-1.1,0-1.7,0
			c-0.2,0-0.3,0-0.2,0.3c0,0.1,0,0.2,0.1,0.3c0.1,0.2,0.2,0.4,0.5,0.4c0.3,0,0.5-0.1,0.6-0.4C36.6,19.3,36.7,19.3,36.7,19.2z
			 M36,18.1C36,18.1,36,18.1,36,18.1c0.1,0,0.2,0,0.4,0c0,0,0.1-0.1,0.1-0.1c0-0.2,0-0.3-0.1-0.5c-0.1-0.2-0.2-0.2-0.4-0.2
			c-0.2,0-0.3,0.1-0.4,0.2s-0.1,0.3-0.1,0.5c0,0.1,0,0.1,0.1,0.1C35.7,18.1,35.8,18.1,36,18.1z"/>
		<path class="st4" d="M23.1,15.8c-0.2,0-0.3,0-0.4,0s-0.2,0.1-0.2,0.3c0,0.1,0,0.3,0,0.4c0,0,0.1,0.1,0.1,0.1c0.1,0,0.3,0,0.4,0
			c0.1,0,0.1,0,0.1,0.1c0,0.2,0,0.4,0,0.6c0,0.1,0,0.1-0.1,0.1c-0.1,0-0.2,0-0.4,0c-0.1,0-0.2,0-0.2,0.2c0,0.9,0,1.7,0,2.6
			c0,0.2,0,0.2-0.2,0.2c-0.2,0-0.5,0-0.7,0c-0.2,0-0.2,0-0.2-0.2c0-0.9,0-1.7,0-2.6c0-0.2-0.1-0.2-0.2-0.2c-0.3,0-0.3,0-0.3-0.3
			c0-0.1,0-0.3,0-0.4c0-0.1,0-0.1,0.1-0.1c0.4,0,0.3,0,0.4-0.4c0-0.3,0-0.5,0.1-0.8c0.2-0.4,0.5-0.6,1-0.6c0.2,0,0.4,0,0.7,0
			c0,0,0.1,0.1,0.1,0.1C23.1,15.3,23.1,15.6,23.1,15.8z"/>
		<path class="st4" d="M45.9,19.1c0,0.5-0.3,1.1-0.9,1.3c-0.5,0.2-1,0.2-1.5-0.2C43,20,42.8,19.5,42.7,19c-0.1-0.6,0-1.2,0.3-1.7
			c0.4-0.7,1.4-1,2.1-0.6c0.4,0.2,0.8,0.8,0.7,1.3c-0.3,0-0.6,0-0.9,0c0,0-0.1-0.1-0.1-0.1c0-0.1-0.1-0.3-0.1-0.4
			c-0.1-0.1-0.2-0.2-0.3-0.2c-0.2,0-0.3,0.1-0.3,0.2C44.1,17.6,44,17.8,44,18c0,0.5-0.1,0.9,0.1,1.4c0.1,0.2,0.2,0.4,0.4,0.4
			c0.2,0,0.4-0.1,0.4-0.4c0-0.1,0-0.2,0.1-0.3C45.3,19,45.6,19.1,45.9,19.1z"/>
		<path class="st4" d="M27.3,26.5c-0.5,0.2-0.9,0.3-1.4,0.5c-0.3,0.1-0.5,0.1-0.8,0c-1.4-0.7-2.9-1.3-4.4-1.8
			c-0.2-0.1-0.5-0.2-0.8-0.2c0.3-0.1,0.5-0.2,0.8-0.2c0.4-0.1,0.7-0.2,1.1-0.3c0.1,0,0.2,0,0.2,0c1.8,0.6,3.6,1.2,5.3,2
			C27.2,26.5,27.2,26.5,27.3,26.5z"/>
		<path class="st4" d="M30.1,25.7c-0.2,0.1-0.4,0.1-0.6,0.2c-0.4,0.1-0.7,0.2-1.1,0.3c-0.1,0-0.2,0-0.2,0c-1.7-0.8-3.4-1.4-5.2-2
			c-0.1,0-0.1,0-0.2-0.1c0.3-0.1,0.6-0.1,0.9-0.2c0.1,0,0.2,0,0.4-0.1c0.4-0.1,0.7-0.1,1,0c1.3,0.4,2.5,0.8,3.7,1.3
			C29.3,25.3,29.7,25.5,30.1,25.7C30.1,25.7,30.1,25.7,30.1,25.7z"/>
		<path class="st4" d="M39.3,20.4c-0.4,0-0.7,0-1.1,0c0,0-0.1-0.1-0.1-0.1c0-0.4,0-0.8,0-1.2c0-0.7,0-1.5,0-2.2c0-0.1,0-0.2,0.2-0.2
			c0.3,0,0.6,0,1,0c0,0.2,0,0.3,0,0.5c0,0,0,0,0,0c0.3-0.4,0.7-0.6,1.2-0.6c0,0.4,0,0.8,0,1.2c-0.3,0-0.5,0-0.8,0
			c-0.3,0-0.4,0.2-0.4,0.5c0,0.7,0,1.3,0,2C39.3,20.3,39.3,20.3,39.3,20.4z"/>
		<path class="st4" d="M40.9,16.6c0.4,0,0.8,0,1.2,0c0,0.1,0,0.1,0,0.2c0,1.1,0,2.3,0,3.4c0,0.1,0,0.2-0.2,0.2c-0.3,0-0.6,0-0.9,0
			c-0.1,0-0.2,0-0.2-0.1C40.9,19.1,40.9,17.9,40.9,16.6C40.9,16.7,40.9,16.7,40.9,16.6z"/>
		<path class="st4" d="M42.1,15c0,0.3,0,0.7,0,1c0,0-0.1,0.1-0.1,0.1c-0.3,0-0.7,0-1,0c-0.1,0-0.1,0-0.1-0.1c0-0.3,0-0.6,0-0.8
			c0,0,0-0.1,0.1-0.1C41.4,15,41.7,15,42.1,15z"/>
	</g>
</g>
<g id="disney" class="st0">
	<g class="st3">
		<g>
			<path class="st4" d="M22.8,23.6c-0.7,0-0.6,3.7-0.5,4.5c0.1,0.7,0.2,0.9,0.7,1c0.5,0.1,0.6-0.8,0.6-1.2
				C23.5,27.5,23.8,23.6,22.8,23.6"/>
			<path class="st4" d="M27.1,24.7c1.2-0.1,2.5-0.1,2.5-0.8c0-0.6-3.4-0.7-4.7,0.1c-1.1,0.6-1.5,1.9,0.1,2.1c1,0.2,3.5,0,3.5,0.8
				c0,1.1-4.3,1.3-3.6,0.3c0.5-0.7,1,0.3,2.2,0.3c0.6,0,1.8-0.7-0.1-1c-1.9-0.3-2.4,0.2-2.6,0.7c-0.2,0.5,0.4,2,2.8,1.9
				c2.1-0.1,2.4-1.6,2.3-2.2c-0.3-2-4.3-1.1-4.3-1.7C25.2,24.9,26.1,24.7,27.1,24.7"/>
			<path class="st4" d="M32.7,22.6c-0.6,0.1,1.1,4,0.4,4.2c-0.3,0.1-1.6-3-2.4-2.9c-0.7,0.1-1.6,5-0.4,5.1c0.9,0.1,0.5-3,0.9-3.1
				c0.3,0,1.1,2.6,2,2.7c0.8,0.1,1.3-0.7,1.3-2C34.6,25.1,33.5,22.5,32.7,22.6"/>
			<path class="st4" d="M37.9,27.2c-0.4,0.1-1.4,0.4-1.6,0.3c-0.2-0.1-0.1-0.9,0.2-1c0.2-0.1,1.1,0,1.4-0.1c0.7-0.1,0.8-0.9,0.1-1
				c-0.6,0-0.9,0.1-1.2,0c-0.1-0.3,0.1-0.6,0.3-0.7c0.2-0.1,1.9,0,2.2-0.3c0.2-0.2-0.2-1-0.6-1.1c-0.5-0.1-3.2,0.2-3.4,0.3
				c-0.3,0.1-0.4,0.4-0.2,0.5c0.2,0.2,0.6,0.3,0.7,0.5c0,0.1-0.1,0.6-0.3,0.7c-0.2,0.1-0.6,0.1-0.5,0.7c0.2,0.5-1,2.1,0.4,3
				c0.8,0.5,2.4-0.5,2.8-0.8C38.7,28.1,38.8,27.1,37.9,27.2"/>
			<path class="st4" d="M41.8,27.5c0.2-0.7,1.6-2.7,1.8-2.6C44.4,25.2,43.3,27.7,41.8,27.5 M43.5,23.7c-1-0.1-3.1,2.9-3.2,2.8
				c-0.3-0.2,0.6-1.8,0.9-2.3c0.5-0.8,0.2-2-1.4,0.7c-0.3,0.6-0.9,1.5-0.3,3.1c-0.3,0.7-1.3,3.5-1.1,4.2c0.2,0.7,0.8,1,1.2,0.9
				c0.1-0.3,0.8-3.6,1.3-4c0.9,0,2.6-0.6,3.3-2C45,25.7,44.6,23.9,43.5,23.7z"/>
			<path class="st4" d="M11.9,28c-0.3,0.2-3.2-1.4-3.2-2c0-0.5,3-1,3.2-0.9C12,25.2,11.9,27.9,11.9,28 M9.6,17.5
				c-3.3,0.1-3.9,1.1-3.6,1.7c0.2,0.4,1.2,0.3,1.2,0c0-0.3-0.4-0.3-0.4-0.4c0-0.3,2.5-0.4,4.8,0c5,0.9,8.6,4.2,8.7,6.6
				c0.1,3.8-6.2,3.4-6.8,2.9c0-0.2,0-3,0-3.3c0.6-0.1,3.5,0,3.5,0.7c0,0.7-0.6,0.6-0.6,0.8c0.1,0.6,1.9,0.1,1.8-1
				c-0.1-1.8-4.1-1.8-4.7-1.8c0-0.4,0.1-2.7-0.8-2.7c-0.7,0-0.7,2.1-0.7,2.8c-1.1,0.1-3.8,1-3.7,2c0.2,1.4,2.4,2.9,3.7,3.5
				c0,1.9,1.6,1.5,1.6,0.6c6.9,1,8.3-2.7,8.3-4.2C21.7,20.5,13.2,17.4,9.6,17.5z"/>
			<path class="st4" d="M25.4,19.9c0.8,0.8-1.6,2-2.5,1.7C23,21.1,24.8,19.3,25.4,19.9 M21.8,20.9c-0.1-0.1,0.4-1,1-1.1
				C22.5,20.5,21.9,21,21.8,20.9z M25.9,21.1c0.9-1.1,0.3-1.9-0.4-2c-0.2,0-0.6-0.8-1.9-0.6c-1.3,0.2-2.8,1.6-2.7,2.4
				c0.1,0.9,0.3,0.6,0.3,1.1c0.1,0.4,0,0.9,0.4,0.9c0.4,0.1,0.5-0.3,0.5-0.3C23,22.7,24.3,23,25.9,21.1z"/>
		</g>
	</g>
</g>
<g id="ogilvy" class="st0">
	<g class="st3">
		<path class="st4" d="M11.3,28.6c-2.1,0-3.7-0.7-4.8-2.2c-1-1.3-1.2-2.8-0.8-4.4c0.6-2.4,2.2-3.7,4.5-4.1c1.9-0.3,3.6,0.1,5,1.5
			c1.3,1.3,1.7,2.9,1.4,4.6c-0.3,2-1.4,3.4-3.3,4.2C12.6,28.5,11.8,28.6,11.3,28.6z M14.4,22.9c0-0.7-0.2-1.7-0.7-2.7
			c-0.6-1.1-1.4-1.8-2.6-1.8c-1.2,0-2.1,0.6-2.6,1.6c-0.6,1-0.7,2-0.7,3.1c0,1.3,0.2,2.5,1,3.6c1.2,1.7,3.4,1.6,4.6,0.1
			C14.1,25.8,14.4,24.5,14.4,22.9z"/>
		<path class="st4" d="M18.5,26.3c-0.2-0.2-0.4-0.3-0.5-0.5c-1.1-1.2-0.7-3.2,0.9-3.8c0.7-0.3,1.3-0.5,2.8-0.1
			c0.1-0.4,0.1-0.9,0.2-1.3c0.4-1.2,1.6-1.9,3-1.8c0.6,0,1.2,0.2,1.6,0.7c0.2,0.3,0.2,0.8-0.1,1.2c-0.2,0.3-0.7,0.4-1.1,0.3
			c-0.3-0.1-0.6-0.5-0.6-0.9c0-0.5-0.2-0.6-0.6-0.5c-1.1,0.2-1.7,1-1.7,2.2c0,0.4,0.1,0.8,0.4,1.1c0.7,0.9,0.5,2.5-0.5,3.2
			c-0.6,0.5-1.3,0.7-2.1,0.7c-0.5,0-1.1,0.1-1.6,0.1c-0.1,0-0.2,0-0.2,0.1c-0.4,0.2-0.6,0.5-0.5,0.8c0.1,0.3,0.4,0.5,0.8,0.4
			c0.8-0.1,1.6-0.2,2.4-0.3c0.5,0,1-0.1,1.5,0.1c1.1,0.3,1.4,1.2,1.2,2.2c-0.3,1.4-1.6,2.5-3.1,2.5c-0.7,0-1.4,0-2-0.2
			c-0.7-0.3-1.2-0.7-1.3-1.5c0-0.3,0-0.6,0.3-0.7c0.2-0.1,0.4-0.1,0.6-0.1c0.3,0.1,0.3,0.3,0.4,0.6c0,0.9,0.4,1.2,1.3,1.3
			c0.8,0,1.5,0,2.1-0.5c0.4-0.3,0.6-0.8,0.6-1.3c0-0.4-0.3-0.7-0.7-0.7c-0.6,0-1.1,0.1-1.7,0.1c-0.8,0.1-1.5,0.3-2.3,0.1
			c-0.7-0.2-1.2-0.7-1.3-1.3c-0.1-0.8,0.2-1.5,0.9-1.8C17.9,26.5,18.2,26.4,18.5,26.3z M21.6,24.2c-0.1-0.6-0.2-1.2-0.6-1.6
			c-0.5-0.5-1.2-0.5-1.6,0.1c-0.6,0.8-0.6,2.2,0,3c0.5,0.7,1.4,0.7,1.8-0.1C21.4,25.1,21.4,24.6,21.6,24.2z"/>
		<path class="st4" d="M35,26.6c0.2-0.4,0.3-0.8,0.5-1.2c0.3-0.8,0.6-1.6,0.9-2.3c0.2-0.5,0.1-0.6-0.4-0.6c-0.3,0-0.4-0.2-0.3-0.5
			c1.7,0,3.5,0,5.2,0c0.1,0.3,0,0.5-0.3,0.5c-0.4,0-0.5,0.2-0.4,0.5c0.4,1.1,0.9,2.3,1.3,3.4c0,0,0,0.1,0.1,0.1
			c0.2-0.5,0.4-1,0.6-1.5c0.3-0.6,0.5-1.2,0.8-1.8c0.2-0.5,0.1-0.6-0.4-0.7c-0.2,0-0.4,0-0.3-0.3c0-0.1,0.1-0.2,0.2-0.2
			c0.8,0,1.6,0,2.4,0c0,0.2,0,0.3,0,0.5c-1,0-1.1,0.8-1.3,1.4c-1,2.3-2,4.6-2.9,6.9c-0.3,0.7-0.7,1.4-1.4,1.8
			c-0.3,0.2-0.7,0.2-1.1,0.1c-0.3-0.1-0.5-0.4-0.5-0.7c0.1-0.3,0.4-0.6,0.7-0.6c0.1,0,0.1,0,0.2,0c0.7,0.1,1.1-0.2,1.4-0.8
			c0.2-0.6,0.5-1.2,0.7-1.7c0-0.1,0-0.2,0-0.3c-0.8-1.9-1.5-3.8-2.3-5.7c-0.1-0.2-0.3-0.3-0.5-0.3c-0.3,0-0.4,0.1-0.5,0.4
			c-0.7,1.8-1.5,3.5-2.1,5.3c-0.2,0.5-0.6,0.3-0.9,0.4c-0.3,0.1-0.4-0.2-0.5-0.4c-0.7-1.7-1.4-3.5-2.1-5.2c-0.1-0.2-0.3-0.4-0.4-0.4
			c-0.4,0-0.3-0.2-0.3-0.5c0.1,0,0.2,0,0.3,0c0.9,0,1.8,0,2.8,0c0.1,0,0.3,0.1,0.3,0.2c0.1,0.2-0.1,0.3-0.3,0.3c0,0-0.1,0-0.1,0
			c-0.4,0.1-0.5,0.2-0.3,0.5c0.3,0.8,0.6,1.6,0.9,2.4C34.6,25.7,34.8,26.1,35,26.6C35,26.6,35,26.6,35,26.6z"/>
		<path class="st4" d="M26.6,21.7c0,0.2,0,0.3,0,0.5c0,1.8,0,3.5,0,5.3c0,0.4,0.2,0.5,0.5,0.5c0.4,0,0.7,0,1.1,0
			c0.3,0,0.5-0.1,0.4-0.5c0-2.9,0-5.7,0-8.6c0-0.3-0.1-0.4-0.3-0.5c-0.1,0-0.1,0-0.2-0.1c-0.1-0.1-0.3-0.2-0.4-0.3
			c0.1-0.1,0.3-0.2,0.4-0.2c0.6-0.2,1.3-0.3,1.9-0.5c0.1,0,0.2,0,0.3,0c0,0.2,0,0.3,0,0.4c0,3.2,0,6.4,0,9.6c0,0.5,0,0.6,0.6,0.6
			c0.4,0,0.4,0.2,0.3,0.5c-2.4,0-4.8,0-7.1,0c0-0.2,0-0.3,0-0.4c0,0,0.1,0,0.1,0c0.7-0.1,0.7-0.1,0.7-0.8c0-1.3,0-2.5,0-3.8
			c0-0.3-0.1-0.5-0.4-0.6c-0.1,0-0.2,0-0.3-0.1c-0.1-0.1-0.1-0.2-0.2-0.2c0.1-0.1,0.1-0.2,0.2-0.2c0.7-0.2,1.4-0.4,2-0.5
			C26.3,21.7,26.4,21.7,26.6,21.7z"/>
	</g>
</g>
<g id="ey" class="st0">
	<g class="st3">
		<path class="st4" d="M9.6,38.1c0-0.1,0-0.2,0-0.3c0-3.6,0-7.2,0-10.7c0-0.2,0-0.2,0.2-0.2c2,0,3.9,0,5.9,0c0.1,0,0.2,0,0.3,0.2
			c0.4,0.8,0.9,1.6,1.3,2.3c0,0,0,0,0,0.1c-1.5,0-3,0-4.5,0c0,0.1,0,0.3,0,0.4c0,0.4,0,0.9,0,1.3c0,0.2,0,0.2,0.2,0.2
			c1.2,0,2.4,0,3.6,0c0.2,0,0.2,0,0.2,0.2c0,0.6,0,1.2,0,1.9c0,0.2,0,0.2-0.2,0.2c-1.2,0-2.4,0-3.7,0c-0.2,0-0.2,0-0.2,0.2
			c0,0.5,0,1,0,1.5c0,0.2,0,0.2,0.2,0.2c1.7,0,3.5,0,5.2,0c0.2,0,0.2,0,0.2,0.2c0,0.8,0,1.6,0,2.3C15.6,38.1,12.6,38.1,9.6,38.1z"/>
		<path class="st4" d="M21,38.1c0-0.1,0-0.1,0-0.2c0-1.3,0-2.7,0-4c0-0.2,0-0.3-0.1-0.5c-0.9-1.6-1.9-3.2-2.8-4.8
			c-0.3-0.6-0.6-1.1-1-1.7c0.1,0,0.1,0,0.2,0c1.1,0,2.2,0,3.3,0c0.1,0,0.2,0,0.2,0.2c0.5,0.9,1,1.9,1.5,2.8c0.1,0.2,0.2,0.5,0.4,0.7
			c0.1-0.1,0.1-0.2,0.2-0.3c0.6-1.1,1.1-2.2,1.7-3.3c0.1-0.1,0.2-0.2,0.3-0.2c1.1,0,2.1,0,3.2,0c0.1,0,0.1,0,0.2,0
			c-0.1,0.3-0.3,0.5-0.4,0.7c-1,1.8-2,3.5-3,5.3c-0.1,0.1-0.1,0.3-0.2,0.4c-0.2,0.3-0.3,0.6-0.3,0.9c0,1.2,0,2.5,0,3.7
			c0,0.1,0,0.2,0,0.2C23.3,38.1,22.1,38.1,21,38.1z"/>
	</g>
	<polygon class="st2" points="9.4,23.4 40.6,12 40.6,17.7 	"/>
</g>
<g id="tiaa" class="st0">
	<path class="st2" d="M10.2,18.4c-1.2,0.7-2.4,1.4-1.8,3.4c1.4,0,2.9,0,4.6,0c0,1.7,0,3.3,0,4.8c1.9,0,3-0.6,3.1-1.9
		c0.1-2.1-0.1-4.2-0.2-6.3C14,18.4,12.1,18.4,10.2,18.4z"/>
	<path class="st2" d="M7.7,19.5c-1,1-1.8,1.9-2.7,2.8c0,2.4,0,4.9,0,7.3c1.7,0,3.5,0.1,5.1,0.1c2.2-0.1,3.6-0.8,4.8-2.6
		c-2.5,0-4.8,0-7.2,0C7.7,24.5,7.7,22.2,7.7,19.5z"/>
	<path class="st2" d="M40.1,24.8l0.8-2C40.7,23.5,40.4,24.1,40.1,24.8z"/>
	<path class="st5" d="M41,22.8c-0.3,0.6-0.5,1.3-0.8,2c0.6,0,1.2,0,1.8,0c-0.3-0.7-0.6-1.4-0.8-2C41.1,22.8,41,22.8,41,22.8z"/>
	<path class="st2" d="M37,28.4C37,28.3,37,28.3,37,28.4C37,28.3,37,28.3,37,28.4C37,28.3,37,28.3,37,28.4z"/>
	<path class="st2" d="M44.8,27.8c-1.1-2.5-2.1-5.1-3.2-7.6c-0.1-0.3-0.2-0.5-0.6-0.5c-0.4,0-0.4,0.2-0.6,0.5
		c-1.1,2.5-2.1,5.1-3.2,7.6c0,0.1-0.1,0.2-0.1,0.3c0,0,0,0.1,0,0.1c0,0.1-0.1,0.1-0.1,0.2c0.2,0,0.5,0,0.7,0c0.9,0,0.9,0,1.3-0.9
		c0.5-1.2,0.5-1.2,1.9-1.2c0.5,0,1.1-0.2,1.5,0.1c0.4,0.2,0.5,0.9,0.7,1.4c0.1,0.1,0.1,0.3,0.2,0.4c0.1,0.1,0.2,0.2,0.4,0.3
		c0.4,0,0.9,0,1.4,0C44.9,28.1,44.9,28,44.8,27.8z M40.1,24.8c0.3-0.7,0.6-1.3,0.8-2c0,0,0.1,0,0.1,0c0.3,0.6,0.5,1.3,0.8,2
		C41.3,24.8,40.8,24.8,40.1,24.8z"/>
	<path class="st2" d="M32.1,24.8l0.8-2C32.7,23.5,32.4,24.1,32.1,24.8z"/>
	<path class="st5" d="M33,22.8c-0.3,0.6-0.5,1.3-0.8,2c0.6,0,1.2,0,1.8,0c-0.3-0.7-0.6-1.4-0.8-2C33.1,22.8,33,22.8,33,22.8z"/>
	<path class="st2" d="M29,28.4C29,28.3,29,28.3,29,28.4C29,28.3,29,28.3,29,28.4C29,28.3,29,28.3,29,28.4z"/>
	<path class="st2" d="M36.8,27.8c-1.1-2.5-2.1-5.1-3.2-7.6c-0.1-0.3-0.2-0.5-0.6-0.5c-0.4,0-0.4,0.2-0.6,0.5
		c-1.1,2.5-2.1,5.1-3.2,7.6c0,0.1-0.1,0.2-0.1,0.3c0,0,0,0.1,0,0.1c0,0.1-0.1,0.1-0.1,0.2c0.2,0,0.5,0,0.7,0c0.9,0,0.9,0,1.3-0.9
		c0.5-1.2,0.5-1.2,1.9-1.2c0.5,0,1.1-0.2,1.5,0.1c0.4,0.2,0.5,0.9,0.7,1.4c0.1,0.1,0.1,0.3,0.2,0.4c0.1,0.1,0.2,0.2,0.4,0.3
		c0.4,0,0.9,0,1.4,0C36.9,28.1,36.9,28,36.8,27.8z M32.1,24.8c0.3-0.7,0.6-1.3,0.8-2c0,0,0.1,0,0.1,0c0.3,0.6,0.5,1.3,0.8,2
		C33.3,24.8,32.8,24.8,32.1,24.8z"/>
	<path class="st2" d="M25.7,19.8c-2,0-4.1,0-6.1,0c-0.1,0-0.3,0.2-0.4,0.3c0,0.4,0,0.7,0,1.2c0.9,0,1.7,0,2.6,0c0,2.4,0,4.7,0,7
		c0.6,0,1,0,1.6,0c0-2.4,0-4.7,0-7c0.9,0,1.7,0,2.6,0c0-0.4,0-0.8,0-1.1C26,20,25.8,19.8,25.7,19.8z"/>
	<path class="st2" d="M27,19.9c-0.1,0-0.2,0.4-0.2,0.6c0,2.2,0,4.3,0,6.5c0,1.4,0,1.4,1.5,1.3c0-0.1,0.1-0.1,0.1-0.1
		c0-2.7,0-5.3,0-8c0-0.1,0-0.3-0.1-0.3C27.9,19.9,27.5,19.8,27,19.9z"/>
	<rect x="26.8" y="19.9" class="st2" width="1.6" height="8.5"/>
</g>
<g id="mhe" class="st0">
	<g class="st3">
		<path class="st4" d="M13.9,14.1v20.8h20.7V14.1H13.9z M34.5,34.8H14.1V14.1h20.5V34.8z"/>
		<path class="st4" d="M14.1,34.8h20.5V14.1H14.1V34.8z M19.6,34.4h-1.5V32h-1.9v2.4h-1.5v-6.2h1.5v2.3h1.9v-2.3h1.5V34.4z
			 M21.4,34.4h-1.3v-4.4h1.3V34.4z M21.4,29.3h-1.3v-1.1h1.3V29.3z M23.3,34.4H22v-6.2h1.3V34.4z M25.3,34.4H24v-6.2h1.3V34.4z
			 M28.9,23.3l0.4,3.4h0.1l0.6-3.4h1.5l0.6,3.4h0.1l0.5-3.4h1.2l-0.7,4.4h-1.8l-0.5-3.1h0l-0.5,3.1h-1.9l-0.7-4.4
			C27.7,23.3,28.9,23.3,28.9,23.3z M27.4,24.9v2.7h-1.3l0-0.6h0c-0.1,0.6-0.7,0.7-1.1,0.7c-0.9,0-1.4-0.2-1.4-1.4
			c0-1,0.5-1.4,1.4-1.4c0.4,0,0.9,0,1.1,0.5h0.1v-0.7c0-0.4,0-0.7-0.6-0.7c-0.3,0-0.5,0.1-0.5,0.5h-1.3c0-1.4,0.9-1.3,1.8-1.3
			C26.8,23.2,27.4,23.4,27.4,24.9z M23.9,16.5c1.1,0,1.9,0.1,1.9,1.7h-1.3c0-0.2,0-0.4-0.1-0.5c-0.1-0.1-0.2-0.1-0.5-0.1
			c-0.5,0-0.6,0.1-0.6,1.1c0,1,0.1,1.1,0.6,1.1c0.6,0,0.6-0.2,0.6-0.7h1.3c0,0.8-0.1,1.3-0.4,1.5c-0.3,0.2-0.8,0.3-1.5,0.3
			c-1.5,0-1.9-0.5-1.9-2.2C22.1,17.2,22.3,16.5,23.9,16.5z M22.3,23.2c0.9,0,1,0.8,1,1.6v0.3h-1.2V25c0-0.3,0-0.6-0.3-0.6
			c-0.4,0-0.5,0.3-0.5,0.7v2.6h-1.3v-4.4h1.2v0.6h0.1C21.5,23.4,21.9,23.2,22.3,23.2z M14.6,14.7H17l1.1,3.9h0.1l1-3.9h2.4v6.2H20
			l0.1-4.8h-0.1l-1.4,4.8h-1.3L16,16.1h0l0.1,4.8h-1.5C14.6,20.9,14.6,14.7,14.6,14.7z M14.4,23.7c0-2.1,1-2.4,2.6-2.4
			c1.4,0,2.5,0,2.5,2H18c0-0.6-0.5-0.6-1-0.6c-1.1,0-1.1,0.4-1.1,1.4v1c0,1.1,0.3,1.2,1.1,1.2c0.8,0,1-0.2,1-1.1h-1v-1.2h2.5v1.1
			c0,2.1-0.5,2.5-2.5,2.5c-1.8,0-2.6-0.3-2.6-2.4V23.7z"/>
		<path class="st4" d="M25.4,25.9c-0.3,0-0.6,0.1-0.6,0.5c0,0.5,0.4,0.5,0.6,0.5c0.5,0,0.7-0.1,0.7-0.5
			C26.1,25.9,25.8,25.9,25.4,25.9z"/>
	</g>
</g>
<g id="jpmorgan" class="st0">
	<g class="st3">
		<path class="st4" d="M36.8,23c-0.2-0.1-0.4,0.1-0.5,0.3c0,0,0,0.1,0,0.1c-0.1,0.3-0.3,0.3-0.6,0.2c-0.7-0.5-1.5-0.6-2.3-0.3
			c-0.9,0.4-1.3,1.8-0.7,2.6c0.2,0.3,0.5,0.4,0.8,0.5c0,0,0.1,0,0.1,0c0,0,0,0,0,0c0,0-0.1,0-0.1,0c-0.3,0.1-0.6,0.1-0.9,0.3
			c-0.5,0.4-0.5,1.1,0.1,1.4c0.2,0.1,0.4,0.2,0.6,0.2c0.5,0,0.9,0,1.4,0.1c0.3,0,0.5,0,0.8,0.1c0.5,0.2,0.7,0.8,0.3,1.2
			c-0.1,0.1-0.3,0.2-0.4,0.3c-0.3,0.1-0.7,0.2-1,0.2c-0.4,0-0.7,0-1-0.2c-0.3-0.2-0.5-0.4-0.4-0.7c0,0,0-0.1,0-0.1
			c0-0.3-0.3-0.4-0.5-0.3c-0.1,0.1-0.2,0.2-0.2,0.3c-0.1,0.4,0,0.8,0.4,1c0.2,0.1,0.4,0.2,0.5,0.2c0.3,0.1,0.5,0.1,0.8,0.1
			c0.1,0,0.3,0,0.4,0c0,0,0.1,0,0.1,0c0.3,0,0.5-0.1,0.8-0.1c0.5-0.2,1-0.5,1.1-1c0.2-0.5,0.1-1-0.3-1.4c-0.3-0.3-0.6-0.3-1-0.4
			c-0.5,0-1.1,0-1.6-0.1c-0.1,0-0.3,0-0.4-0.1c-0.2-0.1-0.3-0.3-0.1-0.5c0.1-0.1,0.2-0.1,0.2-0.1c0.2-0.1,0.4-0.1,0.6-0.1
			c0.4-0.1,0.8-0.1,1.2-0.3c0.8-0.3,1.1-0.9,1-1.7c0-0.2-0.1-0.4-0.1-0.7c0.1,0,0.2,0,0.3,0c0.4,0,0.6-0.2,0.7-0.5
			C37.2,23.3,37,23,36.8,23z M35.2,25.8c-0.1,0.4-0.3,0.6-0.7,0.6c0,0,0,0,0,0c-0.6,0-0.9-0.2-1-0.8c-0.1-0.5-0.1-1,0.1-1.4
			c0.1-0.3,0.3-0.6,0.6-0.7c0.5-0.1,0.8,0.1,1,0.5c0.1,0.3,0.1,0.6,0.2,0.9C35.3,25.2,35.3,25.5,35.2,25.8z"/>
		<path class="st4" d="M22.1,27.1c0-0.1,0-0.2,0-0.3c0-1.6,0-3.3,0-4.9c0,0,0-0.1,0-0.2c0.2,0,0.4,0,0.6,0c0-0.1,0-0.1,0-0.2
			c-0.1,0-0.1,0-0.1,0c-0.5,0-0.9,0-1.4,0c-0.1,0-0.1,0-0.2,0.1c-0.6,1.5-1.2,3.1-1.9,4.6c0,0-0.1,0.1-0.1,0.1c0,0-0.1-0.1-0.1-0.1
			c0,0,0,0,0,0c-0.7-1.5-1.3-3.1-2-4.6c0-0.1-0.1-0.1-0.2-0.1c-0.5,0-1,0-1.5,0c0,0-0.1,0-0.1,0c0,0.1,0,0.1,0,0.2
			c0.3,0,0.5,0,0.8,0c0,0,0,0.1,0,0.1c0,1.7,0,3.5,0,5.2c0,0.4-0.2,0.6-0.6,0.6c-0.1,0-0.1,0-0.2,0c0,0.1,0,0.1,0,0.2
			c0.6,0,1.2,0,1.8,0c0-0.1,0-0.1,0-0.2c-0.1,0-0.1,0-0.2,0c-0.3-0.1-0.5-0.3-0.5-0.6c0-0.2,0-0.3,0-0.5c0-1.3,0-2.7,0-4
			c0,0,0-0.1,0-0.2c0.1,0,0.1,0,0.2,0.1c0.7,1.7,1.5,3.5,2.2,5.2c0,0.1,0,0.1,0.2,0.1c0.1,0,0.1-0.1,0.2-0.1c0.3-0.7,0.6-1.4,0.8-2
			c0.4-1,0.8-2.1,1.3-3.1c0,0,0-0.1,0.1-0.1c0,0,0,0,0,0c0,0,0,0.1,0,0.1c0,1.4,0,2.8,0,4.2c0,0.1,0,0.2,0,0.3
			c0,0.4-0.2,0.6-0.6,0.6c-0.1,0-0.1,0-0.2,0c0,0.1,0,0.1,0,0.2c0.8,0,1.7,0,2.5,0c0-0.1,0-0.1,0-0.2c-0.1,0-0.1,0-0.2,0
			C22.3,27.6,22.1,27.4,22.1,27.1z"/>
		<path class="st4" d="M12.8,25c0.6-0.2,1-0.6,1.1-1.2c0-0.3,0-0.6,0-0.9c-0.1-0.6-0.4-1-1-1.2c-0.4-0.1-0.7-0.2-1.1-0.2
			c-0.9,0-1.8,0-2.6,0c0,0-0.1,0-0.1,0c0,0.1,0,0.1,0,0.2c0.2,0,0.5,0,0.7,0c0,0.1,0,0.1,0,0.1c0,1.6,0,3.2,0,4.8c0,0.1,0,0.3,0,0.4
			c0,0.3-0.2,0.5-0.5,0.5c-0.1,0-0.2,0-0.4,0.1c0,0.1,0,0.1,0,0.2c0.9,0,1.8,0,2.8,0c0-0.1,0-0.1,0-0.2c-0.1,0-0.2,0-0.3,0
			c-0.4,0-0.6-0.2-0.6-0.7c0-0.6,0-1.2,0-1.8c0.3,0,0.6,0,0.8,0C11.9,25.2,12.4,25.1,12.8,25z M10.7,24.9c0-1.1,0-2.1,0-3.2
			c0.5,0,1.1,0,1.6,0.2c0.4,0.2,0.6,0.4,0.7,0.8c0.1,0.3,0.1,0.7,0,1c-0.1,0.5-0.4,0.9-0.8,1.1C11.7,25,11.2,24.9,10.7,24.9z"/>
		<path class="st4" d="M47.2,27.6c-0.3,0-0.4-0.2-0.5-0.4c0-0.2-0.1-0.3-0.1-0.5c0-0.7,0-1.4,0-2.2c0-0.6-0.3-1-0.9-1.1
			c-0.3-0.1-0.6-0.1-0.9,0c-0.4,0.1-0.7,0.4-1,0.7c0,0-0.1,0-0.1,0.1c0,0,0-0.1-0.1-0.1c0-0.2-0.1-0.4-0.1-0.6
			c0-0.1-0.1-0.1-0.1-0.1c-0.4,0-0.8,0-1.2,0c0,0-0.1,0-0.1,0c0,0.1,0,0.1,0,0.2c0.2,0,0.5,0,0.7,0c0,0.1,0,0.1,0,0.1c0,1,0,2,0,3
			c0,0.2,0,0.3,0,0.5c0,0.2-0.2,0.3-0.4,0.4c-0.1,0-0.2,0-0.3,0c0,0.1,0,0.2,0,0.3c0.7,0,1.5,0,2.2,0c0-0.1,0-0.2,0-0.3
			c-0.4-0.1-0.5-0.2-0.6-0.6c0-0.8,0-1.5,0-2.3c0-0.7,0.5-1.1,1.2-1c0.3,0,0.4,0.2,0.5,0.4c0.1,0.2,0.1,0.4,0.1,0.6
			c0,0.8,0,1.6,0,2.3c0,0.2-0.1,0.4-0.4,0.5c-0.1,0-0.1,0-0.2,0c0,0.1,0,0.2,0,0.3c0.7,0,1.4,0,2.1,0c0-0.1,0-0.2,0-0.3
			C47.2,27.6,47.2,27.6,47.2,27.6z"/>
		<path class="st4" d="M41.8,27c0,0.1-0.1,0.1-0.1,0.2c-0.1,0.2-0.2,0.2-0.4,0.2c-0.1,0-0.2-0.1-0.2-0.3c0-0.2,0-0.3,0-0.5
			c0-0.7,0-1.4,0-2.2c0-0.6-0.3-1-0.9-1.1c-0.4-0.1-0.8-0.1-1.3,0c-0.4,0-0.7,0.1-1,0.4c-0.2,0.2-0.3,0.4-0.3,0.6
			c0,0.2,0.1,0.4,0.3,0.4c0.2,0,0.4-0.1,0.5-0.3c0-0.1,0-0.1,0.1-0.2c0.1-0.5,0.3-0.7,0.8-0.7c0.1,0,0.2,0,0.2,0
			c0.4,0,0.6,0.2,0.7,0.6c0,0.3,0,0.7,0.1,1.1c-0.1,0-0.1,0-0.2,0c-0.3,0-0.6,0.1-0.9,0.1c-0.4,0.1-0.8,0.2-1.2,0.5
			c-0.4,0.3-0.5,0.8-0.4,1.2c0.1,0.5,0.4,0.8,0.9,0.9c0.5,0.1,1,0,1.5-0.4c0.1-0.1,0.2-0.2,0.3-0.3c0.2,0.6,0.6,0.8,1.2,0.6
			c0.4-0.1,0.7-0.5,0.7-1C41.8,26.9,41.9,26.9,41.8,27z M40,27c-0.2,0.2-0.5,0.4-0.8,0.5c-0.5,0.1-0.9-0.2-0.9-0.7
			c0-0.3,0.1-0.6,0.4-0.8c0.4-0.3,0.9-0.5,1.4-0.5c0,0.3,0,0.6,0,0.8c0,0.2,0,0.4,0,0.5C40.1,26.9,40.1,27,40,27z"/>
		<path class="st4" d="M25.6,23.2c-1.1-0.1-2,0.5-2.2,1.6c-0.1,0.5-0.1,1,0,1.5c0.2,0.9,0.8,1.5,1.7,1.7c0.8,0.2,1.7-0.2,2.2-0.9
			c0.3-0.5,0.4-1,0.4-1.5c0-0.2,0-0.3-0.1-0.5C27.4,24,26.7,23.3,25.6,23.2z M26.5,26.7c0,0.2-0.1,0.3-0.1,0.5
			c-0.1,0.3-0.4,0.5-0.7,0.5c-0.2,0-0.4,0-0.7,0c-0.3,0-0.5-0.2-0.6-0.5c-0.1-0.3-0.1-0.7-0.1-1c0-0.1,0-0.3,0-0.4c0,0,0,0,0,0
			c0-0.4,0.1-0.9,0.1-1.3c0-0.1,0-0.1,0-0.2c0.1-0.5,0.4-0.7,0.9-0.8c0.2,0,0.3,0,0.5,0c0.4,0.1,0.6,0.3,0.7,0.7
			c0,0.2,0.1,0.4,0.1,0.6C26.6,25.5,26.6,26.1,26.5,26.7z"/>
		<path class="st4" d="M7.2,21.5c-0.9,0-1.7,0-2.6,0c0,0.1,0,0.1,0,0.2c0.3,0,0.5,0,0.8,0c0,0,0,0.1,0,0.1c0,1.4,0,2.8,0,4.3
			c0,0.2,0,0.5-0.1,0.7c-0.1,0.6-0.4,0.9-1.1,0.9c-0.4,0-0.6-0.2-0.7-0.6c0-0.1,0-0.3,0-0.4c0-0.1-0.1-0.2-0.2-0.3
			c-0.3-0.1-0.6,0-0.7,0.3c-0.1,0.5,0,1,0.7,1.2C4,28.1,4.5,28,5,27.9c0.7-0.1,1.1-0.5,1.2-1.2c0.1-0.3,0.1-0.5,0.1-0.8
			c0-1.3,0-2.7,0-4c0-0.1,0-0.1,0-0.2c0.3,0,0.6,0,0.9,0C7.2,21.6,7.2,21.6,7.2,21.5z"/>
		<path class="st4" d="M31.5,23.3c-0.5-0.1-1.1-0.1-1.5,0.6c0,0.1-0.1,0.2-0.1,0.3c0,0,0,0-0.1,0.1c-0.1-0.3-0.1-0.6-0.2-0.9
			c-0.5,0-1,0-1.5,0c0,0.1,0,0.1,0,0.2c0.3,0,0.5,0,0.8,0c0,0,0,0.1,0,0.1c0,1,0,2,0,3.1c0,0.2,0,0.3,0,0.5c0,0.3-0.2,0.4-0.4,0.4
			c-0.1,0-0.2,0-0.4,0c0,0.1,0,0.2,0,0.3c0.9,0,1.7,0,2.6,0c0-0.1,0-0.2,0-0.3c-0.1,0-0.2,0-0.4,0c-0.2,0-0.4-0.2-0.4-0.4
			c0-0.1,0-0.1,0-0.2c0-0.5,0-0.9,0-1.4c0-0.2,0-0.5,0-0.7c0.1-0.4,0.2-0.7,0.6-0.9c0.3-0.1,0.5-0.1,0.7,0.1
			c0.1,0.1,0.1,0.2,0.2,0.2c0.1,0.1,0.2,0.1,0.4,0.1c0.2,0,0.3-0.1,0.3-0.3C32.1,23.8,31.9,23.4,31.5,23.3z"/>
		<path class="st4" d="M13.4,27c-0.3,0-0.5,0.2-0.5,0.5c0,0.3,0.2,0.5,0.5,0.5c0.3,0,0.5-0.2,0.5-0.5C13.9,27.2,13.7,27,13.4,27z"/>
		<path class="st4" d="M7.6,27c-0.3,0-0.5,0.2-0.5,0.5C7,27.8,7.3,28,7.6,28c0.3,0,0.5-0.2,0.5-0.5C8.1,27.2,7.9,27,7.6,27z"/>
	</g>
</g>
<g id="oppenheimer">
	<g>
		<path class="st6" d="M25.6,7.4c0.4,0.2,0.7,0.4,1.1,0.6c0.5,0.3,1,0.5,1.4,0.8c0.3,0.2,0.5,0.5,0.7,0.7c0.4,0.5,0.8,1,1.2,1.5
			c0.1,0.1,0.4,0.2,0.6,0.3c0.2,0.1,0.4,0.2,0.6,0.4c0.1,0.2,0.3,0.4,0.5,0.5c0.2,0.1,0.4,0.4,0.5,0.7c0.1,0.1,0,0.3,0,0.4
			c0.4,0.4,0.5,0.6,0.3,1c0.5,0.2,0.6,0.7,0.4,1.2c-0.4,0.6-0.7,1.2-1,1.9c-0.2,0.5-0.6,0.8-1,1.1c-0.5,0.4-1,0.9-1.5,1.3
			c-0.1,0.1-0.1,0.2-0.2,0.3c-0.1,0.4-0.3,0.7-0.7,0.9c-0.1,0.1-0.2,0.2-0.3,0.3c-0.2,0.4-0.7,0.7-1.1,0.5c-0.2,0.4-0.6,0.6-1,0.4
			c-0.2,0.2-0.4,0.3-0.6,0.5c-0.2,0-0.3,0-0.5,0c-0.5-0.3-1.1-0.6-1.6-0.9c-0.5-0.3-1-0.5-1.4-0.9c-0.4-0.5-0.8-1-1.2-1.5
			c-0.2-0.2-0.4-0.6-0.7-0.6c-0.4,0-0.6-0.3-0.8-0.5c-0.1-0.2-0.3-0.3-0.4-0.4c-0.4-0.2-0.6-0.7-0.4-1.1c-0.4-0.4-0.6-0.6-0.4-1
			c-0.2-0.2-0.3-0.4-0.5-0.5c0-0.2,0-0.3,0-0.5c0.3-0.5,0.5-1,0.8-1.5c0.3-0.5,0.5-1.1,1-1.5c0.5-0.4,1-0.8,1.5-1.2
			c0.2-0.2,0.6-0.4,0.6-0.7c0-0.3,0.2-0.6,0.5-0.7c0.2-0.1,0.3-0.3,0.4-0.5c0.2-0.3,0.7-0.5,1.1-0.4c0.3-0.3,0.5-0.6,1-0.4
			c0.2-0.2,0.4-0.3,0.6-0.5C25.2,7.4,25.4,7.4,25.6,7.4z M26.6,14.4c0,0.2,0,0.4,0,0.7c0,0.8,0,1.6,0.1,2.4c0,0.4,0.1,0.7,0.4,0.9
			c0.3,0.3,0.7,0.6,1,0.9c0.3,0.3,0.5,0.3,0.9,0c0.5-0.4,1-0.8,1.5-1.2c0.2-0.2,0.5-0.4,0.7-0.7c0.4-0.7,0.8-1.4,1.2-2
			c0.2-0.3,0.2-0.4-0.1-0.6c-0.4,0.6-0.8,1.1-1.1,1.7c-0.3-0.2-0.2-0.3-0.1-0.5c0.4-0.5,0.7-1,1-1.5c0.2-0.3,0.2-0.3-0.1-0.7
			c-0.4,0.6-0.9,1.2-1.3,1.8c-0.2-0.2-0.3-0.3-0.1-0.5c0.1-0.2,0.3-0.4,0.4-0.5c0.3-0.4,0.6-0.8,0.9-1.3c0.2-0.2,0-0.4-0.1-0.5
			c-0.2-0.2-0.2,0-0.3,0.1c-0.4,0.5-0.8,1-1.2,1.6c0,0-0.1,0.1-0.1,0.1c-0.1,0-0.2-0.1-0.2-0.2c0-0.1,0-0.2,0.1-0.3
			c0.3-0.5,0.7-0.9,1-1.3c0.3-0.4,0.2-0.6-0.2-0.8c-0.4,0.5-0.8,1-1.2,1.4c-0.4,0.5-0.9,1-1.3,1.5c-0.2,0.2-0.5,0.1-0.5-0.2
			c0-0.1-0.1-0.2-0.1-0.3C27.2,14.4,26.9,14.4,26.6,14.4z M23.9,15.9c0-1,0-2,0-2.9c0-0.4-0.1-0.7-0.4-1c-0.3-0.3-0.6-0.6-1-0.9
			c-0.3-0.3-0.4-0.4-0.9-0.1c-0.3,0.2-0.7,0.5-1,0.8c-0.5,0.4-1,0.7-1.4,1.3c-0.4,0.6-0.8,1.3-1.1,1.9c-0.1,0.2,0,0.3,0.1,0.4
			c0.1,0.1,0.2,0,0.3-0.1c0.3-0.4,0.6-0.9,0.9-1.3c0-0.1,0.1-0.1,0.2-0.1c0,0.1,0.1,0.2,0.1,0.3c0,0.1-0.1,0.2-0.2,0.3
			c-0.3,0.5-0.7,1-1,1.5c-0.1,0.2,0,0.3,0.1,0.4c0.1,0,0.2-0.1,0.3-0.1c0.3-0.4,0.5-0.8,0.8-1.1c0.1-0.2,0.3-0.3,0.4-0.5
			c0.2,0.2,0.2,0.4,0.1,0.5c-0.4,0.6-0.8,1.2-1.3,1.8c-0.1,0.1,0,0.4,0.1,0.5c0.2,0.1,0.2,0,0.3-0.1c0.4-0.5,0.7-1,1.1-1.5
			c0.1-0.1,0.2-0.2,0.3-0.1c0.1,0.1,0.1,0.2,0,0.4c0,0.1-0.1,0.1-0.1,0.2c-0.3,0.4-0.7,0.9-1,1.3c-0.1,0.2-0.2,0.4,0,0.5
			c0.1,0,0.1,0.1,0.1,0.2c0.1,0,0.2-0.1,0.2-0.1c0.3-0.4,0.7-0.8,1-1.2c0.4-0.5,0.9-1,1.3-1.5c0.1-0.1,0.3-0.2,0.4-0.1
			c0.1,0,0.1,0.2,0.2,0.3c0.1,0.1,0.1,0.2,0.2,0.2C23.4,15.9,23.7,15.9,23.9,15.9z M26,16.5c-1,0-2,0-3,0c-0.2,0-0.5,0.1-0.7,0.3
			c-0.4,0.4-0.8,0.8-1.2,1.3c-0.2,0.2-0.1,0.5,0,0.7c0.4,0.5,0.8,1,1.2,1.4c0.2,0.3,0.4,0.6,0.6,0.7c0.8,0.5,1.5,0.9,2.3,1.4
			c0.2,0.1,0.3,0,0.4-0.1c0,0-0.1-0.2-0.1-0.2c-0.4-0.3-0.9-0.6-1.3-0.9C24,21,24,20.9,24,20.9c0-0.1,0.1-0.1,0.2-0.1
			c0.1,0,0.2,0,0.3,0.1c0.3,0.2,0.6,0.4,0.8,0.6c0.3,0.2,0.6,0.4,0.9,0.6c0.2,0.1,0.3-0.1,0.4-0.2c0,0-0.1-0.2-0.1-0.2
			c-0.5-0.4-1-0.7-1.5-1.1c-0.2-0.1-0.2-0.2,0-0.3c0.1,0,0.3,0,0.3,0c0.2,0.1,0.4,0.3,0.6,0.4c0.4,0.3,0.8,0.6,1.2,0.9
			c0.1,0.1,0.4,0,0.5-0.1c0.1-0.2-0.1-0.2-0.2-0.3c-0.5-0.4-1-0.7-1.5-1.1c-0.1-0.1-0.2-0.2-0.1-0.3c0.1-0.1,0.2-0.2,0.4-0.1
			c0,0,0.1,0,0.1,0.1c0.4,0.3,0.9,0.6,1.3,1c0.3,0.2,0.4,0.2,0.7,0c0.1-0.1,0.1-0.2,0-0.3c-0.2-0.2-0.4-0.3-0.6-0.5
			c-0.4-0.3-0.8-0.7-1.2-1c-0.3-0.2-0.6-0.5-0.9-0.7c-0.1-0.1-0.2-0.3-0.1-0.4c0-0.2,0.2-0.2,0.3-0.2c0.1,0,0.2-0.1,0.2-0.2
			C26,17,26,16.8,26,16.5z M24.9,8.2c0.6,0.4,1.1,0.8,1.7,1.2c-0.2,0.3-0.4,0.2-0.5,0.1c-0.5-0.4-1.1-0.7-1.6-1.1
			c-0.2-0.2-0.3,0-0.5,0.1c-0.1,0.1,0,0.2,0.1,0.3c0.1,0,0.1,0.1,0.2,0.1c0.4,0.3,0.8,0.6,1.3,0.9c0.1,0,0.1,0.2,0.1,0.2
			c-0.1,0-0.2,0.1-0.3,0.1c0,0-0.1-0.1-0.2-0.1c-0.5-0.4-1.1-0.7-1.6-1.1c-0.4-0.3-0.4-0.3-0.8,0.1c0.6,0.4,1.2,0.9,1.8,1.3
			c0.1,0,0.1,0.1,0.1,0.2c-0.1,0-0.2,0.1-0.3,0.1c-0.1,0-0.1-0.1-0.2-0.1c-0.5-0.4-1-0.7-1.4-1.1c-0.1-0.1-0.2-0.1-0.4,0
			c-0.4,0.3-0.4,0.3,0,0.6c0,0,0,0,0.1,0.1c0.8,0.7,1.6,1.4,2.5,2.1c0.1,0.1,0.2,0.3,0.2,0.4c0,0.1-0.2,0.2-0.3,0.2
			c-0.1,0.1-0.2,0.1-0.2,0.2c0,0.2,0,0.5,0,0.7c1,0,1.9,0,2.8,0c0.1,0,0.1,0,0.2,0c0.3-0.1,0.6-0.2,0.8-0.3c0.4-0.3,0.7-0.7,1-1
			c0.4-0.5,0.4-0.6,0-1.1c-0.4-0.5-0.8-1-1.2-1.5c-0.1-0.2-0.3-0.4-0.5-0.5c-0.7-0.5-1.5-0.9-2.2-1.3C25.2,7.9,25.1,8,24.9,8.2z
			 M26,15.8c0-0.5,0-0.9,0-1.4c-0.5,0-0.9,0-1.4,0c0,0.5,0,0.9,0,1.4C25.1,15.8,25.5,15.8,26,15.8z"/>
		<path class="st6" d="M2.3,31.7c-0.5,0-0.9-0.1-1.3-0.4c-0.3-0.2-0.5-0.6-0.6-0.9c-0.2-0.7-0.1-1.4,0.3-2C1,28,1.4,27.8,1.9,27.7
			c0.4-0.1,0.9-0.1,1.3,0.1c0.5,0.2,0.8,0.6,1,1.1c0.2,0.6,0.2,1.2-0.1,1.8c-0.2,0.5-0.6,0.8-1.1,0.9C2.7,31.7,2.5,31.7,2.3,31.7z
			 M1.3,29.7c0,0.2,0,0.4,0.1,0.6c0.1,0.4,0.4,0.7,0.9,0.7c0.4,0,0.7-0.2,0.8-0.6c0.1-0.3,0.1-0.6,0.1-0.9c0-0.6-0.3-1-0.9-1.1
			c-0.3,0-0.5,0-0.7,0.3C1.4,29,1.3,29.3,1.3,29.7z"/>
		<path class="st6" d="M27.5,31.6c-0.3,0-0.6,0-0.8,0c0-0.2,0-0.4,0-0.7c0-0.3,0-0.7,0-1c0-0.1,0-0.2,0-0.3c0-0.2-0.2-0.3-0.3-0.3
			c-0.2,0-0.4,0.1-0.4,0.3c0,0.1-0.1,0.2-0.1,0.4c0,0.5,0,1,0,1.5c0,0.1,0,0.1,0,0.2c-0.3,0-0.6,0-0.9,0c0-0.9,0-1.9,0-2.8
			c0.3,0,0.5,0,0.8,0c0,0.1,0,0.2,0,0.3c0.3-0.3,0.5-0.5,0.9-0.5c0.4,0,0.6,0.2,0.8,0.5c0.2-0.1,0.3-0.3,0.5-0.4
			c0.6-0.2,1.3-0.1,1.4,0.8c0,0.6,0,1.3,0,1.9c0,0,0,0.1,0,0.1c-0.3,0-0.6,0-0.9,0c0-0.1,0-0.1,0-0.2c0-0.5,0-1.1,0-1.6
			c0-0.2-0.1-0.4-0.2-0.4c-0.3-0.1-0.6,0.1-0.6,0.4c0,0.2,0,0.3,0,0.5C27.5,30.7,27.5,31.1,27.5,31.6z"/>
		<path class="st6" d="M8.6,31.4c0,0.4,0,0.8,0,1.2c-0.3,0-0.6,0-0.9,0c0-1.3,0-2.5,0-3.8c0.3,0,0.5,0,0.8,0c0,0.1,0,0.2,0,0.3
			c0.2-0.2,0.4-0.3,0.6-0.4c0.6-0.1,1.2,0.2,1.4,0.7c0.2,0.6,0.2,1.2-0.2,1.8c-0.2,0.3-0.5,0.4-0.8,0.5C9.2,31.7,8.9,31.6,8.6,31.4z
			 M9.8,30.1c0-0.1-0.1-0.3-0.2-0.5c-0.2-0.4-0.7-0.4-0.9,0c-0.3,0.4-0.3,0.9,0,1.3c0.2,0.4,0.6,0.3,0.8,0.1
			C9.7,30.8,9.8,30.5,9.8,30.1z"/>
		<path class="st6" d="M5.3,31.4c0,0.4,0,0.8,0,1.2c-0.3,0-0.6,0-0.8,0c0-1.3,0-2.5,0-3.8c0.3,0,0.5,0,0.8,0c0,0.1,0,0.2,0,0.3
			c0,0,0.1,0,0.1-0.1c0.4-0.5,1.3-0.4,1.7,0c0.2,0.2,0.3,0.5,0.4,0.7c0.1,0.4,0.1,0.8-0.1,1.2c-0.2,0.6-0.8,0.9-1.4,0.7
			C5.7,31.6,5.6,31.5,5.3,31.4z M5.3,30.2c0,0.2,0.1,0.4,0.1,0.5c0.1,0.2,0.3,0.4,0.5,0.4c0.3,0,0.5-0.1,0.6-0.4
			c0.1-0.4,0.1-0.7,0-1.1c-0.1-0.2-0.3-0.4-0.5-0.4c-0.2,0-0.4,0.1-0.5,0.3C5.4,29.8,5.3,30,5.3,30.2z"/>
		<path class="st6" d="M45.9,29.1c0-0.4,0-0.9,0-1.3c0.3,0,0.6,0,0.8,0c0,1.3,0,2.5,0,3.8c-0.3,0-0.5,0-0.8,0c0-0.1,0-0.2,0-0.3
			c-0.1,0.1-0.2,0.1-0.2,0.2c-0.5,0.5-1.5,0.2-1.8-0.6c-0.2-0.5-0.2-1,0-1.5c0.2-0.4,0.6-0.7,1-0.7C45.4,28.7,45.7,28.8,45.9,29.1z
			 M44.7,30.2C44.7,30.2,44.7,30.2,44.7,30.2c0,0.2,0.1,0.4,0.1,0.6c0.2,0.4,0.7,0.4,1,0c0.2-0.4,0.2-0.8,0-1.2
			c-0.2-0.4-0.7-0.4-0.9-0.1C44.8,29.7,44.7,30,44.7,30.2z"/>
		<path class="st6" d="M20,31.6c-0.3,0-0.5,0-0.8,0c0-0.1,0-0.1,0-0.2c0-0.5,0-1.1,0-1.6c0-0.4-0.3-0.6-0.7-0.5
			c-0.2,0.1-0.3,0.3-0.3,0.4c0,0.1,0,0.3,0,0.4c0,0.5,0,0.9,0,1.4c-0.3,0-0.5,0-0.8,0c0-1.3,0-2.5,0-3.8c0.3,0,0.5,0,0.8,0
			c0,0.4,0,0.9,0,1.3c0.3-0.3,0.6-0.4,1-0.4c0.5,0,0.8,0.3,0.8,0.7C20.1,30.1,20,30.9,20,31.6z"/>
		<path class="st6" d="M37.3,29.4c0,0.3,0,0.5,0,0.8c-0.5,0-0.9,0-1.4,0c0,0.5,0,1,0,1.4c-0.3,0-0.6,0-0.9,0c0-1.3,0-2.5,0-3.8
			c0.9,0,1.7,0,2.6,0c0,0.2,0,0.5,0,0.8c-0.6,0-1.1,0-1.7,0c0,0.3,0,0.5,0,0.8C36.4,29.4,36.8,29.4,37.3,29.4z"/>
		<path class="st6" d="M30.4,30.4c0,0.3,0.1,0.6,0.5,0.7c0.3,0.1,0.6,0,0.7-0.3c0,0,0.1-0.1,0.1-0.1c0.3,0,0.5,0,0.8,0
			c-0.1,0.5-0.5,0.8-1,0.9c-0.3,0-0.7,0.1-1,0c-0.6-0.1-0.8-0.5-0.9-1.1c-0.1-0.4-0.1-0.7,0.1-1c0.2-0.4,0.5-0.7,1-0.8
			c0.5-0.1,0.9-0.1,1.4,0.2c0.3,0.2,0.4,0.5,0.5,0.9c0,0.2,0,0.4,0.1,0.6C31.8,30.4,31.1,30.4,30.4,30.4z M30.5,29.9
			c0.4,0,0.8,0,1.2,0c0-0.4-0.2-0.7-0.6-0.6C30.8,29.3,30.4,29.6,30.5,29.9z"/>
		<path class="st6" d="M13.9,30.8c-0.1,0.1-0.1,0.3-0.2,0.4c-0.2,0.3-0.5,0.4-0.9,0.5c-0.4,0-0.7,0-1.1-0.1
			c-0.4-0.2-0.6-0.4-0.7-0.8c-0.1-0.4-0.1-0.8,0.1-1.2c0.2-0.4,0.5-0.6,0.9-0.8c0.4-0.1,0.8-0.1,1.2,0c0.5,0.2,0.7,0.6,0.8,1.1
			c0,0.2,0,0.4,0,0.6c-0.7,0-1.4,0-2.1,0c0,0.2,0.1,0.5,0.3,0.6c0.3,0.2,0.7,0.1,0.9-0.2c0,0,0.1-0.1,0.1-0.1
			C13.3,30.8,13.6,30.8,13.9,30.8C13.8,30.8,13.9,30.8,13.9,30.8z M11.8,29.9c0.4,0,0.8,0,1.2,0c0-0.4-0.2-0.6-0.5-0.7
			C12.2,29.2,11.8,29.4,11.8,29.9z"/>
		<path class="st6" d="M23.4,30.4c-0.7,0-1.4,0-2.1,0c0,0.3,0.2,0.6,0.4,0.7c0.3,0.1,0.6,0,0.7-0.2c0,0,0.1-0.1,0.1-0.1
			c0.3,0,0.5,0,0.8,0c0,0.3-0.2,0.5-0.4,0.7c-0.3,0.2-0.5,0.3-0.9,0.3c-0.3,0-0.6,0-0.9-0.1c-0.5-0.2-0.7-0.6-0.8-1.1
			c0-0.3,0-0.6,0.1-0.9c0.2-0.5,0.6-0.8,1-0.9c0.3-0.1,0.6,0,0.9,0c0.5,0.1,0.8,0.5,0.9,1C23.3,29.9,23.3,30.2,23.4,30.4z
			 M21.2,29.9c0.4,0,0.8,0,1.2,0c0-0.5-0.3-0.7-0.6-0.7C21.5,29.3,21.3,29.5,21.2,29.9z"/>
		<path class="st6" d="M16.9,31.6c-0.3,0-0.6,0-0.8,0c0-0.1,0-0.1,0-0.2c0-0.5,0-1.1,0-1.6c0-0.2-0.1-0.4-0.3-0.5
			c-0.2-0.1-0.5,0-0.6,0.3c0,0.1-0.1,0.3-0.1,0.4c0,0.5,0,1.1,0,1.6c0,0,0,0,0,0c-0.3,0-0.6,0-0.9,0c0-0.9,0-1.9,0-2.8
			c0.3,0,0.5,0,0.8,0c0,0.1,0,0.1,0,0.2c0.3-0.3,0.6-0.4,1-0.4c0.5,0,0.7,0.2,0.8,0.7c0,0.1,0,0.2,0,0.3c0,0.6,0,1.2,0,1.7
			C16.9,31.5,16.9,31.5,16.9,31.6z"/>
		<path class="st6" d="M47,30.7c0.3,0,0.6,0,0.8,0c0.1,0.4,0.4,0.5,0.8,0.4c0.1,0,0.2-0.1,0.2-0.2c0-0.1-0.1-0.2-0.1-0.3
			c-0.2-0.1-0.3-0.1-0.5-0.1c-0.2-0.1-0.5-0.1-0.7-0.2c-0.5-0.2-0.5-1.1,0.1-1.4c0.5-0.2,1-0.2,1.6,0c0.3,0.1,0.5,0.4,0.6,0.8
			c-0.2,0-0.5,0-0.7,0c0,0-0.1,0-0.1-0.1c0,0,0-0.1-0.1-0.1c-0.1-0.1-0.6-0.1-0.7,0c-0.1,0.1,0,0.3,0.1,0.4c0.2,0.1,0.4,0.1,0.5,0.1
			c0.2,0,0.4,0.1,0.6,0.1c0.3,0.1,0.5,0.4,0.5,0.7c0,0.4-0.1,0.6-0.5,0.8c-0.2,0.1-0.4,0.1-0.5,0.2c-0.4,0-0.9,0-1.3-0.2
			C47.2,31.3,47,31.1,47,30.7z"/>
		<path class="st6" d="M41.7,31.6c-0.3,0-0.6,0-0.8,0c0-0.9,0-1.8,0-2.8c0.3,0,0.5,0,0.8,0c0,0.1,0,0.2,0,0.3
			c0.4-0.4,0.9-0.5,1.4-0.3c0.3,0.1,0.5,0.4,0.5,0.7c0,0.7,0,1.4,0,2.1c-0.2,0-0.5,0-0.8,0c0-0.4,0-0.8,0-1.3c0-0.2,0-0.4,0-0.6
			c0-0.2-0.2-0.4-0.3-0.4c-0.2,0-0.5,0-0.6,0.2c-0.1,0.2-0.1,0.4-0.1,0.6C41.7,30.6,41.7,31.1,41.7,31.6z"/>
		<path class="st6" d="M37.7,28.8C37.8,28.8,37.8,28.8,37.7,28.8c0.3,0,0.6,0,0.8,0c0,0.1,0,0.1,0,0.2c0,0.5,0,1,0,1.5
			c0,0.1,0,0.2,0.1,0.3c0.1,0.2,0.2,0.3,0.4,0.3c0.2,0,0.4-0.1,0.5-0.3c0-0.1,0.1-0.3,0.1-0.4c0-0.5,0-1,0-1.6c0.3,0,0.5,0,0.8,0
			c0,0.9,0,1.8,0,2.8c-0.3,0-0.5,0-0.8,0c0-0.1,0-0.2,0-0.3c-0.2,0.2-0.4,0.3-0.6,0.4c-0.6,0.1-1.1-0.1-1.2-0.8
			C37.7,30.2,37.7,29.5,37.7,28.8z"/>
		<path class="st6" d="M34.8,28.7c0,0.3,0,0.5,0,0.7c-0.1,0-0.2,0-0.4,0c-0.4,0-0.6,0.3-0.7,0.7c0,0.4,0,0.9,0,1.3
			c0,0.1,0,0.1,0,0.2c-0.3,0-0.6,0-0.9,0c0-0.9,0-1.8,0-2.8c0.3,0,0.6,0,0.9,0c0,0.1,0,0.2,0,0.3c0.2-0.1,0.3-0.3,0.5-0.3
			C34.3,28.7,34.5,28.7,34.8,28.7z"/>
		<path class="st6" d="M23.6,28.8c0.3,0,0.6,0,0.9,0c0,0.9,0,1.9,0,2.8c-0.3,0-0.6,0-0.9,0C23.6,30.7,23.6,29.7,23.6,28.8z"/>
		<path class="st6" d="M24.5,28.4c-0.3,0-0.6,0-0.9,0c0-0.2,0-0.4,0-0.7c0.3,0,0.6,0,0.9,0C24.5,28,24.5,28.2,24.5,28.4z"/>
	</g>
</g>
<g id="nyse" class="st0">
	<g id="UcLfY9.tif" class="st3">
		<g>
			<path class="st4" d="M18.8,11.9c0,0.1,0,0.2,0,0.2c0,5.2,0,10.5,0,15.7c0,0.3,0,0.3-0.3,0.3c-0.9,0-1.8,0-2.7,0
				c-0.2,0-0.2,0-0.2-0.2c0-5.2,0-10.5,0-15.7c0-0.1,0-0.2,0-0.2C16.7,11.9,17.7,11.9,18.8,11.9z"/>
			<path class="st4" d="M23.2,11.9c0,0.1,0,0.2,0,0.2c0,5.2,0,10.5,0,15.7c0,0.3,0,0.3-0.3,0.3c-0.9,0-1.8,0-2.7,0
				c-0.2,0-0.2,0-0.2-0.2c0-5.2,0-10.5,0-15.7c0-0.1,0-0.2,0-0.2C21,11.9,22.1,11.9,23.2,11.9z"/>
			<path class="st4" d="M31.9,11.9c0,0.1,0,0.2,0,0.2c0,5.2,0,10.5,0,15.7c0,0.3,0,0.3-0.3,0.3c-0.9,0-1.8,0-2.7,0
				c-0.2,0-0.2,0-0.2-0.2c0-5.2,0-10.5,0-15.7c0-0.1,0-0.2,0-0.2C29.8,11.9,30.9,11.9,31.9,11.9z"/>
			<path class="st4" d="M14.4,11.9c0,0.1,0,0.2,0,0.3c0,5.2,0,10.4,0,15.6c0,0.3,0,0.3-0.3,0.3c-0.9,0-1.8,0-2.6,0
				c-0.2,0-0.2,0-0.2-0.2c0-5.2,0-10.5,0-15.7c0-0.1,0-0.2,0-0.2C12.3,11.9,13.3,11.9,14.4,11.9z"/>
			<path class="st4" d="M36.3,11.9c0,0.1,0,0.2,0,0.2c0,5.2,0,10.5,0,15.7c0,0.3,0,0.3-0.3,0.3c-0.9,0-1.7,0-2.6,0
				c-0.3,0-0.3,0-0.3-0.3c0-2.2,0-4.5,0-6.7c0-3,0-5.9,0-8.9c0-0.1,0-0.2,0-0.3C34.2,11.9,35.3,11.9,36.3,11.9z"/>
			<path class="st4" d="M27.6,11.9c0,5.3,0,10.6,0,15.9c0,0.3,0,0.3-0.3,0.3c-0.9,0-1.7,0-2.6,0c-0.2,0-0.2,0-0.2-0.2
				c0-5.3,0-10.6,0-15.9c0,0,0,0,0,0C25.5,11.9,26.5,11.9,27.6,11.9z"/>
			<path class="st4" d="M27.7,37.1c-0.1,0-0.2-0.1-0.4-0.1c-0.8-0.1-1.5-0.4-2.1-0.9c-0.1-0.1-0.1-0.1,0-0.3
				c0.2-0.3,0.4-0.6,0.6-0.9c0,0,0.1-0.1,0.1-0.1c0.3,0.2,0.6,0.4,0.9,0.6c0.4,0.2,0.9,0.3,1.4,0.2c0.4-0.1,0.8-0.4,0.7-0.9
				c-0.1-0.3-0.3-0.4-0.5-0.5c-0.4-0.2-0.9-0.3-1.3-0.5c-0.7-0.3-1.2-0.7-1.5-1.4c-0.1-0.4-0.1-0.7-0.1-1.1c0.1-0.5,0.3-0.9,0.7-1.2
				c0.3-0.3,0.7-0.4,1.2-0.5c0.3,0,0.6,0,0.9,0c0.7,0.1,1.3,0.3,1.8,0.8c0,0,0,0.1,0,0.2c-0.2,0.3-0.4,0.6-0.6,0.9
				c-0.1,0.1-0.1,0.1-0.2,0c-0.4-0.3-0.8-0.5-1.3-0.6c-0.3-0.1-0.5,0-0.8,0.1c-0.2,0.1-0.4,0.3-0.4,0.6c0,0.3,0.2,0.5,0.4,0.5
				c0.4,0.2,0.8,0.3,1.2,0.4c0.7,0.2,1.4,0.6,1.7,1.3c0.4,1,0,2.1-0.9,2.6c-0.4,0.2-0.7,0.3-1.2,0.4c-0.1,0-0.1,0-0.2,0
				C27.8,37.1,27.8,37.1,27.7,37.1z"/>
			<path class="st4" d="M15.6,34.3c0-0.1,0-0.1,0-0.2c0-1.4,0-2.7,0-4.1c0-0.2,0.1-0.2,0.2-0.2c0.3,0,0.6,0,1,0c0.2,0,0.2,0,0.2,0.2
				c0,1.1,0,2.3,0,3.4c0,1.1,0,2.2,0,3.4c0,0.3,0,0.3-0.3,0.3c-0.3,0-0.6,0-0.9,0c-0.1,0-0.2,0-0.3-0.2c-0.9-1.5-1.8-2.9-2.8-4.3
				c0-0.1-0.1-0.1-0.1-0.2c0,0,0,0,0,0c0,0.1,0,0.1,0,0.2c0,1.4,0,2.8,0,4.2c0,0.2,0,0.2-0.2,0.2c-0.3,0-0.7,0-1,0
				c-0.1,0-0.2,0-0.2-0.2c0-2.3,0-4.6,0-6.9c0-0.1,0.1-0.2,0.2-0.2c0.3,0,0.7,0,1,0c0.1,0,0.2,0.1,0.3,0.2c0.9,1.4,1.8,2.9,2.7,4.3
				C15.5,34.2,15.5,34.3,15.6,34.3C15.5,34.3,15.6,34.3,15.6,34.3z"/>
			<path class="st4" d="M31.6,33.4c0-1.1,0-2.3,0-3.4c0-0.2,0-0.2,0.2-0.2c1.4,0,2.9,0,4.3,0c0.2,0,0.2,0,0.2,0.2c0,0.3,0,0.6,0,0.8
				c0,0.1,0,0.2-0.2,0.2c-0.9,0-1.9,0-2.8,0C33,31,33,31,33,31.2c0,0.4,0,0.9,0,1.3c0,0.2,0.1,0.2,0.2,0.2c0.8,0,1.6,0,2.4,0
				c0.2,0,0.2,0,0.2,0.2c0,0.3,0,0.6,0,0.9c0,0.1,0,0.2-0.2,0.2c-0.8,0-1.6,0-2.4,0c-0.2,0-0.2,0.1-0.2,0.2c0,0.4,0,0.9,0,1.3
				c0,0.2,0.1,0.2,0.2,0.2c0.9,0,1.9,0,2.8,0c0.2,0,0.2,0,0.2,0.2c0,0.3,0,0.5,0,0.8c0,0.2-0.1,0.2-0.2,0.2c-1,0-2,0-3,0
				c-0.4,0-0.9,0-1.3,0c-0.2,0-0.2,0-0.2-0.2C31.6,35.7,31.6,34.5,31.6,33.4z"/>
			<path class="st4" d="M18.1,29.8c0.1,0,0.1,0,0.2,0c0.4,0,0.9,0,1.3,0c0.1,0,0.2,0,0.3,0.2c0.5,0.8,0.9,1.5,1.4,2.3
				c0,0.1,0.1,0.1,0.2,0.2c0.3-0.5,0.5-0.9,0.8-1.3c0.2-0.4,0.5-0.8,0.7-1.2c0-0.1,0.1-0.1,0.2-0.1c0.5,0,1,0,1.4,0c0,0,0.1,0,0.2,0
				c-0.3,0.5-0.6,1-1,1.5c-0.5,0.8-1.1,1.7-1.6,2.5c-0.1,0.1-0.1,0.2-0.1,0.3c0,0.9,0,1.8,0,2.7c0,0.2-0.1,0.2-0.2,0.2
				c-0.3,0-0.6,0-1,0c-0.2,0-0.2-0.1-0.2-0.2c0-0.8,0-1.7,0-2.5c0-0.3-0.1-0.6-0.3-0.8C19.7,32.3,18.9,31,18.1,29.8
				C18.1,29.8,18.1,29.8,18.1,29.8z"/>
		</g>
	</g>
</g>
<g id="metlife" class="st0">
	<text transform="matrix(1 0 0 1 -1642 -52)" class="st3" style="font-family:'MyriadPro-Regular'; font-size:12px;">https://www.google.com/imgres?imgurl=https%3A%2F%2Fpbs.twimg.com%2Fmedia%2FCvNpUUEXgAEzAOC.jpg&amp;imgrefurl=https%3A%2F%2Ftwitter.com%2Fmetlife%2Fstatus%2F789090203189252096&amp;docid=rE3ktbPznRBnGM&amp;tbnid=PWhFt7oBVRyWwM%3A&amp;vet=10ahUKEwjo37Cwo-jdAhWpVN8KHVuJDK0QMwiaASgIMAg..i&amp;w=1024&amp;h=512&amp;client=firefox-b-1-ab&amp;bih=779&amp;biw=1100&amp;q=metlife%20logo%20&amp;ved=0ahUKEwjo37Cwo-jdAhWpVN8KHVuJDK0QMwiaASgIMAg&amp;iact=mrc&amp;uact=8</text>
	<g class="st3">
		<path class="st4" d="M9.5,20.8c-0.3,0-0.4,0.1-0.5,0.3c-0.3,0.7-0.7,1.3-1.1,2c-0.4,0.7-0.8,1.4-1.2,2.2c-0.1-0.2-0.2-0.3-0.2-0.4
			c-0.7-1.3-1.4-2.5-2.1-3.8C4.3,21,4.1,20.9,4,20.8c-0.6,0-1.2,0-1.9,0c-0.2,3.3-0.3,6.5-0.5,9.7c0.6,0,1.2,0,1.7,0
			c0.3,0,0.4-0.1,0.4-0.4c0.1-1.8,0.1-3.5,0.2-5.3c0-0.1,0-0.2,0-0.4c0.2,0.1,0.3,0.3,0.4,0.4c0.5,0.9,1,1.9,1.6,2.8
			c0.3,0.5,1.2,0.4,1.5,0c0.5-1,1-1.9,1.5-2.9c0.1-0.1,0.1-0.2,0.2-0.4c0,0,0.1,0,0.1,0c0.1,2,0.2,4.1,0.3,6.1c0.8,0,1.4,0,2.2,0
			c-0.2-3.2-0.3-6.4-0.4-9.7C10.6,20.8,10.1,20.8,9.5,20.8z"/>
		<path class="st4" d="M48.7,27.7c0.3,0,0.4-0.1,0.4-0.4c0-0.3,0-0.6-0.1-1c-0.2-1.5-1.2-2.5-2.4-2.8c-1.5-0.3-3,0.2-3.8,1.5
			C42,26.4,42,28.3,43,29.5c1.1,1.3,2.5,1.5,4.1,1.2c0.7-0.1,1.3-0.4,1.9-0.9c-0.3-0.4-0.6-0.9-0.8-1.3c-0.9,0.6-1.8,0.8-2.8,0.5
			c-0.6-0.2-1-0.6-1.1-1.3c0.2,0,0.3,0,0.4,0C46.1,27.7,47.4,27.7,48.7,27.7z M44.3,26.4c0.1-0.8,0.7-1.3,1.5-1.3
			c0.7,0,1.3,0.5,1.3,1.3C46.2,26.4,45.2,26.4,44.3,26.4z"/>
		<path class="st4" d="M17.9,24c-1.1-0.7-2.7-0.7-3.9,0.1c-1.2,0.8-1.7,2.4-1.4,4c0.3,1.4,1.3,2.4,2.8,2.6c0.6,0.1,1.2,0.1,1.8,0
			c0.8-0.1,1.5-0.4,2.1-0.9c-0.3-0.4-0.6-0.9-0.8-1.3c-0.2,0.1-0.4,0.2-0.5,0.3c-0.7,0.4-1.5,0.5-2.3,0.2c-0.6-0.2-1-0.7-1-1.3
			c1.6,0,3.1,0,4.7,0C19.7,26.3,19,24.7,17.9,24z M14.7,26.4c0-0.7,0.6-1.3,1.4-1.3c0.8,0,1.4,0.5,1.4,1.3
			C16.5,26.4,15.6,26.4,14.7,26.4z"/>
		<path class="st4" d="M29.3,28.7c-0.4,0-0.5-0.1-0.5-0.5c0-2.3,0-4.6,0-6.9c0-0.2,0-0.3,0-0.5c-0.8,0-1.4,0-2.2,0
			c0,3.2,0,6.4,0,9.6c2.1,0,4.2,0,6.3,0c0-0.6,0-1.1,0-1.7c-0.2,0-0.4,0-0.5,0C31.4,28.7,30.3,28.7,29.3,28.7z"/>
		<path class="st4" d="M42.2,22.6c0.3-0.4,0.6-0.9,0.9-1.3c-1-0.7-2.1-0.9-3.2-0.5c-0.9,0.3-1.5,1-1.7,1.9c-0.1,0.3,0,0.7-0.1,0.9
			c-0.2,0.2-0.6,0.1-0.9,0.1c0,0,0,0-0.1,0c0,0.5,0,1,0,1.6c0.2,0,0.4,0,0.5,0c0.4-0.1,0.6,0.1,0.6,0.5c0,1.3,0,2.5,0,3.8
			c0,0.3,0,0.5,0,0.8c0.7,0,1.4,0,2.1,0c0-0.2,0-0.4,0-0.5c0-1.4,0-2.8,0-4.2c0-0.3,0.1-0.4,0.4-0.4c1.2,0,1.2,0,1.2-1.3
			c0-0.3-0.1-0.4-0.4-0.4c-0.4,0-0.8,0-1.2,0c-0.1-0.5-0.1-1,0.3-1.2C41.1,22.1,41.6,22.3,42.2,22.6z"/>
		<path class="st4" d="M24.1,29.1c-0.5,0.1-0.9-0.1-0.9-0.6c0-1,0-2,0-3.1c0.5,0,0.9,0,1.4,0c0.1,0,0.3-0.1,0.3-0.2
			c0-0.5,0-0.9,0-1.5c-0.6,0-1.2,0-1.8,0c0-0.6,0-1.2,0-1.8c-0.7,0-1.4,0-2.1,0c0,0.6,0,1.2,0,1.8c-0.4,0-0.7,0-1.1,0
			c0,0.4,0,0.7,0,1c0,0.8,0,0.7,0.7,0.7c0.3,0,0.4,0.1,0.4,0.4c0,0.8,0,1.7,0,2.5c0,0.8,0.2,1.5,0.9,2c1,0.8,2.9,0.6,3.8-0.4
			c-0.3-0.4-0.5-0.8-0.8-1.2C24.7,28.9,24.4,29,24.1,29.1z"/>
		<path class="st4" d="M33.9,30.5c0.7,0,1.3,0,2,0c0-2.3,0-4.5,0-6.8c-0.7,0-1.4,0-2,0C33.9,26,33.9,28.3,33.9,30.5z"/>
		<path class="st4" d="M34.9,20.6c-0.7,0-1.2,0.5-1.2,1.2c0,0.7,0.5,1.2,1.2,1.2c0.6,0,1.2-0.5,1.2-1.2
			C36.1,21.1,35.6,20.6,34.9,20.6z"/>
	</g>
</g>
</svg>
