<?xml version="1.0" encoding="utf-8"?>
<!-- Generator: Adobe Illustrator 22.1.0, SVG Export Plug-In . SVG Version: 6.00 Build 0)  -->
<svg version="1.1" id="Layer_1" xmlns="http://www.w3.org/2000/svg" xmlns:xlink="http://www.w3.org/1999/xlink" x="0px" y="0px"
	 viewBox="0 0 50 50" style="enable-background:new 0 0 50 50;" xml:space="preserve">
<style type="text/css">
	.st0{fill:#999999;}
</style>
<g id="guides">
</g>
<g id="tiaa">
	<path class="st0" d="M10.2,18.4c-1.2,0.7-2.4,1.4-1.8,3.4c1.4,0,2.9,0,4.6,0c0,1.7,0,3.3,0,4.8c1.9,0,3-0.6,3.1-1.9
		c0.1-2.1-0.1-4.2-0.2-6.3C14,18.4,12.1,18.4,10.2,18.4z"/>
	<path class="st0" d="M7.7,19.5c-1,1-1.8,1.9-2.7,2.8c0,2.4,0,4.9,0,7.3c1.7,0,3.5,0.1,5.1,0.1c2.2-0.1,3.6-0.8,4.8-2.6
		c-2.5,0-4.8,0-7.2,0C7.7,24.5,7.7,22.2,7.7,19.5z"/>
	<path class="st0" d="M37,28.4C37,28.3,37,28.3,37,28.4C37,28.3,37,28.3,37,28.4C37,28.3,37,28.3,37,28.4z"/>
	<path class="st0" d="M44.8,27.8c-1.1-2.5-2.1-5.1-3.2-7.6c-0.1-0.3-0.2-0.5-0.6-0.5c-0.4,0-0.4,0.2-0.6,0.5
		c-1.1,2.5-2.1,5.1-3.2,7.6c0,0.1-0.1,0.2-0.1,0.3c0,0,0,0.1,0,0.1c0,0.1-0.1,0.1-0.1,0.2c0.2,0,0.5,0,0.7,0c0.9,0,0.9,0,1.3-0.9
		c0.5-1.2,0.5-1.2,1.9-1.2c0.5,0,1.1-0.2,1.5,0.1c0.4,0.2,0.5,0.9,0.7,1.4c0.1,0.1,0.1,0.3,0.2,0.4c0.1,0.1,0.2,0.2,0.4,0.3
		c0.4,0,0.9,0,1.4,0C44.9,28.1,44.9,28,44.8,27.8z M40.1,24.8c0.3-0.7,0.6-1.3,0.8-2c0,0,0.1,0,0.1,0c0.3,0.6,0.5,1.3,0.8,2
		C41.3,24.8,40.8,24.8,40.1,24.8z"/>
	<path class="st0" d="M32.1,24.8l0.8-2C32.7,23.5,32.4,24.1,32.1,24.8z"/>
	<path class="st0" d="M29,28.4C29,28.3,29,28.3,29,28.4C29,28.3,29,28.3,29,28.4C29,28.3,29,28.3,29,28.4z"/>
	<path class="st0" d="M36.8,27.8c-1.1-2.5-2.1-5.1-3.2-7.6c-0.1-0.3-0.2-0.5-0.6-0.5c-0.4,0-0.4,0.2-0.6,0.5
		c-1.1,2.5-2.1,5.1-3.2,7.6c0,0.1-0.1,0.2-0.1,0.3c0,0,0,0.1,0,0.1c0,0.1-0.1,0.1-0.1,0.2c0.2,0,0.5,0,0.7,0c0.9,0,0.9,0,1.3-0.9
		c0.5-1.2,0.5-1.2,1.9-1.2c0.5,0,1.1-0.2,1.5,0.1c0.4,0.2,0.5,0.9,0.7,1.4c0.1,0.1,0.1,0.3,0.2,0.4c0.1,0.1,0.2,0.2,0.4,0.3
		c0.4,0,0.9,0,1.4,0C36.9,28.1,36.9,28,36.8,27.8z M32.1,24.8c0.3-0.7,0.6-1.3,0.8-2c0,0,0.1,0,0.1,0c0.3,0.6,0.5,1.3,0.8,2
		C33.3,24.8,32.8,24.8,32.1,24.8z"/>
	<path class="st0" d="M25.7,19.8c-2,0-4.1,0-6.1,0c-0.1,0-0.3,0.2-0.4,0.3c0,0.4,0,0.7,0,1.2c0.9,0,1.7,0,2.6,0c0,2.4,0,4.7,0,7
		c0.6,0,1,0,1.6,0c0-2.4,0-4.7,0-7c0.9,0,1.7,0,2.6,0c0-0.4,0-0.8,0-1.1C26,20,25.8,19.8,25.7,19.8z"/>
	<path class="st0" d="M27,19.9c-0.1,0-0.2,0.4-0.2,0.6c0,2.2,0,4.3,0,6.5c0,1.4,0,1.4,1.5,1.3c0-0.1,0.1-0.1,0.1-0.1
		c0-2.7,0-5.3,0-8c0-0.1,0-0.3-0.1-0.3C27.9,19.9,27.5,19.8,27,19.9z"/>
	<rect x="26.8" y="19.9" class="st0" width="1.6" height="8.5"/>
</g>
</svg>
