<?xml version="1.0" encoding="utf-8"?>
<!-- Generator: Adobe Illustrator 22.1.0, SVG Export Plug-In . SVG Version: 6.00 Build 0)  -->
<svg version="1.1" id="Layer_1" xmlns="http://www.w3.org/2000/svg" xmlns:xlink="http://www.w3.org/1999/xlink" x="0px" y="0px"
	 viewBox="0 0 69 69" style="enable-background:new 0 0 69 69;" xml:space="preserve">
<style type="text/css">
	.st0{fill:#999999;}
</style>
<g>
	<path class="st0" d="M18.8,32.4c-1.4,0-1,0.2-1.5-1c-0.5-1.3-0.9-2.7-1.5-4.2c-0.5,1.6-1,3-1.4,4.4c-0.2,0.6-0.5,0.9-1.1,0.8
		c-0.2,0-0.4-0.2-0.4-0.3c-0.8-2.2-1.6-4.4-2.5-6.7c0.5,0,0.9,0,1.3,0c0.1,0,0.3,0.2,0.3,0.4c0.5,1.4,1,2.7,1.5,4.3
		c0.3-0.9,0.6-1.6,0.8-2.3c0.2-0.7,0.4-1.4,0.7-2.1c0.1-0.2,0.4-0.3,0.6-0.3c0.3,0,0.8-0.3,1,0.3c0.4,1.2,0.8,2.4,1.2,3.6
		c0.1,0.2,0.2,0.4,0.3,0.8c0.6-1.7,1.1-3.2,1.6-4.7c0.5,0,0.9,0,1.4,0C20.4,27.9,19.6,30.1,18.8,32.4z"/>
	<path class="st0" d="M30.3,28.1c0-0.9,0-1.7,0-2.6c0.5,0,1,0,1.6,0c0,2.3,0,4.7,0,7c-0.5,0-1,0-1.5,0c0-1,0-1.9,0-2.9
		c-1.5,0-2.9,0-4.4,0c0,1,0,1.9,0,2.9c-0.6,0-1,0-1.6,0c0-2.4,0-4.7,0-7c0.5,0,1,0,1.5,0c0,0.9,0,1.7,0,2.6
		C27.3,28.1,28.8,28.1,30.3,28.1z"/>
	<path class="st0" d="M51.8,43.2c0-2.4,0-4.7,0-7c2.3,0,4.5,0,6.7,0c0,0.4,0,0.7,0,1.1c-1.7,0-3.4,0-5.2,0c0,0.6,0,1.1,0,1.6
		c1.1,0,2.3,0,3.4,0c0,0.5,0,0.8,0,1.3c-1.1,0-2.3,0-3.4,0c0,0.6,0,1.2,0,1.8c1.7,0,3.5,0,5.2,0c0,0.4,0,0.8,0,1.2
		C56.4,43.2,54.1,43.2,51.8,43.2z"/>
	<path class="st0" d="M50,25.4c2.2,0,4.5,0,6.7,0c0,0.4,0,0.7,0,1.1c-1.7,0-3.4,0-5.2,0c0,0.6,0,1.1,0,1.6c1.2,0,2.3,0,3.5,0
		c0,0.5,0,0.8,0,1.3c-1.2,0-2.3,0-3.5,0c0,0.6,0,1.2,0,1.8c1.7,0,3.5,0,5.2,0c0,0.4,0,0.8,0,1.2c-2.3,0-4.5,0-6.8,0
		C50,30.1,50,27.8,50,25.4z"/>
	<path class="st0" d="M18.1,43.3c-1.5,0.2-1.6,0.2-2.4-0.7c-0.9,0.8-1.9,1.1-3.1,0.8c-0.7-0.2-1.2-0.5-1.6-1.1
		c-0.8-1.2-0.5-2.2,1.3-3.9c-0.4-0.7-1.4-1.2-1-2.3c1.8,0,3.7,0,5.5,0c0,0.4,0,0.7,0,1.2c-1.1,0-2.3,0-3.6,0
		C14.8,39.4,16.4,41.3,18.1,43.3z M14.9,41.6c-0.5-0.6-1-1.2-1.6-1.8c-0.1-0.1-0.4-0.2-0.4-0.2c-0.4,0.4-0.8,0.7-1,1.2
		c-0.2,0.5,0,1,0.5,1.3C13.2,42.6,14.2,42.5,14.9,41.6z"/>
	<path class="st0" d="M48.4,36.8c-0.2,0.4-0.4,0.7-0.5,1c-0.8-0.2-1.5-0.4-2.2-0.5c-0.5-0.1-1.1,0-1.7,0.2c-0.2,0.1-0.5,0.4-0.5,0.6
		c0,0.2,0.2,0.5,0.5,0.6c0.3,0.1,0.6,0.2,1,0.2c0.9,0.1,1.8,0.2,2.6,0.4c0.7,0.1,1.2,0.5,1.3,1.2c0.2,0.8,0.1,1.6-0.7,2.1
		c-0.6,0.3-1.2,0.6-1.9,0.7c-1.3,0.2-2.6,0.2-3.8-0.4c-0.2-0.1-0.3-0.2-0.5-0.3c0.2-0.4,0.3-0.8,0.5-1.2c1.1,0.6,2.3,0.9,3.6,0.6
		c0.5-0.1,1.2-0.2,1.2-0.8c0-0.7-0.7-0.7-1.2-0.7c-0.8-0.1-1.6-0.1-2.4-0.2c-1.5-0.2-2.2-1.2-1.9-2.5c0.2-0.8,0.8-1.3,1.5-1.5
		C45,35.8,46.8,36,48.4,36.8z"/>
	<path class="st0" d="M39.7,43.3c-0.6,0-1.2,0-1.8,0c-0.2,0-0.4-0.3-0.5-0.5c-0.3-0.7-0.7-1.1-1.5-1c-0.2,0-0.5,0-0.7,0
		c-1-0.2-1.8,0.1-2,1.2c0,0.1-0.3,0.3-0.4,0.3c-0.5,0-1,0-1.6,0c0.6-1.1,1.1-2.1,1.6-3.2c0.6-1.2,1.2-2.4,1.8-3.6
		c0.2-0.5,1.2-0.5,1.5-0.1C37.3,38.6,38.5,40.9,39.7,43.3z M36.4,40.5c-0.3-0.8-0.7-1.6-1-2.5c-0.4,0.9-0.7,1.6-1,2.5
		C35,40.5,35.6,40.5,36.4,40.5z"/>
	<path class="st0" d="M29,36.7c-0.2,0.4-0.4,0.8-0.6,1.1c-0.7-0.2-1.3-0.4-2-0.5c-1.1-0.1-2,0.2-2.6,1.1c-1,1.6,0.1,3.6,2,3.6
		c0.9,0,1.7-0.3,2.7-0.5c0.1,0.2,0.3,0.5,0.5,0.8c-1.6,1.4-5,1.4-6.3-0.6c-1.3-2-0.3-4.8,2-5.5C26.2,35.8,27.6,36,29,36.7z"/>
	<path class="st0" d="M44.4,32.5c-0.6,0-1,0-1.6,0c0-1.9,0-3.8,0-5.8c-1,0-1.9,0-2.8,0c0-0.4,0-0.8,0-1.3c2.4,0,4.8,0,7.3,0
		c0,0.4,0,0.8,0,1.2c-0.9,0-1.9,0-2.9,0C44.4,28.6,44.4,30.5,44.4,32.5z"/>
	<path class="st0" d="M35.6,25.4c0.5,0,0.9,0,1.5,0c0,2.3,0,4.7,0,7c-0.5,0-0.9,0-1.5,0C35.6,30.1,35.6,27.8,35.6,25.4z"/>
</g>
</svg>
