<svg xmlns="http://www.w3.org/2000/svg" viewBox="0 0 50 50"><defs><style>.cls-1{fill:none;}.cls-2{fill:#999;}</style></defs><g id="bk"><rect class="cls-1" width="50" height="50"/></g><g id="bofa"><path class="cls-2" d="M23.11,31.1l.75-.51a31.83,31.83,0,0,1,2.91-1.73A33,33,0,0,1,30,27.38c.54-.21,1.08-.4,1.61-.59,0,0,.07,0,.08,0l1.38.78,0,0-.15.07a33.84,33.84,0,0,0-3.57,1.77A32.61,32.61,0,0,0,26,31.64l-.9.69a.12.12,0,0,1-.15,0L23.26,31.2Z"/><path class="cls-2" d="M20.67,29.76c.21-.14.41-.29.62-.41.62-.37,1.24-.74,1.87-1.08A23.09,23.09,0,0,1,25.92,27c.77-.3,1.55-.57,2.33-.84.38-.13.78-.23,1.17-.34a.41.41,0,0,1,.19,0l1.5.68v0l-.47.15a24.63,24.63,0,0,0-2.64,1c-.8.35-1.59.72-2.36,1.12a24.35,24.35,0,0,0-2.52,1.47l-.62.41a.13.13,0,0,1-.12,0c-.56-.29-1.12-.58-1.67-.88Z"/><path class="cls-2" d="M10.53,20.27l.28.16a.91.91,0,0,1,.4.93.83.83,0,0,1-.62.73,2.36,2.36,0,0,1-.52.09c-.44,0-.88,0-1.32,0-.11,0-.11-.05-.11-.13V18.93a2.8,2.8,0,0,0,0-.29c0-.07,0-.09.09-.09h1.44a1,1,0,0,1,.8.38.85.85,0,0,1-.33,1.27Zm-1,.79h0c0,.12,0,.25,0,.37s0,.09.06.09a1.7,1.7,0,0,0,.45,0,.39.39,0,0,0,.32-.41c0-.25-.09-.42-.3-.46a1.83,1.83,0,0,0-.47,0s-.05,0-.05.07S9.51,20.93,9.51,21.06Zm0-1.46h0c0,.11,0,.21,0,.32s0,.08.06.08A2.27,2.27,0,0,0,10,20a.36.36,0,0,0,.28-.39.34.34,0,0,0-.3-.38,2.88,2.88,0,0,0-.42,0s-.06.05-.06.07S9.51,19.48,9.51,19.6Z"/><path class="cls-2" d="M28.27,19.89a1.28,1.28,0,0,1,.66-.32.54.54,0,0,1,.58.32,2.6,2.6,0,0,1,.45-.26.66.66,0,0,1,.7.08.47.47,0,0,1,.18.39c0,.67,0,1.33,0,2,0,.07,0,.08-.09.08h-.62c-.09,0-.09-.06-.09-.13V20.55a1.08,1.08,0,0,0,0-.18.19.19,0,0,0-.23-.18.28.28,0,0,0-.26.29v1.58c0,.1,0,.13-.12.12h-.58c-.08,0-.11,0-.1-.11V20.46c0-.11,0-.22-.13-.26a.33.33,0,0,0-.34.13.2.2,0,0,0,0,.11v1.74h-.68c-.1,0-.12,0-.12-.12v-2.3c0-.1,0-.13.12-.12h.53c.12,0,.15,0,.15.14A.54.54,0,0,0,28.27,19.89Z"/><path class="cls-2" d="M24.34,22.18c.06-.26.12-.5.17-.73.19-.82.39-1.63.58-2.45,0-.12.06-.23.08-.35s0-.1.12-.1h1c.07,0,.1,0,.11.09.14.65.27,1.29.41,1.94s.21,1,.31,1.48c0,0,0,.07,0,.11h-.76c-.08,0-.11,0-.12-.1s-.08-.36-.1-.55a.1.1,0,0,0-.12-.09h-.67c-.08,0-.1,0-.12.09s-.08.38-.13.57c0,0-.06.08-.09.08Zm1.06-1.37H26c-.09-.5-.17-1-.26-1.48h-.05C25.61,19.82,25.51,20.3,25.4,20.81Z"/><path class="cls-2" d="M19.19,28.37,19.8,28a28.88,28.88,0,0,1,3.43-1.6.37.37,0,0,1,.29,0l1.18.51,0,0-.08.05a28.37,28.37,0,0,0-2.74,1.28l-1.3.73s-.08,0-.11,0l-1.3-.63Z"/><path class="cls-2" d="M16.73,18.55h.76a.12.12,0,0,1,.05.08V20.3a.2.2,0,0,0,0,.1l.13-.15c.14-.18.28-.36.43-.53a.22.22,0,0,1,.15-.08c.23,0,.45,0,.7,0l-.29.33-.31.35a.14.14,0,0,0,0,.18c.15.38.3.75.44,1.12l.21.56H18.2s-.07-.05-.08-.08c-.12-.31-.23-.62-.34-.93l-.05-.11c-.1.1-.2.18-.19.34s0,.45,0,.68c0,.07,0,.11-.1.1h-.62c-.06,0-.1,0-.1-.09,0-1.16,0-2.32,0-3.48Z"/><path class="cls-2" d="M14.9,19.88l.19-.14a.83.83,0,0,1,.76-.13.48.48,0,0,1,.34.48c0,.67,0,1.34,0,2,0,0,0,.08-.05.08h-.75c0-.06,0-.1,0-.15V20.46c0-.11,0-.22-.13-.26a.3.3,0,0,0-.32.12.2.2,0,0,0,0,.11c0,.54,0,1.09,0,1.64,0,.09,0,.12-.12.11h-.6c-.07,0-.1,0-.1-.1V19.74c0-.09,0-.1.11-.1h.53c.11,0,.16,0,.16.14S14.89,19.83,14.9,19.88Z"/><path class="cls-2" d="M22.8,26.14l-.88.34a22.89,22.89,0,0,0-2.51,1.17l-.77.44s-.07,0-.09,0l-1.26-.5.49-.26a23.89,23.89,0,0,1,2.69-1.19c.36-.14.74-.26,1.11-.38a.12.12,0,0,1,.1,0Z"/><path class="cls-2" d="M19.61,21a1.71,1.71,0,0,1,.14-.77,1,1,0,0,1,.84-.62,1.1,1.1,0,0,1,1.21.67,1.72,1.72,0,0,1,.11.67,2.67,2.67,0,0,1-.1.63,1,1,0,0,1-1,.7,1.18,1.18,0,0,1-.61-.13,1.08,1.08,0,0,1-.54-.85C19.62,21.13,19.62,21,19.61,21Zm.82,0c0,.18.06.42.11.65a.21.21,0,0,0,.2.14.22.22,0,0,0,.23-.12.5.5,0,0,0,.05-.13,2.93,2.93,0,0,0,0-1.18c0-.17-.13-.25-.26-.24a.26.26,0,0,0-.26.25C20.47,20.5,20.46,20.69,20.43,20.94Z"/><path class="cls-2" d="M11.56,20.26a.73.73,0,0,1,.29-.48,1.39,1.39,0,0,1,1.46,0,.65.65,0,0,1,.27.54c0,.49,0,1,0,1.46,0,.13,0,.27,0,.41h-.8a1.55,1.55,0,0,0,0-.21c-.08.05-.15.11-.23.15a.73.73,0,0,1-.79,0,.76.76,0,0,1,0-1.24,1.87,1.87,0,0,1,.88-.31c.09,0,.13,0,.12-.14v-.15c0-.1-.06-.19-.17-.21a.23.23,0,0,0-.27.11,1,1,0,0,0-.09.21Zm1.21,1h0V21c0-.07,0-.09-.09-.09a.46.46,0,0,0-.44.49c0,.17.09.27.24.27a.28.28,0,0,0,.29-.28Z"/><path class="cls-2" d="M41.45,22.19c-.23,0-.47,0-.72,0q-.07,0-.09-.09a.93.93,0,0,0,0-.14l-.23.16a.79.79,0,0,1-.85,0,.76.76,0,0,1,0-1.16,1.71,1.71,0,0,1,.94-.36c.1,0,.15,0,.13-.15s0-.1,0-.15a.22.22,0,0,0-.19-.21.27.27,0,0,0-.28.16c0,.06,0,.14-.07.16a.3.3,0,0,1-.18,0l-.39-.08c-.08,0-.1-.05-.07-.13a.82.82,0,0,1,.61-.53,1.43,1.43,0,0,1,.89,0,.67.67,0,0,1,.49.71v1.39C41.42,21.9,41.44,22,41.45,22.19Zm-.84-.93h0V21c0-.06,0-.08-.08-.08a.45.45,0,0,0-.43.6.22.22,0,0,0,.14.14c.13.07.4-.08.37-.26A1,1,0,0,1,40.61,21.26Z"/><path class="cls-2" d="M32.85,21.36l.53.19a.92.92,0,0,1-.39.5,1.1,1.1,0,0,1-1.69-.62A1.64,1.64,0,0,1,31.47,20a1.05,1.05,0,0,1,1.81.15,2.06,2.06,0,0,1,.15.85c0,.09-.06.08-.12.08H32.18c-.16,0-.17,0-.14.17a1.29,1.29,0,0,0,0,.19.35.35,0,0,0,.32.27.44.44,0,0,0,.41-.24Zm-.49-.76h.24s.08-.05.07-.07a1.13,1.13,0,0,0-.06-.32.27.27,0,0,0-.25-.16.25.25,0,0,0-.24.16,2.29,2.29,0,0,0-.09.31c0,.05,0,.08.08.08Z"/><path class="cls-2" d="M23.73,19.1a2.53,2.53,0,0,0-.3,0,.17.17,0,0,0-.15.17,2.35,2.35,0,0,0,0,.26.11.11,0,0,0,.08.07h.29c.07,0,.1,0,.09.09v.38c0,.06,0,.08-.08.08H23.4c-.1,0-.13,0-.13.12V22c0,.15,0,.15-.16.15h-.5c-.14,0-.14,0-.14-.14,0-.57,0-1.15,0-1.72,0-.11,0-.14-.14-.14s-.2,0-.2-.19a2.25,2.25,0,0,0,0-.26c0-.07,0-.09.09-.09.25,0,.23,0,.25-.26a1.76,1.76,0,0,1,.09-.51.64.64,0,0,1,.64-.39,2.16,2.16,0,0,1,.44,0s.09,0,.09.07S23.73,18.93,23.73,19.1Z"/><path class="cls-2" d="M39,21.3a.89.89,0,0,1-.59.87,1.15,1.15,0,0,1-1-.11,1.17,1.17,0,0,1-.51-.83,1.58,1.58,0,0,1,.21-1.16,1.09,1.09,0,0,1,1.43-.4,1,1,0,0,1,.49.9h-.63s0,0,0-.08,0-.19-.07-.28a.22.22,0,0,0-.22-.15.23.23,0,0,0-.22.15,1.31,1.31,0,0,0-.09.34,3.09,3.09,0,0,0,0,.91c0,.17.13.26.28.26a.29.29,0,0,0,.29-.26,1.57,1.57,0,0,0,0-.23Z"/><path class="cls-2" d="M26.53,26.29c-.33.12-.64.21-.93.35a.63.63,0,0,1-.55,0,25.22,25.22,0,0,0-3-1.17l-.53-.17.51-.17.73-.22a.33.33,0,0,1,.14,0,28.19,28.19,0,0,1,3.54,1.38Z"/><path class="cls-2" d="M28.45,25.72l-.39.11-.74.22a.33.33,0,0,1-.17,0,24,24,0,0,0-3.48-1.33.21.21,0,0,1-.1-.06l.58-.14a2.21,2.21,0,0,0,.25-.05,1.09,1.09,0,0,1,.69,0c.85.25,1.69.53,2.51.86l.85.35Z"/><path class="cls-2" d="M34.59,22.18h-.74s-.05-.06-.06-.1V19.76c0-.1,0-.13.12-.12h.67v.3l0,0a1,1,0,0,1,.78-.39v.78a4.51,4.51,0,0,0-.52,0c-.19,0-.26.14-.26.33V22A.81.81,0,0,1,34.59,22.18Z"/><path class="cls-2" d="M35.69,19.65h.8v.11c0,.77,0,1.54,0,2.31,0,.08,0,.12-.11.11h-.61c-.05,0-.1,0-.1-.08V19.69S35.69,19.67,35.69,19.65Z"/><path class="cls-2" d="M36.5,18.55c0,.23,0,.44,0,.65,0,0,0,.07-.07.07h-.66c-.06,0-.08,0-.08-.09v-.55s0-.08.06-.08Z"/></g></svg>