<svg xmlns="http://www.w3.org/2000/svg" viewBox="0 0 50 50"><defs><style>.cls-1{fill:none;}.cls-2{fill:#999;}</style></defs><g id="bk"><rect class="cls-1" width="50" height="50"/></g><g id="citi"><path class="cls-2" d="M21,27.52l0,0a2.08,2.08,0,0,1-1.49.68,2,2,0,0,1,0-3.94A2.11,2.11,0,0,1,21,25L21,25l.73-.87,0,0a2.7,2.7,0,0,0-2.18-1,3.3,3.3,0,0,0-2.26.82,3.38,3.38,0,0,0,0,4.72,3.31,3.31,0,0,0,2.26.83,2.76,2.76,0,0,0,2.18-1l0,0"/><rect class="cls-2" x="22.42" y="23.19" width="1.28" height="6.14"/><path class="cls-2" d="M28.65,28a1.86,1.86,0,0,1-.94.31c-.42,0-.6-.21-.6-.69V24.36h1.28V23.19H27.11V21.28l-1.24.66v1.25h-1v1.17h1v3.46a1.45,1.45,0,0,0,1.41,1.59,1.8,1.8,0,0,0,1.11-.26h0l.3-1.21"/><rect class="cls-2" x="29.66" y="23.19" width="1.27" height="6.14"/><path class="cls-2" d="M31.73,22.21a6.1,6.1,0,0,0-10.13,0h1.45a5,5,0,0,1,3.61-1.59,5.08,5.08,0,0,1,3.63,1.59"/><path class="cls-2" d="M33.19,21.7c0,.06,0,.09-.1.09h-.2v-.21h.2c.07,0,.1.05.1.12m.13,0a.21.21,0,0,0-.23-.22h-.33v.73h.13v-.28H33l.13.28h.15l-.15-.3A.23.23,0,0,0,33.32,21.7Zm.37.14a.66.66,0,0,0-.67-.66.65.65,0,0,0-.66.66.64.64,0,0,0,.66.67A.65.65,0,0,0,33.69,21.84Zm-.12,0a.56.56,0,0,1-1.11,0,.56.56,0,1,1,1.11,0Z"/></g></svg>