<svg xmlns="http://www.w3.org/2000/svg" viewBox="0 0 50 50"><defs><style>.cls-1{fill:none;}.cls-2{fill:#999;}</style></defs><g id="bk"><rect class="cls-1" width="50" height="50"/></g><g id="disney"><path class="cls-2" d="M23.44,23.91c-.43,0-.38,2.39-.34,2.86s.12.58.46.62.4-.51.36-.74.14-2.73-.48-2.74"/><path class="cls-2" d="M26.18,24.6c.75-.06,1.59-.09,1.59-.52s-2.16-.44-3,0-.93,1.19.09,1.37c.66.11,2.23,0,2.22.49,0,.7-2.77.83-2.32.22.31-.42.65.21,1.39.16.35,0,1.14-.46-.07-.66s-1.54.15-1.66.42.24,1.31,1.82,1.23c1.33-.06,1.53-1,1.47-1.42-.19-1.29-2.76-.69-2.74-1.11,0-.1.58-.18,1.2-.22"/><path class="cls-2" d="M29.77,23.27c-.4.06.67,2.55.28,2.68-.22.07-1-1.92-1.57-1.86s-1,3.18-.24,3.23c.59,0,.31-1.95.56-2s.7,1.66,1.3,1.73.8-.47.83-1.29-.68-2.6-1.16-2.53"/><path class="cls-2" d="M33.07,26.25a5.47,5.47,0,0,1-1,.19c-.14,0,0-.59.12-.64s.69,0,.91-.06c.46-.09.49-.6.09-.62s-.61.06-.77,0a.42.42,0,0,1,.17-.44c.11-.05,1.22,0,1.41-.2s-.1-.64-.41-.68a11.11,11.11,0,0,0-2.19.22c-.16.07-.25.24-.11.35s.41.18.48.31-.1.39-.2.46-.4.09-.29.42-.67,1.32.27,1.89c.48.3,1.5-.31,1.79-.49s.36-.82-.22-.71"/><path class="cls-2" d="M35.56,26.43c.12-.45,1-1.74,1.17-1.68.51.2-.19,1.76-1.17,1.68M36.7,24c-.62-.09-2,1.88-2.07,1.82s.36-1.17.58-1.5c.33-.48.12-1.3-.89.45a2,2,0,0,0-.17,2,7.31,7.31,0,0,0-.68,2.67c.15.47.52.66.73.57A11,11,0,0,1,35,27.45a2.55,2.55,0,0,0,2.14-1.28C37.63,25.26,37.41,24.11,36.7,24Z"/><path class="cls-2" d="M16.42,26.72c-.21.1-2-.87-2-1.3s1.95-.64,2-.55a8.19,8.19,0,0,1,0,1.85M15,20c-2.12.07-2.52.73-2.34,1.11s.75.2.78,0-.28-.18-.27-.28,1.6-.26,3.05,0c3.19.6,5.53,2.7,5.55,4.24,0,2.4-4,2.19-4.34,1.84,0-.14,0-1.95,0-2.14.35-.07,2.22,0,2.24.42s-.38.36-.36.53c0,.39,1.19.08,1.13-.66-.07-1.14-2.64-1.18-3-1.18,0-.24,0-1.73-.52-1.73s-.44,1.35-.44,1.8c-.71,0-2.42.65-2.35,1.26.11.89,1.56,1.84,2.35,2.24,0,1.22,1,1,1,.36,4.43.62,5.34-1.7,5.32-2.69C22.71,22,17.27,20,15,20Z"/><path class="cls-2" d="M25.09,21.56c.49.51-1,1.29-1.59,1.09,0-.34,1.19-1.51,1.59-1.09m-2.3.64c-.1,0,.24-.66.63-.69C23.25,21.9,22.85,22.23,22.79,22.2Zm2.62.13c.57-.68.19-1.2-.22-1.27A1.39,1.39,0,0,0,24,20.68c-.85.16-1.81,1-1.74,1.56s.17.41.22.69,0,.56.26.6a.32.32,0,0,0,.33-.22A2.36,2.36,0,0,0,25.41,22.33Z"/></g></svg>