<svg xmlns="http://www.w3.org/2000/svg" viewBox="0 0 50 50"><defs><style>.cls-1{fill:none;}.cls-2{fill:#999;}</style></defs><g id="bk"><rect class="cls-1" width="50" height="50"/></g><g id="ey"><path class="cls-2" d="M15.67,33c0-.05,0-.11,0-.16V25.91c0-.15,0-.15.16-.15h3.78a.19.19,0,0,1,.19.1l.85,1.49a.1.1,0,0,0,0,0H17.82v1.07c0,.15,0,.15.15.15h2.3c.16,0,.16,0,.16.15,0,.4,0,.8,0,1.19,0,.11,0,.14-.14.14H17.94c-.09,0-.13,0-.13.12,0,.33,0,.65,0,1,0,.1,0,.13.13.13h3.33c.14,0,.14,0,.14.14,0,.5,0,1,0,1.5Z"/><path class="cls-2" d="M23,33a.61.61,0,0,0,0-.14c0-.85,0-1.69,0-2.54a.59.59,0,0,0-.09-.32L21.1,26.86c-.2-.36-.41-.72-.63-1.09h2.24a.16.16,0,0,1,.16.1l.93,1.79.24.47a.82.82,0,0,0,.1-.17c.37-.69.73-1.38,1.08-2.08a.19.19,0,0,1,.2-.11H27.6l-.26.46-1.95,3.36a1.23,1.23,0,0,1-.14.25,1,1,0,0,0-.17.6c0,.79,0,1.58,0,2.37a.76.76,0,0,0,0,.15Z"/><polygon class="cls-2" points="15.52 23.55 35.48 16.28 35.48 19.91 15.52 23.55"/></g></svg>