<svg xmlns="http://www.w3.org/2000/svg" viewBox="0 0 50 50"><defs><style>.cls-1{fill:none;}.cls-2{fill:#999;}</style></defs><g id="bk"><rect class="cls-1" width="50" height="50"/></g><g id="metlife"><path class="cls-2" d="M15.09,21.59a.32.32,0,0,0-.33.2c-.22.43-.46.85-.69,1.28l-.77,1.42-.15-.23L11.8,21.83c-.06-.1-.16-.22-.25-.22-.39,0-.78,0-1.21,0-.09,2.08-.19,4.13-.28,6.2.39,0,.74,0,1.08,0s.26-.07.26-.27c0-1.13.09-2.27.13-3.4a1.81,1.81,0,0,1,0-.23,1,1,0,0,1,.23.28l1,1.78a.62.62,0,0,0,.94,0l1-1.86.13-.23h.06l.18,3.9h1.39c-.09-2.08-.19-4.12-.28-6.18C15.81,21.6,15.45,21.61,15.09,21.59Z"/><path class="cls-2" d="M40.17,26c.2,0,.28-.06.26-.26s0-.41,0-.62a2.07,2.07,0,0,0-1.56-1.79,2.24,2.24,0,0,0-2.43.95,2.37,2.37,0,0,0,2.75,3.57,2.23,2.23,0,0,0,1.19-.56l-.54-.82a2.11,2.11,0,0,1-1.76.35.87.87,0,0,1-.68-.81h2.82Zm-2.84-.88a.92.92,0,0,1,1-.81.83.83,0,0,1,.84.81Z"/><path class="cls-2" d="M20.48,23.61a2.34,2.34,0,0,0-2.47.07,2.45,2.45,0,0,0-.88,2.56A2.08,2.08,0,0,0,18.9,27.9a4.75,4.75,0,0,0,1.13,0,2.27,2.27,0,0,0,1.33-.59l-.52-.82-.34.19a2,2,0,0,1-1.46.15.8.8,0,0,1-.63-.82h3A2.45,2.45,0,0,0,20.48,23.61ZM18.4,25.14a.89.89,0,0,1,1.78,0Z"/><path class="cls-2" d="M27.73,26.67c-.24,0-.32-.06-.32-.32,0-1.47,0-2.93,0-4.4v-.34H26v6.17h4.05V26.66h-.34C29.08,26.66,28.41,26.65,27.73,26.67Z"/><path class="cls-2" d="M36,22.72c.19-.29.36-.56.55-.84a2.17,2.17,0,0,0-2-.33,1.52,1.52,0,0,0-1.08,1.24c0,.2,0,.47-.1.59s-.39.06-.59.08l0,0v1c.12,0,.23,0,.33,0,.27,0,.36.06.35.34,0,.81,0,1.63,0,2.44v.51h1.32v-.33c0-.89,0-1.79,0-2.69,0-.22.06-.27.27-.27.79,0,.79,0,.77-.82,0-.18-.06-.24-.23-.23h-.79c0-.33,0-.62.21-.8S35.65,22.54,36,22.72Z"/><path class="cls-2" d="M24.44,26.87c-.32.05-.57-.1-.58-.4,0-.65,0-1.3,0-2,.3,0,.59,0,.89,0,.07,0,.19-.08.19-.13,0-.3,0-.6,0-.93H23.81V22.3H22.47v1.14h-.68v.62c0,.52,0,.44.43.43.21,0,.27.06.27.27,0,.53,0,1.06,0,1.59a1.6,1.6,0,0,0,.57,1.31,2,2,0,0,0,2.43-.23c-.17-.25-.34-.51-.49-.75C24.79,26.75,24.62,26.83,24.44,26.87Z"/><path class="cls-2" d="M30.7,27.79H32V23.46H30.7Z"/><path class="cls-2" d="M31.36,21.43a.76.76,0,1,0,0,1.51.74.74,0,0,0,.73-.77A.73.73,0,0,0,31.36,21.43Z"/></g></svg>