<svg xmlns="http://www.w3.org/2000/svg" viewBox="0 0 50 50"><defs><style>.cls-1{fill:none;}.cls-2{fill:#999;}</style></defs><g id="bk"><rect class="cls-1" width="50" height="50"/></g><g id="mhe"><path class="cls-2" d="M18.26,17.83V31.14H31.53V17.83ZM31.47,31.07H18.38V17.87H31.47Z"/><path class="cls-2" d="M18.38,31.07H31.47V17.87H18.38Zm3.5-.22h-.95V29.29H19.69v1.56h-1v-4h1v1.5h1.24v-1.5h.95Zm1.16,0h-.82V28.06H23Zm0-3.29h-.82v-.7H23Zm1.21,3.29h-.82v-4h.82Zm1.29,0h-.82v-4h.82Zm2.32-7.12.28,2.18h0l.41-2.18h1L30,25.91h0l.29-2.18h.77l-.44,2.79H29.44l-.35-2h0l-.34,2H27.53l-.45-2.79Zm-1,1.05v1.74h-.82l0-.41h0c-.07.38-.44.44-.72.44-.57,0-.91-.15-.91-.86s.32-.88.91-.88c.23,0,.59,0,.68.31h0v-.44c0-.26,0-.43-.38-.43-.2,0-.33.06-.33.31h-.82c0-.87.57-.87,1.15-.87C26.54,23.69,26.9,23.81,26.9,24.78Zm-2.22-5.42c.72,0,1.21.09,1.21,1.08h-.81c0-.14,0-.23-.07-.29s-.15-.08-.33-.08-.37.09-.37.73.06.72.37.72.4-.1.4-.45h.81c0,.53-.08.81-.27,1a1.48,1.48,0,0,1-.94.18c-1,0-1.19-.32-1.19-1.42S23.66,19.36,24.68,19.36Zm-1,4.33c.57,0,.62.53.62,1V25h-.74v-.14c0-.19,0-.41-.21-.41s-.31.22-.31.45v1.67h-.82V23.73H23v.41h0A.61.61,0,0,1,23.67,23.69Zm-5-5.49h1.51l.68,2.51h0l.64-2.51h1.55v4h-.95l.09-3.06h0l-.9,3.06h-.83l-.91-3.06h0l.09,3.06h-1ZM18.58,24c0-1.32.65-1.51,1.7-1.51s1.58,0,1.58,1.27h-1c0-.41-.33-.4-.61-.4-.69,0-.71.23-.72.88v.65c0,.71.22.78.72.78s.61-.12.61-.67h-.65v-.75h1.62V25c0,1.35-.31,1.59-1.58,1.59s-1.7-.21-1.7-1.5Z"/><path class="cls-2" d="M25.63,25.37c-.2,0-.36,0-.36.29s.23.3.36.3c.34,0,.45-.05.45-.34S25.89,25.37,25.63,25.37Z"/></g></svg>