<svg xmlns="http://www.w3.org/2000/svg" viewBox="0 0 50 50"><defs><style>.cls-1{fill:none;}.cls-2{fill:#999;}</style></defs><g id="bk"><rect class="cls-1" width="50" height="50"/></g><g id="nyse"><g id="UcLfY9.tif"><path class="cls-2" d="M22.19,17.81c0,.05,0,.09,0,.14v8.93c0,.14,0,.14-.15.14H20.49c-.14,0-.14,0-.14-.13V18c0-.05,0-.09,0-.14Z"/><path class="cls-2" d="M24.68,17.81c0,.05,0,.09,0,.14v8.93c0,.14,0,.14-.15.14H23c-.14,0-.14,0-.14-.13V18c0-.05,0-.09,0-.14Z"/><path class="cls-2" d="M29.66,17.81c0,.05,0,.09,0,.14v8.93c0,.14,0,.14-.15.14H28c-.14,0-.14,0-.14-.13V18c0-.05,0-.09,0-.14Z"/><path class="cls-2" d="M19.66,17.81c0,.05,0,.1,0,.15v8.89c0,.17,0,.17-.17.17H18c-.13,0-.13,0-.13-.13V17.94s0-.09,0-.13Z"/><path class="cls-2" d="M32.15,17.81s0,.09,0,.13v8.93c0,.15,0,.15-.15.15H30.51c-.18,0-.18,0-.18-.18V18c0-.06,0-.11,0-.17Z"/><path class="cls-2" d="M27.17,17.81v9c0,.18,0,.18-.18.18H25.5c-.14,0-.14,0-.14-.13V17.81Z"/><path class="cls-2" d="M27.25,32.19a.79.79,0,0,0-.2,0,2.41,2.41,0,0,1-1.2-.5.1.1,0,0,1,0-.15c.12-.17.23-.35.34-.53l0,0c.18.11.34.23.51.32a1.19,1.19,0,0,0,.78.15c.24,0,.47-.22.4-.49s-.18-.22-.31-.28-.51-.18-.76-.29a1.54,1.54,0,0,1-.88-.8,1.12,1.12,0,0,1,0-.63,1.15,1.15,0,0,1,.41-.66A1.22,1.22,0,0,1,27,28a2.78,2.78,0,0,1,.5,0,1.83,1.83,0,0,1,1.05.47.12.12,0,0,1,0,.1l-.34.53c0,.05,0,.06-.1,0a1.82,1.82,0,0,0-.76-.35.58.58,0,0,0-.43,0,.39.39,0,0,0-.21.35.32.32,0,0,0,.23.31,5.54,5.54,0,0,0,.68.25,1.43,1.43,0,0,1,1,.76,1.17,1.17,0,0,1-.48,1.48,1.48,1.48,0,0,1-.67.22l-.09,0Z"/><path class="cls-2" d="M20.34,30.58s0-.09,0-.13V28.12c0-.1,0-.13.13-.13H21c.13,0,.14,0,.14.14V32c0,.15,0,.15-.15.16s-.33,0-.5,0a.18.18,0,0,1-.17-.1c-.52-.83-1.05-1.65-1.57-2.47a.87.87,0,0,0-.08-.1h0s0,.08,0,.12V32c0,.13,0,.13-.13.14s-.38,0-.56,0-.11,0-.11-.11c0-1.31,0-2.61,0-3.92,0-.08,0-.11.11-.11h.6a.17.17,0,0,1,.17.09c.51.82,1,1.63,1.54,2.44l0,0Z"/><path class="cls-2" d="M29.46,30.05c0-.64,0-1.28,0-1.93,0-.09,0-.13.12-.13.82,0,1.63,0,2.44,0,.09,0,.13,0,.13.12a3.84,3.84,0,0,0,0,.48c0,.09,0,.11-.11.11H30.43c-.14,0-.15,0-.15.15v.74c0,.1,0,.13.12.13h1.37c.09,0,.12,0,.11.12v.49c0,.08,0,.11-.11.11H30.4c-.1,0-.12,0-.12.12v.76c0,.09,0,.13.13.13H32c.1,0,.13,0,.13.13a3.53,3.53,0,0,0,0,.46c0,.1,0,.12-.13.12-.56,0-1.13,0-1.69,0-.25,0-.5,0-.75,0-.09,0-.12,0-.12-.12C29.47,31.35,29.46,30.7,29.46,30.05Z"/><path class="cls-2" d="M21.79,28h.86a.15.15,0,0,1,.17.09l.78,1.3.09.11.47-.75c.13-.23.27-.46.41-.68a.19.19,0,0,1,.12-.07c.27,0,.55,0,.82,0h.09q-.27.43-.54.84c-.31.48-.63,1-.94,1.45a.31.31,0,0,0,0,.17q0,.77,0,1.53c0,.1,0,.13-.13.13a5,5,0,0,0-.55,0c-.1,0-.13,0-.12-.13,0-.48,0-.95,0-1.43a.76.76,0,0,0-.15-.48c-.45-.68-.88-1.36-1.32-2Z"/></g></g></svg>