<svg xmlns="http://www.w3.org/2000/svg" viewBox="0 0 50 50"><defs><style>.cls-1{fill:none;}.cls-2{fill:#999;}</style></defs><g id="bk"><rect class="cls-1" width="50" height="50"/></g><g id="ogilvy"><path class="cls-2" d="M16.23,26.87a3.53,3.53,0,0,1-3.09-1.44,3.33,3.33,0,0,1-.52-2.82A3.28,3.28,0,0,1,15.48,20a3.46,3.46,0,0,1,3.19,1,3.49,3.49,0,0,1-1.19,5.64A3.11,3.11,0,0,1,16.23,26.87Zm2-3.66a3.51,3.51,0,0,0-.42-1.71,1.93,1.93,0,0,0-1.69-1.15,1.86,1.86,0,0,0-1.7,1.06,3.85,3.85,0,0,0-.47,2,3.64,3.64,0,0,0,.65,2.28,1.79,1.79,0,0,0,2.93.07A3.84,3.84,0,0,0,18.22,23.21Z"/><path class="cls-2" d="M20.83,25.39a3.37,3.37,0,0,1-.35-.29A1.53,1.53,0,0,1,21,22.64a2.28,2.28,0,0,1,1.78-.08,5.64,5.64,0,0,1,.15-.82,1.86,1.86,0,0,1,1.94-1.15,1.19,1.19,0,0,1,1,.47.66.66,0,0,1,0,.75.64.64,0,0,1-.68.18.6.6,0,0,1-.38-.57c0-.3-.1-.38-.42-.33a1.22,1.22,0,0,0-1.06,1.39,1.05,1.05,0,0,0,.23.7,1.53,1.53,0,0,1-.31,2,2.41,2.41,0,0,1-1.37.45c-.34,0-.69.06-1,.1l-.15,0a.45.45,0,0,0-.32.54.43.43,0,0,0,.5.26c.52-.05,1-.15,1.56-.19a3.15,3.15,0,0,1,1,0,1.1,1.1,0,0,1,.8,1.39,2.05,2.05,0,0,1-2,1.62,3.08,3.08,0,0,1-1.31-.14,1.17,1.17,0,0,1-.83-1,.42.42,0,0,1,.2-.46.62.62,0,0,1,.38,0,.34.34,0,0,1,.23.38c0,.58.24.79.83.81a1.93,1.93,0,0,0,1.34-.34,1,1,0,0,0,.4-.83.46.46,0,0,0-.45-.48c-.36,0-.71,0-1.07.06a4.58,4.58,0,0,1-1.48.08,1,1,0,0,1-.81-.82,1.06,1.06,0,0,1,.6-1.15A4.44,4.44,0,0,1,20.83,25.39Zm2-1.34a2,2,0,0,0-.38-1,.61.61,0,0,0-1,0,1.85,1.85,0,0,0,0,1.9.64.64,0,0,0,1.16-.05A6.11,6.11,0,0,0,22.81,24.05Z"/><path class="cls-2" d="M31.42,25.57c.11-.25.22-.51.31-.77.2-.49.38-1,.57-1.48.11-.3.06-.37-.25-.41s-.26-.12-.19-.32h3.35c.08.22,0,.3-.21.32s-.33.11-.25.32c.27.73.57,1.46.85,2.18l.06.09c.15-.34.28-.66.41-1l.49-1.18c.13-.32.09-.38-.24-.45-.1,0-.23,0-.2-.18s.07-.13.11-.13h1.52v.29c-.61,0-.68.52-.85.91-.64,1.46-1.25,2.94-1.88,4.4a2.2,2.2,0,0,1-.9,1.18.81.81,0,0,1-.68.07.45.45,0,0,1-.31-.43.49.49,0,0,1,.44-.4.33.33,0,0,1,.14,0,.74.74,0,0,0,.87-.53c.16-.37.32-.74.47-1.12a.3.3,0,0,0,0-.21l-1.48-3.63a.32.32,0,0,0-.34-.21.3.3,0,0,0-.32.23c-.46,1.12-.94,2.24-1.37,3.38-.13.34-.37.22-.59.26s-.24-.13-.3-.27c-.44-1.1-.89-2.21-1.35-3.31a.46.46,0,0,0-.29-.26c-.23,0-.22-.16-.19-.33l.18,0h1.76c.07,0,.18.06.2.11s-.06.19-.18.21h-.09c-.23,0-.29.12-.21.34.19.51.38,1,.58,1.51.1.27.2.54.31.81Z"/><path class="cls-2" d="M26,22.43v3.7c0,.23.09.31.29.31H27c.2,0,.29-.07.29-.29,0-1.82,0-3.65,0-5.48,0-.17-.06-.26-.22-.29a.45.45,0,0,1-.11,0l-.26-.2A1,1,0,0,1,27,20c.41-.12.83-.21,1.24-.32l.18,0v6.4c0,.34,0,.38.36.38s.27.11.22.32H24.41v-.27l.05,0c.44-.05.44-.05.44-.49,0-.81,0-1.62,0-2.43,0-.22-.06-.35-.28-.39a.42.42,0,0,1-.17-.05,1.06,1.06,0,0,1-.15-.15c.05-.05.09-.11.15-.13l1.3-.35A1.42,1.42,0,0,1,26,22.43Z"/></g></svg>