<svg xmlns="http://www.w3.org/2000/svg" viewBox="0 0 50 50"><defs><style>.cls-1{fill:none;}.cls-2{fill:#999;}</style></defs><g id="bk"><rect class="cls-1" width="50" height="50"/></g><g id="oppenheimer"><path class="cls-2" d="M25,15.47c.28.16.56.33.84.48s.73.36,1.07.59a3.11,3.11,0,0,1,.52.56c.31.37.6.76.92,1.11a1,1,0,0,0,.44.24.75.75,0,0,1,.44.3,1.18,1.18,0,0,0,.4.4,1.46,1.46,0,0,1,.4.53c0,.06,0,.19,0,.29.31.31.4.46.24.77a.63.63,0,0,1,.28.92c-.26.47-.55.94-.78,1.44A2.44,2.44,0,0,1,29,24c-.39.33-.79.64-1.17,1a.47.47,0,0,0-.13.24,1,1,0,0,1-.5.69.64.64,0,0,0-.23.26.67.67,0,0,1-.84.36.55.55,0,0,1-.74.29l-.42.37h-.37c-.4-.22-.81-.43-1.2-.67a2.9,2.9,0,0,1-1-.7c-.29-.4-.61-.77-.93-1.14-.16-.17-.27-.43-.57-.46a.8.8,0,0,1-.58-.4,1.08,1.08,0,0,0-.34-.3.78.78,0,0,1-.34-.84c-.32-.29-.42-.45-.29-.74l-.35-.42V21.1c.2-.37.4-.75.62-1.11a3.5,3.5,0,0,1,.75-1.12c.39-.29.77-.61,1.14-.93.17-.16.43-.27.46-.57a.76.76,0,0,1,.38-.56,1.52,1.52,0,0,0,.33-.39.77.77,0,0,1,.82-.31c.22-.26.42-.42.75-.29l.42-.35Zm.78,5.3c0,.18,0,.33,0,.49,0,.6,0,1.2,0,1.79a1,1,0,0,0,.32.71l.76.68a.41.41,0,0,0,.66,0c.38-.31.76-.61,1.13-.93a2.43,2.43,0,0,0,.52-.49c.32-.51.62-1,.92-1.55.15-.25.13-.3-.11-.44l-.86,1.26c-.2-.14-.19-.25-.09-.4.27-.38.52-.78.77-1.17s.17-.26-.08-.49l-1,1.4c-.17-.13-.19-.25-.09-.39l.29-.41.66-.95c.14-.18,0-.29-.08-.39s-.18,0-.24.12l-.9,1.18s-.09.07-.11.06-.12-.08-.12-.12a.37.37,0,0,1,.05-.23c.25-.35.5-.68.76-1s.17-.43-.15-.62c-.31.36-.61.72-.93,1.08s-.65.75-1,1.13a.24.24,0,0,1-.41-.12c0-.08-.05-.15-.07-.22Zm-2,1.07c0-.75,0-1.48,0-2.2a1,1,0,0,0-.33-.76c-.26-.23-.49-.49-.75-.7s-.32-.3-.66,0a6.34,6.34,0,0,0-.76.61c-.35.33-.8.56-1,1s-.57,1-.86,1.45a.21.21,0,0,0,.08.3c.11.07.14,0,.19-.1.22-.33.45-.65.68-1,0-.05.11-.07.17-.11a.68.68,0,0,1,.07.26.65.65,0,0,1-.15.23c-.25.38-.49.76-.76,1.14-.11.15,0,.22.08.33s.16-.05.2-.11c.22-.28.41-.57.62-.85l.31-.38a.29.29,0,0,1,.05.42l-.95,1.36a.29.29,0,0,0,.11.37c.13.08.16,0,.21-.1.28-.39.57-.77.86-1.14.05-.06.18-.13.22-.11a.19.19,0,0,1,0,.29.75.75,0,0,1-.07.12l-.76,1c-.1.14-.14.27,0,.41a.58.58,0,0,1,.11.15,1.28,1.28,0,0,0,.17-.1l.76-.9c.33-.4.65-.8,1-1.17a.39.39,0,0,1,.33-.1c.06,0,.11.15.16.22s.09.16.14.17A4.68,4.68,0,0,0,23.72,21.84Zm1.58.5c-.79,0-1.54,0-2.3,0a.87.87,0,0,0-.55.22,12,12,0,0,0-.92,1,.37.37,0,0,0,0,.52c.3.35.58.72.87,1.07a2.6,2.6,0,0,0,.49.55c.57.38,1.17.72,1.75,1.07.14.08.21,0,.29-.11s-.05-.13-.1-.16c-.33-.25-.67-.47-1-.71,0,0-.1-.11-.08-.13a.23.23,0,0,1,.15-.1.32.32,0,0,1,.21.06l.64.43.65.45c.15.09.23-.05.3-.14s-.05-.13-.1-.17c-.37-.28-.75-.54-1.12-.81-.12-.08-.12-.16,0-.2a.39.39,0,0,1,.26,0,4.6,4.6,0,0,1,.45.32l.94.65a.28.28,0,0,0,.37-.11c.12-.15-.06-.17-.12-.22-.36-.29-.75-.55-1.12-.85-.06,0-.13-.16-.11-.2a.18.18,0,0,1,.28-.05.39.39,0,0,1,.11.06c.33.24.67.49,1,.74s.3.16.5,0,.06-.17,0-.24l-.45-.39-.94-.78A7,7,0,0,1,25,23.5a.45.45,0,0,1-.11-.32c0-.12.13-.18.26-.19s.13-.09.14-.15A4,4,0,0,0,25.3,22.34ZM24.48,16c.44.31.86.61,1.29.9-.14.22-.28.16-.41.07-.42-.28-.84-.55-1.25-.84-.17-.12-.26,0-.34.09s0,.14.11.19l.13.11.95.68a.49.49,0,0,1,.08.18.71.71,0,0,1-.23.06s-.08,0-.12-.07l-1.21-.83c-.31-.21-.33-.21-.59.09l1.33,1s.06.11.09.16a.72.72,0,0,1-.24.1s-.1-.06-.15-.09c-.36-.27-.73-.53-1.09-.81a.21.21,0,0,0-.28,0c-.27.2-.27.24,0,.44a.1.1,0,0,1,.05,0c.63.53,1.25,1.05,1.87,1.59a.46.46,0,0,1,.12.34c0,.06-.16.12-.24.17s-.14.08-.15.13,0,.35,0,.55h2.28a2.23,2.23,0,0,0,.59-.25,6.77,6.77,0,0,0,.74-.77c.32-.37.32-.46,0-.83s-.62-.74-.93-1.11a1.88,1.88,0,0,0-.35-.39c-.55-.36-1.12-.68-1.68-1C24.71,15.8,24.6,15.87,24.48,16Zm.8,5.81V20.78H24.23v1.06Z"/><path class="cls-2" d="M7.34,33.87a1.58,1.58,0,0,1-1-.32,1.24,1.24,0,0,1-.42-.72,1.84,1.84,0,0,1,.2-1.5A1.2,1.2,0,0,1,7,30.81a1.87,1.87,0,0,1,1,.09,1.16,1.16,0,0,1,.72.82,2.05,2.05,0,0,1-.06,1.36,1.18,1.18,0,0,1-.85.71C7.67,33.83,7.5,33.84,7.34,33.87Zm-.72-1.55c0,.15,0,.29.07.44A.67.67,0,0,0,8,32.82a1.78,1.78,0,0,0,.07-.65.72.72,0,0,0-.65-.8.56.56,0,0,0-.55.2A1.1,1.1,0,0,0,6.62,32.32Z"/><path class="cls-2" d="M26.45,33.77h-.64V32.49a1,1,0,0,0,0-.24.31.31,0,0,0-.26-.24.36.36,0,0,0-.33.23,2.56,2.56,0,0,0-.05.27v1.26h-.66V31.66h.61v.25a.83.83,0,0,1,.66-.34.64.64,0,0,1,.58.37,2,2,0,0,1,.41-.3.69.69,0,0,1,1,.59c0,.49,0,1,0,1.46,0,0,0,.05,0,.07h-.66v-.13c0-.41,0-.83,0-1.25a.34.34,0,0,0-.19-.34.35.35,0,0,0-.45.32c0,.13,0,.25,0,.38Z"/><path class="cls-2" d="M12.1,33.62v.91h-.65V31.65h.6c0,.07,0,.14,0,.22a.88.88,0,0,1,.48-.28.91.91,0,0,1,1.05.56,1.44,1.44,0,0,1-.13,1.35.83.83,0,0,1-.63.35A1,1,0,0,1,12.1,33.62Zm.93-1a2.59,2.59,0,0,0-.13-.4.41.41,0,0,0-.7,0,1,1,0,0,0,0,1,.42.42,0,0,0,.65.09A1,1,0,0,0,13,32.63Z"/><path class="cls-2" d="M9.65,33.64v.89H9V31.66h.6v.21s.06,0,.07-.05a.93.93,0,0,1,1.28,0,1,1,0,0,1,.26.55,1.51,1.51,0,0,1-.07.89.89.89,0,0,1-1,.56A2.32,2.32,0,0,1,9.65,33.64Zm-.05-1c0,.15.06.28.1.41a.43.43,0,0,0,.39.31.42.42,0,0,0,.43-.29,1.13,1.13,0,0,0,0-.81.4.4,0,0,0-.39-.29.38.38,0,0,0-.4.24C9.68,32.4,9.64,32.55,9.6,32.69Z"/><path class="cls-2" d="M40.41,31.86v-1H41v2.87h-.63v-.2l-.17.12a.87.87,0,0,1-1.34-.43,1.57,1.57,0,0,1,0-1.11.93.93,0,0,1,1.49-.28Zm-.92.85h0a3.33,3.33,0,0,0,.13.45.4.4,0,0,0,.72,0,1,1,0,0,0,0-.94.42.42,0,0,0-.72,0A.79.79,0,0,0,39.49,32.71Z"/><path class="cls-2" d="M20.76,33.77h-.64v-.14c0-.41,0-.81,0-1.22a.35.35,0,0,0-.49-.36.46.46,0,0,0-.23.34c0,.11,0,.23,0,.34,0,.34,0,.68,0,1h-.63V30.87h.62v1a1,1,0,0,1,.75-.27c.42,0,.6.2.63.56C20.8,32.67,20.76,33.22,20.76,33.77Z"/><path class="cls-2" d="M33.87,32.09v.59H32.81v1.08h-.68V30.89h1.95v.58H32.82v.62Z"/><path class="cls-2" d="M28.67,32.88a.52.52,0,0,0,.35.51.48.48,0,0,0,.54-.2.09.09,0,0,1,.08,0h.59a.86.86,0,0,1-.77.69,1.68,1.68,0,0,1-.74,0A.92.92,0,0,1,28,33a1.38,1.38,0,0,1,.07-.78.94.94,0,0,1,.74-.6,1.27,1.27,0,0,1,1,.15,1,1,0,0,1,.37.67,3,3,0,0,1,0,.44Zm0-.37h.91a.44.44,0,0,0-.44-.5A.5.5,0,0,0,28.68,32.51Z"/><path class="cls-2" d="M16.11,33.17a1.87,1.87,0,0,1-.17.31.94.94,0,0,1-.69.36,1.57,1.57,0,0,1-.83-.09.9.9,0,0,1-.51-.64,1.39,1.39,0,0,1,.05-.9,1,1,0,0,1,.65-.58,1.38,1.38,0,0,1,.92,0,.94.94,0,0,1,.58.79c0,.14,0,.28,0,.43H14.53a.55.55,0,0,0,.24.45.45.45,0,0,0,.65-.15.15.15,0,0,1,.08,0h.57S16.1,33.16,16.11,33.17Zm-1.57-.66h.92a.45.45,0,0,0-.36-.5A.51.51,0,0,0,14.54,32.51Z"/><path class="cls-2" d="M23.31,32.88H21.69a.49.49,0,0,0,.31.5.48.48,0,0,0,.57-.19.11.11,0,0,1,.08,0h.59a.77.77,0,0,1-.33.52,1.14,1.14,0,0,1-.65.2,1.49,1.49,0,0,1-.66-.09.94.94,0,0,1-.58-.85,1.44,1.44,0,0,1,.06-.65,1,1,0,0,1,.79-.65,1.94,1.94,0,0,1,.68,0,.89.89,0,0,1,.68.73C23.27,32.52,23.28,32.69,23.31,32.88Zm-1.63-.37h.93c0-.38-.23-.5-.43-.5A.5.5,0,0,0,21.68,32.51Z"/><path class="cls-2" d="M18.41,33.77h-.64v-.13c0-.4,0-.8,0-1.2a.4.4,0,0,0-.21-.4.36.36,0,0,0-.47.2.94.94,0,0,0-.06.29c0,.4,0,.8,0,1.2v0h-.65v-2.1H17c0,.05,0,.11,0,.19a1,1,0,0,1,.74-.28.6.6,0,0,1,.63.5,1,1,0,0,1,0,.24v1.46Z"/><path class="cls-2" d="M41.23,33.09h.64a.4.4,0,0,0,.58.28.24.24,0,0,0,.15-.16.21.21,0,0,0-.11-.19,1.74,1.74,0,0,0-.39-.11,4.42,4.42,0,0,1-.55-.17.59.59,0,0,1,.05-1,1.56,1.56,0,0,1,1.18,0,.6.6,0,0,1,.42.58c-.18,0-.37,0-.54,0s0,0-.07-.06l-.05-.09a.56.56,0,0,0-.56,0c-.08.08,0,.25.11.29a3.15,3.15,0,0,0,.42.09,2.86,2.86,0,0,1,.42.1.54.54,0,0,1,.35.54.61.61,0,0,1-.34.59,1.26,1.26,0,0,1-.42.12,1.49,1.49,0,0,1-1-.15A.67.67,0,0,1,41.23,33.09Z"/><path class="cls-2" d="M37.19,33.77h-.63V31.68h.6v.21a1,1,0,0,1,1-.25.55.55,0,0,1,.37.53c0,.52,0,1,0,1.59H38v-.95c0-.16,0-.32,0-.48a.34.34,0,0,0-.22-.29.37.37,0,0,0-.42.18,1.4,1.4,0,0,0-.1.46C37.18,33,37.19,33.39,37.19,33.77Z"/><path class="cls-2" d="M34.17,31.68h.64V33a1,1,0,0,0,0,.24.29.29,0,0,0,.29.2.35.35,0,0,0,.36-.24,1.59,1.59,0,0,0,.06-.3V31.68h.63v2.08h-.63a1.86,1.86,0,0,0,0-.22.84.84,0,0,1-.48.29c-.49.08-.86-.1-.89-.63S34.17,32.19,34.17,31.68Z"/><path class="cls-2" d="M31.94,31.55v.5l-.28,0a.56.56,0,0,0-.5.52,7.92,7.92,0,0,0,0,1v.18h-.66v-2.1h.65v.23a2.12,2.12,0,0,1,.36-.25A2,2,0,0,1,31.94,31.55Z"/><path class="cls-2" d="M23.52,31.65h.65v2.11h-.65Z"/><path class="cls-2" d="M24.17,31.37h-.65v-.5h.65Z"/></g></svg>