<svg xmlns="http://www.w3.org/2000/svg" viewBox="0 0 50 50"><defs><style>.cls-1{fill:none;}.cls-2{fill:#999;}</style></defs><g id="bk"><rect class="cls-1" width="50" height="50"/></g><g id="sanford"><path class="cls-2" d="M37.9,22.77c-.35-.07-.7-.1-1.06-.15a.35.35,0,0,0,0,.13,4.3,4.3,0,0,0,.28.57.82.82,0,0,0,.35.32,6,6,0,0,1,3,2.46c.24.35.43.73.64,1.1l0,0c.39-.53.78-1.05,1.16-1.59a.28.28,0,0,0,0-.26A7.61,7.61,0,0,0,37.9,22.77Z"/><path class="cls-2" d="M10.92,24.46c-.54,0-1.09-.05-1.63-.07-.13,0-.24-.06-.21-.2a.27.27,0,0,1,.2-.16c.36,0,.72,0,1.07,0,.15,0,.3,0,.35.22a.22.22,0,0,0,.15.08,4.56,4.56,0,0,0,.64,0s.13-.07.13-.11a.78.78,0,0,0-.77-.85H8.92a.68.68,0,0,0-.73.65,2.32,2.32,0,0,0,0,.59.49.49,0,0,0,.54.46l1.8.1c.12,0,.24.05.24.21s-.13.17-.26.17H9.32c-.15,0-.26,0-.28-.2s-.08-.12-.12-.12c-.24,0-.48,0-.72,0-.1.69.2,1,.85,1h1.81a.77.77,0,0,0,.87-.81C11.76,24.79,11.51,24.49,10.92,24.46Z"/><path class="cls-2" d="M34.72,23.32H33.37c-.46,0-.92,0-1.37,0-.22,0-.27.07-.27.28q0,1.18,0,2.37c0,.2.07.26.26.26H34.6c.44,0,.65-.11.69-.54a11.68,11.68,0,0,0,0-1.87C35.28,23.43,35.1,23.33,34.72,23.32Zm-.28,1.82a.32.32,0,0,1-.38.32c-.47,0-1,0-1.45,0V24.08c.54,0,1.07,0,1.59,0a.36.36,0,0,1,.24.25A4.28,4.28,0,0,1,34.44,25.14Z"/><path class="cls-2" d="M19.87,24c0-.64,0-.63-.65-.61-.19,0-.27.07-.26.27,0,.44,0,.88,0,1.33v.31a.58.58,0,0,1-.23-.2c-.39-.51-.77-1-1.17-1.53a.51.51,0,0,0-.33-.17c-.3,0-.6,0-.9,0s-.26.05-.26.25c0,.76,0,1.52,0,2.28,0,.08,0,.15,0,.26h.67c.16,0,.22-.07.21-.21V24.41l.06,0,.15.18c.39.47.78,1,1.18,1.42a.54.54,0,0,0,.35.18c.3,0,.61,0,.91,0s.23-.05.23-.23C19.86,25.3,19.87,24.65,19.87,24Z"/><path class="cls-2" d="M31.14,23.72c-.17-.42-.53-.45-.9-.45H27.93c-.22,0-.26.08-.26.27,0,.69,0,1.38,0,2.07s-.12.58.61.59h0c.13,0,.18-.06.18-.19s0-.33,0-.52c.55,0,1.08,0,1.6,0,.08,0,.19.14.2.23.06.45.06.45.51.46a1,1,0,0,0,.24,0s.12-.06.11-.09c0-.34.15-.72-.2-1A1.2,1.2,0,0,0,31.14,23.72ZM30,24.78c-.44,0-.88,0-1.32,0-.06,0-.13-.12-.19-.18v0c0-.71-.15-.63.59-.63H30c.29,0,.45.15.45.41S30.29,24.77,30,24.78Z"/><path class="cls-2" d="M39.21,24.89a5.2,5.2,0,0,0-1.87-1.1,5.4,5.4,0,0,0,.27.54.76.76,0,0,1,0,1,.27.27,0,0,0,0,.26,7.88,7.88,0,0,1,1.15,2,.28.28,0,0,0,.31.2c.48,0,1,0,1.45,0a.38.38,0,0,0,.36-.55A7.38,7.38,0,0,0,39.21,24.89Z"/><path class="cls-2" d="M42.7,24.55c-.61-.82-1.21-1.65-1.8-2.48a.51.51,0,0,0-.44-.22H36.4c.18.27.17.58.53.6a6.49,6.49,0,0,1,.77.11,7.82,7.82,0,0,1,4.68,2.63l.14.13a1.5,1.5,0,0,1,.18-.24C42.88,24.9,42.84,24.75,42.7,24.55Z"/><path class="cls-2" d="M26.56,23.37H24.19a.36.36,0,0,0-.37.25,3.17,3.17,0,0,0,0,2.29.45.45,0,0,0,.44.3l1.12.06,1.16-.06a.38.38,0,0,0,.39-.25,2.18,2.18,0,0,0,.18-.65A3.14,3.14,0,0,0,27,23.65.4.4,0,0,0,26.56,23.37Zm-.3,1.92a.31.31,0,0,1-.36.27H24.81a.27.27,0,0,1-.31-.23,1.7,1.7,0,0,1,0-1.09.35.35,0,0,1,.25-.19c.4,0,.8,0,1.2,0a.26.26,0,0,1,.3.24A7,7,0,0,1,26.26,25.29Z"/><path class="cls-2" d="M14.4,23.54a.33.33,0,0,0-.24-.14c-.22,0-.44,0-.66,0a.34.34,0,0,0-.39.23l-1.21,2.3a2.54,2.54,0,0,0-.11.26,4.32,4.32,0,0,1,.51,0,.44.44,0,0,0,.5-.29.4.4,0,0,1,.29-.17c.45,0,.89,0,1.33,0a.38.38,0,0,1,.4.23.4.4,0,0,0,.26.22,4,4,0,0,0,.7,0c0-.08,0-.11,0-.15C15.29,25.19,14.85,24.36,14.4,23.54Zm-1.06,1.55.44-.8c.15.29.29.53.44.8Z"/><path class="cls-2" d="M23.16,23.42a.45.45,0,0,0-.11,0H20.6c-.17,0-.18.1-.18.23,0,.69,0,1.38,0,2.07s-.12.5.55.49c.05,0,.15-.1.16-.17a2.46,2.46,0,0,0,0-.47c0-.15.05-.21.2-.21h1.24c.5,0,.49,0,.5-.5,0-.2-.07-.25-.25-.24h-1.4c-.14,0-.23,0-.21-.2s0-.31.21-.3H22.6c.65,0,.65,0,.58-.66C23.18,23.45,23.17,23.44,23.16,23.42Z"/><path class="cls-2" d="M36.42,27.76h2.25a7.54,7.54,0,0,0-1.22-2.11Z"/><path class="cls-2" d="M25,25.55h0Z"/></g></svg>