<svg xmlns="http://www.w3.org/2000/svg" viewBox="0 0 50 50"><defs><style>.cls-1{fill:none;}.cls-2{fill:#999;}.cls-3{fill:#fff;}</style></defs><g id="bk"><rect class="cls-1" width="50" height="50"/></g><g id="tiaa"><path class="cls-2" d="M14.55,20.71c-.86.5-1.69,1-1.24,2.4h3.25v3.36c1.35,0,2.11-.4,2.15-1.31.07-1.48-.07-3-.12-4.45Z"/><path class="cls-2" d="M12.82,21.45l-1.87,2v5.17c1.19,0,2.48.09,3.58.06a3.64,3.64,0,0,0,3.36-1.86H12.82Z"/><path class="cls-2" d="M35.66,25.19l.58-1.39C36.05,24.24,35.87,24.69,35.66,25.19Z"/><path class="cls-3" d="M36.24,23.8c-.19.44-.37.89-.58,1.39h1.25c-.2-.5-.39-1-.58-1.4Z"/><path class="cls-2" d="M33.46,27.69v0h0Z"/><path class="cls-2" d="M39,27.31q-1.14-2.68-2.26-5.38c-.08-.18-.13-.35-.39-.35s-.32.17-.39.36l-2.25,5.34-.08.17,0,.07a1,1,0,0,0-.08.15H34c.65,0,.65,0,.9-.61.36-.87.36-.87,1.32-.87.36,0,.81-.11,1.07.06s.32.62.47.95a1.2,1.2,0,0,0,.13.28c.06.08.16.18.25.18.3,0,.61,0,1,0Zm-3.29-2.12c.21-.5.39-1,.58-1.39h.09c.19.45.38.9.58,1.4Z"/><path class="cls-2" d="M30,25.19l.58-1.39C30.41,24.24,30.23,24.69,30,25.19Z"/><path class="cls-3" d="M30.6,23.8c-.19.44-.37.89-.58,1.39h1.26l-.58-1.4Z"/><path class="cls-2" d="M27.82,27.69l0,0h0Z"/><path class="cls-2" d="M33.31,27.31c-.75-1.79-1.51-3.58-2.26-5.38-.07-.18-.13-.35-.39-.35s-.31.17-.39.36L28,27.28l-.08.17,0,.07a1.07,1.07,0,0,0-.07.15h.5c.65,0,.65,0,.91-.61.36-.87.36-.87,1.32-.87.36,0,.8-.11,1.06.06s.33.62.48.95a.9.9,0,0,0,.13.28c.06.08.16.18.24.18.31,0,.62,0,1,0ZM30,25.19c.21-.5.39-1,.58-1.39h.1l.58,1.4Z"/><path class="cls-2" d="M25.49,21.68q-2.14,0-4.29,0a.34.34,0,0,0-.25.2,7.14,7.14,0,0,0,0,.81h1.82v5h1.12v-5h1.86a4.82,4.82,0,0,0,0-.77A.36.36,0,0,0,25.49,21.68Z"/><path class="cls-2" d="M26.43,21.71c-.07,0-.13.28-.14.43,0,1.53,0,3.06,0,4.59,0,1,0,1,1.06.91a.31.31,0,0,0,0-.09V22c0-.08,0-.21-.05-.21A4.62,4.62,0,0,0,26.43,21.71Z"/></g></svg>