<svg xmlns="http://www.w3.org/2000/svg" viewBox="0 0 50 50"><defs><style>.cls-1{fill:none;}.cls-2{fill:#999;}</style></defs><g id="bk"><rect class="cls-1" width="50" height="50"/></g><g id="wc"><path class="cls-2" d="M10.57,27.43v.64l.73.88a2,2,0,0,0-1,1.15,1.21,1.21,0,0,0-.07.43,1.4,1.4,0,0,0,.27.83,1.94,1.94,0,0,0,2.23.55,2.11,2.11,0,0,0,.7-.47l.42.49h1.09l-3.13-3.74H14v-.76Zm.57,3.51a.8.8,0,0,1-.14-.45.67.67,0,0,1,0-.24,1.3,1.3,0,0,1,.73-.72l1.15,1.34a1.29,1.29,0,0,1-.53.38,1.08,1.08,0,0,1-1.25-.31Zm1.27.35h0"/><polyline class="cls-2" points="39.27 19.54 36.06 19.54 36.06 20.56 38.22 20.56 38.22 21.34 36.06 21.34 36.06 22.48 39.32 22.48 39.32 23.26 35.1 23.26 35.1 18.81 39.27 18.81 39.27 19.54"/><polyline class="cls-2" points="39.75 28.16 36.54 28.16 36.54 29.18 38.7 29.18 38.7 29.96 36.54 29.96 36.54 31.1 39.8 31.1 39.8 31.88 35.58 31.88 35.58 27.43 39.75 27.43 39.75 28.16"/><path class="cls-2" d="M13.7,18.86l-1,3-1-3h-.91l1.57,4.37H13L14.1,20l1.11,3.23h.68l1.53-4.37h-.88l-1,3-1-3H13.7"/><polyline class="cls-2" points="22.98 20.54 22.98 18.81 23.95 18.81 23.95 23.26 22.98 23.26 22.98 21.37 20.26 21.37 20.26 23.26 19.29 23.26 19.29 18.81 20.26 18.81 20.26 20.54 22.98 20.54"/><polyline class="cls-2" points="26.18 23.26 26.18 18.81 27.14 18.81 27.14 23.26 26.18 23.26"/><polyline class="cls-2" points="31.63 23.26 30.66 23.26 30.66 19.6 28.9 19.6 28.9 18.81 33.39 18.81 33.39 19.6 31.63 19.6 31.63 23.26"/><path class="cls-2" d="M18,28.05a2.23,2.23,0,0,0-.63,1.61,2.26,2.26,0,0,0,2.46,2.28,3.5,3.5,0,0,0,1.78-.57h0l-.37-.66,0,0a2.49,2.49,0,0,1-1.41.41,1.47,1.47,0,0,1-1.58-1.49,1.51,1.51,0,0,1,1.58-1.53,3.2,3.2,0,0,1,1.41.38h0l.35-.72a3.86,3.86,0,0,0-1.78-.43,2.55,2.55,0,0,0-1.83.7"/><path class="cls-2" d="M25.48,28.58l.65,1.57H24.82ZM24,31.87l.44-.95h2l.46.95h1.21L25.8,27.43h-.71l-2.21,4.45H24"/><path class="cls-2" d="M29.58,31.45l.31-.72a3.4,3.4,0,0,0,1.61.47c.37,0,1.37-.08,1.37-.6,0-1-3.43.23-3.41-1.84,0-.7.67-1.39,2.07-1.38a4.36,4.36,0,0,1,2,.47l-.35.68a3.68,3.68,0,0,0-1.6-.42c-.5,0-1.12.13-1.12.5,0,1.07,3.43-.14,3.4,1.89,0,1.16-1.4,1.43-2.32,1.42a3.32,3.32,0,0,1-1.93-.47"/></g></svg>