<?xml version="1.0" encoding="utf-8"?>
<!-- Generator: Adobe Illustrator 24.1.2, SVG Export Plug-In . SVG Version: 6.00 Build 0)  -->
<svg version="1.1" id="Layer_1" xmlns="http://www.w3.org/2000/svg" xmlns:xlink="http://www.w3.org/1999/xlink" x="0px" y="0px"
	 viewBox="0 0 30 30" style="enable-background:new 0 0 30 30;" xml:space="preserve">
<style type="text/css">
	.st0{fill:#FFFFFF;}
	.st1{fill:none;}
</style>
<g id="LNH2wK.tif">
	<g>
		<path class="st0" d="M18.5,13.9c0,0-0.1,0-0.1,0c-3.4,0-6.8,0-10.1,0c-0.5,0-0.9,0.4-0.9,0.9c0,0.2,0,0.4,0,0.6
			c0,0.5,0.4,0.9,0.9,0.9c0,0,0.1,0,0.1,0c3.3,0,6.7,0,10,0c0.1,0,0.1,0,0.2,0c-0.2,0.2-0.5,0.5-0.7,0.7c-0.9,0.9-1.7,1.7-2.6,2.6
			c-0.4,0.4-0.4,0.9,0,1.2c0.2,0.2,0.3,0.4,0.5,0.5c0.3,0.3,0.8,0.3,1.1,0c0.3-0.3,0.6-0.6,0.9-0.9c1.6-1.6,3.1-3.1,4.7-4.7
			c0.4-0.4,0.4-0.9,0-1.3c-1.8-1.8-3.6-3.6-5.5-5.5c-0.3-0.3-0.7-0.4-1.1-0.2c-0.1,0-0.2,0.1-0.2,0.2c-0.1,0.1-0.3,0.3-0.4,0.4
			c-0.4,0.4-0.4,0.9,0,1.3C16.4,11.7,17.4,12.7,18.5,13.9C18.5,13.8,18.5,13.8,18.5,13.9C18.5,13.8,18.5,13.9,18.5,13.9z"/>
	</g>
</g>
<rect class="st1" width="30.1" height="30.1"/>
</svg>
