<?xml version="1.0" encoding="utf-8"?>
<!-- Generator: Adobe Illustrator 22.1.0, SVG Export Plug-In . SVG Version: 6.00 Build 0)  -->
<svg version="1.1" id="Layer_1" xmlns="http://www.w3.org/2000/svg" xmlns:xlink="http://www.w3.org/1999/xlink" x="0px" y="0px"
	 viewBox="0 0 96 85" style="enable-background:new 0 0 96 85;" xml:space="preserve">
<style type="text/css">
	.st0{font-family:'ArialMT';}
	.st1{font-size:9.0388px;}
	.st2{fill:#FFFFFF;}
	.st3{clip-path:url(#SVGID_2_);fill:#FFFFFF;}
</style>
<text transform="matrix(1 0 0 1 14.5381 17.9697)" class="st0 st1"> </text>
<path class="st2" d="M31.6,52.9C31.5,53,31.5,53,31.5,53c-1.6,1.6-3.5,2.5-5.4,2.5c-4,0-6.9-3-6.9-7.1c0-4.2,2.9-7.2,6.9-7.2
	c1.9,0,3.8,0.8,5.4,2.5c0.1,0.2,0.1,0.2,0.1,0.2c2.7-3.2,2.7-3.2,2.7-3.2c-0.1-0.1-0.1-0.1-0.1-0.1c-2.2-2.6-4.8-3.8-8-3.8
	c-3.2,0-6.1,1.1-8.2,3c-2.3,2.1-3.5,5.1-3.5,8.6c0,3.5,1.2,6.4,3.5,8.6c2,1.9,5,3,8.2,3c3.2,0,5.8-1.3,8-3.8
	c0.1-0.1,0.1-0.1,0.1-0.1"/>
<rect x="36.8" y="37.1" class="st2" width="4.6" height="22.4"/>
<path class="st2" d="M59.4,54.6c-1.3,0.8-2.4,1.1-3.4,1.1c-1.5,0-2.2-0.8-2.2-2.5c0-11.8,0-11.8,0-11.8c4.6,0,4.6,0,4.6,0
	c0-4.3,0-4.3,0-4.3c-4.6,0-4.6,0-4.6,0c0-6.9,0-6.9,0-6.9c-4.5,2.4-4.5,2.4-4.5,2.4c0,4.5,0,4.5,0,4.5c-3.8,0-3.8,0-3.8,0
	c0,4.3,0,4.3,0,4.3c3.8,0,3.8,0,3.8,0c0,12.6,0,12.6,0,12.6c0,3.4,2.1,5.8,5.1,5.8c2.1,0.1,3.4-0.5,4-1c0.1,0,0.1,0,0.1,0
	c1.1-4.4,1.1-4.4,1.1-4.4"/>
<rect x="63.1" y="37.1" class="st2" width="4.6" height="22.4"/>
<g>
	<defs>
		<rect id="SVGID_1_" x="33.8" y="23.8" width="37" height="9.9"/>
	</defs>
	<clipPath id="SVGID_2_">
		<use xlink:href="#SVGID_1_"  style="overflow:visible;"/>
	</clipPath>
	<path class="st3" d="M70.6,33.6c-3.9-5.8-10.9-9.8-18.4-9.8c-7.4,0-14.5,3.9-18.4,9.8c5.3,0,5.3,0,5.3,0c3.6-3.7,8.2-5.8,13.1-5.8
		c4.8,0,9.5,2,13.2,5.8"/>
</g>
<path class="st2" d="M75.9,31.7c0,0.2-0.1,0.4-0.4,0.4c-0.7,0-0.7,0-0.7,0c0-0.8,0-0.8,0-0.8c0.7,0,0.7,0,0.7,0
	C75.8,31.3,75.9,31.5,75.9,31.7 M76.4,31.7c0-0.5-0.4-0.8-0.8-0.8c-1.2,0-1.2,0-1.2,0c0,2.7,0,2.7,0,2.7c0.5,0,0.5,0,0.5,0
	c0-1,0-1,0-1c0.5,0,0.5,0,0.5,0c0.5,1,0.5,1,0.5,1c0.5,0,0.5,0,0.5,0c-0.5-1.1-0.5-1.1-0.5-1.1C76.2,32.4,76.4,32.1,76.4,31.7z
	 M77.8,32.3c0-1.3-1-2.4-2.4-2.4c-1.4,0-2.4,1.1-2.4,2.4c0,1.4,1,2.4,2.4,2.4C76.7,34.7,77.8,33.6,77.8,32.3z M77.3,32.3
	c0,1.1-0.8,2-2,2c-1.2,0-2-0.8-2-2c0-1.1,0.8-2,2-2C76.5,30.2,77.3,31.1,77.3,32.3z"/>
</svg>
