<?xml version="1.0" encoding="utf-8"?>
<!-- Generator: Adobe Illustrator 16.0.0, SVG Export Plug-In . SVG Version: 6.00 Build 0)  -->
<!DOCTYPE svg PUBLIC "-//W3C//DTD SVG 1.1//EN" "http://www.w3.org/Graphics/SVG/1.1/DTD/svg11.dtd">
<svg version="1.1" xmlns="http://www.w3.org/2000/svg" xmlns:xlink="http://www.w3.org/1999/xlink" x="0px" y="0px" width="50px"
	 height="50px" viewBox="0 0 50 50" enable-background="new 0 0 50 50" xml:space="preserve">
<g id="bk" display="none">
	<rect display="inline" fill-rule="evenodd" clip-rule="evenodd" fill="#231F20" width="50" height="50"/>
</g>
<g id="guides">
</g>
<g id="citi" display="none">
	<path display="inline" fill="#FFFFFF" d="M17.434,28.005c-0.03,0.061-0.03,0.061-0.03,0.061c-0.814,0.813-1.749,1.235-2.713,1.235
		c-2.02,0-3.468-1.507-3.468-3.558c0-2.109,1.448-3.617,3.468-3.617c0.964,0,1.899,0.422,2.713,1.236c0.03,0.09,0.03,0.09,0.03,0.09
		c1.327-1.598,1.327-1.598,1.327-1.598c-0.03-0.03-0.03-0.03-0.03-0.03c-1.086-1.296-2.381-1.899-3.979-1.899
		c-1.599,0-3.076,0.542-4.101,1.507c-1.146,1.055-1.749,2.533-1.749,4.311c0,1.751,0.603,3.227,1.749,4.282
		c1.025,0.965,2.502,1.508,4.101,1.508c1.598,0,2.894-0.635,3.979-1.9c0.03-0.059,0.03-0.059,0.03-0.059"/>
	<rect x="20.027" y="20.105" display="inline" fill="#FFFFFF" width="2.322" height="11.187"/>
	<path display="inline" fill="#FFFFFF" d="M31.363,28.85c-0.633,0.392-1.205,0.572-1.718,0.572c-0.754,0-1.087-0.392-1.087-1.267
		c0-5.909,0-5.909,0-5.909c2.322,0,2.322,0,2.322,0c0-2.141,0-2.141,0-2.141c-2.322,0-2.322,0-2.322,0c0-3.467,0-3.467,0-3.467
		c-2.261,1.207-2.261,1.207-2.261,1.207c0,2.261,0,2.261,0,2.261c-1.899,0-1.899,0-1.899,0c0,2.141,0,2.141,0,2.141
		c1.899,0,1.899,0,1.899,0c0,6.302,0,6.302,0,6.302c0,1.688,1.056,2.895,2.563,2.895c1.055,0.06,1.688-0.272,2.02-0.481
		c0.03,0,0.03,0,0.03,0c0.542-2.201,0.542-2.201,0.542-2.201"/>
	<rect x="33.201" y="20.105" display="inline" fill="#FFFFFF" width="2.322" height="11.187"/>
	<path display="inline" fill="#FFFFFF" d="M39.625,17.392c0,0.121-0.061,0.181-0.182,0.181c-0.361,0-0.361,0-0.361,0
		c0-0.392,0-0.392,0-0.392c0.361,0,0.361,0,0.361,0C39.564,17.181,39.625,17.272,39.625,17.392 M39.865,17.392
		c0-0.271-0.211-0.392-0.422-0.392c-0.603,0-0.603,0-0.603,0c0,1.326,0,1.326,0,1.326c0.241,0,0.241,0,0.241,0
		c0-0.513,0-0.513,0-0.513c0.271,0,0.271,0,0.271,0c0.241,0.513,0.241,0.513,0.241,0.513c0.271,0,0.271,0,0.271,0
		c-0.271-0.542-0.271-0.542-0.271-0.542C39.746,17.724,39.865,17.573,39.865,17.392z M40.529,17.663
		c0-0.663-0.513-1.206-1.206-1.206S38.117,17,38.117,17.663c0,0.694,0.513,1.207,1.206,1.207S40.529,18.357,40.529,17.663z
		 M40.318,17.663c0,0.573-0.423,0.996-0.995,0.996c-0.603,0-1.024-0.423-1.024-0.996c0-0.572,0.422-1.025,1.024-1.025
		C39.896,16.638,40.318,17.091,40.318,17.663z"/>
</g>
<g id="bofa" display="none">
	<g display="inline">
		<path fill-rule="evenodd" clip-rule="evenodd" fill="#FFFFFF" d="M22.464,32.91c0.36-0.246,0.685-0.479,1.019-0.699
			c1.271-0.842,2.578-1.625,3.928-2.338c1.404-0.742,2.843-1.408,4.32-1.994c0.717-0.283,1.447-0.533,2.173-0.797
			c0.034-0.012,0.083-0.02,0.108-0.002c0.622,0.354,1.238,0.707,1.856,1.062c0.009,0.004,0.012,0.016,0.032,0.037
			c-0.066,0.031-0.129,0.066-0.192,0.092c-1.656,0.703-3.267,1.502-4.828,2.393c-1.573,0.9-3.098,1.879-4.553,2.963
			c-0.409,0.307-0.816,0.619-1.224,0.932c-0.066,0.049-0.111,0.068-0.191,0.016c-0.748-0.514-1.501-1.025-2.252-1.531
			C22.605,33.004,22.549,32.969,22.464,32.91z"/>
		<path fill-rule="evenodd" clip-rule="evenodd" fill="#FFFFFF" d="M19.165,31.09c0.291-0.188,0.56-0.381,0.845-0.549
			c0.836-0.494,1.671-0.992,2.523-1.459c1.206-0.658,2.445-1.246,3.729-1.738c1.04-0.4,2.088-0.771,3.144-1.135
			c0.515-0.178,1.048-0.309,1.575-0.453c0.077-0.02,0.181-0.02,0.252,0.012c0.679,0.299,1.355,0.605,2.031,0.908
			c-0.003,0.014-0.003,0.031-0.006,0.047c-0.208,0.064-0.418,0.133-0.63,0.199c-1.209,0.387-2.407,0.811-3.567,1.334
			c-1.071,0.479-2.138,0.982-3.188,1.512c-1.173,0.59-2.299,1.273-3.398,1.994c-0.278,0.18-0.551,0.369-0.832,0.547
			c-0.044,0.029-0.125,0.043-0.169,0.02c-0.751-0.391-1.5-0.789-2.252-1.191C19.21,31.131,19.199,31.119,19.165,31.09z"/>
		<path fill-rule="evenodd" clip-rule="evenodd" fill="#FFFFFF" d="M5.481,18.288c0.143,0.08,0.27,0.142,0.387,0.218
			c0.45,0.298,0.593,0.738,0.533,1.246c-0.059,0.507-0.36,0.84-0.839,0.991c-0.225,0.069-0.465,0.109-0.702,0.115
			c-0.59,0.017-1.182,0.003-1.774,0.011c-0.148,0.002-0.15-0.072-0.15-0.181c0.003-1.401,0.004-2.805,0.004-4.207
			c0-0.132,0.002-0.264-0.003-0.396c-0.003-0.09,0.034-0.12,0.122-0.119c0.645,0.003,1.291-0.008,1.935,0.007
			c0.432,0.01,0.819,0.16,1.085,0.52c0.428,0.581,0.215,1.387-0.443,1.714C5.588,18.23,5.544,18.255,5.481,18.288z M4.114,19.352
			c-0.003,0-0.006,0-0.008,0c0,0.165-0.006,0.331,0.004,0.497c0.003,0.045,0.056,0.128,0.086,0.128
			c0.199,0.003,0.403,0.009,0.598-0.029c0.275-0.048,0.423-0.26,0.433-0.561c0.008-0.327-0.121-0.557-0.4-0.619
			c-0.205-0.045-0.424-0.036-0.637-0.04c-0.024,0-0.071,0.062-0.072,0.097C4.11,19.001,4.114,19.177,4.114,19.352z M4.113,17.382
			c-0.003,0-0.004,0-0.007,0c0,0.142-0.006,0.283,0.002,0.425c0.003,0.041,0.052,0.11,0.079,0.11c0.203-0.003,0.413,0,0.61-0.038
			c0.245-0.048,0.387-0.267,0.381-0.521c-0.006-0.282-0.139-0.473-0.403-0.518c-0.185-0.031-0.378-0.026-0.569-0.023
			c-0.032,0-0.087,0.06-0.09,0.096C4.107,17.069,4.113,17.226,4.113,17.382z"/>
		<path fill-rule="evenodd" clip-rule="evenodd" fill="#FFFFFF" d="M29.426,17.771c0.283-0.223,0.556-0.394,0.896-0.427
			c0.373-0.035,0.633,0.117,0.785,0.423c0.206-0.124,0.39-0.267,0.6-0.349c0.323-0.125,0.655-0.139,0.953,0.105
			c0.166,0.14,0.235,0.33,0.238,0.531c0.008,0.9,0.003,1.799,0.005,2.699c0,0.092-0.036,0.115-0.122,0.115
			c-0.278,0-0.557,0-0.835,0.002c-0.125,0.003-0.122-0.077-0.122-0.166c0-0.679,0-1.358,0-2.037c0-0.083,0.003-0.166-0.01-0.249
			c-0.022-0.181-0.122-0.255-0.304-0.239c-0.208,0.019-0.357,0.176-0.357,0.382c0,0.713,0,1.427,0.006,2.14
			c0,0.129-0.043,0.169-0.17,0.167c-0.257-0.008-0.519-0.006-0.775,0.002c-0.109,0.003-0.144-0.034-0.141-0.146
			c0.003-0.694,0.003-1.387,0.003-2.081c0-0.034,0-0.069,0-0.103c-0.003-0.143,0-0.294-0.172-0.353
			c-0.141-0.049-0.384,0.046-0.464,0.181c-0.023,0.039-0.026,0.093-0.026,0.14c-0.003,0.724-0.003,1.447-0.003,2.169
			c0,0.055,0,0.106,0,0.184c-0.201,0-0.39,0-0.578,0c-0.112,0-0.228-0.009-0.339,0.003c-0.138,0.017-0.163-0.043-0.163-0.166
			c0.006-1.035,0.006-2.072,0-3.108c0-0.134,0.043-0.166,0.169-0.161c0.237,0.01,0.479,0.012,0.717,0
			c0.154-0.009,0.203,0.052,0.194,0.192C29.411,17.66,29.417,17.698,29.426,17.771z"/>
		<path fill-rule="evenodd" clip-rule="evenodd" fill="#FFFFFF" d="M24.128,20.863c0.08-0.344,0.152-0.668,0.229-0.988
			c0.258-1.102,0.52-2.204,0.779-3.305c0.037-0.157,0.084-0.311,0.112-0.47c0.018-0.1,0.058-0.136,0.163-0.136
			c0.456,0.005,0.908,0.005,1.364,0.001c0.089,0,0.129,0.027,0.148,0.118c0.181,0.875,0.364,1.748,0.548,2.622
			c0.14,0.669,0.28,1.337,0.421,2.004c0.009,0.043,0.018,0.083,0.028,0.146c-0.062,0.003-0.114,0.009-0.166,0.009
			c-0.289,0.003-0.576-0.002-0.865,0.006c-0.105,0.002-0.143-0.032-0.16-0.135c-0.04-0.25-0.101-0.496-0.141-0.748
			c-0.018-0.101-0.062-0.126-0.158-0.126c-0.301,0.003-0.604,0.005-0.908,0c-0.1,0-0.135,0.046-0.154,0.132
			c-0.057,0.252-0.111,0.507-0.18,0.757c-0.012,0.045-0.072,0.109-0.115,0.109C24.767,20.869,24.46,20.863,24.128,20.863z
			 M25.552,19.015c0.289,0,0.551,0,0.84,0c-0.118-0.674-0.232-1.336-0.35-2c-0.021,0.001-0.043,0.001-0.062,0.001
			C25.838,17.675,25.698,18.333,25.552,19.015z"/>
		<path fill-rule="evenodd" clip-rule="evenodd" fill="#FFFFFF" d="M17.178,29.219c0.278-0.156,0.544-0.307,0.813-0.455
			c1.5-0.822,3.047-1.543,4.641-2.17c0.133-0.053,0.252-0.066,0.39-0.006c0.527,0.23,1.057,0.455,1.587,0.682
			c0.011,0.006,0.026,0.016,0.054,0.033c-0.049,0.029-0.08,0.049-0.111,0.064c-1.257,0.518-2.493,1.078-3.688,1.727
			c-0.592,0.322-1.175,0.66-1.765,0.982c-0.041,0.023-0.105,0.045-0.141,0.025c-0.586-0.279-1.169-0.566-1.752-0.852
			C17.202,29.25,17.199,29.244,17.178,29.219z"/>
		<path fill-rule="evenodd" clip-rule="evenodd" fill="#FFFFFF" d="M13.858,15.968c0.343,0,0.679-0.001,1.014,0.006
			c0.026,0,0.069,0.07,0.072,0.11c0.007,0.199,0.002,0.4,0.002,0.6c0,0.547,0.001,1.095,0.001,1.642c0,0.039,0,0.077,0.03,0.132
			c0.057-0.067,0.116-0.132,0.172-0.201c0.192-0.239,0.377-0.486,0.577-0.72c0.047-0.054,0.136-0.097,0.206-0.1
			c0.302-0.01,0.606-0.004,0.941-0.004c-0.142,0.162-0.267,0.307-0.393,0.45c-0.137,0.158-0.275,0.318-0.418,0.47
			c-0.073,0.078-0.087,0.145-0.047,0.247c0.201,0.503,0.395,1.009,0.589,1.513c0.094,0.247,0.186,0.49,0.286,0.751
			c-0.367,0-0.712,0.003-1.059-0.005c-0.038,0-0.092-0.063-0.109-0.106c-0.156-0.416-0.307-0.834-0.458-1.252
			c-0.016-0.043-0.036-0.086-0.062-0.147c-0.142,0.139-0.273,0.248-0.262,0.463c0.017,0.3,0.001,0.604,0.005,0.908
			c0.001,0.103-0.023,0.148-0.138,0.146c-0.279-0.008-0.557-0.006-0.834-0.003c-0.089,0-0.132-0.018-0.132-0.121
			c0.004-1.57,0.003-3.139,0.003-4.707C13.847,16.024,13.852,16.01,13.858,15.968z"/>
		<path fill-rule="evenodd" clip-rule="evenodd" fill="#FFFFFF" d="M11.38,17.765c0.102-0.079,0.174-0.142,0.255-0.196
			c0.315-0.213,0.659-0.301,1.027-0.181c0.305,0.101,0.457,0.346,0.461,0.651c0.013,0.904,0.005,1.808,0.003,2.713
			c-0.001,0.037-0.047,0.109-0.073,0.109c-0.331,0.008-0.663,0.005-1.007,0.005c-0.004-0.078-0.01-0.14-0.01-0.204
			c-0.001-0.679-0.001-1.358-0.001-2.037c0-0.029,0.001-0.059,0-0.087c-0.003-0.146-0.008-0.292-0.178-0.351
			c-0.139-0.049-0.346,0.033-0.435,0.172c-0.023,0.038-0.029,0.092-0.029,0.137c-0.002,0.739-0.005,1.476,0.001,2.215
			c0,0.126-0.039,0.16-0.159,0.158c-0.27-0.008-0.538-0.006-0.807,0c-0.097,0-0.14-0.029-0.14-0.135c0.003-1.054,0.004-2.11,0-3.166
			c0-0.115,0.043-0.14,0.148-0.136c0.239,0.005,0.479,0.01,0.718-0.004c0.151-0.008,0.216,0.043,0.21,0.191
			C11.363,17.657,11.374,17.696,11.38,17.765z"/>
		<path fill-rule="evenodd" clip-rule="evenodd" fill="#FFFFFF" d="M22.049,26.209c-0.422,0.164-0.809,0.307-1.193,0.461
			c-1.158,0.461-2.286,0.986-3.38,1.582c-0.35,0.191-0.696,0.393-1.047,0.586c-0.034,0.021-0.086,0.039-0.119,0.023
			c-0.557-0.217-1.113-0.439-1.698-0.672c0.23-0.125,0.441-0.238,0.656-0.35c1.179-0.604,2.387-1.141,3.627-1.602
			c0.499-0.188,1.005-0.35,1.507-0.521c0.039-0.016,0.088-0.021,0.126-0.006C21.026,25.871,21.521,26.033,22.049,26.209z"/>
		<path fill-rule="evenodd" clip-rule="evenodd" fill="#FFFFFF" d="M17.743,19.206c0.001-0.41,0.044-0.731,0.184-1.035
			c0.223-0.486,0.603-0.773,1.133-0.837c0.71-0.086,1.344,0.189,1.632,0.901c0.119,0.292,0.17,0.596,0.152,0.903
			c-0.016,0.285-0.047,0.577-0.139,0.847c-0.218,0.633-0.702,0.951-1.374,0.954c-0.285,0-0.565-0.034-0.821-0.177
			c-0.451-0.252-0.652-0.665-0.727-1.155C17.757,19.448,17.75,19.286,17.743,19.206z M18.85,19.194
			c0.04,0.242,0.084,0.56,0.15,0.873c0.027,0.125,0.14,0.18,0.27,0.189c0.135,0.011,0.239-0.038,0.306-0.155
			c0.03-0.057,0.06-0.114,0.072-0.178c0.099-0.533,0.099-1.069,0.001-1.602c-0.041-0.219-0.181-0.328-0.358-0.325
			c-0.184,0.002-0.32,0.124-0.353,0.347C18.901,18.598,18.884,18.856,18.85,19.194z"/>
		<path fill-rule="evenodd" clip-rule="evenodd" fill="#FFFFFF" d="M6.88,18.269c0.034-0.283,0.185-0.481,0.39-0.642
			c0.489-0.381,1.467-0.385,1.964-0.012c0.242,0.184,0.369,0.426,0.371,0.729c0.003,0.655,0,1.31,0.004,1.966
			c0.003,0.18,0.027,0.358,0.043,0.547c-0.345,0-0.708,0-1.073,0c-0.018-0.092-0.033-0.178-0.052-0.281
			c-0.111,0.075-0.208,0.146-0.311,0.207c-0.354,0.2-0.723,0.223-1.071,0.008C6.565,20.434,6.58,19.537,7.16,19.12
			c0.355-0.255,0.765-0.362,1.189-0.417c0.126-0.016,0.175-0.06,0.162-0.184c-0.007-0.067,0.001-0.138-0.007-0.205
			c-0.017-0.139-0.07-0.255-0.223-0.292c-0.141-0.034-0.289,0.021-0.367,0.152c-0.049,0.082-0.075,0.177-0.119,0.286
			C7.498,18.399,7.194,18.335,6.88,18.269z M8.508,19.643c0.001,0,0.001,0,0.001,0c0-0.106-0.003-0.215,0-0.32
			c0.002-0.091-0.034-0.118-0.123-0.113c-0.359,0.027-0.604,0.29-0.595,0.651c0.005,0.229,0.128,0.364,0.331,0.364
			c0.223,0.003,0.384-0.154,0.385-0.375C8.509,19.78,8.508,19.711,8.508,19.643z"/>
		<path fill-rule="evenodd" clip-rule="evenodd" fill="#FFFFFF" d="M47.221,20.872c-0.313,0-0.641-0.002-0.967,0
			c-0.081,0-0.116-0.037-0.125-0.111c-0.005-0.058-0.014-0.112-0.024-0.189c-0.117,0.078-0.213,0.149-0.315,0.209
			c-0.357,0.218-0.854,0.203-1.149-0.028c-0.484-0.387-0.481-1.169,0.003-1.564c0.37-0.302,0.809-0.425,1.269-0.483
			c0.139-0.019,0.196-0.061,0.177-0.199c-0.01-0.068-0.008-0.138-0.021-0.204c-0.027-0.171-0.117-0.266-0.251-0.283
			c-0.163-0.021-0.302,0.057-0.376,0.218c-0.032,0.072-0.046,0.182-0.101,0.206c-0.062,0.028-0.157-0.014-0.24-0.031
			c-0.176-0.037-0.353-0.082-0.53-0.113c-0.108-0.021-0.133-0.067-0.095-0.172c0.144-0.396,0.438-0.611,0.828-0.717
			c0.407-0.112,0.811-0.099,1.206,0.051c0.462,0.172,0.662,0.47,0.662,0.961c0,0.626-0.003,1.25,0,1.878
			C47.172,20.482,47.204,20.666,47.221,20.872z M46.083,19.617L46.083,19.617c0-0.103-0.003-0.203,0-0.307
			c0-0.073-0.027-0.109-0.104-0.101c-0.481,0.055-0.683,0.365-0.585,0.803c0.017,0.077,0.114,0.157,0.191,0.194
			c0.179,0.083,0.544-0.106,0.503-0.355C46.072,19.774,46.083,19.694,46.083,19.617z"/>
		<path fill-rule="evenodd" clip-rule="evenodd" fill="#FFFFFF" d="M35.614,19.76c0.244,0.086,0.473,0.163,0.717,0.25
			c-0.098,0.294-0.281,0.519-0.527,0.685c-0.659,0.45-1.945,0.361-2.29-0.837c-0.191-0.675-0.162-1.335,0.235-1.941
			c0.533-0.81,1.989-0.858,2.444,0.209c0.157,0.37,0.201,0.752,0.197,1.145c-0.003,0.12-0.083,0.103-0.154,0.103
			c-0.508,0-1.015,0-1.524,0c-0.224,0-0.231,0.009-0.2,0.235c0.014,0.086,0.037,0.171,0.065,0.255
			c0.069,0.207,0.201,0.347,0.43,0.361c0.232,0.015,0.444-0.115,0.545-0.323C35.572,19.86,35.589,19.82,35.614,19.76z M34.95,18.733
			c0,0,0,0,0,0.001c0.108,0,0.215,0.008,0.32-0.006c0.04-0.004,0.105-0.065,0.104-0.096c-0.018-0.143-0.035-0.291-0.086-0.424
			c-0.052-0.143-0.178-0.212-0.336-0.213c-0.151,0-0.271,0.075-0.329,0.205c-0.058,0.13-0.083,0.276-0.114,0.417
			c-0.018,0.079,0.022,0.117,0.105,0.116C34.727,18.731,34.838,18.733,34.95,18.733z"/>
		<path fill-rule="evenodd" clip-rule="evenodd" fill="#FFFFFF" d="M23.303,16.71c-0.155,0.012-0.281,0.012-0.404,0.035
			c-0.122,0.022-0.196,0.11-0.208,0.235c-0.01,0.116-0.015,0.235-0.004,0.351c0.004,0.037,0.062,0.094,0.1,0.097
			c0.13,0.013,0.264,0.009,0.396,0.006c0.086-0.002,0.126,0.029,0.122,0.118c-0.005,0.171-0.008,0.342-0.004,0.513
			c0.002,0.084-0.031,0.116-0.111,0.115c-0.112-0.003-0.225,0.007-0.336-0.006c-0.136-0.015-0.179,0.035-0.178,0.169
			c0.004,0.772,0.001,1.544,0.001,2.315c0,0.207-0.001,0.207-0.21,0.207c-0.224,0.003-0.448,0.003-0.673,0.003
			c-0.196,0.003-0.196,0.003-0.196-0.189c-0.001-0.776-0.004-1.553,0.001-2.33c0.001-0.145-0.046-0.182-0.184-0.181
			c-0.293,0.005-0.268,0.032-0.268-0.265c-0.001-0.116,0.003-0.234-0.001-0.351c-0.004-0.09,0.035-0.116,0.121-0.119
			c0.33-0.014,0.315-0.018,0.335-0.349c0.013-0.23,0.037-0.471,0.117-0.685c0.143-0.387,0.485-0.516,0.867-0.534
			c0.199-0.008,0.399,0.008,0.599,0.026c0.042,0.004,0.113,0.061,0.115,0.097C23.309,16.23,23.303,16.474,23.303,16.71z"/>
		<path fill-rule="evenodd" clip-rule="evenodd" fill="#FFFFFF" d="M43.926,19.674c0.021,0.467-0.283,1.023-0.795,1.178
			c-0.465,0.14-0.926,0.138-1.351-0.143c-0.406-0.267-0.607-0.665-0.693-1.126c-0.106-0.553-0.006-1.08,0.287-1.562
			c0.4-0.663,1.24-0.896,1.934-0.547c0.4,0.202,0.697,0.738,0.656,1.21c-0.277,0-0.559,0.003-0.843-0.004
			c-0.025-0.001-0.063-0.068-0.074-0.11c-0.035-0.125-0.049-0.257-0.093-0.379c-0.047-0.132-0.159-0.196-0.3-0.195
			c-0.138,0-0.25,0.072-0.297,0.199c-0.052,0.146-0.101,0.298-0.113,0.45c-0.034,0.414-0.048,0.83,0.046,1.239
			c0.055,0.226,0.179,0.341,0.376,0.341c0.209,0,0.355-0.126,0.4-0.352c0.021-0.095,0.032-0.192,0.049-0.307
			C43.388,19.603,43.651,19.637,43.926,19.674z"/>
		<path fill-rule="evenodd" clip-rule="evenodd" fill="#FFFFFF" d="M27.079,26.414c-0.441,0.162-0.857,0.287-1.252,0.463
			c-0.272,0.119-0.488,0.08-0.742-0.041c-1.305-0.625-2.655-1.137-4.027-1.591c-0.221-0.072-0.444-0.139-0.71-0.221
			c0.257-0.088,0.47-0.16,0.686-0.227c0.325-0.104,0.652-0.203,0.98-0.299c0.062-0.018,0.138-0.018,0.198,0
			c1.634,0.508,3.224,1.125,4.771,1.859C27.005,26.369,27.027,26.387,27.079,26.414z"/>
		<path fill-rule="evenodd" clip-rule="evenodd" fill="#FFFFFF" d="M29.675,25.646c-0.178,0.049-0.355,0.096-0.533,0.146
			c-0.332,0.098-0.664,0.201-1,0.293c-0.065,0.018-0.157,0.012-0.221-0.018c-1.521-0.712-3.091-1.312-4.701-1.792
			c-0.046-0.016-0.09-0.031-0.138-0.078c0.262-0.062,0.525-0.125,0.791-0.189c0.108-0.021,0.224-0.033,0.327-0.068
			c0.322-0.109,0.627-0.051,0.944,0.043c1.142,0.342,2.272,0.713,3.381,1.154c0.385,0.154,0.766,0.316,1.149,0.472
			C29.675,25.623,29.675,25.637,29.675,25.646z"/>
		<path fill-rule="evenodd" clip-rule="evenodd" fill="#FFFFFF" d="M37.963,20.863c-0.343,0-0.673,0.003-1.005-0.005
			c-0.025,0-0.071-0.081-0.074-0.124c-0.005-0.373,0-0.745-0.002-1.115c0-0.676,0.002-1.351-0.003-2.024
			c-0.003-0.133,0.036-0.168,0.166-0.165c0.292,0.008,0.583,0.002,0.898,0.002c0,0.144,0,0.277,0,0.41
			c0.009,0.007,0.02,0.014,0.032,0.021c0.266-0.341,0.61-0.519,1.058-0.521c0,0.362,0,0.709,0,1.047
			c-0.24,0-0.477-0.027-0.703,0.007c-0.269,0.04-0.354,0.179-0.354,0.447c0,0.606,0,1.213,0,1.818
			C37.976,20.726,37.969,20.789,37.963,20.863z"/>
		<path fill-rule="evenodd" clip-rule="evenodd" fill="#FFFFFF" d="M39.444,17.442c0.362,0,0.717,0,1.081,0
			c0.003,0.056,0.006,0.103,0.006,0.152c0.002,1.04,0,2.08,0.002,3.12c0,0.109-0.02,0.158-0.142,0.155c-0.275-0.008-0.548,0-0.82,0
			c-0.078,0-0.144-0.003-0.141-0.115c0.003-1.083,0.003-2.167,0.003-3.252C39.434,17.488,39.439,17.474,39.444,17.442z"/>
		<path fill-rule="evenodd" clip-rule="evenodd" fill="#FFFFFF" d="M40.533,15.969c0,0.308,0.003,0.592-0.005,0.874
			c0,0.031-0.063,0.087-0.098,0.089c-0.298,0.01-0.595,0.01-0.894,0.015c-0.083,0.002-0.109-0.033-0.106-0.115
			c0.003-0.249-0.003-0.499,0.003-0.748c0.003-0.039,0.046-0.109,0.072-0.11C39.841,15.966,40.176,15.969,40.533,15.969z"/>
	</g>
</g>
<g id="disney" display="none">
	<g display="inline">
		<g>
			<path fill="#FFFFFF" d="M22.819,23.596c-0.666-0.014-0.588,3.729-0.526,4.476c0.064,0.743,0.195,0.907,0.718,0.972
				c0.522,0.063,0.62-0.799,0.571-1.16C23.533,27.516,23.8,23.609,22.819,23.596"/>
			<path fill="#FFFFFF" d="M27.102,24.67c1.184-0.082,2.488-0.129,2.492-0.809c0.006-0.564-3.385-0.685-4.672,0.072
				c-1.072,0.633-1.452,1.856,0.131,2.129c1.043,0.181,3.491,0.034,3.477,0.765c-0.014,1.1-4.329,1.304-3.625,0.342
				c0.486-0.655,1.017,0.333,2.167,0.262c0.555-0.033,1.779-0.717-0.104-1.037c-1.88-0.326-2.408,0.235-2.596,0.661
				c-0.216,0.502,0.376,2.038,2.84,1.919c2.088-0.102,2.387-1.589,2.295-2.217c-0.293-2.013-4.304-1.081-4.272-1.737
				C25.248,24.868,26.131,24.735,27.102,24.67"/>
			<path fill="#FFFFFF" d="M32.717,22.604c-0.619,0.095,1.053,3.972,0.43,4.184c-0.334,0.112-1.557-3.007-2.447-2.913
				c-0.738,0.077-1.596,4.976-0.367,5.056c0.92,0.058,0.48-3.049,0.863-3.062c0.281-0.013,1.102,2.585,2.029,2.691
				c0.762,0.086,1.264-0.731,1.301-2.015C34.564,25.121,33.469,22.491,32.717,22.604"/>
			<path fill="#FFFFFF" d="M37.869,27.248c-0.436,0.084-1.371,0.364-1.635,0.309c-0.219-0.053-0.055-0.932,0.189-1.013
				c0.244-0.082,1.074-0.024,1.42-0.088c0.721-0.139,0.766-0.934,0.133-0.972c-0.633-0.04-0.945,0.095-1.201,0.007
				c-0.092-0.259,0.102-0.598,0.273-0.687c0.17-0.087,1.902-0.041,2.201-0.314c0.207-0.188-0.156-0.997-0.648-1.062
				c-0.49-0.064-3.166,0.208-3.418,0.336c-0.252,0.12-0.389,0.377-0.17,0.545c0.221,0.163,0.641,0.295,0.748,0.499
				c-0.047,0.144-0.148,0.6-0.312,0.714c-0.164,0.113-0.621,0.144-0.451,0.657c0.168,0.515-1.043,2.059,0.414,2.954
				c0.752,0.466,2.352-0.496,2.803-0.773C38.666,28.086,38.775,27.079,37.869,27.248"/>
			<path fill="#FFFFFF" d="M41.762,27.541c0.182-0.714,1.559-2.727,1.832-2.624C44.387,25.222,43.293,27.657,41.762,27.541
				 M43.541,23.743c-0.961-0.141-3.072,2.93-3.225,2.835c-0.289-0.18,0.557-1.822,0.906-2.34c0.51-0.756,0.182-2.03-1.398,0.704
				c-0.334,0.569-0.904,1.533-0.26,3.075c-0.324,0.724-1.312,3.455-1.072,4.182c0.238,0.729,0.82,1.03,1.152,0.886
				c0.064-0.316,0.822-3.577,1.277-3.954c0.889,0.036,2.609-0.571,3.342-2C44.996,25.703,44.646,23.906,43.541,23.743z"/>
			<path fill="#FFFFFF" d="M11.854,27.989c-0.327,0.157-3.153-1.367-3.177-2.032c-0.016-0.53,3.046-0.994,3.164-0.861
				C11.964,25.229,11.946,27.944,11.854,27.989 M9.584,17.546c-3.313,0.115-3.93,1.148-3.649,1.736
				c0.169,0.36,1.168,0.322,1.216,0.017c0.043-0.301-0.433-0.282-0.423-0.437c0.019-0.291,2.497-0.401,4.762,0.023
				c4.989,0.933,8.649,4.217,8.681,6.623c0.056,3.751-6.238,3.416-6.783,2.873c-0.023-0.217,0.024-3.049,0.017-3.348
				c0.553-0.105,3.464,0.042,3.501,0.652c0.045,0.712-0.596,0.575-0.571,0.831c0.058,0.608,1.858,0.125,1.777-1.035
				c-0.12-1.769-4.132-1.833-4.748-1.841c-0.011-0.368,0.051-2.702-0.821-2.695c-0.699,0.003-0.683,2.104-0.693,2.814
				c-1.098,0.067-3.775,1.007-3.66,1.968c0.163,1.379,2.432,2.863,3.666,3.495c-0.002,1.908,1.554,1.502,1.576,0.559
				c6.931,0.966,8.341-2.652,8.317-4.199C21.68,20.543,13.177,17.422,9.584,17.546z"/>
			<path fill="#FFFFFF" d="M25.407,19.926c0.763,0.794-1.591,2.012-2.483,1.703C22.981,21.1,24.779,19.272,25.407,19.926
				 M21.808,20.927c-0.148-0.068,0.376-1.03,0.992-1.077C22.532,20.451,21.902,20.968,21.808,20.927z M25.905,21.126
				c0.89-1.053,0.298-1.87-0.35-1.98c-0.238-0.024-0.607-0.839-1.938-0.587c-1.331,0.25-2.824,1.59-2.71,2.426
				c0.119,0.869,0.254,0.638,0.34,1.077c0.087,0.439,0.007,0.888,0.402,0.936c0.396,0.052,0.518-0.34,0.518-0.34
				C23.03,22.709,24.312,23.011,25.905,21.126z"/>
		</g>
	</g>
</g>
<g id="ogilvy" display="none">
	<g display="inline">
		<path fill-rule="evenodd" clip-rule="evenodd" fill="#FFFFFF" d="M11.29,28.602c-2.127-0.006-3.699-0.688-4.82-2.243
			c-0.96-1.33-1.197-2.834-0.821-4.413c0.563-2.362,2.153-3.701,4.474-4.088c1.866-0.312,3.611,0.124,4.99,1.523
			c1.265,1.285,1.709,2.861,1.443,4.627c-0.303,2.016-1.435,3.405-3.307,4.185C12.554,28.481,11.82,28.64,11.29,28.602z
			 M14.408,22.883c0.021-0.721-0.167-1.729-0.666-2.665c-0.563-1.054-1.396-1.77-2.638-1.795c-1.211-0.026-2.058,0.625-2.649,1.646
			c-0.552,0.952-0.737,1.994-0.744,3.079c-0.009,1.289,0.239,2.506,1.021,3.57c1.219,1.662,3.443,1.604,4.585,0.112
			C14.137,25.758,14.405,24.529,14.408,22.883z"/>
		<path fill-rule="evenodd" clip-rule="evenodd" fill="#FFFFFF" d="M18.475,26.293c-0.184-0.155-0.379-0.288-0.533-0.457
			c-1.149-1.249-0.73-3.154,0.85-3.846c0.688-0.3,1.291-0.498,2.785-0.112c0.076-0.429,0.098-0.878,0.238-1.284
			c0.417-1.187,1.641-1.885,3.034-1.795c0.624,0.041,1.21,0.158,1.585,0.73c0.226,0.341,0.201,0.835-0.058,1.17
			c-0.219,0.286-0.663,0.401-1.072,0.279c-0.325-0.095-0.581-0.483-0.588-0.895c-0.01-0.46-0.163-0.58-0.65-0.509
			c-1.076,0.158-1.702,0.975-1.668,2.175c0.011,0.402,0.105,0.756,0.363,1.092c0.711,0.928,0.457,2.457-0.488,3.17
			c-0.631,0.476-1.347,0.675-2.128,0.71c-0.545,0.028-1.087,0.095-1.63,0.149c-0.082,0.009-0.162,0.044-0.239,0.076
			c-0.406,0.175-0.594,0.486-0.504,0.839c0.068,0.268,0.388,0.461,0.787,0.417c0.813-0.088,1.626-0.232,2.443-0.298
			c0.502-0.041,1.034-0.065,1.516,0.054c1.102,0.271,1.419,1.231,1.24,2.177c-0.274,1.444-1.574,2.487-3.053,2.535
			c-0.692,0.023-1.386,0.044-2.046-0.226c-0.692-0.28-1.211-0.718-1.297-1.514c-0.03-0.288,0.033-0.58,0.305-0.712
			c0.173-0.083,0.417-0.103,0.602-0.054c0.271,0.074,0.347,0.329,0.356,0.598c0.027,0.905,0.374,1.229,1.293,1.259
			c0.752,0.024,1.479-0.023,2.099-0.521c0.415-0.332,0.642-0.755,0.621-1.3c-0.017-0.428-0.274-0.745-0.703-0.747
			c-0.559-0.003-1.116,0.053-1.674,0.092c-0.769,0.055-1.521,0.306-2.304,0.12c-0.691-0.164-1.197-0.656-1.27-1.281
			c-0.094-0.808,0.25-1.485,0.939-1.797C17.892,26.469,18.178,26.395,18.475,26.293z M21.573,24.198
			c-0.083-0.61-0.21-1.16-0.594-1.619c-0.459-0.543-1.167-0.504-1.58,0.073c-0.552,0.767-0.569,2.195-0.038,2.977
			c0.502,0.74,1.416,0.716,1.807-0.086C21.37,25.128,21.442,24.648,21.573,24.198z"/>
		<path fill-rule="evenodd" clip-rule="evenodd" fill="#FFFFFF" d="M35.03,26.58c0.164-0.4,0.335-0.799,0.49-1.202
			c0.298-0.774,0.589-1.551,0.878-2.326c0.17-0.454,0.106-0.574-0.382-0.632c-0.315-0.038-0.405-0.188-0.305-0.498
			c1.743,0,3.492,0,5.241,0c0.127,0.343-0.015,0.463-0.33,0.5c-0.408,0.047-0.517,0.175-0.396,0.495
			c0.433,1.143,0.888,2.276,1.335,3.413c0.012,0.031,0.037,0.055,0.097,0.139c0.226-0.534,0.437-1.027,0.642-1.523
			c0.256-0.614,0.513-1.229,0.761-1.846c0.199-0.492,0.14-0.585-0.375-0.693c-0.156-0.033-0.365-0.044-0.32-0.289
			c0.017-0.079,0.11-0.202,0.172-0.202c0.788-0.015,1.571-0.009,2.377-0.009c0,0.16,0,0.285,0,0.455
			c-0.953-0.015-1.054,0.803-1.322,1.417c-0.995,2.285-1.95,4.59-2.933,6.88c-0.31,0.727-0.679,1.421-1.405,1.837
			c-0.34,0.196-0.699,0.232-1.066,0.107c-0.312-0.106-0.526-0.421-0.481-0.675c0.062-0.341,0.353-0.609,0.687-0.626
			c0.072-0.005,0.146-0.013,0.216,0.002c0.699,0.131,1.102-0.224,1.355-0.826c0.244-0.58,0.496-1.157,0.73-1.74
			c0.038-0.097,0.034-0.234-0.007-0.331c-0.767-1.894-1.548-3.783-2.319-5.675c-0.101-0.244-0.272-0.328-0.527-0.332
			c-0.271-0.006-0.412,0.124-0.506,0.358c-0.714,1.762-1.456,3.511-2.135,5.287c-0.205,0.536-0.574,0.349-0.919,0.398
			c-0.339,0.051-0.378-0.191-0.466-0.413c-0.701-1.729-1.398-3.457-2.12-5.177c-0.072-0.174-0.277-0.388-0.441-0.406
			c-0.373-0.042-0.345-0.241-0.301-0.518c0.09-0.009,0.182-0.025,0.272-0.025c0.921-0.002,1.84-0.008,2.76,0.006
			c0.109,0.001,0.283,0.086,0.311,0.17c0.065,0.203-0.097,0.291-0.277,0.327c-0.047,0.008-0.097,0.004-0.142,0.012
			c-0.371,0.058-0.466,0.185-0.336,0.529c0.293,0.793,0.603,1.577,0.904,2.366c0.162,0.417,0.322,0.835,0.483,1.253
			C34.963,26.572,34.998,26.576,35.03,26.58z"/>
		<path fill-rule="evenodd" clip-rule="evenodd" fill="#FFFFFF" d="M26.575,21.661c0,0.19,0,0.341,0,0.493
			c0,1.768,0.008,3.534-0.006,5.302c-0.004,0.353,0.151,0.471,0.463,0.471c0.371,0,0.743-0.002,1.112-0.004
			c0.299-0.002,0.451-0.118,0.448-0.453c-0.01-2.854-0.01-5.71,0-8.563c0-0.265-0.09-0.403-0.34-0.454
			c-0.058-0.011-0.123-0.021-0.17-0.052c-0.142-0.097-0.277-0.203-0.415-0.306c0.14-0.083,0.273-0.201,0.427-0.243
			c0.64-0.177,1.288-0.33,1.932-0.491c0.08-0.02,0.162-0.022,0.287-0.041c0,0.166,0,0.306,0,0.446c0,3.188,0,6.378,0,9.566
			c0,0.531,0.035,0.59,0.554,0.592c0.365,0.001,0.427,0.167,0.349,0.493c-2.372,0-4.753,0-7.141,0c0-0.157,0-0.295,0-0.422
			c0.04-0.024,0.06-0.044,0.079-0.047c0.692-0.069,0.693-0.069,0.694-0.762c0.003-1.267-0.011-2.532,0.01-3.798
			c0.005-0.348-0.102-0.544-0.441-0.61c-0.093-0.02-0.194-0.035-0.271-0.085c-0.087-0.059-0.149-0.154-0.223-0.235
			c0.075-0.066,0.141-0.172,0.228-0.197c0.676-0.189,1.354-0.365,2.032-0.542C26.294,21.691,26.411,21.685,26.575,21.661z"/>
	</g>
</g>
<g id="ey">
	<g>
		<path fill-rule="evenodd" clip-rule="evenodd" fill="#FFFFFF" d="M9.643,38.067c0.005-0.084,0.016-0.169,0.016-0.253
			C9.66,34.232,9.66,30.65,9.66,27.068c0-0.242,0-0.242,0.24-0.242c1.972,0,3.944,0.001,5.917-0.003
			c0.134,0,0.216,0.036,0.286,0.157c0.44,0.777,0.889,1.551,1.334,2.326c0.007,0.014,0.006,0.031,0.013,0.067
			c-1.483,0-2.958,0-4.457,0c0,0.135,0,0.251,0,0.368c0,0.437,0,0.873,0,1.31c0,0.229,0.001,0.229,0.237,0.229
			c1.202,0,2.403,0,3.604,0c0.24,0,0.24,0,0.24,0.23c0,0.624-0.004,1.247,0.003,1.871c0.002,0.161-0.046,0.216-0.212,0.215
			c-1.224-0.006-2.448,0-3.672-0.006c-0.151-0.001-0.207,0.035-0.204,0.197c0.01,0.504,0.01,1.008,0,1.513
			c-0.003,0.159,0.048,0.201,0.202,0.2c1.734-0.005,3.469-0.003,5.203-0.003c0.22,0,0.216,0.001,0.217,0.223
			c0.002,0.782,0.007,1.563,0.011,2.346C15.629,38.067,12.636,38.067,9.643,38.067z"/>
		<path fill-rule="evenodd" clip-rule="evenodd" fill="#FFFFFF" d="M21.037,38.067c0.006-0.073,0.016-0.146,0.016-0.22
			c0.001-1.325-0.002-2.651,0.004-3.977c0.001-0.185-0.045-0.34-0.136-0.496c-0.933-1.609-1.863-3.221-2.792-4.832
			c-0.324-0.561-0.646-1.121-0.982-1.703c0.064-0.006,0.111-0.014,0.158-0.014c1.111-0.001,2.222,0.002,3.332-0.003
			c0.127-0.001,0.191,0.046,0.248,0.154c0.483,0.935,0.973,1.866,1.459,2.799c0.122,0.233,0.24,0.469,0.38,0.741
			c0.068-0.111,0.119-0.184,0.159-0.261c0.563-1.084,1.127-2.168,1.686-3.254c0.068-0.132,0.152-0.183,0.305-0.181
			c1.06,0.007,2.119,0.004,3.18,0.004c0.061,0,0.121,0,0.225,0c-0.146,0.262-0.271,0.492-0.403,0.72
			c-1.013,1.753-2.026,3.506-3.039,5.259c-0.074,0.127-0.138,0.262-0.225,0.379c-0.21,0.282-0.262,0.594-0.258,0.941
			c0.014,1.234,0.005,2.47,0.006,3.706c0,0.079,0.009,0.157,0.013,0.236C23.26,38.067,22.148,38.067,21.037,38.067z"/>
	</g>
	<polygon fill-rule="evenodd" clip-rule="evenodd" fill="#FFFFFF" points="9.405,23.378 40.596,12.013 40.596,17.696 	"/>
</g>
<g id="tiaa" display="none">
	<path display="inline" fill="#FFFFFF" d="M10.162,18.446c-1.218,0.707-2.402,1.434-1.756,3.401c1.434,0,2.94,0,4.613,0
		c0,1.741,0,3.259,0,4.773c1.921-0.026,2.992-0.563,3.055-1.854c0.104-2.1-0.093-4.214-0.164-6.321
		C13.994,18.446,12.078,18.446,10.162,18.446z"/>
	<path display="inline" fill="#FFFFFF" d="M7.705,19.5c-0.998,1.045-1.825,1.912-2.652,2.778c0,2.447,0,4.896,0,7.345
		c1.694,0.018,3.523,0.125,5.077,0.088c2.211-0.053,3.561-0.77,4.776-2.65c-2.503,0-4.845,0-7.202,0
		C7.705,24.536,7.705,22.163,7.705,19.5z"/>
	<path display="inline" fill="#FFFFFF" d="M40.146,24.81l0.822-1.981C40.705,23.461,40.442,24.094,40.146,24.81z"/>
	<path display="inline" fill="none" d="M40.968,22.828c-0.263,0.633-0.525,1.266-0.822,1.981c0.628,0,1.165,0,1.785,0
		c-0.292-0.708-0.557-1.352-0.821-1.996C41.062,22.818,41.015,22.823,40.968,22.828z"/>
	<path display="inline" fill="#FFFFFF" d="M37.025,28.358c0.006-0.013,0.01-0.019,0.016-0.031c-0.01,0-0.02,0-0.029,0
		C37.017,28.339,37.02,28.347,37.025,28.358z"/>
	<path display="inline" fill="#FFFFFF" d="M44.818,27.818c-1.069-2.547-2.142-5.092-3.206-7.64c-0.11-0.264-0.188-0.496-0.556-0.497
		c-0.375-0.002-0.446,0.244-0.555,0.501c-1.062,2.53-2.127,5.058-3.193,7.585c-0.033,0.079-0.071,0.159-0.116,0.251
		c-0.013,0.025-0.031,0.062-0.044,0.09c-0.033,0.065-0.066,0.133-0.107,0.218c0.24,0.002,0.48,0.005,0.721,0.005
		c0.924,0,0.924,0,1.282-0.867c0.513-1.238,0.513-1.242,1.877-1.236c0.515,0.002,1.146-0.155,1.512,0.084
		c0.363,0.238,0.461,0.884,0.674,1.351c0.061,0.134,0.095,0.288,0.185,0.399c0.089,0.111,0.228,0.246,0.353,0.256
		c0.435,0.031,0.874,0.012,1.373,0.012C44.934,28.115,44.88,27.965,44.818,27.818z M40.146,24.81
		c0.297-0.716,0.56-1.349,0.822-1.981c0.047-0.005,0.094-0.01,0.142-0.015c0.265,0.644,0.529,1.288,0.821,1.996
		C41.311,24.81,40.773,24.81,40.146,24.81z"/>
	<path display="inline" fill="#FFFFFF" d="M32.141,24.81l0.822-1.981C32.7,23.461,32.438,24.094,32.141,24.81z"/>
	<path display="inline" fill="none" d="M32.963,22.828c-0.263,0.633-0.525,1.266-0.822,1.981c0.628,0,1.165,0,1.785,0
		c-0.292-0.708-0.557-1.352-0.821-1.996C33.057,22.818,33.01,22.823,32.963,22.828z"/>
	<path display="inline" fill="#FFFFFF" d="M29.021,28.358c0.006-0.013,0.01-0.019,0.016-0.031c-0.01,0-0.02,0-0.029,0
		C29.012,28.339,29.015,28.347,29.021,28.358z"/>
	<path display="inline" fill="#FFFFFF" d="M36.813,27.818c-1.069-2.547-2.142-5.092-3.206-7.64c-0.11-0.264-0.188-0.496-0.556-0.497
		c-0.375-0.002-0.446,0.244-0.555,0.501c-1.062,2.53-2.127,5.058-3.193,7.585c-0.033,0.079-0.071,0.159-0.116,0.251
		c-0.013,0.025-0.031,0.062-0.044,0.09c-0.033,0.065-0.066,0.133-0.107,0.218c0.24,0.002,0.48,0.005,0.721,0.005
		c0.924,0,0.924,0,1.282-0.867c0.513-1.238,0.513-1.242,1.877-1.236c0.515,0.002,1.146-0.155,1.512,0.084
		c0.363,0.238,0.461,0.884,0.674,1.351c0.061,0.134,0.095,0.288,0.185,0.399c0.089,0.111,0.228,0.246,0.353,0.256
		c0.435,0.031,0.874,0.012,1.373,0.012C36.929,28.115,36.875,27.965,36.813,27.818z M32.141,24.81
		c0.297-0.716,0.56-1.349,0.822-1.981c0.047-0.005,0.094-0.01,0.142-0.015c0.265,0.644,0.529,1.288,0.821,1.996
		C33.306,24.81,32.769,24.81,32.141,24.81z"/>
	<path display="inline" fill="#FFFFFF" d="M25.702,19.819c-2.028-0.021-4.057-0.021-6.085-0.003
		c-0.126,0.001-0.344,0.171-0.359,0.284c-0.047,0.356-0.017,0.724-0.017,1.153c0.885,0,1.703,0,2.588,0c0,2.397,0,4.727,0,7.041
		c0.56,0,1.05,0,1.596,0c0-2.353,0-4.667,0-7.041c0.896,0,1.734,0,2.639,0c0-0.429,0.034-0.766-0.017-1.088
		C26.025,20.029,25.824,19.82,25.702,19.819z"/>
	<path display="inline" fill="#FFFFFF" d="M27.035,19.866c-0.088,0.01-0.187,0.395-0.188,0.608
		c-0.014,2.174-0.009,4.348-0.009,6.522c0,1.449,0,1.449,1.508,1.296c0.027-0.069,0.052-0.103,0.052-0.136
		c0.007-2.652,0.012-5.305,0.013-7.958c0-0.104-0.042-0.295-0.076-0.298C27.901,19.863,27.462,19.817,27.035,19.866z"/>
	<rect x="26.837" y="19.866" fill="#FFFFFF" width="1.573" height="8.5"/>
</g>
</svg>
