<?xml version="1.0" encoding="utf-8"?>
<!-- Generator: Adobe Illustrator 24.1.2, SVG Export Plug-In . SVG Version: 6.00 Build 0)  -->
<svg version="1.1" id="Layer_1" xmlns="http://www.w3.org/2000/svg" xmlns:xlink="http://www.w3.org/1999/xlink" x="0px" y="0px"
	 viewBox="0 0 25 25" style="enable-background:new 0 0 25 25;" xml:space="preserve">
<style type="text/css">
	.st0{fill:#AB07E8;}
	.st1{fill:none;stroke:#FFFFFF;stroke-width:0.5;stroke-miterlimit:10;}
	.st2{fill:#FFFFFF;}
	.st3{fill:none;}
</style>
<circle class="st0" cx="12.2" cy="12.5" r="6.9"/>
<line class="st1" x1="8.6" y1="9.5" x2="14" y2="9.5"/>
<g>
	<path class="st1" d="M14,15.9c0,0.6-0.4,1-1,1H9.6c-0.6,0-1-0.5-1-1V8.7c0-0.6,0.4-1,1-1H13c0.6,0,1,0.4,1,1V15.9z"/>
</g>
<g>
	<path class="st0" d="M16,12.2c0,0.5-0.4,1-1,1h-2.4c-0.5,0-1-0.5-1-1V9.5c0-0.5,0.5-1,1-1H15c0.6,0,1,0.5,1,1V12.2z"/>
	<path class="st1" d="M16,12.2c0,0.5-0.4,1-1,1h-2.4c-0.5,0-1-0.5-1-1V9.5c0-0.5,0.5-1,1-1H15c0.6,0,1,0.5,1,1V12.2z"/>
</g>
<path class="st2" d="M15.2,9.2"/>
<g>
	<path class="st3" d="M13.2,10.9C13.2,10.9,13.2,10.9,13.2,10.9c-0.5,0.5-1,1-1.5,1.5c0,0,0,0.1-0.1,0.2c0.9,0,1.9,0,2.8,0
		C14,12,13.6,11.4,13.2,10.9z"/>
	<path class="st2" d="M11.7,12.7c0.5-0.5,1-1,1.5-1.5c0,0,0,0,0,0c0.8,1.1,1.6,2,1.6,2c-0.8,0.3-2,0-3.1-0.3l0.6,0.4l2.9,0.1
		l0.7-0.4c-0.2,0-0.3,0.3-0.5,0.3c0,0-0.2-0.3-0.2-0.3c-0.2-0.3-0.5-0.6-0.7-1c0.2-0.2,0.4-0.4,0.6-0.6c0.2,0.3,0.5,0.5,0.7,0.8
		c0.1,0.1,0.1,0.2,0.1,0.3v-1.1c-0.2-0.2-0.3-0.3-0.4-0.5c0,0-0.1-0.1-0.1-0.1c-0.2-0.2-0.3-0.2-0.5,0c-0.2,0.2-0.4,0.4-0.7,0.6
		c0,0,0,0-0.1,0.1c0-0.1-0.1-0.1-0.1-0.2c-0.2-0.2-0.3-0.4-0.5-0.7c-0.1-0.2-0.4-0.2-0.5,0c-0.4,0.4-0.8,0.8-1.2,1.3
		c0,0,0,0.1-0.1,0.1c0-0.6,0-1.2,0-1.8h0v2.8C11.7,12.7,11.7,12.7,11.7,12.7z"/>
	<path class="st2" d="M14.2,8.5L14.2,8.5C14.2,8.5,14.2,8.5,14.2,8.5C14.2,8.5,14.2,8.5,14.2,8.5z"/>
</g>
<line class="st1" x1="8.6" y1="14.8" x2="14" y2="14.8"/>
<line class="st1" x1="10.6" y1="15.8" x2="12" y2="15.8"/>
</svg>
