<svg id="Layer_1" data-name="Layer 1" xmlns="http://www.w3.org/2000/svg" viewBox="0 0 30 30"><defs><style>.cls-1{fill:#fff;}.cls-2{fill:none;}</style></defs><g id="G9cBWu.tif"><path class="cls-1" d="M7,19.48v-10l0-.14A2.76,2.76,0,0,1,8.87,7.17,4.77,4.77,0,0,1,9.52,7h10l.09,0a2.81,2.81,0,0,1,2.35,2.11c0,.12,0,.25.08.38v10l0,.12a2.77,2.77,0,0,1-2.06,2.3l-.43.1h-10l-.11,0A2.78,2.78,0,0,1,7.13,20,5.66,5.66,0,0,1,7,19.48Zm8.1.25v-4a1.37,1.37,0,0,1,.35-1,1.12,1.12,0,0,1,1.17-.34.9.9,0,0,1,.67.78,4.43,4.43,0,0,1,.07.81c0,1.16,0,2.33,0,3.5v.19h2.35v-.14c0-1.31,0-2.62,0-3.93a5.69,5.69,0,0,0-.07-.83,2.4,2.4,0,0,0-2.29-2.19,2.16,2.16,0,0,0-2.05.83,2,2,0,0,0-.17.23h0v-.91H12.74v7Zm-3.48,0v-7H9.32v7ZM10.44,9.49a1.22,1.22,0,0,0-1.25.85,1.16,1.16,0,0,0,1,1.48,1.28,1.28,0,0,0,1.46-.71A1.18,1.18,0,0,0,10.44,9.49Z" transform="translate(0)"/></g><rect class="cls-2" width="30" height="30"/></svg>