<?xml version="1.0" encoding="utf-8"?>
<!-- Generator: Adobe Illustrator 16.0.0, SVG Export Plug-In . SVG Version: 6.00 Build 0)  -->
<!DOCTYPE svg PUBLIC "-//W3C//DTD SVG 1.1//EN" "http://www.w3.org/Graphics/SVG/1.1/DTD/svg11.dtd">
<svg version="1.1" xmlns="http://www.w3.org/2000/svg" xmlns:xlink="http://www.w3.org/1999/xlink" x="0px" y="0px" width="50px"
	 height="50px" viewBox="0 0 50 50" enable-background="new 0 0 50 50" xml:space="preserve">
<g id="bk" display="none">
	<rect display="inline" fill-rule="evenodd" clip-rule="evenodd" fill="#231F20" width="50" height="50"/>
</g>
<g id="guides">
</g>
<g id="citi" display="none">
	<path display="inline" fill="#FFFFFF" d="M18.143,27.614c-0.027,0.054-0.027,0.054-0.027,0.054
		c-0.735,0.734-1.579,1.115-2.449,1.115c-1.823,0-3.13-1.359-3.13-3.21c0-1.904,1.307-3.265,3.13-3.265
		c0.87,0,1.714,0.381,2.449,1.116c0.027,0.082,0.027,0.082,0.027,0.082c1.197-1.443,1.197-1.443,1.197-1.443
		c-0.027-0.027-0.027-0.027-0.027-0.027c-0.98-1.17-2.149-1.714-3.591-1.714c-1.443,0-2.776,0.489-3.701,1.36
		c-1.035,0.953-1.579,2.286-1.579,3.891c0,1.58,0.544,2.911,1.579,3.864c0.925,0.871,2.258,1.361,3.701,1.361
		c1.442,0,2.611-0.574,3.591-1.715c0.027-0.055,0.027-0.055,0.027-0.055"/>
	<rect x="20.484" y="20.485" display="inline" fill="#FFFFFF" width="2.095" height="10.096"/>
	<path display="inline" fill="#FFFFFF" d="M30.715,28.377c-0.571,0.353-1.088,0.516-1.551,0.516c-0.68,0-0.98-0.354-0.98-1.143
		c0-5.333,0-5.333,0-5.333c2.096,0,2.096,0,2.096,0c0-1.932,0-1.932,0-1.932c-2.096,0-2.096,0-2.096,0c0-3.129,0-3.129,0-3.129
		c-2.04,1.089-2.04,1.089-2.04,1.089c0,2.041,0,2.041,0,2.041c-1.715,0-1.715,0-1.715,0c0,1.932,0,1.932,0,1.932
		c1.715,0,1.715,0,1.715,0c0,5.687,0,5.687,0,5.687c0,1.523,0.952,2.613,2.313,2.613c0.952,0.054,1.522-0.247,1.822-0.435
		c0.027,0,0.027,0,0.027,0c0.489-1.987,0.489-1.987,0.489-1.987"/>
	<rect x="32.374" y="20.485" display="inline" fill="#FFFFFF" width="2.095" height="10.096"/>
	<path display="inline" fill="#FFFFFF" d="M38.17,18.036c0,0.11-0.053,0.164-0.162,0.164c-0.327,0-0.327,0-0.327,0
		c0-0.354,0-0.354,0-0.354c0.327,0,0.327,0,0.327,0C38.117,17.846,38.17,17.928,38.17,18.036 M38.388,18.036
		c0-0.244-0.19-0.353-0.38-0.353c-0.545,0-0.545,0-0.545,0c0,1.197,0,1.197,0,1.197c0.218,0,0.218,0,0.218,0
		c0-0.463,0-0.463,0-0.463c0.245,0,0.245,0,0.245,0c0.218,0.463,0.218,0.463,0.218,0.463c0.244,0,0.244,0,0.244,0
		c-0.244-0.49-0.244-0.49-0.244-0.49C38.279,18.335,38.388,18.2,38.388,18.036z M38.986,18.281c0-0.598-0.461-1.088-1.088-1.088
		c-0.626,0-1.088,0.49-1.088,1.088c0,0.626,0.462,1.089,1.088,1.089C38.525,19.37,38.986,18.907,38.986,18.281z M38.797,18.281
		c0,0.517-0.381,0.899-0.898,0.899c-0.545,0-0.925-0.382-0.925-0.899c0-0.517,0.38-0.925,0.925-0.925
		C38.416,17.355,38.797,17.764,38.797,18.281z"/>
</g>
<g id="bofa" display="none">
	<g display="inline">
		<path fill-rule="evenodd" clip-rule="evenodd" fill="#FFFFFF" d="M22.196,33.697c0.397-0.271,0.756-0.527,1.124-0.771
			c1.401-0.929,2.842-1.792,4.331-2.577c1.549-0.818,3.135-1.553,4.762-2.198c0.791-0.313,1.598-0.589,2.396-0.879
			c0.037-0.014,0.092-0.021,0.119-0.002c0.688,0.39,1.367,0.779,2.047,1.171c0.01,0.004,0.014,0.018,0.037,0.041
			c-0.074,0.034-0.143,0.073-0.213,0.102c-1.826,0.774-3.602,1.655-5.322,2.637c-1.736,0.993-3.416,2.072-5.02,3.268
			c-0.451,0.338-0.901,0.683-1.35,1.027c-0.072,0.053-0.123,0.074-0.211,0.018c-0.824-0.567-1.654-1.132-2.482-1.689
			C22.352,33.801,22.29,33.762,22.196,33.697z"/>
		<path fill-rule="evenodd" clip-rule="evenodd" fill="#FFFFFF" d="M18.559,31.69c0.321-0.206,0.617-0.419,0.932-0.604
			c0.922-0.545,1.842-1.095,2.782-1.609c1.329-0.725,2.695-1.373,4.11-1.916c1.148-0.441,2.303-0.851,3.467-1.251
			c0.568-0.196,1.156-0.341,1.736-0.5c0.086-0.021,0.199-0.021,0.279,0.014c0.748,0.329,1.494,0.668,2.238,1.001
			c-0.002,0.016-0.002,0.035-0.006,0.052c-0.23,0.071-0.461,0.146-0.695,0.22c-1.332,0.427-2.654,0.894-3.932,1.471
			c-1.182,0.528-2.357,1.083-3.515,1.666c-1.295,0.651-2.535,1.405-3.747,2.199c-0.307,0.198-0.608,0.406-0.918,0.604
			c-0.048,0.031-0.138,0.047-0.186,0.021c-0.828-0.431-1.655-0.871-2.483-1.313C18.608,31.735,18.597,31.724,18.559,31.69z"/>
		<path fill-rule="evenodd" clip-rule="evenodd" fill="#FFFFFF" d="M3.472,17.576c0.158,0.088,0.298,0.156,0.427,0.24
			c0.495,0.329,0.654,0.813,0.588,1.374c-0.064,0.56-0.397,0.926-0.926,1.093c-0.247,0.076-0.513,0.12-0.774,0.127
			c-0.65,0.019-1.303,0.003-1.956,0.013c-0.164,0.003-0.165-0.08-0.165-0.2c0.004-1.544,0.005-3.092,0.005-4.638
			c0-0.146,0.003-0.291-0.004-0.437c-0.003-0.1,0.038-0.133,0.135-0.132c0.711,0.004,1.423-0.009,2.134,0.009
			c0.476,0.011,0.903,0.176,1.196,0.573c0.471,0.641,0.237,1.528-0.488,1.89C3.59,17.514,3.542,17.54,3.472,17.576z M1.965,18.75
			c-0.003,0-0.007,0-0.009,0c0,0.182-0.007,0.365,0.005,0.548c0.003,0.05,0.062,0.142,0.094,0.142
			c0.22,0.004,0.444,0.01,0.659-0.032c0.303-0.052,0.467-0.287,0.478-0.618c0.009-0.359-0.134-0.614-0.441-0.683
			c-0.226-0.05-0.468-0.039-0.702-0.044c-0.026,0-0.078,0.067-0.08,0.107C1.961,18.362,1.965,18.557,1.965,18.75z M1.964,16.578
			c-0.003,0-0.006,0-0.008,0c0,0.156-0.007,0.312,0.002,0.469c0.004,0.044,0.058,0.121,0.088,0.121c0.225-0.003,0.455,0,0.673-0.042
			c0.27-0.053,0.426-0.294,0.42-0.574C3.133,16.24,2.986,16.03,2.695,15.98c-0.204-0.033-0.417-0.028-0.627-0.025
			c-0.035,0-0.097,0.066-0.1,0.106C1.958,16.232,1.964,16.405,1.964,16.578z"/>
		<path fill-rule="evenodd" clip-rule="evenodd" fill="#FFFFFF" d="M29.871,17.007c0.312-0.246,0.613-0.434,0.988-0.471
			c0.412-0.039,0.699,0.129,0.865,0.467c0.229-0.137,0.43-0.294,0.662-0.385c0.357-0.138,0.723-0.152,1.051,0.116
			c0.182,0.154,0.26,0.364,0.262,0.585c0.01,0.993,0.004,1.984,0.006,2.978c0,0.101-0.039,0.126-0.135,0.126
			c-0.307,0-0.613,0-0.92,0.003c-0.139,0.003-0.135-0.085-0.135-0.184c0-0.749,0-1.498,0-2.246c0-0.092,0.004-0.183-0.01-0.274
			c-0.025-0.199-0.137-0.282-0.336-0.264c-0.23,0.021-0.395,0.194-0.395,0.422c0,0.786,0,1.572,0.008,2.359
			c0,0.143-0.049,0.187-0.188,0.184c-0.283-0.01-0.572-0.007-0.855,0.003c-0.121,0.003-0.158-0.038-0.154-0.161
			c0.002-0.765,0.002-1.528,0.002-2.294c0-0.038,0-0.075,0-0.113c-0.002-0.158,0-0.324-0.189-0.389
			c-0.154-0.054-0.422,0.051-0.512,0.198c-0.025,0.044-0.027,0.103-0.027,0.155c-0.004,0.798-0.004,1.596-0.004,2.392
			c0,0.061,0,0.117,0,0.202c-0.223,0-0.43,0-0.637,0c-0.125,0-0.252-0.01-0.375,0.004c-0.15,0.019-0.18-0.049-0.18-0.184
			c0.008-1.141,0.008-2.284,0-3.426c0-0.149,0.049-0.184,0.188-0.179c0.26,0.011,0.525,0.015,0.789,0
			c0.172-0.011,0.225,0.059,0.215,0.212C29.855,16.885,29.861,16.927,29.871,17.007z"/>
		<path fill-rule="evenodd" clip-rule="evenodd" fill="#FFFFFF" d="M24.031,20.416c0.088-0.38,0.168-0.736,0.252-1.09
			c0.284-1.214,0.572-2.429,0.859-3.644c0.041-0.173,0.092-0.343,0.124-0.519c0.019-0.11,0.062-0.149,0.18-0.149
			c0.502,0.006,1,0.006,1.503,0.001c0.098,0,0.143,0.03,0.164,0.129c0.199,0.965,0.402,1.927,0.604,2.891
			c0.154,0.737,0.311,1.475,0.465,2.21c0.01,0.048,0.02,0.092,0.031,0.161c-0.07,0.004-0.127,0.01-0.184,0.01
			c-0.318,0.004-0.635-0.003-0.953,0.007c-0.117,0.003-0.158-0.035-0.178-0.148c-0.045-0.275-0.111-0.547-0.154-0.825
			c-0.02-0.11-0.068-0.139-0.176-0.139c-0.33,0.003-0.665,0.006-1,0c-0.111,0-0.149,0.051-0.171,0.146
			c-0.062,0.277-0.123,0.559-0.198,0.834c-0.013,0.051-0.079,0.12-0.126,0.12C24.735,20.423,24.397,20.416,24.031,20.416z
			 M25.6,18.378c0.319,0,0.607,0,0.925,0c-0.129-0.743-0.256-1.473-0.385-2.204c-0.023,0.002-0.047,0.002-0.068,0.002
			C25.917,16.901,25.762,17.626,25.6,18.378z"/>
		<path fill-rule="evenodd" clip-rule="evenodd" fill="#FFFFFF" d="M16.369,29.628c0.307-0.173,0.6-0.338,0.896-0.502
			c1.653-0.906,3.359-1.701,5.116-2.393c0.146-0.058,0.278-0.072,0.43-0.006c0.582,0.254,1.166,0.502,1.751,0.752
			c0.011,0.006,0.028,0.017,0.06,0.036c-0.055,0.032-0.09,0.054-0.123,0.071c-1.386,0.57-2.748,1.188-4.066,1.903
			c-0.652,0.354-1.295,0.728-1.945,1.083c-0.045,0.025-0.115,0.05-0.154,0.028c-0.646-0.309-1.289-0.624-1.932-0.939
			C16.395,29.662,16.391,29.656,16.369,29.628z"/>
		<path fill-rule="evenodd" clip-rule="evenodd" fill="#FFFFFF" d="M12.708,15.019c0.378,0,0.749-0.002,1.118,0.007
			c0.029,0,0.076,0.077,0.079,0.122c0.008,0.219,0.003,0.44,0.003,0.661c0,0.604,0.002,1.207,0.002,1.811
			c0,0.043,0,0.085,0.033,0.145c0.063-0.072,0.128-0.145,0.19-0.221c0.211-0.265,0.415-0.536,0.636-0.793
			c0.053-0.06,0.151-0.107,0.228-0.11c0.334-0.011,0.668-0.005,1.038-0.005c-0.157,0.179-0.294,0.339-0.434,0.496
			c-0.151,0.174-0.303,0.351-0.461,0.519c-0.081,0.085-0.096,0.158-0.052,0.271c0.222,0.555,0.435,1.111,0.649,1.667
			c0.104,0.271,0.204,0.54,0.315,0.828c-0.404,0-0.786,0.004-1.167-0.006c-0.041,0-0.102-0.069-0.12-0.117
			c-0.172-0.458-0.338-0.919-0.506-1.381c-0.017-0.047-0.039-0.094-0.067-0.162c-0.157,0.153-0.302,0.273-0.289,0.51
			c0.019,0.331,0.001,0.667,0.006,1.002c0.001,0.112-0.025,0.164-0.151,0.161c-0.308-0.01-0.614-0.007-0.921-0.003
			c-0.098,0-0.146-0.02-0.146-0.134c0.005-1.73,0.003-3.461,0.003-5.189C12.696,15.08,12.701,15.065,12.708,15.019z"/>
		<path fill-rule="evenodd" clip-rule="evenodd" fill="#FFFFFF" d="M9.976,17c0.113-0.087,0.192-0.156,0.281-0.217
			c0.348-0.235,0.727-0.331,1.133-0.198c0.337,0.11,0.504,0.38,0.509,0.717c0.014,0.996,0.006,1.993,0.003,2.991
			c-0.002,0.04-0.052,0.12-0.081,0.12c-0.364,0.01-0.73,0.007-1.11,0.007c-0.005-0.087-0.01-0.155-0.01-0.225
			c-0.002-0.749-0.002-1.497-0.002-2.246c0-0.031,0.002-0.064,0-0.097c-0.004-0.16-0.01-0.322-0.197-0.387
			c-0.152-0.054-0.382,0.035-0.479,0.189c-0.026,0.041-0.032,0.102-0.032,0.15c-0.002,0.815-0.005,1.628,0.002,2.442
			c0,0.14-0.043,0.178-0.175,0.175c-0.298-0.01-0.593-0.007-0.891,0c-0.107,0-0.154-0.032-0.154-0.148
			c0.003-1.162,0.004-2.327,0-3.491c0-0.127,0.047-0.153,0.163-0.149C9.2,16.64,9.464,16.645,9.727,16.63
			c0.167-0.01,0.238,0.047,0.232,0.21C9.957,16.881,9.969,16.924,9.976,17z"/>
		<path fill-rule="evenodd" clip-rule="evenodd" fill="#FFFFFF" d="M21.739,26.31c-0.466,0.182-0.893,0.338-1.315,0.509
			c-1.276,0.507-2.52,1.087-3.727,1.744c-0.387,0.211-0.768,0.433-1.154,0.646c-0.038,0.023-0.095,0.043-0.132,0.025
			c-0.614-0.238-1.227-0.483-1.871-0.74c0.255-0.138,0.487-0.264,0.724-0.386c1.3-0.665,2.632-1.258,3.998-1.766
			c0.55-0.207,1.108-0.385,1.662-0.575c0.044-0.018,0.098-0.023,0.14-0.006C20.611,25.938,21.157,26.115,21.739,26.31z"/>
		<path fill-rule="evenodd" clip-rule="evenodd" fill="#FFFFFF" d="M16.991,18.588c0.002-0.451,0.05-0.806,0.202-1.141
			c0.246-0.535,0.666-0.853,1.249-0.923c0.783-0.095,1.481,0.209,1.8,0.993c0.13,0.322,0.188,0.657,0.167,0.996
			c-0.018,0.313-0.051,0.636-0.153,0.933c-0.24,0.698-0.773,1.048-1.514,1.051c-0.315,0-0.624-0.036-0.906-0.194
			c-0.497-0.278-0.718-0.733-0.801-1.273C17.006,18.855,16.999,18.677,16.991,18.588z M18.211,18.576
			c0.044,0.268,0.094,0.617,0.166,0.962c0.031,0.138,0.155,0.198,0.298,0.209c0.148,0.012,0.263-0.042,0.337-0.172
			c0.034-0.062,0.066-0.126,0.079-0.195c0.108-0.588,0.108-1.179,0.002-1.766c-0.045-0.242-0.199-0.362-0.395-0.359
			c-0.202,0.003-0.353,0.137-0.389,0.383C18.269,17.919,18.25,18.204,18.211,18.576z"/>
		<path fill-rule="evenodd" clip-rule="evenodd" fill="#FFFFFF" d="M5.016,17.556c0.036-0.312,0.203-0.53,0.429-0.708
			c0.539-0.42,1.617-0.424,2.166-0.013c0.267,0.203,0.407,0.47,0.408,0.805c0.003,0.722,0,1.443,0.005,2.167
			c0.003,0.198,0.03,0.395,0.048,0.604c-0.381,0-0.781,0-1.183,0c-0.02-0.102-0.037-0.196-0.058-0.311
			c-0.123,0.083-0.229,0.162-0.343,0.229c-0.391,0.221-0.796,0.245-1.181,0.009c-0.641-0.395-0.625-1.384,0.016-1.843
			c0.392-0.281,0.844-0.4,1.31-0.46c0.14-0.018,0.194-0.066,0.18-0.202c-0.008-0.074,0.001-0.151-0.008-0.226
			c-0.019-0.153-0.077-0.28-0.246-0.322c-0.155-0.038-0.319,0.023-0.405,0.167c-0.054,0.091-0.082,0.195-0.131,0.315
			C5.696,17.699,5.361,17.629,5.016,17.556z M6.809,19.07c0.002,0,0.002,0,0.002,0c0-0.117-0.003-0.237,0-0.353
			c0.003-0.101-0.038-0.131-0.136-0.125c-0.396,0.03-0.666,0.319-0.656,0.718c0.007,0.253,0.142,0.4,0.365,0.4
			c0.246,0.004,0.424-0.17,0.425-0.413C6.811,19.222,6.809,19.146,6.809,19.07z"/>
		<path fill-rule="evenodd" clip-rule="evenodd" fill="#FFFFFF" d="M49.49,20.426c-0.346,0-0.705-0.003-1.066,0
			c-0.088,0-0.127-0.041-0.137-0.123c-0.006-0.063-0.016-0.123-0.027-0.209c-0.129,0.086-0.234,0.165-0.348,0.23
			c-0.395,0.241-0.941,0.225-1.268-0.031c-0.533-0.426-0.529-1.288,0.004-1.725c0.406-0.333,0.891-0.468,1.398-0.533
			c0.152-0.021,0.215-0.067,0.193-0.219c-0.01-0.075-0.008-0.152-0.023-0.225c-0.029-0.188-0.129-0.294-0.275-0.313
			c-0.18-0.023-0.334,0.064-0.416,0.241c-0.033,0.079-0.049,0.2-0.109,0.227c-0.068,0.032-0.174-0.015-0.266-0.033
			c-0.193-0.041-0.389-0.092-0.584-0.125c-0.119-0.023-0.146-0.074-0.105-0.19c0.158-0.436,0.484-0.674,0.914-0.79
			c0.449-0.124,0.895-0.11,1.33,0.056c0.51,0.19,0.729,0.519,0.729,1.061c0,0.69-0.002,1.378,0,2.07
			C49.438,19.996,49.473,20.199,49.49,20.426z M48.236,19.041L48.236,19.041c0-0.112-0.004-0.223,0-0.337
			c0-0.081-0.029-0.12-0.115-0.111c-0.531,0.06-0.752,0.402-0.645,0.886c0.018,0.085,0.125,0.173,0.211,0.214
			c0.197,0.093,0.6-0.117,0.553-0.392C48.225,19.216,48.236,19.128,48.236,19.041z"/>
		<path fill-rule="evenodd" clip-rule="evenodd" fill="#FFFFFF" d="M36.693,19.2c0.27,0.095,0.521,0.18,0.791,0.275
			c-0.107,0.323-0.309,0.57-0.582,0.754c-0.727,0.496-2.145,0.398-2.523-0.923c-0.211-0.743-0.18-1.472,0.26-2.14
			c0.588-0.894,2.193-0.946,2.693,0.23c0.174,0.407,0.223,0.829,0.219,1.263c-0.004,0.132-0.092,0.112-0.17,0.112
			c-0.561,0-1.119,0-1.682,0c-0.246,0-0.256,0.011-0.221,0.26c0.016,0.096,0.041,0.189,0.072,0.281
			c0.076,0.228,0.221,0.382,0.475,0.397c0.256,0.017,0.488-0.126,0.6-0.355C36.648,19.311,36.666,19.266,36.693,19.2z
			 M35.961,18.067c0,0,0,0,0,0.002c0.121,0,0.238,0.009,0.355-0.007c0.043-0.005,0.115-0.072,0.113-0.105
			c-0.02-0.158-0.039-0.32-0.094-0.468c-0.059-0.158-0.197-0.234-0.371-0.235c-0.168,0-0.301,0.082-0.363,0.226
			s-0.092,0.305-0.125,0.461c-0.02,0.086,0.023,0.129,0.115,0.127C35.715,18.065,35.838,18.067,35.961,18.067z"/>
		<path fill-rule="evenodd" clip-rule="evenodd" fill="#FFFFFF" d="M23.121,15.837c-0.171,0.014-0.31,0.014-0.445,0.038
			c-0.135,0.024-0.217,0.122-0.229,0.26c-0.011,0.127-0.016,0.259-0.004,0.387c0.004,0.041,0.069,0.104,0.11,0.107
			c0.144,0.014,0.291,0.009,0.437,0.006c0.095-0.003,0.139,0.032,0.134,0.13c-0.005,0.189-0.008,0.377-0.004,0.565
			c0.002,0.094-0.034,0.128-0.123,0.126c-0.123-0.003-0.247,0.009-0.371-0.006c-0.149-0.017-0.196,0.038-0.195,0.187
			c0.004,0.851,0.001,1.702,0.001,2.552c0,0.228-0.001,0.228-0.232,0.228c-0.246,0.004-0.494,0.004-0.742,0.004
			c-0.215,0.003-0.215,0.003-0.215-0.209c-0.002-0.855-0.006-1.712,0.001-2.568c0.001-0.16-0.052-0.201-0.203-0.198
			c-0.323,0.005-0.296,0.034-0.296-0.293c-0.001-0.128,0.004-0.257-0.001-0.387c-0.005-0.1,0.038-0.128,0.134-0.131
			c0.363-0.016,0.347-0.02,0.369-0.385c0.014-0.254,0.041-0.52,0.129-0.755c0.158-0.426,0.534-0.568,0.956-0.588
			c0.219-0.01,0.44,0.009,0.66,0.028c0.047,0.004,0.125,0.067,0.127,0.106C23.127,15.308,23.121,15.576,23.121,15.837z"/>
		<path fill-rule="evenodd" clip-rule="evenodd" fill="#FFFFFF" d="M45.857,19.105c0.023,0.515-0.312,1.128-0.877,1.298
			c-0.512,0.154-1.02,0.151-1.488-0.158c-0.447-0.293-0.67-0.732-0.766-1.24c-0.115-0.61-0.006-1.191,0.318-1.722
			c0.441-0.731,1.367-0.987,2.131-0.604c0.441,0.223,0.77,0.813,0.725,1.335c-0.307,0-0.617,0.003-0.93-0.005
			c-0.029-0.001-0.07-0.076-0.082-0.122c-0.039-0.139-0.055-0.284-0.102-0.418c-0.053-0.146-0.176-0.217-0.33-0.215
			c-0.152,0-0.277,0.079-0.328,0.219c-0.057,0.161-0.111,0.329-0.125,0.496c-0.037,0.457-0.053,0.915,0.051,1.367
			c0.061,0.249,0.197,0.375,0.414,0.375c0.23,0,0.391-0.139,0.441-0.388c0.023-0.104,0.035-0.211,0.053-0.338
			C45.264,19.026,45.555,19.064,45.857,19.105z"/>
		<path fill-rule="evenodd" clip-rule="evenodd" fill="#FFFFFF" d="M27.283,26.536c-0.484,0.179-0.945,0.315-1.379,0.51
			c-0.301,0.132-0.538,0.089-0.818-0.046c-1.438-0.688-2.927-1.253-4.439-1.754c-0.243-0.079-0.489-0.152-0.784-0.243
			c0.283-0.097,0.519-0.176,0.757-0.249c0.358-0.115,0.719-0.225,1.08-0.33c0.068-0.02,0.151-0.02,0.219,0
			c1.802,0.56,3.554,1.239,5.258,2.05C27.201,26.485,27.229,26.505,27.283,26.536z"/>
		<path fill-rule="evenodd" clip-rule="evenodd" fill="#FFFFFF" d="M30.146,25.689c-0.197,0.054-0.393,0.105-0.588,0.161
			c-0.367,0.108-0.732,0.222-1.104,0.323c-0.072,0.02-0.172,0.014-0.242-0.02c-1.678-0.785-3.409-1.446-5.183-1.976
			c-0.052-0.018-0.1-0.035-0.151-0.086c0.288-0.069,0.579-0.139,0.871-0.209c0.12-0.024,0.247-0.037,0.361-0.075
			c0.354-0.121,0.69-0.057,1.04,0.047c1.259,0.377,2.507,0.785,3.728,1.272c0.424,0.171,0.844,0.349,1.268,0.521
			C30.146,25.663,30.146,25.679,30.146,25.689z"/>
		<path fill-rule="evenodd" clip-rule="evenodd" fill="#FFFFFF" d="M39.283,20.416c-0.377,0-0.742,0.004-1.107-0.006
			c-0.027,0-0.078-0.089-0.082-0.136c-0.006-0.412,0-0.822-0.002-1.229c0-0.745,0.002-1.489-0.004-2.231
			c-0.002-0.146,0.041-0.185,0.184-0.182c0.322,0.009,0.643,0.003,0.99,0.003c0,0.158,0,0.306,0,0.452
			c0.01,0.007,0.021,0.016,0.035,0.023c0.293-0.376,0.674-0.572,1.166-0.574c0,0.399,0,0.782,0,1.155
			c-0.264,0-0.525-0.031-0.775,0.007c-0.295,0.043-0.391,0.197-0.391,0.492c0,0.669,0,1.337,0,2.005
			C39.297,20.265,39.291,20.333,39.283,20.416z"/>
		<path fill-rule="evenodd" clip-rule="evenodd" fill="#FFFFFF" d="M40.916,16.645c0.4,0,0.791,0,1.193,0
			c0.002,0.062,0.006,0.113,0.006,0.168c0.002,1.146,0,2.293,0.002,3.438c0,0.12-0.021,0.175-0.156,0.172
			c-0.303-0.01-0.604,0-0.904,0c-0.086,0-0.158-0.003-0.154-0.126c0.004-1.195,0.004-2.391,0.004-3.586
			C40.906,16.695,40.912,16.679,40.916,16.645z"/>
		<path fill-rule="evenodd" clip-rule="evenodd" fill="#FFFFFF" d="M42.117,15.021c0,0.34,0.004,0.652-0.006,0.963
			c0,0.035-0.068,0.097-0.107,0.099c-0.328,0.012-0.656,0.012-0.984,0.017c-0.092,0.002-0.121-0.037-0.117-0.127
			c0.004-0.275-0.004-0.55,0.004-0.824c0.002-0.044,0.049-0.12,0.078-0.122C41.354,15.017,41.723,15.021,42.117,15.021z"/>
	</g>
</g>
<g id="disney" display="none">
	<g display="inline">
		<g>
			<path fill="#FFFFFF" d="M22.819,23.596c-0.666-0.014-0.588,3.729-0.526,4.476c0.064,0.743,0.195,0.907,0.718,0.972
				c0.522,0.063,0.62-0.799,0.571-1.16C23.533,27.516,23.8,23.609,22.819,23.596"/>
			<path fill="#FFFFFF" d="M27.102,24.67c1.184-0.082,2.488-0.129,2.492-0.809c0.006-0.564-3.385-0.685-4.672,0.072
				c-1.072,0.633-1.452,1.856,0.131,2.129c1.043,0.181,3.491,0.034,3.477,0.765c-0.014,1.1-4.329,1.304-3.625,0.342
				c0.486-0.655,1.017,0.333,2.167,0.262c0.555-0.033,1.779-0.717-0.104-1.037c-1.88-0.326-2.408,0.235-2.596,0.661
				c-0.216,0.502,0.376,2.038,2.84,1.919c2.088-0.102,2.387-1.589,2.295-2.217c-0.293-2.013-4.304-1.081-4.272-1.737
				C25.248,24.868,26.131,24.735,27.102,24.67"/>
			<path fill="#FFFFFF" d="M32.717,22.604c-0.619,0.095,1.053,3.972,0.43,4.184c-0.334,0.112-1.557-3.007-2.447-2.913
				c-0.738,0.077-1.596,4.976-0.367,5.056c0.92,0.058,0.48-3.049,0.863-3.062c0.281-0.013,1.102,2.585,2.029,2.691
				c0.762,0.086,1.264-0.731,1.301-2.015C34.564,25.121,33.469,22.491,32.717,22.604"/>
			<path fill="#FFFFFF" d="M37.869,27.248c-0.436,0.084-1.371,0.364-1.635,0.309c-0.219-0.053-0.055-0.932,0.189-1.013
				c0.244-0.082,1.074-0.024,1.42-0.088c0.721-0.139,0.766-0.934,0.133-0.972c-0.633-0.04-0.945,0.095-1.201,0.007
				c-0.092-0.259,0.102-0.598,0.273-0.687c0.17-0.087,1.902-0.041,2.201-0.314c0.207-0.188-0.156-0.997-0.648-1.062
				c-0.49-0.064-3.166,0.208-3.418,0.336c-0.252,0.12-0.389,0.377-0.17,0.545c0.221,0.163,0.641,0.295,0.748,0.499
				c-0.047,0.144-0.148,0.6-0.312,0.714c-0.164,0.113-0.621,0.144-0.451,0.657c0.168,0.515-1.043,2.059,0.414,2.954
				c0.752,0.466,2.352-0.496,2.803-0.773C38.666,28.086,38.775,27.079,37.869,27.248"/>
			<path fill="#FFFFFF" d="M41.762,27.541c0.182-0.714,1.559-2.727,1.832-2.624C44.387,25.222,43.293,27.657,41.762,27.541
				 M43.541,23.743c-0.961-0.141-3.072,2.93-3.225,2.835c-0.289-0.18,0.557-1.822,0.906-2.34c0.51-0.756,0.182-2.03-1.398,0.704
				c-0.334,0.569-0.904,1.533-0.26,3.075c-0.324,0.724-1.312,3.455-1.072,4.182c0.238,0.729,0.82,1.03,1.152,0.886
				c0.064-0.316,0.822-3.577,1.277-3.954c0.889,0.036,2.609-0.571,3.342-2C44.996,25.703,44.646,23.906,43.541,23.743z"/>
			<path fill="#FFFFFF" d="M11.854,27.989c-0.327,0.157-3.153-1.367-3.177-2.032c-0.016-0.53,3.046-0.994,3.164-0.861
				C11.964,25.229,11.946,27.944,11.854,27.989 M9.584,17.546c-3.313,0.115-3.93,1.148-3.649,1.736
				c0.169,0.36,1.168,0.322,1.216,0.017c0.043-0.301-0.433-0.282-0.423-0.437c0.019-0.291,2.497-0.401,4.762,0.023
				c4.989,0.933,8.649,4.217,8.681,6.623c0.056,3.751-6.238,3.416-6.783,2.873c-0.023-0.217,0.024-3.049,0.017-3.348
				c0.553-0.105,3.464,0.042,3.501,0.652c0.045,0.712-0.596,0.575-0.571,0.831c0.058,0.608,1.858,0.125,1.777-1.035
				c-0.12-1.769-4.132-1.833-4.748-1.841c-0.011-0.368,0.051-2.702-0.821-2.695c-0.699,0.003-0.683,2.104-0.693,2.814
				c-1.098,0.067-3.775,1.007-3.66,1.968c0.163,1.379,2.432,2.863,3.666,3.495c-0.002,1.908,1.554,1.502,1.576,0.559
				c6.931,0.966,8.341-2.652,8.317-4.199C21.68,20.543,13.177,17.422,9.584,17.546z"/>
			<path fill="#FFFFFF" d="M25.407,19.926c0.763,0.794-1.591,2.012-2.483,1.703C22.981,21.1,24.779,19.272,25.407,19.926
				 M21.808,20.927c-0.148-0.068,0.376-1.03,0.992-1.077C22.532,20.451,21.902,20.968,21.808,20.927z M25.905,21.126
				c0.89-1.053,0.298-1.87-0.35-1.98c-0.238-0.024-0.607-0.839-1.938-0.587c-1.331,0.25-2.824,1.59-2.71,2.426
				c0.119,0.869,0.254,0.638,0.34,1.077c0.087,0.439,0.007,0.888,0.402,0.936c0.396,0.052,0.518-0.34,0.518-0.34
				C23.03,22.709,24.312,23.011,25.905,21.126z"/>
		</g>
	</g>
</g>
<g id="ogilvy" display="none">
	<g display="inline">
		<path fill-rule="evenodd" clip-rule="evenodd" fill="#FFFFFF" d="M11.29,28.602c-2.127-0.006-3.699-0.688-4.82-2.243
			c-0.96-1.33-1.197-2.834-0.821-4.413c0.563-2.362,2.153-3.701,4.474-4.088c1.866-0.312,3.611,0.124,4.99,1.523
			c1.265,1.285,1.709,2.861,1.443,4.627c-0.303,2.016-1.435,3.405-3.307,4.185C12.554,28.481,11.82,28.64,11.29,28.602z
			 M14.408,22.883c0.021-0.721-0.167-1.729-0.666-2.665c-0.563-1.054-1.396-1.77-2.638-1.795c-1.211-0.026-2.058,0.625-2.649,1.646
			c-0.552,0.952-0.737,1.994-0.744,3.079c-0.009,1.289,0.239,2.506,1.021,3.57c1.219,1.662,3.443,1.604,4.585,0.112
			C14.137,25.758,14.405,24.529,14.408,22.883z"/>
		<path fill-rule="evenodd" clip-rule="evenodd" fill="#FFFFFF" d="M18.475,26.293c-0.184-0.155-0.379-0.288-0.533-0.457
			c-1.149-1.249-0.73-3.154,0.85-3.846c0.688-0.3,1.291-0.498,2.785-0.112c0.076-0.429,0.098-0.878,0.238-1.284
			c0.417-1.187,1.641-1.885,3.034-1.795c0.624,0.041,1.21,0.158,1.585,0.73c0.226,0.341,0.201,0.835-0.058,1.17
			c-0.219,0.286-0.663,0.401-1.072,0.279c-0.325-0.095-0.581-0.483-0.588-0.895c-0.01-0.46-0.163-0.58-0.65-0.509
			c-1.076,0.158-1.702,0.975-1.668,2.175c0.011,0.402,0.105,0.756,0.363,1.092c0.711,0.928,0.457,2.457-0.488,3.17
			c-0.631,0.476-1.347,0.675-2.128,0.71c-0.545,0.028-1.087,0.095-1.63,0.149c-0.082,0.009-0.162,0.044-0.239,0.076
			c-0.406,0.175-0.594,0.486-0.504,0.839c0.068,0.268,0.388,0.461,0.787,0.417c0.813-0.088,1.626-0.232,2.443-0.298
			c0.502-0.041,1.034-0.065,1.516,0.054c1.102,0.271,1.419,1.231,1.24,2.177c-0.274,1.444-1.574,2.487-3.053,2.535
			c-0.692,0.023-1.386,0.044-2.046-0.226c-0.692-0.28-1.211-0.718-1.297-1.514c-0.03-0.288,0.033-0.58,0.305-0.712
			c0.173-0.083,0.417-0.103,0.602-0.054c0.271,0.074,0.347,0.329,0.356,0.598c0.027,0.905,0.374,1.229,1.293,1.259
			c0.752,0.024,1.479-0.023,2.099-0.521c0.415-0.332,0.642-0.755,0.621-1.3c-0.017-0.428-0.274-0.745-0.703-0.747
			c-0.559-0.003-1.116,0.053-1.674,0.092c-0.769,0.055-1.521,0.306-2.304,0.12c-0.691-0.164-1.197-0.656-1.27-1.281
			c-0.094-0.808,0.25-1.485,0.939-1.797C17.892,26.469,18.178,26.395,18.475,26.293z M21.573,24.198
			c-0.083-0.61-0.21-1.16-0.594-1.619c-0.459-0.543-1.167-0.504-1.58,0.073c-0.552,0.767-0.569,2.195-0.038,2.977
			c0.502,0.74,1.416,0.716,1.807-0.086C21.37,25.128,21.442,24.648,21.573,24.198z"/>
		<path fill-rule="evenodd" clip-rule="evenodd" fill="#FFFFFF" d="M35.03,26.58c0.164-0.4,0.335-0.799,0.49-1.202
			c0.298-0.774,0.589-1.551,0.878-2.326c0.17-0.454,0.106-0.574-0.382-0.632c-0.315-0.038-0.405-0.188-0.305-0.498
			c1.743,0,3.492,0,5.241,0c0.127,0.343-0.015,0.463-0.33,0.5c-0.408,0.047-0.517,0.175-0.396,0.495
			c0.433,1.143,0.888,2.276,1.335,3.413c0.012,0.031,0.037,0.055,0.097,0.139c0.226-0.534,0.437-1.027,0.642-1.523
			c0.256-0.614,0.513-1.229,0.761-1.846c0.199-0.492,0.14-0.585-0.375-0.693c-0.156-0.033-0.365-0.044-0.32-0.289
			c0.017-0.079,0.11-0.202,0.172-0.202c0.788-0.015,1.571-0.009,2.377-0.009c0,0.16,0,0.285,0,0.455
			c-0.953-0.015-1.054,0.803-1.322,1.417c-0.995,2.285-1.95,4.59-2.933,6.88c-0.31,0.727-0.679,1.421-1.405,1.837
			c-0.34,0.196-0.699,0.232-1.066,0.107c-0.312-0.106-0.526-0.421-0.481-0.675c0.062-0.341,0.353-0.609,0.687-0.626
			c0.072-0.005,0.146-0.013,0.216,0.002c0.699,0.131,1.102-0.224,1.355-0.826c0.244-0.58,0.496-1.157,0.73-1.74
			c0.038-0.097,0.034-0.234-0.007-0.331c-0.767-1.894-1.548-3.783-2.319-5.675c-0.101-0.244-0.272-0.328-0.527-0.332
			c-0.271-0.006-0.412,0.124-0.506,0.358c-0.714,1.762-1.456,3.511-2.135,5.287c-0.205,0.536-0.574,0.349-0.919,0.398
			c-0.339,0.051-0.378-0.191-0.466-0.413c-0.701-1.729-1.398-3.457-2.12-5.177c-0.072-0.174-0.277-0.388-0.441-0.406
			c-0.373-0.042-0.345-0.241-0.301-0.518c0.09-0.009,0.182-0.025,0.272-0.025c0.921-0.002,1.84-0.008,2.76,0.006
			c0.109,0.001,0.283,0.086,0.311,0.17c0.065,0.203-0.097,0.291-0.277,0.327c-0.047,0.008-0.097,0.004-0.142,0.012
			c-0.371,0.058-0.466,0.185-0.336,0.529c0.293,0.793,0.603,1.577,0.904,2.366c0.162,0.417,0.322,0.835,0.483,1.253
			C34.963,26.572,34.998,26.576,35.03,26.58z"/>
		<path fill-rule="evenodd" clip-rule="evenodd" fill="#FFFFFF" d="M26.575,21.661c0,0.19,0,0.341,0,0.493
			c0,1.768,0.008,3.534-0.006,5.302c-0.004,0.353,0.151,0.471,0.463,0.471c0.371,0,0.743-0.002,1.112-0.004
			c0.299-0.002,0.451-0.118,0.448-0.453c-0.01-2.854-0.01-5.71,0-8.563c0-0.265-0.09-0.403-0.34-0.454
			c-0.058-0.011-0.123-0.021-0.17-0.052c-0.142-0.097-0.277-0.203-0.415-0.306c0.14-0.083,0.273-0.201,0.427-0.243
			c0.64-0.177,1.288-0.33,1.932-0.491c0.08-0.02,0.162-0.022,0.287-0.041c0,0.166,0,0.306,0,0.446c0,3.188,0,6.378,0,9.566
			c0,0.531,0.035,0.59,0.554,0.592c0.365,0.001,0.427,0.167,0.349,0.493c-2.372,0-4.753,0-7.141,0c0-0.157,0-0.295,0-0.422
			c0.04-0.024,0.06-0.044,0.079-0.047c0.692-0.069,0.693-0.069,0.694-0.762c0.003-1.267-0.011-2.532,0.01-3.798
			c0.005-0.348-0.102-0.544-0.441-0.61c-0.093-0.02-0.194-0.035-0.271-0.085c-0.087-0.059-0.149-0.154-0.223-0.235
			c0.075-0.066,0.141-0.172,0.228-0.197c0.676-0.189,1.354-0.365,2.032-0.542C26.294,21.691,26.411,21.685,26.575,21.661z"/>
	</g>
</g>
<g id="ey" display="none">
	<g display="inline">
		<path fill-rule="evenodd" clip-rule="evenodd" fill="#FFFFFF" d="M9.643,38.067c0.005-0.084,0.016-0.169,0.016-0.253
			C9.66,34.232,9.66,30.65,9.66,27.068c0-0.242,0-0.242,0.24-0.242c1.972,0,3.944,0.001,5.917-0.003
			c0.134,0,0.216,0.036,0.286,0.157c0.44,0.777,0.889,1.551,1.334,2.326c0.007,0.014,0.006,0.031,0.013,0.067
			c-1.483,0-2.958,0-4.457,0c0,0.135,0,0.251,0,0.368c0,0.437,0,0.873,0,1.31c0,0.229,0.001,0.229,0.237,0.229
			c1.202,0,2.403,0,3.604,0c0.24,0,0.24,0,0.24,0.23c0,0.624-0.004,1.247,0.003,1.871c0.002,0.161-0.046,0.216-0.212,0.215
			c-1.224-0.006-2.448,0-3.672-0.006c-0.151-0.001-0.207,0.035-0.204,0.197c0.01,0.504,0.01,1.008,0,1.513
			c-0.003,0.159,0.048,0.201,0.202,0.2c1.734-0.005,3.469-0.003,5.203-0.003c0.22,0,0.216,0.001,0.217,0.223
			c0.002,0.782,0.007,1.563,0.011,2.346C15.629,38.067,12.636,38.067,9.643,38.067z"/>
		<path fill-rule="evenodd" clip-rule="evenodd" fill="#FFFFFF" d="M21.037,38.067c0.006-0.073,0.016-0.146,0.016-0.22
			c0.001-1.325-0.002-2.651,0.004-3.977c0.001-0.185-0.045-0.34-0.136-0.496c-0.933-1.609-1.863-3.221-2.792-4.832
			c-0.324-0.561-0.646-1.121-0.982-1.703c0.064-0.006,0.111-0.014,0.158-0.014c1.111-0.001,2.222,0.002,3.332-0.003
			c0.127-0.001,0.191,0.046,0.248,0.154c0.483,0.935,0.973,1.866,1.459,2.799c0.122,0.233,0.24,0.469,0.38,0.741
			c0.068-0.111,0.119-0.184,0.159-0.261c0.563-1.084,1.127-2.168,1.686-3.254c0.068-0.132,0.152-0.183,0.305-0.181
			c1.06,0.007,2.119,0.004,3.18,0.004c0.061,0,0.121,0,0.225,0c-0.146,0.262-0.271,0.492-0.403,0.72
			c-1.013,1.753-2.026,3.506-3.039,5.259c-0.074,0.127-0.138,0.262-0.225,0.379c-0.21,0.282-0.262,0.594-0.258,0.941
			c0.014,1.234,0.005,2.47,0.006,3.706c0,0.079,0.009,0.157,0.013,0.236C23.26,38.067,22.148,38.067,21.037,38.067z"/>
	</g>
	<polygon display="inline" fill-rule="evenodd" clip-rule="evenodd" fill="#FFFFFF" points="9.405,23.378 40.596,12.013 
		40.596,17.696 	"/>
</g>
<g id="tiaa" display="none">
	<path display="inline" fill="#FFFFFF" d="M10.162,18.446c-1.218,0.707-2.402,1.434-1.756,3.401c1.434,0,2.94,0,4.613,0
		c0,1.741,0,3.259,0,4.773c1.921-0.026,2.992-0.563,3.055-1.854c0.104-2.1-0.093-4.214-0.164-6.321
		C13.994,18.446,12.078,18.446,10.162,18.446z"/>
	<path display="inline" fill="#FFFFFF" d="M7.705,19.5c-0.998,1.045-1.825,1.912-2.652,2.778c0,2.447,0,4.896,0,7.345
		c1.694,0.018,3.523,0.125,5.077,0.088c2.211-0.053,3.561-0.77,4.776-2.65c-2.503,0-4.845,0-7.202,0
		C7.705,24.536,7.705,22.163,7.705,19.5z"/>
	<path display="inline" fill="#FFFFFF" d="M40.146,24.81l0.822-1.981C40.705,23.461,40.442,24.094,40.146,24.81z"/>
	<path display="inline" fill="none" d="M40.968,22.828c-0.263,0.633-0.525,1.266-0.822,1.981c0.628,0,1.165,0,1.785,0
		c-0.292-0.708-0.557-1.352-0.821-1.996C41.062,22.818,41.015,22.823,40.968,22.828z"/>
	<path display="inline" fill="#FFFFFF" d="M37.025,28.358c0.006-0.013,0.01-0.019,0.016-0.031c-0.01,0-0.02,0-0.029,0
		C37.017,28.339,37.02,28.347,37.025,28.358z"/>
	<path display="inline" fill="#FFFFFF" d="M44.818,27.818c-1.069-2.547-2.142-5.092-3.206-7.64c-0.11-0.264-0.188-0.496-0.556-0.497
		c-0.375-0.002-0.446,0.244-0.555,0.501c-1.062,2.53-2.127,5.058-3.193,7.585c-0.033,0.079-0.071,0.159-0.116,0.251
		c-0.013,0.025-0.031,0.062-0.044,0.09c-0.033,0.065-0.066,0.133-0.107,0.218c0.24,0.002,0.48,0.005,0.721,0.005
		c0.924,0,0.924,0,1.282-0.867c0.513-1.238,0.513-1.242,1.877-1.236c0.515,0.002,1.146-0.155,1.512,0.084
		c0.363,0.238,0.461,0.884,0.674,1.351c0.061,0.134,0.095,0.288,0.185,0.399c0.089,0.111,0.228,0.246,0.353,0.256
		c0.435,0.031,0.874,0.012,1.373,0.012C44.934,28.115,44.88,27.965,44.818,27.818z M40.146,24.81
		c0.297-0.716,0.56-1.349,0.822-1.981c0.047-0.005,0.094-0.01,0.142-0.015c0.265,0.644,0.529,1.288,0.821,1.996
		C41.311,24.81,40.773,24.81,40.146,24.81z"/>
	<path display="inline" fill="#FFFFFF" d="M32.141,24.81l0.822-1.981C32.7,23.461,32.438,24.094,32.141,24.81z"/>
	<path display="inline" fill="none" d="M32.963,22.828c-0.263,0.633-0.525,1.266-0.822,1.981c0.628,0,1.165,0,1.785,0
		c-0.292-0.708-0.557-1.352-0.821-1.996C33.057,22.818,33.01,22.823,32.963,22.828z"/>
	<path display="inline" fill="#FFFFFF" d="M29.021,28.358c0.006-0.013,0.01-0.019,0.016-0.031c-0.01,0-0.02,0-0.029,0
		C29.012,28.339,29.015,28.347,29.021,28.358z"/>
	<path display="inline" fill="#FFFFFF" d="M36.813,27.818c-1.069-2.547-2.142-5.092-3.206-7.64c-0.11-0.264-0.188-0.496-0.556-0.497
		c-0.375-0.002-0.446,0.244-0.555,0.501c-1.062,2.53-2.127,5.058-3.193,7.585c-0.033,0.079-0.071,0.159-0.116,0.251
		c-0.013,0.025-0.031,0.062-0.044,0.09c-0.033,0.065-0.066,0.133-0.107,0.218c0.24,0.002,0.48,0.005,0.721,0.005
		c0.924,0,0.924,0,1.282-0.867c0.513-1.238,0.513-1.242,1.877-1.236c0.515,0.002,1.146-0.155,1.512,0.084
		c0.363,0.238,0.461,0.884,0.674,1.351c0.061,0.134,0.095,0.288,0.185,0.399c0.089,0.111,0.228,0.246,0.353,0.256
		c0.435,0.031,0.874,0.012,1.373,0.012C36.929,28.115,36.875,27.965,36.813,27.818z M32.141,24.81
		c0.297-0.716,0.56-1.349,0.822-1.981c0.047-0.005,0.094-0.01,0.142-0.015c0.265,0.644,0.529,1.288,0.821,1.996
		C33.306,24.81,32.769,24.81,32.141,24.81z"/>
	<path display="inline" fill="#FFFFFF" d="M25.702,19.819c-2.028-0.021-4.057-0.021-6.085-0.003
		c-0.126,0.001-0.344,0.171-0.359,0.284c-0.047,0.356-0.017,0.724-0.017,1.153c0.885,0,1.703,0,2.588,0c0,2.397,0,4.727,0,7.041
		c0.56,0,1.05,0,1.596,0c0-2.353,0-4.667,0-7.041c0.896,0,1.734,0,2.639,0c0-0.429,0.034-0.766-0.017-1.088
		C26.025,20.029,25.824,19.82,25.702,19.819z"/>
	<path display="inline" fill="#FFFFFF" d="M27.035,19.866c-0.088,0.01-0.187,0.395-0.188,0.608
		c-0.014,2.174-0.009,4.348-0.009,6.522c0,1.449,0,1.449,1.508,1.296c0.027-0.069,0.052-0.103,0.052-0.136
		c0.007-2.652,0.012-5.305,0.013-7.958c0-0.104-0.042-0.295-0.076-0.298C27.901,19.863,27.462,19.817,27.035,19.866z"/>
	<rect x="26.837" y="19.866" fill="#FFFFFF" width="1.573" height="8.5"/>
</g>
<g id="mhe" display="none">
	<g display="inline">
		<path fill="#FFFFFF" d="M13.89,14.087v20.793h20.742V14.087H13.89z M34.529,34.778H14.074V14.14h20.455V34.778z"/>
		<path fill="#FFFFFF" d="M14.074,34.778h20.455V14.14H14.074V34.778z M19.552,34.436h-1.487v-2.449h-1.943v2.449h-1.488V28.19
			h1.488v2.349h1.943V28.19h1.487V34.436z M21.355,34.436h-1.28v-4.371h1.28V34.436z M21.355,29.29h-1.28v-1.1h1.28V29.29z
			 M23.254,34.436h-1.28V28.19h1.28V34.436z M25.272,34.436h-1.281V28.19h1.281V34.436z M28.895,23.296l0.433,3.413h0.058
			l0.647-3.413h1.497l0.646,3.413h0.053l0.453-3.413h1.206l-0.685,4.37h-1.839l-0.549-3.112H30.77l-0.535,3.112h-1.859l-0.709-4.37
			H28.895z M27.383,24.938v2.728h-1.279l0.045-0.648h-0.045c-0.097,0.601-0.678,0.699-1.125,0.699c-0.893,0-1.413-0.24-1.413-1.355
			c0-1.05,0.491-1.375,1.413-1.375c0.365,0,0.922-0.007,1.065,0.492h0.06v-0.691c0-0.407-0.023-0.667-0.581-0.667
			c-0.32,0-0.521,0.084-0.521,0.475h-1.28c0-1.356,0.886-1.349,1.801-1.349C26.832,23.247,27.383,23.431,27.383,24.938z
			 M23.929,16.48c1.124,0,1.889,0.133,1.889,1.69h-1.279c0.007-0.232-0.015-0.375-0.105-0.466c-0.089-0.092-0.238-0.126-0.505-0.126
			c-0.454,0-0.589,0.142-0.589,1.141c0,1.024,0.104,1.132,0.589,1.132c0.58,0,0.61-0.158,0.61-0.699h1.279
			c0,0.815-0.126,1.266-0.431,1.506c-0.298,0.25-0.766,0.292-1.458,0.292c-1.511,0-1.869-0.507-1.869-2.231
			C22.061,17.238,22.329,16.48,23.929,16.48z M22.344,23.247c0.893,0,0.967,0.816,0.967,1.616v0.341h-1.153v-0.208
			c0-0.308,0.015-0.65-0.335-0.65c-0.386,0-0.477,0.342-0.477,0.701v2.62h-1.28v-4.37h1.243v0.641h0.053
			C21.532,23.438,21.868,23.247,22.344,23.247z M14.611,14.657h2.359l1.064,3.922h0.052l1.012-3.922h2.418V20.9h-1.489l0.149-4.787
			h-0.052L18.711,20.9h-1.288l-1.429-4.787H15.95l0.149,4.787h-1.488V14.657z M14.395,23.747c0-2.064,1.012-2.374,2.649-2.374
			c1.444,0,2.472,0.01,2.472,1.99h-1.511c-0.03-0.631-0.513-0.624-0.96-0.624c-1.071,0-1.101,0.367-1.116,1.373v1.017
			c0,1.107,0.342,1.224,1.116,1.224c0.758,0,0.96-0.191,0.96-1.058h-1.027v-1.157h2.538v1.089c0,2.106-0.478,2.489-2.472,2.489
			c-1.755,0-2.649-0.332-2.649-2.355V23.747z"/>
		<path fill="#FFFFFF" d="M25.403,25.859c-0.312,0-0.558,0.061-0.558,0.461c0,0.473,0.365,0.473,0.558,0.473
			c0.536,0,0.701-0.076,0.701-0.533C26.104,25.895,25.82,25.859,25.403,25.859z"/>
	</g>
</g>
<g id="jpmorgan" display="none">
	<g display="inline">
		<path fill="#FFFFFF" d="M36.834,22.997c-0.213-0.058-0.404,0.074-0.482,0.32c-0.014,0.05-0.023,0.098-0.035,0.146
			c-0.08,0.254-0.336,0.328-0.551,0.17c-0.713-0.516-1.492-0.587-2.283-0.252c-0.934,0.397-1.268,1.806-0.662,2.622
			c0.205,0.276,0.496,0.406,0.816,0.491c0.041,0.009,0.076,0.026,0.117,0.042c-0.004,0.012-0.004,0.025-0.004,0.033
			c-0.039,0.011-0.076,0.025-0.115,0.032c-0.303,0.071-0.607,0.139-0.871,0.32c-0.518,0.36-0.459,1.112,0.117,1.366
			c0.201,0.088,0.424,0.152,0.639,0.175c0.459,0.047,0.916,0.049,1.373,0.084c0.264,0.02,0.533,0.033,0.783,0.107
			c0.535,0.159,0.674,0.766,0.271,1.163c-0.111,0.109-0.26,0.197-0.406,0.269c-0.314,0.148-0.66,0.184-1.008,0.189
			c-0.357,0.006-0.715-0.014-1.049-0.166c-0.336-0.155-0.455-0.377-0.393-0.742c0.008-0.05,0.016-0.1,0.01-0.147
			c-0.023-0.264-0.266-0.402-0.504-0.295c-0.129,0.061-0.203,0.164-0.24,0.295c-0.113,0.395,0.035,0.799,0.391,1.004
			c0.166,0.095,0.359,0.163,0.549,0.209c0.27,0.062,0.547,0.088,0.818,0.131c0.135,0,0.271,0,0.404,0
			c0.049-0.008,0.1-0.015,0.148-0.023c0.258-0.041,0.523-0.058,0.768-0.136c0.535-0.161,0.971-0.46,1.141-1.027
			c0.16-0.524,0.121-1.026-0.297-1.436c-0.266-0.261-0.609-0.33-0.963-0.355c-0.531-0.034-1.068-0.05-1.6-0.077
			c-0.139-0.009-0.279-0.021-0.408-0.059c-0.242-0.068-0.303-0.349-0.117-0.519c0.066-0.062,0.152-0.112,0.236-0.137
			c0.189-0.06,0.381-0.101,0.574-0.146c0.398-0.093,0.814-0.148,1.197-0.284c0.77-0.266,1.125-0.858,1.043-1.666
			c-0.023-0.228-0.084-0.447-0.127-0.652c0.094,0,0.203,0.006,0.311,0c0.361-0.021,0.631-0.227,0.686-0.526
			C37.154,23.308,37.014,23.043,36.834,22.997z M35.223,25.752c-0.094,0.384-0.334,0.557-0.729,0.571c-0.01,0-0.018,0-0.027,0
			c-0.623,0.021-0.865-0.162-0.969-0.773c-0.078-0.477-0.082-0.957,0.064-1.426c0.104-0.321,0.279-0.595,0.643-0.663
			c0.467-0.088,0.83,0.093,0.992,0.525c0.113,0.295,0.129,0.606,0.16,0.921C35.314,25.192,35.293,25.478,35.223,25.752z"/>
		<path fill="#FFFFFF" d="M22.062,27.093c-0.017-0.112-0.018-0.226-0.018-0.341c-0.001-1.627-0.001-3.257-0.001-4.885
			c0-0.044,0-0.091,0-0.156c0.226,0,0.438,0,0.65,0c0-0.078,0-0.138,0-0.205c-0.052,0-0.093,0-0.134,0
			c-0.45,0-0.9,0.005-1.351-0.002c-0.103-0.002-0.145,0.033-0.182,0.124c-0.616,1.547-1.236,3.091-1.86,4.632
			c-0.015,0.042-0.055,0.077-0.083,0.113c-0.026-0.034-0.053-0.069-0.077-0.107c-0.01-0.011-0.016-0.028-0.021-0.046
			c-0.655-1.531-1.312-3.064-1.965-4.599c-0.037-0.089-0.083-0.119-0.177-0.117c-0.515,0.007-1.027,0.002-1.54,0.002
			c-0.042,0-0.083,0-0.132,0c0,0.075,0,0.135,0,0.209c0.258,0,0.509,0,0.764,0c0.005,0.042,0.011,0.07,0.011,0.098
			c-0.004,1.738-0.008,3.478-0.016,5.213c-0.001,0.354-0.213,0.571-0.564,0.609c-0.065,0.01-0.131,0.016-0.195,0.021
			c0,0.076,0,0.133,0,0.194c0.597,0,1.185,0,1.781,0c0-0.067,0-0.122,0-0.185c-0.063-0.012-0.12-0.02-0.179-0.031
			c-0.33-0.056-0.512-0.251-0.532-0.59c-0.012-0.17-0.017-0.342-0.018-0.514c0-1.327,0-2.651,0-3.979c0-0.049,0-0.102,0-0.155
			c0.126-0.046,0.13,0.049,0.156,0.106c0.744,1.738,1.487,3.474,2.231,5.213c0.029,0.066,0.037,0.148,0.155,0.148
			c0.116,0.003,0.125-0.074,0.153-0.146c0.275-0.676,0.551-1.354,0.825-2.031c0.423-1.044,0.847-2.086,1.27-3.13
			c0.017-0.039,0.044-0.076,0.066-0.115c0.011,0.004,0.022,0.009,0.032,0.012c0,0.042,0,0.082,0,0.124c0,1.4,0,2.801,0,4.205
			c0,0.086-0.001,0.174-0.008,0.262c-0.031,0.373-0.211,0.554-0.58,0.59c-0.062,0.005-0.124,0.016-0.187,0.02
			c0,0.076,0,0.135,0,0.194c0.834,0,1.661,0,2.488,0c0-0.067,0-0.128,0-0.192c-0.072-0.008-0.139-0.017-0.203-0.023
			C22.281,27.588,22.113,27.433,22.062,27.093z"/>
		<path fill="#FFFFFF" d="M12.794,24.982c0.59-0.205,0.991-0.595,1.076-1.229c0.042-0.309,0.034-0.632-0.001-0.942
			c-0.066-0.609-0.435-0.982-1.012-1.16c-0.363-0.112-0.739-0.154-1.12-0.154c-0.88-0.002-1.76-0.002-2.64-0.002
			c-0.032,0-0.064,0.004-0.099,0.007c0,0.074,0,0.139,0,0.217c0.25,0,0.492,0,0.741,0c0.003,0.055,0.006,0.094,0.006,0.136
			c0,1.596,0,3.192-0.001,4.784c0,0.145,0,0.289-0.018,0.431c-0.038,0.32-0.188,0.479-0.502,0.542
			c-0.123,0.023-0.248,0.035-0.382,0.055c0.004,0.066,0.006,0.127,0.008,0.183c0.927,0,1.838,0,2.751,0c0-0.067,0-0.124,0-0.188
			c-0.098-0.011-0.189-0.017-0.28-0.028c-0.415-0.045-0.622-0.243-0.633-0.658c-0.014-0.59-0.003-1.178-0.003-1.792
			c0.283,0,0.556,0.004,0.828-0.004C11.949,25.169,12.379,25.128,12.794,24.982z M10.69,24.937c0-1.068,0-2.123,0-3.188
			c0.539-0.013,1.073-0.042,1.582,0.167c0.369,0.154,0.594,0.431,0.683,0.816c0.079,0.333,0.096,0.669,0.044,1.004
			c-0.08,0.511-0.356,0.871-0.846,1.057C11.679,24.972,11.187,24.937,10.69,24.937z"/>
		<path fill="#FFFFFF" d="M47.158,27.561c-0.297-0.039-0.443-0.151-0.512-0.439c-0.039-0.166-0.053-0.34-0.057-0.513
			c-0.002-0.724,0.01-1.448,0-2.172c-0.01-0.586-0.35-1.008-0.893-1.139c-0.291-0.072-0.582-0.062-0.873,0.01
			c-0.432,0.107-0.729,0.383-0.961,0.748c-0.018,0.03-0.059,0.049-0.092,0.07c-0.018-0.031-0.047-0.063-0.055-0.1
			c-0.045-0.204-0.09-0.411-0.121-0.617c-0.014-0.098-0.055-0.111-0.143-0.111c-0.387,0.003-0.773,0-1.162,0
			c-0.037,0-0.074,0.003-0.115,0.007c0,0.08,0,0.15,0,0.24c0.232,0,0.453,0,0.688,0c0.002,0.057,0.008,0.09,0.008,0.123
			c0,0.993,0.002,1.987-0.002,2.979c0,0.172-0.018,0.345-0.045,0.514c-0.033,0.205-0.162,0.33-0.361,0.371
			c-0.096,0.021-0.191,0.032-0.285,0.047c0,0.093,0,0.185,0,0.271c0.746,0,1.48,0,2.213,0c0-0.099,0-0.187,0-0.275
			c-0.42-0.08-0.541-0.174-0.553-0.583c-0.02-0.753-0.029-1.508,0.018-2.257c0.043-0.697,0.527-1.062,1.199-0.992
			c0.254,0.031,0.436,0.163,0.5,0.413c0.053,0.189,0.094,0.386,0.1,0.581c0.018,0.782,0.021,1.566,0.025,2.349
			c0,0.235-0.137,0.396-0.365,0.45c-0.061,0.016-0.123,0.024-0.184,0.034c0,0.1,0,0.188,0,0.283c0.719,0,1.428,0,2.137,0
			c0-0.1,0-0.188,0-0.283C47.225,27.566,47.191,27.562,47.158,27.561z"/>
		<path fill="#FFFFFF" d="M41.816,27.009c-0.021,0.066-0.051,0.134-0.086,0.193c-0.102,0.16-0.25,0.221-0.424,0.178
			c-0.143-0.035-0.229-0.143-0.246-0.33c-0.014-0.159-0.021-0.319-0.021-0.48c-0.006-0.724,0.002-1.446-0.008-2.17
			c-0.008-0.639-0.301-0.998-0.906-1.13c-0.416-0.091-0.842-0.095-1.266-0.046c-0.369,0.044-0.719,0.136-1.008,0.39
			c-0.197,0.17-0.326,0.373-0.328,0.641c0,0.239,0.105,0.383,0.314,0.42c0.234,0.042,0.418-0.062,0.494-0.288
			c0.023-0.072,0.039-0.146,0.053-0.22c0.078-0.462,0.295-0.659,0.76-0.686c0.076-0.006,0.152,0,0.227,0.007
			c0.393,0.039,0.625,0.228,0.67,0.617c0.045,0.348,0.035,0.7,0.051,1.058c-0.074,0.01-0.125,0.015-0.176,0.022
			c-0.303,0.042-0.609,0.07-0.91,0.13c-0.432,0.086-0.848,0.223-1.189,0.516c-0.389,0.333-0.521,0.763-0.41,1.25
			c0.109,0.467,0.428,0.766,0.887,0.872c0.549,0.123,1.031-0.05,1.461-0.388c0.117-0.095,0.227-0.202,0.346-0.308
			c0.219,0.562,0.639,0.781,1.205,0.644c0.434-0.107,0.723-0.532,0.674-0.99C41.85,26.893,41.854,26.896,41.816,27.009z
			 M39.988,27.016c-0.238,0.198-0.484,0.394-0.795,0.469c-0.488,0.121-0.875-0.169-0.908-0.672c-0.023-0.34,0.105-0.617,0.357-0.835
			c0.406-0.348,0.889-0.5,1.434-0.535c0,0.293,0,0.563,0,0.837c0,0.18-0.002,0.359,0.004,0.543
			C40.082,26.906,40.053,26.959,39.988,27.016z"/>
		<path fill="#FFFFFF" d="M25.617,23.203c-1.08-0.072-1.961,0.454-2.235,1.611c-0.12,0.508-0.12,1.016-0.023,1.526
			c0.169,0.893,0.767,1.488,1.676,1.665c0.839,0.163,1.734-0.209,2.191-0.911c0.297-0.459,0.385-0.97,0.402-1.506
			c-0.018-0.171-0.029-0.343-0.051-0.514C27.432,23.979,26.715,23.278,25.617,23.203z M26.537,26.74
			c-0.029,0.166-0.08,0.329-0.145,0.481c-0.123,0.298-0.354,0.485-0.676,0.515c-0.221,0.02-0.447,0.018-0.665-0.016
			c-0.302-0.04-0.505-0.229-0.608-0.519c-0.116-0.327-0.131-0.666-0.148-1.007c-0.006-0.136,0-0.271,0-0.405
			c-0.012,0-0.022-0.002-0.034-0.002c0.035-0.447,0.069-0.894,0.106-1.343c0.006-0.064,0.026-0.132,0.045-0.195
			c0.14-0.493,0.414-0.728,0.924-0.763c0.17-0.013,0.345,0.002,0.513,0.042c0.369,0.086,0.576,0.348,0.664,0.703
			c0.047,0.195,0.082,0.396,0.088,0.597C26.627,25.468,26.648,26.107,26.537,26.74z"/>
		<path fill="#FFFFFF" d="M7.208,21.504c-0.874,0-1.742,0-2.606,0c0,0.075,0,0.139,0,0.215c0.276,0,0.544,0,0.817,0
			c0.004,0.047,0.007,0.084,0.007,0.122c0,1.422,0.004,2.845-0.002,4.267c0,0.231-0.02,0.462-0.053,0.692
			c-0.098,0.642-0.429,0.931-1.06,0.937c-0.438,0.004-0.64-0.191-0.651-0.631c-0.002-0.138-0.011-0.279-0.031-0.413
			c-0.021-0.127-0.092-0.226-0.219-0.271c-0.3-0.112-0.591,0.026-0.658,0.336c-0.104,0.472,0.027,1.015,0.694,1.18
			c0.523,0.125,1.053,0.105,1.578,0c0.681-0.134,1.11-0.54,1.249-1.223c0.052-0.262,0.075-0.534,0.076-0.802
			c0.009-1.342,0.005-2.687,0.005-4.027c0-0.056,0-0.106,0-0.17c0.294,0,0.569,0,0.854,0C7.208,21.638,7.208,21.573,7.208,21.504z"
			/>
		<path fill="#FFFFFF" d="M31.482,23.32c-0.461-0.131-1.123-0.082-1.477,0.569c-0.047,0.089-0.088,0.179-0.135,0.27
			c-0.016,0.024-0.039,0.044-0.084,0.095c-0.059-0.338-0.109-0.637-0.162-0.937c-0.521,0-1.027,0-1.539,0c0,0.076,0,0.146,0,0.228
			c0.275,0,0.547,0,0.822,0c0.002,0.041,0.008,0.07,0.008,0.101c0,1.016,0,2.034-0.008,3.054c0,0.154-0.016,0.31-0.043,0.462
			c-0.047,0.252-0.166,0.36-0.42,0.399c-0.119,0.017-0.238,0.021-0.359,0.031c0,0.092,0,0.172,0,0.259c0.859,0,1.717,0,2.578,0
			c0-0.089,0-0.167,0-0.259c-0.127-0.01-0.246-0.015-0.361-0.029c-0.238-0.032-0.367-0.151-0.424-0.386
			c-0.014-0.064-0.029-0.132-0.029-0.196c-0.012-0.46-0.016-0.918-0.018-1.377c-0.002-0.238-0.012-0.48,0.02-0.718
			c0.051-0.396,0.234-0.727,0.596-0.93c0.252-0.14,0.475-0.099,0.672,0.11c0.076,0.082,0.143,0.168,0.217,0.247
			c0.107,0.111,0.232,0.141,0.381,0.097c0.154-0.049,0.252-0.146,0.283-0.306C32.066,23.759,31.854,23.423,31.482,23.32z"/>
		<path fill="#FFFFFF" d="M13.385,27.007c-0.288,0.002-0.508,0.222-0.51,0.51c-0.001,0.286,0.223,0.509,0.513,0.509
			c0.289,0,0.52-0.223,0.521-0.5C13.912,27.237,13.68,27.007,13.385,27.007z"/>
		<path fill="#FFFFFF" d="M7.572,27.007c-0.285-0.003-0.516,0.219-0.521,0.504c-0.008,0.278,0.222,0.51,0.508,0.515
			c0.288,0.009,0.522-0.213,0.525-0.495C8.086,27.237,7.866,27.009,7.572,27.007z"/>
	</g>
</g>
<g id="oppenheimer" display="none">
	<g display="inline">
		<path fill-rule="evenodd" clip-rule="evenodd" fill="#FFFFFF" d="M25.525,9.15c0.334,0.193,0.663,0.394,1,0.58
			c0.428,0.238,0.877,0.431,1.279,0.702c0.248,0.17,0.428,0.436,0.623,0.674c0.373,0.439,0.723,0.905,1.113,1.331
			c0.123,0.136,0.33,0.223,0.516,0.281c0.223,0.067,0.395,0.166,0.527,0.358c0.129,0.188,0.264,0.358,0.479,0.484
			c0.213,0.126,0.354,0.397,0.484,0.628c0.047,0.079-0.025,0.229-0.045,0.355c0.363,0.362,0.471,0.546,0.287,0.924
			c0.43,0.193,0.572,0.678,0.338,1.094c-0.322,0.572-0.664,1.132-0.934,1.734c-0.197,0.444-0.551,0.711-0.891,1.008
			c-0.463,0.395-0.943,0.774-1.402,1.176c-0.078,0.062-0.135,0.179-0.156,0.285c-0.074,0.378-0.271,0.639-0.604,0.833
			c-0.115,0.068-0.211,0.193-0.275,0.314c-0.211,0.396-0.646,0.596-1.002,0.431c-0.213,0.368-0.557,0.504-0.887,0.348
			c-0.171,0.146-0.335,0.291-0.503,0.438c-0.148,0-0.296,0-0.444,0c-0.48-0.263-0.966-0.514-1.436-0.801
			c-0.427-0.256-0.915-0.41-1.232-0.842c-0.346-0.475-0.727-0.925-1.116-1.359c-0.191-0.212-0.319-0.519-0.677-0.554
			c-0.317-0.023-0.517-0.23-0.698-0.478c-0.104-0.146-0.252-0.271-0.407-0.359c-0.317-0.174-0.53-0.662-0.407-1.002
			c-0.387-0.358-0.507-0.542-0.345-0.897c-0.149-0.167-0.286-0.331-0.424-0.498c0-0.148,0-0.299,0-0.443
			c0.247-0.445,0.484-0.896,0.747-1.327c0.28-0.455,0.431-0.997,0.896-1.342c0.472-0.35,0.92-0.73,1.358-1.118
			c0.215-0.188,0.519-0.319,0.552-0.679c0.027-0.3,0.221-0.503,0.463-0.677c0.16-0.117,0.285-0.301,0.396-0.465
			c0.186-0.294,0.666-0.483,0.979-0.369c0.257-0.312,0.496-0.507,0.896-0.344c0.175-0.148,0.338-0.283,0.501-0.425
			C25.227,9.15,25.375,9.15,25.525,9.15z M26.461,15.498c0,0.214-0.004,0.402,0.004,0.591c0.014,0.717,0.018,1.433,0.053,2.146
			c0.016,0.318,0.131,0.619,0.377,0.848c0.305,0.27,0.615,0.535,0.916,0.812c0.287,0.271,0.486,0.29,0.791,0.037
			c0.453-0.367,0.908-0.734,1.355-1.112c0.221-0.184,0.465-0.357,0.619-0.591c0.389-0.605,0.74-1.24,1.104-1.857
			c0.172-0.293,0.16-0.351-0.133-0.524c-0.34,0.5-0.689,1.002-1.035,1.51c-0.23-0.164-0.225-0.3-0.1-0.483
			c0.316-0.454,0.617-0.93,0.922-1.396c0.199-0.305,0.197-0.313-0.104-0.591c-0.406,0.563-0.809,1.115-1.219,1.676
			c-0.199-0.154-0.229-0.295-0.105-0.464c0.119-0.166,0.234-0.33,0.348-0.495c0.266-0.382,0.521-0.764,0.795-1.137
			c0.158-0.208,0.025-0.345-0.102-0.46c-0.16-0.141-0.211,0.029-0.285,0.136c-0.357,0.474-0.721,0.939-1.078,1.413
			c-0.033,0.039-0.105,0.088-0.133,0.077c-0.062-0.029-0.141-0.092-0.145-0.144c-0.008-0.088,0.01-0.205,0.061-0.276
			c0.297-0.413,0.596-0.809,0.904-1.206c0.248-0.329,0.211-0.522-0.178-0.746c-0.367,0.427-0.732,0.867-1.105,1.298
			c-0.389,0.456-0.779,0.899-1.182,1.346c-0.158,0.174-0.428,0.087-0.492-0.145c-0.027-0.087-0.053-0.175-0.076-0.262
			C26.977,15.498,26.738,15.498,26.461,15.498z M24.04,16.785c0-0.905,0.015-1.771-0.007-2.64c-0.008-0.337-0.108-0.667-0.392-0.913
			c-0.308-0.272-0.583-0.582-0.901-0.838c-0.315-0.257-0.376-0.35-0.785-0.049c-0.316,0.228-0.633,0.46-0.913,0.731
			c-0.422,0.396-0.951,0.677-1.243,1.22c-0.323,0.59-0.687,1.153-1.033,1.733c-0.089,0.149-0.02,0.271,0.103,0.353
			c0.131,0.093,0.168-0.032,0.227-0.12c0.264-0.387,0.53-0.773,0.808-1.157c0.043-0.062,0.137-0.087,0.21-0.131
			c0.028,0.107,0.097,0.215,0.079,0.307c-0.02,0.1-0.111,0.192-0.175,0.283c-0.299,0.456-0.595,0.911-0.907,1.356
			c-0.132,0.185,0.029,0.271,0.087,0.398c0.083-0.039,0.194-0.06,0.245-0.127c0.255-0.335,0.492-0.682,0.741-1.021
			c0.115-0.156,0.247-0.295,0.375-0.451c0.18,0.185,0.178,0.326,0.06,0.494c-0.386,0.544-0.763,1.085-1.142,1.632
			c-0.088,0.131-0.03,0.323,0.133,0.441c0.154,0.105,0.188-0.03,0.255-0.118c0.335-0.459,0.673-0.918,1.023-1.363
			c0.057-0.068,0.212-0.156,0.266-0.126c0.122,0.066,0.127,0.213,0.039,0.338c-0.031,0.05-0.055,0.098-0.09,0.145
			c-0.3,0.397-0.604,0.801-0.905,1.202c-0.12,0.164-0.173,0.327,0.021,0.489c0.055,0.044,0.085,0.111,0.134,0.18
			c0.075-0.045,0.15-0.068,0.197-0.121c0.306-0.359,0.609-0.723,0.914-1.082c0.393-0.468,0.777-0.948,1.187-1.396
			c0.082-0.095,0.267-0.137,0.392-0.122c0.078,0.01,0.131,0.179,0.199,0.271c0.051,0.072,0.101,0.188,0.161,0.194
			C23.602,16.806,23.81,16.785,24.04,16.785z M25.923,17.376c-0.936,0-1.844-0.014-2.749,0.015
			c-0.226,0.005-0.494,0.112-0.661,0.261c-0.395,0.364-0.753,0.767-1.104,1.173c-0.172,0.198-0.124,0.412,0.043,0.613
			c0.354,0.428,0.695,0.863,1.045,1.289c0.187,0.229,0.346,0.505,0.582,0.659c0.683,0.448,1.396,0.853,2.098,1.278
			c0.159,0.091,0.255-0.039,0.344-0.136c0.013-0.02-0.06-0.156-0.119-0.193c-0.395-0.291-0.8-0.562-1.196-0.843
			c-0.052-0.033-0.116-0.136-0.102-0.156c0.044-0.057,0.117-0.125,0.186-0.125c0.08-0.011,0.174,0.028,0.247,0.076
			c0.26,0.167,0.514,0.34,0.767,0.515c0.264,0.174,0.521,0.358,0.787,0.533c0.176,0.106,0.273-0.051,0.354-0.161
			c0.018-0.025-0.061-0.159-0.123-0.207c-0.442-0.329-0.89-0.648-1.34-0.969c-0.141-0.097-0.141-0.193,0.017-0.242
			c0.096-0.029,0.229-0.024,0.312,0.021c0.191,0.104,0.358,0.251,0.539,0.376c0.374,0.263,0.745,0.519,1.12,0.776
			c0.137,0.095,0.348,0.032,0.453-0.127c0.133-0.184-0.082-0.208-0.148-0.262c-0.436-0.349-0.895-0.667-1.335-1.017
			c-0.073-0.054-0.157-0.197-0.134-0.242c0.068-0.127,0.202-0.154,0.334-0.067c0.041,0.027,0.09,0.043,0.129,0.073
			c0.396,0.294,0.797,0.589,1.189,0.89c0.256,0.198,0.355,0.189,0.592-0.038c0.131-0.123,0.08-0.198-0.029-0.29
			c-0.184-0.15-0.361-0.307-0.541-0.456c-0.375-0.313-0.754-0.625-1.127-0.938c-0.264-0.218-0.535-0.432-0.775-0.679
			c-0.089-0.091-0.143-0.262-0.133-0.392c0.012-0.141,0.148-0.207,0.311-0.219c0.061-0.004,0.156-0.11,0.164-0.185
			C25.938,17.793,25.923,17.604,25.923,17.376z M24.944,9.823c0.527,0.367,1.036,0.726,1.544,1.084
			C26.32,11.16,26.162,11.092,26,10.986c-0.498-0.339-1.005-0.66-1.495-1.008c-0.2-0.146-0.315,0-0.409,0.103
			c-0.119,0.129,0.042,0.178,0.132,0.236c0.055,0.038,0.099,0.088,0.152,0.126c0.38,0.271,0.767,0.543,1.144,0.823
			c0.052,0.038,0.065,0.141,0.095,0.211c-0.093,0.031-0.186,0.068-0.279,0.075c-0.045,0.004-0.096-0.056-0.144-0.083
			c-0.481-0.329-0.96-0.669-1.442-0.997c-0.378-0.256-0.397-0.252-0.712,0.106c0.533,0.4,1.065,0.803,1.591,1.21
			c0.056,0.039,0.076,0.126,0.115,0.194c-0.097,0.043-0.188,0.105-0.285,0.121c-0.055,0.004-0.122-0.073-0.182-0.112
			c-0.437-0.318-0.879-0.639-1.312-0.969c-0.113-0.087-0.211-0.097-0.328-0.014c-0.325,0.237-0.325,0.285,0.022,0.527
			c0.021,0.016,0.042,0.028,0.059,0.048c0.748,0.631,1.498,1.26,2.234,1.903c0.1,0.087,0.158,0.277,0.146,0.407
			c-0.004,0.07-0.187,0.141-0.284,0.206c-0.065,0.051-0.175,0.099-0.178,0.157c-0.022,0.203-0.012,0.416-0.012,0.648
			c0.881,0,1.733,0,2.581,0c0.051,0,0.107,0.011,0.148-0.004c0.238-0.093,0.516-0.142,0.701-0.296
			c0.326-0.272,0.607-0.601,0.889-0.924c0.381-0.442,0.389-0.549,0.027-1.004c-0.355-0.45-0.742-0.881-1.113-1.326
			c-0.137-0.156-0.25-0.358-0.422-0.466c-0.662-0.426-1.342-0.813-2.014-1.225C25.222,9.544,25.096,9.631,24.944,9.823z
			 M25.909,16.782c0-0.443,0-0.858,0-1.273c-0.436,0-0.852,0-1.263,0c0,0.435,0,0.851,0,1.273
			C25.075,16.782,25.483,16.782,25.909,16.782z"/>
		<path fill-rule="evenodd" clip-rule="evenodd" fill="#FFFFFF" d="M2.29,31.727c-0.482,0-0.918-0.123-1.294-0.42
			c-0.305-0.244-0.477-0.576-0.566-0.945c-0.166-0.693-0.128-1.362,0.275-1.978c0.271-0.416,0.664-0.631,1.151-0.697
			c0.446-0.062,0.882-0.051,1.312,0.123c0.51,0.197,0.806,0.587,0.951,1.077c0.177,0.601,0.164,1.206-0.082,1.796
			c-0.213,0.507-0.592,0.814-1.113,0.948C2.718,31.684,2.5,31.694,2.29,31.727z M1.331,29.685c0.029,0.192,0.05,0.39,0.091,0.58
			c0.085,0.396,0.447,0.681,0.859,0.691c0.371,0.004,0.71-0.244,0.845-0.605c0.103-0.28,0.095-0.57,0.095-0.857
			c-0.001-0.606-0.271-0.951-0.86-1.06c-0.278-0.05-0.528,0.032-0.724,0.256C1.383,28.973,1.349,29.321,1.331,29.685z"/>
		<path fill-rule="evenodd" clip-rule="evenodd" fill="#FFFFFF" d="M27.518,31.596c-0.287,0-0.557,0-0.842,0c0-0.22,0-0.437,0-0.654
			c0-0.345,0-0.685-0.006-1.027c-0.002-0.108-0.014-0.218-0.039-0.318c-0.039-0.18-0.188-0.308-0.338-0.313
			c-0.184-0.006-0.372,0.117-0.435,0.3c-0.038,0.114-0.064,0.239-0.069,0.358c-0.008,0.496,0,0.991,0,1.485c0,0.055,0,0.108,0,0.17
			c-0.298,0-0.578,0-0.869,0c0-0.929,0-1.85,0-2.785c0.262,0,0.523,0,0.798,0c0,0.099,0,0.195,0,0.339
			c0.255-0.287,0.517-0.472,0.88-0.453c0.363,0.026,0.621,0.18,0.76,0.483c0.172-0.133,0.338-0.312,0.539-0.396
			c0.557-0.228,1.297-0.054,1.35,0.785c0.037,0.638,0.025,1.28,0.037,1.922c0,0.03-0.006,0.063-0.006,0.101
			c-0.289,0-0.566,0-0.875,0c0-0.058,0-0.115,0-0.173c0-0.547,0.006-1.095,0-1.648c-0.006-0.183-0.051-0.369-0.248-0.449
			c-0.26-0.112-0.553,0.095-0.6,0.418c-0.025,0.164-0.031,0.335-0.033,0.501C27.518,30.686,27.518,31.132,27.518,31.596z"/>
		<path fill-rule="evenodd" clip-rule="evenodd" fill="#FFFFFF" d="M8.571,31.4c0,0.421,0,0.811,0,1.206c-0.293,0-0.573,0-0.865,0
			c0-1.263,0-2.526,0-3.8c0.264,0,0.522,0,0.793,0c0.004,0.09,0.011,0.177,0.018,0.291c0.189-0.199,0.384-0.328,0.64-0.375
			c0.566-0.108,1.179,0.151,1.384,0.74c0.211,0.623,0.201,1.223-0.175,1.786c-0.195,0.285-0.494,0.416-0.833,0.451
			C9.181,31.735,8.87,31.631,8.571,31.4z M9.799,30.099c-0.038-0.121-0.083-0.341-0.179-0.535c-0.178-0.357-0.708-0.375-0.918-0.039
			c-0.273,0.435-0.26,0.9-0.022,1.335c0.196,0.356,0.647,0.318,0.846,0.113C9.736,30.757,9.768,30.482,9.799,30.099z"/>
		<path fill-rule="evenodd" clip-rule="evenodd" fill="#FFFFFF" d="M5.337,31.434c0,0.365,0,0.765,0,1.173c-0.284,0-0.554,0-0.833,0
			c0-1.263,0-2.521,0-3.796c0.259,0,0.521,0,0.796,0c0,0.086,0,0.173,0,0.281c0.043-0.031,0.071-0.045,0.089-0.063
			c0.382-0.468,1.283-0.423,1.682,0.012c0.19,0.21,0.306,0.453,0.355,0.727c0.071,0.396,0.058,0.791-0.096,1.171
			c-0.234,0.578-0.768,0.859-1.372,0.736C5.748,31.635,5.55,31.52,5.337,31.434z M5.272,30.179c0.048,0.194,0.077,0.367,0.131,0.533
			c0.08,0.248,0.282,0.401,0.518,0.408c0.266,0,0.466-0.127,0.557-0.38c0.131-0.356,0.136-0.72,0-1.074
			c-0.086-0.229-0.265-0.371-0.511-0.378c-0.231-0.006-0.435,0.093-0.525,0.322C5.367,29.797,5.326,29.994,5.272,30.179z"/>
		<path fill-rule="evenodd" clip-rule="evenodd" fill="#FFFFFF" d="M45.945,29.075c0-0.449,0-0.857,0-1.279c0.283,0,0.551,0,0.832,0
			c0,1.261,0,2.521,0,3.794c-0.268,0-0.539,0-0.824,0c-0.004-0.084-0.008-0.171-0.01-0.273c-0.082,0.06-0.154,0.109-0.221,0.166
			c-0.533,0.46-1.502,0.212-1.766-0.571c-0.166-0.486-0.17-0.984,0.029-1.469c0.174-0.427,0.557-0.695,1.047-0.712
			C45.371,28.723,45.67,28.799,45.945,29.075z M44.734,30.201c-0.016,0.006-0.029,0.006-0.045,0.013
			c0.061,0.198,0.098,0.403,0.174,0.59c0.162,0.412,0.748,0.421,0.953,0.041c0.227-0.408,0.221-0.828,0.025-1.242
			c-0.176-0.376-0.717-0.402-0.947-0.058C44.768,29.742,44.711,29.965,44.734,30.201z"/>
		<path fill-rule="evenodd" clip-rule="evenodd" fill="#FFFFFF" d="M20.004,31.6c-0.271,0-0.546,0-0.845,0c0-0.065,0-0.123,0-0.181
			c0-0.539,0.006-1.078,0-1.613c0-0.402-0.311-0.626-0.651-0.474c-0.185,0.084-0.268,0.256-0.297,0.448
			c-0.022,0.146-0.034,0.3-0.034,0.447c-0.005,0.451,0,0.902,0,1.364c-0.281,0-0.55,0-0.833,0c0-1.268,0-2.545,0-3.827
			c0.271,0,0.539,0,0.825,0c0,0.421,0,0.85,0,1.307c0.297-0.279,0.62-0.39,0.99-0.369c0.548,0.024,0.787,0.269,0.828,0.74
			C20.052,30.149,20.004,30.872,20.004,31.6z"/>
		<path fill-rule="evenodd" clip-rule="evenodd" fill="#FFFFFF" d="M37.309,29.385c0,0.271,0,0.517,0,0.777
			c-0.459,0-0.918,0-1.391,0c0,0.486,0,0.951,0,1.43c-0.309,0-0.605,0-0.906,0c0-1.266,0-2.526,0-3.796c0.861,0,1.717,0,2.584,0
			c0,0.25,0,0.5,0,0.765c-0.555,0-1.105,0-1.67,0c0,0.274,0,0.539,0,0.824C36.383,29.385,36.842,29.385,37.309,29.385z"/>
		<path fill-rule="evenodd" clip-rule="evenodd" fill="#FFFFFF" d="M30.443,30.419c0.039,0.317,0.135,0.574,0.461,0.677
			c0.275,0.082,0.559-0.023,0.715-0.263c0.02-0.035,0.07-0.07,0.104-0.07c0.26-0.006,0.521-0.006,0.783-0.006
			c-0.129,0.55-0.502,0.828-1.016,0.913c-0.332,0.049-0.654,0.057-0.975-0.033c-0.557-0.146-0.844-0.523-0.938-1.059
			c-0.059-0.351-0.051-0.699,0.088-1.027c0.178-0.431,0.51-0.695,0.977-0.793c0.486-0.107,0.943-0.095,1.371,0.198
			c0.311,0.218,0.428,0.537,0.498,0.882c0.039,0.185,0.031,0.376,0.053,0.581C31.842,30.419,31.146,30.419,30.443,30.419z
			 M30.467,29.931c0.408,0,0.801,0,1.197,0c0.004-0.406-0.236-0.654-0.578-0.648C30.773,29.286,30.443,29.563,30.467,29.931z"/>
		<path fill-rule="evenodd" clip-rule="evenodd" fill="#FFFFFF" d="M13.87,30.802c-0.076,0.14-0.14,0.294-0.236,0.421
			c-0.22,0.301-0.549,0.427-0.902,0.465c-0.367,0.046-0.743,0.039-1.094-0.12c-0.363-0.167-0.587-0.447-0.679-0.844
			c-0.094-0.399-0.1-0.797,0.06-1.183c0.163-0.398,0.459-0.648,0.868-0.763c0.408-0.117,0.816-0.128,1.218,0.032
			c0.469,0.185,0.676,0.58,0.759,1.052c0.029,0.179,0.033,0.365,0.046,0.562c-0.726,0-1.423,0-2.131,0
			c0.037,0.248,0.089,0.463,0.312,0.599c0.3,0.192,0.684,0.103,0.868-0.209c0.02-0.026,0.071-0.052,0.104-0.052
			c0.254-0.006,0.502-0.006,0.751-0.006C13.832,30.771,13.851,30.788,13.87,30.802z M11.784,29.935c0.415,0,0.823,0,1.226,0
			c0.003-0.353-0.192-0.613-0.477-0.652C12.246,29.247,11.834,29.428,11.784,29.935z"/>
		<path fill-rule="evenodd" clip-rule="evenodd" fill="#FFFFFF" d="M23.364,30.425c-0.741,0-1.436,0-2.128,0
			c-0.025,0.297,0.155,0.578,0.408,0.66c0.296,0.099,0.597,0.002,0.746-0.246c0.022-0.035,0.066-0.076,0.105-0.076
			c0.252-0.006,0.51-0.006,0.778-0.006c-0.036,0.308-0.205,0.517-0.428,0.681c-0.255,0.187-0.548,0.255-0.861,0.263
			c-0.297,0.013-0.594,0-0.87-0.117c-0.495-0.207-0.725-0.61-0.772-1.113c-0.028-0.287-0.022-0.58,0.08-0.865
			c0.176-0.501,0.552-0.775,1.046-0.857c0.287-0.051,0.604-0.041,0.894,0.013c0.517,0.103,0.784,0.485,0.905,0.97
			C23.319,29.944,23.329,30.177,23.364,30.425z M21.222,29.935c0.412,0,0.82,0,1.229,0c-0.025-0.503-0.307-0.658-0.574-0.652
			C21.512,29.288,21.252,29.53,21.222,29.935z"/>
		<path fill-rule="evenodd" clip-rule="evenodd" fill="#FFFFFF" d="M16.9,31.6c-0.287,0-0.555,0-0.842,0c0-0.062,0-0.119,0-0.176
			c0-0.527,0.007-1.057-0.003-1.586c-0.003-0.211-0.059-0.422-0.277-0.517c-0.236-0.103-0.521,0.013-0.618,0.254
			c-0.046,0.121-0.08,0.259-0.084,0.39c-0.01,0.525-0.007,1.053-0.007,1.584c0,0.01-0.003,0.019-0.006,0.043
			c-0.284,0-0.567,0-0.861,0c0-0.927,0-1.85,0-2.781c0.274,0,0.545,0,0.829,0c0.007,0.074,0.013,0.149,0.02,0.25
			c0.28-0.269,0.606-0.371,0.976-0.364c0.453,0.012,0.734,0.217,0.84,0.66c0.022,0.104,0.034,0.213,0.034,0.317
			c0.004,0.578,0,1.155,0,1.733C16.9,31.465,16.9,31.521,16.9,31.6z"/>
		<path fill-rule="evenodd" clip-rule="evenodd" fill="#FFFFFF" d="M47.027,30.699c0.285,0,0.57,0,0.85,0
			c0.107,0.369,0.4,0.523,0.771,0.378c0.082-0.033,0.184-0.136,0.189-0.218c0.01-0.084-0.066-0.222-0.143-0.256
			c-0.16-0.076-0.348-0.097-0.521-0.144c-0.242-0.068-0.496-0.111-0.721-0.218c-0.49-0.231-0.523-1.089,0.07-1.357
			c0.498-0.228,1.035-0.224,1.555-0.05c0.348,0.115,0.525,0.386,0.551,0.771c-0.24,0-0.479,0.008-0.715,0
			c-0.027,0-0.062-0.043-0.084-0.076c-0.031-0.037-0.037-0.088-0.066-0.121c-0.127-0.133-0.623-0.131-0.742,0
			c-0.104,0.109-0.025,0.333,0.148,0.388c0.176,0.054,0.369,0.072,0.547,0.111c0.188,0.045,0.385,0.067,0.555,0.137
			c0.312,0.125,0.471,0.351,0.465,0.708c-0.012,0.354-0.125,0.636-0.453,0.785c-0.172,0.078-0.363,0.144-0.549,0.156
			c-0.432,0.032-0.863,0.032-1.252-0.203C47.191,31.311,47.033,31.057,47.027,30.699z"/>
		<path fill-rule="evenodd" clip-rule="evenodd" fill="#FFFFFF" d="M41.691,31.596c-0.285,0-0.553,0-0.832,0
			c0-0.917,0-1.829,0-2.754c0.262,0,0.527,0,0.801,0c0,0.09,0,0.174,0,0.274c0.402-0.408,0.877-0.472,1.365-0.332
			c0.312,0.09,0.479,0.384,0.492,0.697c0.021,0.697,0.006,1.396,0.006,2.11c-0.25,0-0.523,0-0.809,0c0-0.421,0-0.843-0.006-1.258
			c-0.002-0.209-0.014-0.42-0.033-0.631c-0.014-0.173-0.16-0.357-0.293-0.386c-0.229-0.047-0.475,0.037-0.551,0.235
			c-0.076,0.189-0.123,0.4-0.133,0.604C41.68,30.63,41.691,31.102,41.691,31.596z"/>
		<path fill-rule="evenodd" clip-rule="evenodd" fill="#FFFFFF" d="M37.715,28.835c0.047,0,0.072-0.006,0.1-0.006
			c0.238,0,0.479,0,0.746,0c0,0.063,0,0.121,0,0.181c0,0.509-0.006,1.02,0,1.532c0,0.106,0.018,0.215,0.051,0.317
			c0.059,0.179,0.186,0.257,0.377,0.261c0.236,0,0.404-0.101,0.479-0.31c0.045-0.132,0.07-0.271,0.074-0.404
			c0.008-0.517,0.002-1.036,0.002-1.564c0.279,0,0.547,0,0.832,0c0,0.91,0,1.825,0,2.75c-0.271,0-0.539,0-0.826,0
			c-0.004-0.082-0.006-0.173-0.012-0.289c-0.193,0.194-0.385,0.334-0.641,0.379c-0.648,0.108-1.129-0.14-1.174-0.839
			C37.678,30.183,37.715,29.519,37.715,28.835z"/>
		<path fill-rule="evenodd" clip-rule="evenodd" fill="#FFFFFF" d="M34.764,28.671c0,0.251,0,0.456,0,0.663
			c-0.129,0.012-0.248,0.032-0.369,0.045c-0.396,0.047-0.625,0.34-0.664,0.695c-0.043,0.427-0.029,0.853-0.037,1.281
			c0,0.078,0,0.15,0,0.236c-0.295,0-0.576,0-0.865,0c0-0.921,0-1.846,0-2.781c0.277,0,0.559,0,0.854,0c0,0.103,0,0.207,0,0.306
			c0.164-0.115,0.307-0.256,0.48-0.332C34.336,28.714,34.543,28.708,34.764,28.671z"/>
		<path fill-rule="evenodd" clip-rule="evenodd" fill="#FFFFFF" d="M23.647,28.805c0.291,0,0.567,0,0.854,0c0,0.931,0,1.855,0,2.787
			c-0.284,0-0.563,0-0.854,0C23.647,30.667,23.647,29.742,23.647,28.805z"/>
		<path fill-rule="evenodd" clip-rule="evenodd" fill="#FFFFFF" d="M24.501,28.43c-0.287,0-0.563,0-0.857,0c0-0.222,0-0.436,0-0.665
			c0.28,0,0.564,0,0.857,0C24.501,27.982,24.501,28.195,24.501,28.43z"/>
	</g>
</g>
<g id="nyse" display="none">
	<g id="UcLfY9.tif" display="inline">
		<g>
			<path fill-rule="evenodd" clip-rule="evenodd" fill="#FFFFFF" d="M19.716,11.61c-0.004,0.083-0.013,0.167-0.013,0.25
				c0,5.334,0,10.668,0,16.001c0,0.266,0,0.266-0.267,0.266c-0.924,0-1.847,0-2.771,0c-0.249,0-0.249-0.002-0.249-0.248
				c0-5.339,0-10.679,0-16.019c0-0.083-0.008-0.167-0.012-0.25C17.508,11.61,18.612,11.61,19.716,11.61z"/>
			<path fill-rule="evenodd" clip-rule="evenodd" fill="#FFFFFF" d="M24.18,11.61c-0.004,0.083-0.012,0.167-0.012,0.25
				c-0.001,5.334,0,10.668,0,16.001c0,0.266,0,0.266-0.267,0.266c-0.924,0-1.848,0-2.772,0c-0.248,0-0.248-0.002-0.248-0.248
				c0-5.339,0-10.679-0.001-16.019c0-0.083-0.008-0.167-0.012-0.25C21.972,11.61,23.076,11.61,24.18,11.61z"/>
			<path fill-rule="evenodd" clip-rule="evenodd" fill="#FFFFFF" d="M33.107,11.61c-0.004,0.083-0.012,0.167-0.012,0.25
				c-0.001,5.334-0.001,10.668-0.001,16.001c0,0.266,0,0.266-0.267,0.266c-0.924,0-1.848,0-2.771,0
				c-0.248,0-0.248-0.002-0.248-0.248c0-5.339,0-10.679-0.001-16.019c0-0.083-0.008-0.167-0.011-0.25
				C30.9,11.61,32.004,11.61,33.107,11.61z"/>
			<path fill-rule="evenodd" clip-rule="evenodd" fill="#FFFFFF" d="M15.18,11.61c0.01,0.088,0.028,0.178,0.028,0.267
				c0.001,5.315,0.001,10.63,0.001,15.945c0,0.305,0,0.305-0.311,0.305c-0.9,0-1.799,0-2.7,0c-0.249,0-0.25-0.002-0.25-0.248
				c0-5.345,0-10.69,0-16.036c0-0.078-0.005-0.155-0.009-0.233C13.02,11.61,14.1,11.61,15.18,11.61z"/>
			<path fill-rule="evenodd" clip-rule="evenodd" fill="#FFFFFF" d="M37.572,11.61c-0.003,0.078-0.008,0.155-0.01,0.233
				c0,5.333,0,10.667,0,16c0,0.283,0,0.283-0.285,0.283c-0.881,0-1.763,0-2.646,0c-0.329,0-0.329,0-0.329-0.322
				c0-2.279,0-4.559,0-6.839c0-3.018,0-6.035,0.002-9.053c0-0.101,0.018-0.202,0.027-0.302C35.412,11.61,36.492,11.61,37.572,11.61z
				"/>
			<path fill-rule="evenodd" clip-rule="evenodd" fill="#FFFFFF" d="M28.645,11.61c-0.002,5.399-0.002,10.797-0.002,16.196
				c0,0.32,0,0.32-0.322,0.32c-0.889,0-1.775,0-2.664,0c-0.251,0-0.251-0.002-0.251-0.248c0-5.411,0-10.822,0.001-16.233
				c0-0.012-0.001-0.024-0.002-0.036C26.484,11.61,27.564,11.61,28.645,11.61z"/>
			<path fill-rule="evenodd" clip-rule="evenodd" fill="#FFFFFF" d="M28.787,37.387c-0.12-0.025-0.24-0.062-0.363-0.074
				c-0.807-0.078-1.506-0.411-2.14-0.901c-0.096-0.074-0.112-0.145-0.036-0.257c0.209-0.31,0.405-0.631,0.607-0.945
				c0.024-0.039,0.059-0.073,0.076-0.094c0.309,0.197,0.603,0.399,0.91,0.576c0.434,0.25,0.913,0.326,1.4,0.254
				c0.43-0.064,0.831-0.385,0.708-0.869c-0.072-0.279-0.312-0.404-0.545-0.5c-0.449-0.186-0.917-0.326-1.364-0.514
				c-0.692-0.293-1.275-0.725-1.58-1.441c-0.152-0.362-0.139-0.738-0.064-1.124c0.098-0.493,0.354-0.879,0.732-1.19
				c0.351-0.287,0.762-0.438,1.21-0.469c0.298-0.021,0.603-0.035,0.898,0.004c0.702,0.096,1.347,0.343,1.874,0.837
				c0.037,0.035,0.049,0.147,0.021,0.193c-0.193,0.319-0.404,0.631-0.604,0.948c-0.055,0.087-0.092,0.096-0.18,0.031
				c-0.41-0.303-0.857-0.533-1.361-0.639c-0.264-0.055-0.529-0.047-0.768,0.088c-0.234,0.133-0.388,0.327-0.382,0.621
				c0.007,0.285,0.187,0.462,0.411,0.561c0.393,0.174,0.805,0.312,1.216,0.445c0.753,0.244,1.431,0.596,1.769,1.356
				c0.441,0.989,0.034,2.101-0.87,2.663c-0.366,0.227-0.765,0.355-1.192,0.392c-0.058,0.005-0.112,0.03-0.168,0.048
				C28.932,37.387,28.86,37.387,28.787,37.387z"/>
			<path fill-rule="evenodd" clip-rule="evenodd" fill="#FFFFFF" d="M16.401,34.496c0.005-0.073,0.015-0.146,0.015-0.221
				c0-1.393,0.004-2.785-0.004-4.175c0-0.186,0.055-0.241,0.233-0.233c0.324,0.01,0.648,0.001,0.972,0.003
				c0.245,0,0.255,0.009,0.255,0.251c0.001,1.152,0,2.305,0,3.456c0,1.14,0,2.279,0,3.419c0,0.27-0.005,0.273-0.268,0.274
				c-0.3,0-0.6-0.003-0.899,0.002c-0.14,0.001-0.229-0.048-0.306-0.171c-0.933-1.48-1.872-2.955-2.81-4.43
				c-0.042-0.066-0.102-0.121-0.153-0.181c-0.015,0.005-0.03,0.011-0.045,0.016c-0.004,0.073-0.011,0.147-0.011,0.222
				c0,1.434,0,2.867,0,4.301c0,0.239-0.001,0.24-0.241,0.241c-0.335,0-0.671-0.003-1.007,0.002c-0.14,0.001-0.186-0.05-0.185-0.19
				c0.003-2.34,0.003-4.679,0-7.019c0-0.151,0.052-0.198,0.197-0.196c0.354,0.006,0.708,0.006,1.062,0.001
				c0.141-0.003,0.229,0.053,0.304,0.173c0.92,1.459,1.845,2.912,2.77,4.367c0.021,0.035,0.052,0.064,0.078,0.095
				C16.372,34.5,16.387,34.5,16.401,34.496z"/>
			<path fill-rule="evenodd" clip-rule="evenodd" fill="#FFFFFF" d="M32.76,33.551c0-1.151,0.004-2.303-0.004-3.454
				c0-0.167,0.04-0.231,0.219-0.231c1.458,0.007,2.915,0.005,4.373,0.002c0.154,0,0.229,0.035,0.219,0.212
				c-0.014,0.286-0.012,0.575,0,0.862c0.006,0.148-0.05,0.182-0.188,0.182c-0.965-0.005-1.93-0.002-2.896-0.002
				c-0.25,0-0.264,0.013-0.266,0.264c-0.002,0.445,0.006,0.889-0.003,1.332c-0.004,0.176,0.062,0.223,0.229,0.222
				c0.816-0.008,1.632,0,2.447-0.007c0.159-0.001,0.213,0.048,0.207,0.203c-0.008,0.295-0.006,0.588,0,0.882
				c0.004,0.147-0.048,0.197-0.197,0.195c-0.822-0.005-1.644,0.002-2.465-0.005c-0.171-0.003-0.221,0.061-0.221,0.218
				c0.004,0.455,0.004,0.912,0,1.367c0,0.165,0.057,0.232,0.234,0.23c0.965-0.007,1.932,0,2.896-0.007
				c0.174-0.002,0.23,0.047,0.221,0.221c-0.013,0.275-0.015,0.552,0,0.826c0.01,0.18-0.068,0.211-0.221,0.21
				c-1.014-0.004-2.027-0.002-3.041-0.002c-0.444,0-0.887-0.005-1.331,0.003c-0.159,0.002-0.218-0.041-0.218-0.214
				C32.764,35.891,32.76,34.721,32.76,33.551z"/>
			<path fill-rule="evenodd" clip-rule="evenodd" fill="#FFFFFF" d="M19.009,29.891c0.069-0.008,0.126-0.021,0.184-0.021
				c0.449-0.002,0.899,0.003,1.35-0.002c0.141-0.003,0.23,0.048,0.303,0.171c0.463,0.777,0.932,1.549,1.401,2.322
				c0.041,0.067,0.099,0.126,0.166,0.211c0.288-0.47,0.561-0.914,0.832-1.359c0.244-0.401,0.482-0.807,0.736-1.202
				c0.043-0.067,0.148-0.132,0.226-0.134c0.485-0.014,0.972-0.008,1.458-0.005c0.05,0,0.1,0.016,0.176,0.028
				c-0.336,0.518-0.656,1.01-0.977,1.502c-0.562,0.863-1.126,1.725-1.682,2.591c-0.054,0.085-0.078,0.201-0.079,0.304
				c-0.006,0.917-0.007,1.834,0,2.752c0.002,0.18-0.06,0.229-0.228,0.225c-0.33-0.01-0.66-0.011-0.99,0
				c-0.177,0.007-0.221-0.061-0.22-0.229c0.007-0.853-0.01-1.704,0.011-2.556c0.007-0.329-0.088-0.59-0.267-0.859
				c-0.804-1.217-1.589-2.445-2.38-3.669C19.023,29.95,19.022,29.938,19.009,29.891z"/>
		</g>
	</g>
</g>
<g id="metlife">
	<text transform="matrix(1 0 0 1 -1642 -52)" font-family="'MyriadPro-Regular'" font-size="12">https://www.google.com/imgres?imgurl=https%3A%2F%2Fpbs.twimg.com%2Fmedia%2FCvNpUUEXgAEzAOC.jpg&amp;imgrefurl=https%3A%2F%2Ftwitter.com%2Fmetlife%2Fstatus%2F789090203189252096&amp;docid=rE3ktbPznRBnGM&amp;tbnid=PWhFt7oBVRyWwM%3A&amp;vet=10ahUKEwjo37Cwo-jdAhWpVN8KHVuJDK0QMwiaASgIMAg..i&amp;w=1024&amp;h=512&amp;client=firefox-b-1-ab&amp;bih=779&amp;biw=1100&amp;q=metlife%20logo%20&amp;ved=0ahUKEwjo37Cwo-jdAhWpVN8KHVuJDK0QMwiaASgIMAg&amp;iact=mrc&amp;uact=8</text>
	<g>
		<path fill="#FFFFFF" d="M9.52,20.818c-0.265-0.01-0.398,0.094-0.514,0.316c-0.348,0.668-0.714,1.329-1.074,1.991
			c-0.394,0.721-0.787,1.44-1.213,2.221c-0.105-0.167-0.173-0.26-0.228-0.358c-0.705-1.267-1.402-2.538-2.117-3.798
			c-0.083-0.147-0.25-0.337-0.39-0.347c-0.602-0.039-1.209-0.017-1.878-0.017c-0.152,3.259-0.3,6.458-0.451,9.698
			c0.611,0,1.157-0.018,1.701,0.004c0.315,0.012,0.397-0.105,0.406-0.408c0.055-1.774,0.13-3.548,0.2-5.322
			c0.003-0.118,0.025-0.236,0.04-0.354c0.182,0.136,0.273,0.282,0.359,0.435c0.526,0.924,1.045,1.855,1.578,2.777
			c0.263,0.457,1.227,0.446,1.476-0.017c0.521-0.963,1.028-1.932,1.543-2.898c0.066-0.123,0.14-0.241,0.211-0.361
			c0.029,0.008,0.059,0.015,0.087,0.022c0.092,2.025,0.184,4.051,0.277,6.083c0.75,0,1.45,0,2.181,0
			c-0.151-3.239-0.299-6.436-0.45-9.659C10.642,20.825,10.081,20.84,9.52,20.818z"/>
		<path fill="#FFFFFF" d="M48.717,27.739c0.309,0.003,0.438-0.091,0.4-0.404c-0.036-0.322-0.032-0.649-0.086-0.97
			c-0.237-1.475-1.156-2.523-2.433-2.798c-1.543-0.334-3.038,0.249-3.8,1.479c-0.818,1.332-0.752,3.296,0.207,4.432
			c1.091,1.291,2.543,1.45,4.092,1.157c0.682-0.129,1.328-0.373,1.855-0.882c-0.285-0.438-0.558-0.852-0.835-1.283
			c-0.878,0.582-1.774,0.803-2.753,0.55c-0.613-0.157-0.992-0.603-1.065-1.263c0.161-0.01,0.289-0.024,0.421-0.024
			C46.053,27.732,47.385,27.724,48.717,27.739z M44.277,26.363c0.145-0.824,0.74-1.296,1.518-1.266
			c0.732,0.029,1.26,0.521,1.312,1.266C46.178,26.363,45.243,26.363,44.277,26.363z"/>
		<path fill="#FFFFFF" d="M17.945,23.973c-1.116-0.71-2.745-0.662-3.862,0.113c-1.185,0.824-1.723,2.397-1.369,4
			c0.306,1.385,1.326,2.372,2.766,2.582c0.576,0.083,1.182,0.076,1.763,0.006c0.763-0.096,1.484-0.36,2.082-0.92
			c-0.284-0.438-0.554-0.855-0.825-1.275c-0.211,0.117-0.366,0.204-0.522,0.283c-0.729,0.377-1.496,0.465-2.282,0.246
			c-0.626-0.172-1.026-0.695-0.985-1.28c1.57,0,3.145,0,4.708,0C19.688,26.311,19.025,24.659,17.945,23.973z M14.69,26.367
			c0.022-0.735,0.6-1.252,1.386-1.271c0.77-0.017,1.352,0.489,1.401,1.271C16.53,26.367,15.61,26.367,14.69,26.367z"/>
		<path fill="#FFFFFF" d="M29.276,28.746c-0.385,0.01-0.509-0.088-0.503-0.491c0.017-2.292,0.007-4.586,0.007-6.879
			c0-0.173,0-0.344,0-0.524c-0.754,0-1.442,0-2.151,0c0,3.226,0,6.425,0,9.63c2.125,0,4.217,0,6.324,0c0-0.582,0-1.125,0-1.744
			c-0.207,0-0.365,0-0.526,0C31.378,28.738,30.327,28.721,29.276,28.746z"/>
		<path fill="#FFFFFF" d="M42.203,22.576c0.297-0.448,0.572-0.862,0.869-1.313c-1.004-0.718-2.062-0.874-3.181-0.517
			c-0.938,0.299-1.497,0.973-1.688,1.937c-0.062,0.313,0.029,0.747-0.148,0.926c-0.175,0.174-0.605,0.093-0.924,0.125
			c-0.011,0.001-0.024,0.015-0.051,0.034c0,0.508,0,1.027,0,1.583c0.199,0,0.363,0.019,0.521-0.004
			c0.419-0.058,0.559,0.095,0.552,0.53c-0.031,1.271-0.012,2.543-0.012,3.813c0,0.261,0,0.522,0,0.8c0.715,0,1.37,0,2.076,0
			c0-0.191-0.002-0.352,0-0.511c0-1.403,0.01-2.81-0.008-4.212c-0.002-0.335,0.094-0.425,0.426-0.425
			c1.238,0.002,1.23-0.01,1.193-1.282c-0.008-0.268-0.086-0.37-0.357-0.359c-0.406,0.017-0.812,0.004-1.223,0.004
			c-0.057-0.516-0.069-0.961,0.328-1.246C41.111,22.078,41.645,22.299,42.203,22.576z"/>
		<path fill="#FFFFFF" d="M24.124,29.06c-0.491,0.083-0.881-0.147-0.905-0.622c-0.05-1.01-0.016-2.029-0.016-3.087
			c0.479,0,0.936,0.014,1.39-0.008c0.113-0.005,0.307-0.121,0.311-0.196c0.03-0.464,0.015-0.932,0.015-1.459
			c-0.62,0-1.171,0-1.777,0c0-0.632,0-1.201,0-1.765c-0.716,0-1.372,0-2.081,0c0,0.605,0,1.176,0,1.791c-0.374,0-0.693,0-1.066,0
			c0,0.355,0.001,0.662,0,0.969c-0.004,0.805-0.019,0.674,0.661,0.664c0.333-0.008,0.436,0.098,0.429,0.428
			c-0.019,0.828-0.025,1.658,0.004,2.485c0.027,0.786,0.208,1.532,0.888,2.043c1,0.753,2.877,0.586,3.796-0.36
			c-0.261-0.392-0.525-0.793-0.773-1.169C24.678,28.88,24.407,29.011,24.124,29.06z"/>
		<path fill="#FFFFFF" d="M33.92,30.504c0.688,0,1.336,0,2.034,0c0-2.279,0-4.507,0-6.764c-0.692,0-1.36,0-2.034,0
			C33.92,26.014,33.92,28.251,33.92,30.504z"/>
		<path fill="#FFFFFF" d="M34.939,20.571c-0.656-0.006-1.185,0.522-1.179,1.176c0.006,0.664,0.528,1.186,1.179,1.179
			c0.644-0.007,1.158-0.547,1.152-1.206C36.086,21.07,35.591,20.576,34.939,20.571z"/>
	</g>
</g>
</svg>
