<?xml version="1.0" encoding="utf-8"?>
<!-- Generator: Adobe Illustrator 22.1.0, SVG Export Plug-In . SVG Version: 6.00 Build 0)  -->
<svg version="1.1" id="Layer_1" xmlns="http://www.w3.org/2000/svg" xmlns:xlink="http://www.w3.org/1999/xlink" x="0px" y="0px"
	 viewBox="0 0 25 25" style="enable-background:new 0 0 25 25;" xml:space="preserve">
<style type="text/css">
	.st0{fill:#ACEA06;}
	.st1{fill:#FFFFFF;}
	.st2{fill:#FFFFFF;stroke:#FFFFFF;stroke-width:0.15;stroke-miterlimit:10;}
	.st3{fill:none;stroke:#FFFFFF;stroke-width:0.4875;stroke-linecap:round;stroke-miterlimit:10;}
	.st4{fill:#FFFFFF;stroke:#FFFFFF;stroke-width:0.25;stroke-miterlimit:10;}
	.st5{fill:none;stroke:#FFFFFF;stroke-width:0.55;stroke-miterlimit:10;}
</style>
<circle class="st0" cx="12.5" cy="12.5" r="6.9"/>
<path d="M53.8-1541.3c0.3,1.1,0.5,1.3,0.4,1.5c-1.3,4.8-2.7,9.5-3.8,14.3c-0.3,1.1-0.1,2.7,0.5,3.6c3,4.3,3,8.9,1.5,13.5
	c-2.3,6.8-1.2,13.1,1.2,19.4c1.6,4.2,3.1,8.6,4.1,13c1.4,6.1-0.1,11.7-3.8,16.9c-2,2.8-3.1,6.3-4.3,9.5c-1.3,3.3-3.4,5.1-7,5.3
	c-1.2,0-2.4,0.7-3.4,1.4c-5.6,4.2-11.1,8.6-16.6,12.9c-1.8,1.4-3.8,2.8-5.4,4.5c-1.9,2-1.3,4.4,1.3,4.7c3,0.3,6.1-0.6,9.1-1
	c1-0.1,2.1-0.1,3.1-0.2c-0.4,1.1-0.5,2.5-1.3,3.3c-4.2,4-15.8,3.3-19-1.4c-1.1-1.7-1.5-5-0.6-6.8c1.9-3.8,4.7-7.2,7.3-10.6
	c0.9-1.2,2.2-2.1,3.3-3.2c2.3-2.3,2.8-4.8,0.6-7.4c-1.1-1.4-2.1-2.8-3.2-4.2c-8.6-10.2-9-21.1-3.1-32.7c2.8-5.6,5.4-11.4,7.7-17.3
	c1-2.6,1.4-5.6,1.5-8.5c0.2-4.9,0.2-9.3,2.9-14c1.7-3,2.6-8.4-0.7-12.4c-0.9-1.2-1.3-2.8-1.7-4.7c4.9,2.8,9.5,1,14.1,0.3
	c0.9-0.1,1.9,0,2.8,0.2C45.6-1540.6,49.6-1537.9,53.8-1541.3z"/>
<path d="M136.4-1417.9c9.4,3.7,17.8,7.1,26.3,10.3c1.4,0.5,3.2,0.6,4.6,0.1c11.9-4.3,23.8-4.2,35.7,0c1.4,0.5,3.2,0.4,4.5-0.1
	c8.5-3.2,16.9-6.6,26.1-10.3c-0.2,3,0,5.3-0.5,7.4c-0.8,3.5-1.7,7.2-3.2,10.4c-3.2,6.9-4.4,13.2-2,21.2c3.1,10.4-0.6,20.3-7.7,28.7
	c-17.8,20.8-53.9,20.3-71-1.2c-7.8-9.8-9.9-20.9-5.6-32.8c1.2-3.3,0.9-5.9-0.4-9c-2.3-5.5-4.2-11.2-5.9-16.9
	C136.5-1412.1,136.6-1414.6,136.4-1417.9z M212.2-1381.1c-4.9,1.1-9,1.6-12.6,3c-2.5,1-4.5,3.3-6.7,5.1c0.3,0.4,0.7,0.8,1,1.1
	c7.8-7.1,10.7-7.2,16.5-1.4c1.8-1.6,3.4-3.2,5.6-5.2c-2.6,0.5-4.9,0.9-7.1,1.3c-0.1-0.3-0.1-0.6-0.2-1
	C209.6-1379,210.5-1379.7,212.2-1381.1z M159.6-1380.7c0.9,1,1.8,2,3.7,4c-3.6-0.8-5.7-1.3-8.2-1.9c2.1,2.2,3.8,4,4.7,4.8
	c3.2-1.2,6.4-3.3,9.2-3c2.9,0.3,5.6,3,8.8,4.9C174.5-1380.8,165.2-1377,159.6-1380.7z M148.5-1362c9.7-1,19.7-2,30.1-3.1
	C167.8-1367,157.7-1367,148.5-1362z M220.8-1362.1c-5.2-4.2-22.1-6-27.7-2.9C201.9-1364.1,211.9-1363,220.8-1362.1z M181.9-1356.8
	c2.9,0.3,5.5,0.6,9,0.9c-5.8-2.8-4.5-6.6-2-10.8c-2.9,0-5.1,0-7.4,0c-0.5,0.2-0.9,0.5-1.4,0.7C185.8-1362.9,185-1359.6,181.9-1356.8
	z M216.8-1356.2c-8-5.2-15.4-6.9-24-6.2C200.7-1360.4,208.1-1358.5,216.8-1356.2z M177.3-1362.5c-8.8-0.5-16.2,1-23.9,6.3
	C161.8-1358.5,169-1360.3,177.3-1362.5z"/>
<path d="M340.8-1326.4c-3.1,1.3-5.8,2.5-9.6,4.1c1.7-6.6,3.2-12.4,4.7-18.2c1.7-6.3,0.1-8.9-6.3-10.1c-0.8-0.2-1.9-0.3-2.3-0.8
	c-2.7-3.2-4.7-7.2-7.9-9.6c-4.2-3-6.5-5.9-5.1-11.1c0.2-0.6-0.5-1.4-0.9-2.1c-0.3-0.4-0.9-0.5-1.1-0.9c-1-2-3.3-4.9-2.6-6
	c3.9-6.4-3.6-14,2.4-20c1.1-1.1,1.8-3.2,1.7-4.8c0-4.3,1.8-7.2,5.5-9.3c1.4-0.8,2.7-2.4,3.2-3.9c1.4-3.9,3.8-6,7.9-6.6
	c1.6-0.2,3.5-1.3,4.5-2.6c2.7-3.3,5.8-4.6,10.1-3.7c1.5,0.3,3.2-0.4,4.9-0.7c0.1,0,0.3-0.3,0.4-0.3c2.4-0.5,5.9-2.2,7-1.2
	c5.4,5.1,14.7-1.8,18.8,6.4c0.5,1.1,2.4,1.5,3.7,2.1c0.7,0.3,1.8,0,2.4,0.4c1.5,0.9,4.1,2,4.2,3.1c0.5,7.4,11.9,7.9,10.3,16.5
	c-0.2,1.4,0.8,3.4,1.8,4.6c2.7,3.3,3.5,6.6,1.8,10.6c-0.6,1.4-0.2,3.1-0.2,4.7c0,0.6,0.6,1.2,0.6,1.9c0,1.9,0.6,5-0.4,5.6
	c-6.3,4.1-0.9,14.3-9.2,17.3c-1.3,0.5-2.5,2.3-3,3.7c-1.5,4.3-4.1,6.6-8.7,6.9c-3.4,0.2-6.3,4.2-5.4,7.6c1.6,6.6,3.4,13.1,5.4,20.7
	c-3.6-1.6-6.4-2.8-9.6-4.1c-1.9,2.5-3.7,5-6.3,8.3c-1.7-6.3-3.3-11.7-4.8-17.2c-0.4-1.3-0.5-2.7-1.1-3.8c-0.5-1-1.7-2.3-2.4-2.3
	c-0.9,0.1-2.2,1.4-2.5,2.4c-1.9,6.7-3.7,13.4-5.7,21C344.8-1321.1,342.9-1323.5,340.8-1326.4z M386.7-1388.1
	c0-17.7-13.5-31.5-31.1-31.6c-17.8-0.1-31.9,13.8-31.9,31.4c0,17.5,13.9,31.6,31.2,31.7C372.7-1356.4,386.7-1370.3,386.7-1388.1z"/>
<path d="M534.8-1340.9c7.5-3.6,15.1-6.9,22.4-10.7c3.1-1.6,6-3.8,8.4-6.2c5.2-5.3,4-11.5-2.8-14.5c-2.6-1.2-5.6-1.7-8.6-2.5
	c-0.6,2.2-1.1,3.8-1.5,5.3c-1.9,7-6.5,11.1-13.7,12c-19.7,2.4-39.4,3.8-59.1,0.5c-1.3-0.2-3.3-1.7-3.4-2.7c-0.1-1.4,0.8-3.4,2-4.4
	c2.1-2.1,4.7-3.8,7.1-5.6c-6.6-7.9-7.3-13.6-2.7-18.7c4.6-5.1,10.4-5.2,17-0.7c4.3-1,7.9-2.5,11.5-2.6c6-0.2,7.2-1.8,4.7-7.6
	c-1.2,0.6-2.3,1.3-3.6,1.7c-3.5,1-6.8-1.3-7.4-4.8c-0.6-3.4,2-6.9,5.6-6.8c2.5,0.1,4.4,0.2,6.3-2.2c2.2-2.7,6.8-1.7,8.7,1.1
	c1.9,2.8,1,6.9-2.1,8.6c-1,0.5-2.2,0.7-3.8,1.1c0.4,1.5,0.9,3,1.4,5c2-0.6,3.6-1.1,5.3-1.6c14.7-4.2,24.2,1.6,26.9,16.6
	c0.5,2.9,1.6,3.9,4.3,4.3c2.3,0.3,4.6,0.9,6.7,1.9c8.5,3.7,10.3,12.3,4,19.1c-7.6,8.2-17.9,11.2-28.2,14.1c-1.7,0.5-3.5,0.7-5.3,1.1
	C534.8-1340.6,534.8-1340.7,534.8-1340.9z M514.8-1403.7c-1.7-1.2-3-2.7-3.8-2.5c-1.2,0.4-2.1,1.9-3.1,3c1.2,0.9,2.2,2.3,3.5,2.5
	C512.1-1400.6,513.2-1402.3,514.8-1403.7z M524.8-1407c-1.9-1.4-3.2-3-4-2.8c-1.2,0.4-2.1,2-3.1,3c1,0.9,2,2.3,3.1,2.4
	C521.8-1404.3,522.9-1405.7,524.8-1407z"/>
<path d="M177.2-1240.7c-3.3,0-6.3,0-10.3,0c1.6,7.6,3.1,14.8,4.6,21.9c-6.7-5.8-6.2-13.9-7.4-21.8c-2.7,0-5.4,0-8.2,0
	c-0.6,4.3-1,8.2-1.6,12.2c-0.6,3.8-3.1,5.6-6.4,3.8c-8.7-4.8-17.2-9.9-25.6-15.2c-2.8-1.7-2.5-4.5-0.3-6.9
	c7-7.5,15.6-12.4,25.6-14.5c3.9-0.8,6.1,0.9,6.7,4.7c0.6,3.8,1,7.6,1.5,11.8c2.7,0,5.4,0,8.2,0c1.2-7.6,0.9-15.7,5.9-21.9
	c0.5,0.1,1,0.3,1.6,0.4c-1.5,7-2.9,14-4.5,21.5c4.1,0,7.2,0,10.3,0c2-6.4,0.8-13.9,7.8-18.3c-1.5,5.9-2.9,11.8-4.5,18.2
	c4.1,0,7.2,0,10.3,0c1.7-5.1,1.2-11.2,7.7-13.8c-1.4,4.4-2.8,8.8-4.5,13.8c4.1,0,7.1,0,10.3,0c1.8-3.6,1.9-8.5,8.1-10.2
	c-1.7,3.9-3,6.9-4.6,10.6c2.8,0,4.6-0.1,6.4,0c3.2,0.3,4.7-0.6,5.8-4.2c1-3.4,3.6-7.3,6.6-8.8c7-3.5,14.6-5.8,22-8.6
	c0.5,0.6,0.9,1.2,1.4,1.8c-4.8,7.2-9.6,14.4-14.4,21.6c4.4,6.5,9.3,13.7,14.2,21c-0.3,0.4-0.6,0.7-0.9,1.1
	c-8.9-1.8-17.9-3.6-25.3-9.8c-1.2-1-2.1-2.6-2.8-4.1c-1-2.1-1.1-5.6-2.5-6.1c-2.7-1.1-6.1-0.6-10.5-0.8c1.7,3.9,3.1,7,4.5,10
	c-0.5,0.4-1,0.7-1.5,1.1c-1.4-1.7-3.2-3.2-4.3-5.1c-3.5-6.5-3.4-6.6-11.9-5.2c0.5,2.4,0.9,4.7,1.6,7c0.7,2.2,1.8,4.4,2.7,6.6
	c-0.4,0.3-0.8,0.6-1.2,0.9c-1-0.9-2.4-1.7-3-2.9c-1-1.7-1.7-3.6-2.2-5.5c-2.2-7.5-2.2-7.5-11.6-6.1c1.4,6.1,2.9,12.1,4.3,18.1
	C178.2-1226.8,179-1234.1,177.2-1240.7z"/>
<path d="M495.9-1279c0.7-1.1,1.8-2.8,2.8-4.5c-0.2-0.1-0.4-0.1-0.5-0.2c1.7-1.5,3.5-2.9,5.2-4.4c-0.2-0.4-0.5-0.8-0.7-1.3
	c7.1-2.2,14.2-4.4,21.3-6.5c0,0.3,0,0.6-0.1,0.9c2.5,0.2,5.1,0.4,8.7,0.8c3.3,1.4,7.9,3.4,11,4.7c2.5,2.4,4,3.8,5.7,5.5
	c0.8,1.4,1.8,3.2,2.8,5c-0.3,1.9-1.8,4.3,1.2,4.9c-0.4,2.5-0.8,4.5-1.2,6.5c-0.9,1.5-1.9,3.3-3,5.3c-1.2,1.1-2.8,2.5-4.4,4
	c0.2,0.6,0.4,1.3,0.6,1.9c-7,0-14.1,0-21.1,0c-7,0-14,0-19.6,0c-2.6-2.7-4.2-4.3-5.8-6c-1-1.7-2.1-3.4-3.1-5
	c-0.3-1.8-0.6-3.8-0.9-6.1C495.1-1274.7,495.5-1276.7,495.9-1279z M505.2-1264c-3.5-5.4-3.8-11.1-1-16.9
	C499.8-1274.8,500-1269.9,505.2-1264z"/>
<path d="M494.9-1251.5c1.8,1.5,3,3.4,4.6,3.8c16.4,4.1,32.9,4.2,49.3-0.1c1.5-0.4,2.5-2.3,4.1-3.8c0.2,1.2,0.6,2.9,0.6,4.5
	c0.1,8.2-0.2,16.3,0.1,24.5c0.2,4.7-1.8,6.6-5.9,7.6c-11.6,2.8-23.4,3.3-35.2,2c-4.6-0.5-9.2-1.5-13.7-2.5c-3.2-0.7-4.6-2.5-4.5-6.1
	c0.2-8.8,0.1-17.7,0.1-26.5C494.5-1249.3,494.8-1250.5,494.9-1251.5z M509.9-1228.4c5.5,8.1,11.2,9.1,19.5,3.8
	c2.9,1.3,5.6,2.5,8.4,3.8c0-5.6,0-9.9,0-15.3c-3,1.5-5.5,2.8-8.2,4.2C521.1-1237.5,516-1236.6,509.9-1228.4z"/>
<path d="M347.3-1130.6c3.1-1.8,5.6-3.2,8.5-4.9c1.8,3,9.7,2.5,5.6,9.3c-1.1,1.9-3.8,3.7-6,4C349.3-1121.2,349.4-1126.8,347.3-1130.6
	z"/>
<path d="M303.7-1123.6c-1.8-7.8-1.7-8,4.1-7.3C309.3-1124.8,308.8-1123.8,303.7-1123.6z"/>
<path d="M380-1127.2c-4,3.6-4.7-0.1-6.2-3.2c-0.9,1.8-1.4,3-2,4.2c-0.3-0.1-0.8-0.2-0.8-0.3c0.2-1.5,0.3-4.3,0.7-4.3
	c3-0.2,6,0.1,9,0.2c0,0.6,0,1.1,0,1.7c-1.1,0.4-2.3,0.8-3.4,1.2c0.1,0.3,0.1,0.5,0.2,0.8C378.2-1126.9,379.1-1127.1,380-1127.2z"/>
<path d="M287-1132.4c-0.7,2.3-1.5,4.5-2.2,6.8c-1.3-0.4-2.6-0.9-3.9-1.3c1.2-2.2,2.5-4.3,3.7-6.5
	C285.3-1133.1,286.2-1132.7,287-1132.4z"/>
<path d="M387.1-1124.4c0.7-2.2,1.4-4.5,2.2-6.7c1.4,0.6,2.8,1.1,4.1,1.7c-1.5,2-2.9,4-4.4,6C388.4-1123.8,387.8-1124.1,387.1-1124.4
	z"/>
<path d="M328.7-1132.1c-0.8,2.2-1.6,4.3-2.4,6.5c-1.2-0.5-2.5-1-3.7-1.5c1.2-2.1,2.5-4.2,3.7-6.2
	C327.1-1132.9,327.9-1132.5,328.7-1132.1z"/>
<path d="M332.3-1124.8c0-3.4,0-5.6,0-7.8c0.4-0.2,0.8-0.5,1.2-0.7c1.4,2.1,2.7,4.1,4.1,6.2C336-1126.5,334.5-1125.8,332.3-1124.8z"
	/>
<path d="M427.5-1126.1c-0.4-0.9-0.8-1.9-1.4-3.4c-0.5,1.4-0.9,2.5-1.6,4.4c-0.6-1.8-0.9-2.9-1.5-4.5c-0.8,1.3-1.5,2.3-2.5,4
	c0-2.2,0-3.7,0-5.2C428.3-1131.8,428.6-1131.7,427.5-1126.1z"/>
<path d="M403.1-1126.5c-2.4,0-3.8,0-5.3,0c0-2,0-4.1,0-6.2c0.3-0.2,0.6-0.3,0.9-0.5C400.1-1131,401.6-1128.8,403.1-1126.5z"/>
<path class="st1" d="M212.2-1381.1c-1.7,1.3-2.7,2.1-3.6,2.8c0.1,0.3,0.1,0.6,0.2,1c2.2-0.4,4.5-0.8,7.1-1.3c-2.2,2-3.8,3.6-5.6,5.2
	c-5.8-5.8-8.7-5.6-16.5,1.4c-0.3-0.4-0.7-0.8-1-1.1c2.2-1.7,4.2-4.1,6.7-5.1C203.3-1379.5,207.3-1380,212.2-1381.1z"/>
<path class="st1" d="M159.6-1380.7c5.6,3.7,14.9-0.1,18.3,8.8c-3.2-1.9-5.9-4.6-8.8-4.9c-2.9-0.3-6,1.8-9.2,3
	c-0.9-0.9-2.5-2.6-4.7-4.8c2.5,0.6,4.5,1.1,8.2,1.9C161.4-1378.8,160.5-1379.8,159.6-1380.7z"/>
<path class="st1" d="M148.5-1362c9.2-5,19.3-4.9,30.1-3.1C168.2-1364.1,158.2-1363,148.5-1362z"/>
<path class="st1" d="M220.8-1362.1c-8.9-0.9-18.9-2-27.7-2.9C198.7-1368.1,215.6-1366.3,220.8-1362.1z"/>
<path class="st1" d="M181.9-1356.8c3.1-2.9,3.8-6.2-1.8-9.2c0.5-0.2,0.9-0.5,1.4-0.7c2.2,0,4.4,0,7.4,0c-2.5,4.2-3.8,8,2,10.8
	C187.4-1356.2,184.8-1356.5,181.9-1356.8z"/>
<path class="st1" d="M216.8-1356.2c-8.7-2.3-16.1-4.2-24-6.2C201.5-1363.1,208.9-1361.5,216.8-1356.2z"/>
<path class="st1" d="M177.3-1362.5c-8.3,2.2-15.5,4.1-23.9,6.3C161.1-1361.5,168.5-1363,177.3-1362.5z"/>
<path class="st1" d="M386.7-1388.1c0,17.8-14,31.6-31.7,31.6c-17.3-0.1-31.2-14.2-31.2-31.7c0-17.7,14.1-31.5,31.9-31.4
	C373.2-1419.6,386.7-1405.8,386.7-1388.1z M353.5-1401c0,10.6,0,20.4,0,30c3.8,1.4,5,0.1,4.9-3.3c-0.1-5.8,0-11.7,0-17.5
	c0-4.6,0-9.2,0-13.6c-7.5-0.7-12.2,2.4-10.8,6.9C349.2-1399.1,350.8-1399.8,353.5-1401z"/>
<path class="st1" d="M514.8-1403.7c-1.6,1.5-2.6,3.2-3.4,3c-1.3-0.2-2.3-1.6-3.5-2.5c1-1.1,1.9-2.6,3.1-3
	C511.7-1406.4,513-1404.9,514.8-1403.7z"/>
<path class="st1" d="M524.8-1407c-1.9,1.3-3,2.7-4,2.6c-1.1-0.1-2.1-1.5-3.1-2.4c1-1.1,1.9-2.7,3.1-3
	C521.5-1410,522.9-1408.4,524.8-1407z"/>
<path class="st1" d="M505.2-1264c-5.1-5.9-5.4-10.7-1-16.9C501.4-1275.1,501.7-1269.5,505.2-1264z"/>
<path class="st1" d="M509.9-1228.4c6.1-8.2,11.2-9,19.7-3.5c2.7-1.4,5.2-2.7,8.2-4.2c0,5.4,0,9.8,0,15.3c-2.8-1.3-5.4-2.4-8.4-3.8
	C521.2-1219.3,515.4-1220.3,509.9-1228.4z"/>
<path d="M353.5-1401c-2.7,1.1-4.3,1.8-6,2.5c-1.4-4.5,3.3-7.7,10.8-6.9c0,4.5,0,9,0,13.6c0,5.8-0.1,11.7,0,17.5
	c0.1,3.4-1.1,4.6-4.9,3.3C353.5-1380.6,353.5-1390.4,353.5-1401z"/>
<path d="M-1230-832.5c1.9-0.6,3.9-1.3,6-2c0.2,1,0.4,1.9,0.7,3c2.7-1.5,5.2-2.8,8.1-4.4c-2.6,5.2-5.1,9.9-7.3,14.7
	c-0.4,0.8,0.1,2,0.7,3.2c-4.6,5.6-12,3.7-19,5.8c11.9,8.2,18.1,19,18.5,33c-2.5,1.1-3.1,0.2-3.3-2.1c-1-11.8-6.5-21.1-16.4-27.7
	c-2.2-1.5-3.8-1.3-5.4,0.6c-2.9,3.5-6,6.9-8.8,10.4c-2.5,3.1-5.6,4.6-9.5,4.7c-4.5,0.1-9,0-14.1,0c1-2.4,1.8-3.9,2.4-5.6
	c1.2-3.7,0.1-5.7-3.6-6.8c-0.3-0.1-0.6-0.3-1-0.2c-10.9,0.2-20.9-4.9-31.6-5.6c-3.9-0.3-5.6-2.4-6.7-6.7c-0.2-0.7-0.9-1.2-1.4-1.7
	c-2.5-2.3-5.1-4.6-7.7-7c6.4-4,15.1-6.3,22.3-5.9c1.1-5.8,5.5-4.4,9.6-4c-2.8-4.6-5.6-9-8.2-13.5c-0.6-1.1-1-2.5-1-3.8
	c0.4-12.3-1.6-24.4-4.6-36.2c-0.1-0.4-0.2-0.8-0.3-1.5c4.8,1.3,9.3,6.3,14.2,0.5c5.3,2.6,10.6,5.1,16.1,7.8c0.5-1,0.9-1.9,1.3-2.8
	c0.5,0.2,0.9,0.4,1.2,0.6c4.6,3,9.1,6.1,13.7,9c0.9,0.5,2.1,0.5,3.7,0.8c2.7,4.5,5.9,9.7,9,14.8c0.4-0.1,0.8-0.2,1.1-0.4
	c0.9-4,1.7-7.9,2.6-12.1c0.7,0.3,1.4,0.5,2.4,0.9c1.6-3.5,3.2-7,4.9-10.5c2.3-4.5,2.9-4.6,7.4-2.5c1.4,0.6,2.9,0.9,5,1.4
	c0.8,5.9,1.7,12.3,2.6,19c1.3-0.4,2.6-0.9,4.6-1.6c-0.2,3.3-0.3,6.4-0.7,9.4c-0.3,2.1-1.5,4.1-1.4,6.2c0.4,7-3.4,12.5-6.8,18.2
	C-1230.5-832.9-1230.3-832.7-1230-832.5z"/>
<path d="M-1219.7-527.9c-3.4,1.3-3.6-0.4-3.7-2.3c-0.8-10.3-5.3-18.7-13.4-25.2c-0.8-0.7-1.8-1.2-3-1.7c2.7,7.6,7.4,14.6,5.2,23.7
	c-1.2-0.7-2.1-1.1-3-1.7c-2.9-1.8-4.7-1.5-6.1,1.7c-0.8,1.8-1.1,3.8-1.5,5.8c-1,5.6-2.5,6.9-8,8c-2.1,0.4-4,2-6,3.1
	c-0.5,0.3-0.7,1-1.1,1.2c-2.5,1.1-5.1,2.2-7.7,3.3c-0.7-2.3-2.1-4.5-2-6.8c0.2-4.5,1.1-8.9,1.9-13.4c0.3-2,1-4,1.5-6
	c-0.3-0.2-0.5-0.4-0.8-0.6c-2.3,1.1-4.5,2.2-6.8,3.2c-3,1.4-6,2.9-9.2,3.9c-3.8,1.1-5.9-0.1-8.2-3.5c-0.7-1-2.2-1.9-3.5-2
	c-4.2-0.6-8.4-0.8-12.6-1.2c-1.3-0.1-2.5-0.4-3.8-0.6c-0.2-0.4-0.4-0.7-0.5-1.1c3.3-2.7,6.6-5.3,9.8-8.1c1.8-1.6,4-3.2,4.7-5.3
	c1-2.9,2.8-4.1,5.3-4.9c1.5-0.5,3-0.8,4.4-1.5c0.8-0.4,1.5-1.2,2.2-1.8c-0.7-0.8-1.2-2-2.1-2.3c-2.5-0.9-5.1-1.4-7.7-2
	c-3.2-0.7-6.6-1-9.7-2.1c-3.6-1.4-3.8-2.8-1.3-5.6c1.7-1.9,1.6-3.8-0.2-5.2c-2.3-1.7-4.8-3.2-7.3-4.5c-3.9-2-8.1-3.5-11.7-7.7
	c2.1-0.3,3.4-0.6,4.7-0.6c6.1-0.2,12.2-0.3,18.3-0.6c2.5-0.1,4.4-1.3,5.3-3.9c0.3-0.8,1.7-1.8,2.4-1.6c3.1,0.7,6.3,1.4,9,2.9
	c3.7,2,7,4.8,10.6,7c1.3,0.8,3.1,0.6,4.6,0.9c0.2-1.5,0.8-3,0.5-4.3c-1.4-7.4-1.6-14.7-0.2-22.2c1-5.1,0.8-10.4,1.4-15.6
	c0.2-1.7,1-3.3,1.5-4.9c0.4-0.1,0.8-0.3,1.3-0.4c2.8,4,5.7,8,8.5,12c1.1,1.5,1.8,3.3,2.9,4.8c2.3,3,3.7,3,6.5,0
	c7.4,5.4,5.4,13.6,5.8,21.1c3.8-0.4,4.9-3.2,6.5-5.5c2.9-3.9,5.7-7.9,9-11.5c1.7-1.8,4.4-2.7,7-4.2c0.3,3.5,0.2,6.2,0.8,8.8
	c0.7,3,1.7,5.9,3.1,8.6c1.7,3.5,1.5,6.6-0.2,9.9c-1,1.7-2.2,3.3-3.2,5.1c-2.2,3.9-1.9,5.2,2.1,7.9c-4.9,8.4-12.9,12.7-21.5,16.9
	c8.1,5.1,14,12,16.8,21.2C-1220.9-535.9-1220.5-531.8-1219.7-527.9z"/>
<path d="M-1058.4-730.8c8.3,20.8,18.1,40.7,17.6,63.3c-0.1,5.6-0.9,11.4-2.5,16.7c-6.1,20.1-25.3,27.8-43.9,18
	c-4.9-2.6-4.9-2.6-8.7,1.6c-5.4,6-8.4,13-9.1,21.1c-0.1,1.6,0.2,3.7-3.1,2.8c-0.1-11.6,4.6-21,13.2-29.3c-2.3-0.2-4.2-0.2-6-0.6
	c-12.8-2.5-22.3-17.2-19.4-30.7c3.4-15.3,11.6-28,24-37.5c9.8-7.5,20.4-14,30.6-20.9C-1063.3-727.7-1061.1-729.1-1058.4-730.8z"/>
<path class="st1" d="M-920.4-751.6c0.5,5.5,0.8,11.1,1.7,16.5c1.3,8.2,5.3,14.9,11.3,20.7c4.4,4.3,8.9,8.6,12.5,13.5
	c8.7,12,7.6,30.4-2,41.8c-0.8,1-1.3,2.8-1.1,4.1c1.3,7.3,5.4,13,11,17.8c0.7,0.6,0.9,1.5,1.4,2.3c-0.9-0.2-2-0.2-2.7-0.7
	c-6-4.9-10.1-11.1-11.8-18.7c-0.5-2.3-1.1-3.2-3.8-2.9c-10.6,1.4-17.9-4.2-23.6-12.3c-13.6-19.2-14.8-40.2-8.1-62.1
	c2.5-8,7.5-14.5,14.2-19.6c0.2-0.2,0.5-0.3,0.7-0.5C-920.5-751.6-920.3-751.6-920.4-751.6z"/>
<path d="M-980.9-797.4c-10.3-13.2-10.8-27.5-5.2-42.8c2.4-6.5,4.5-13.3,5.3-20.2c1-9.5-2.2-18.4-6.5-26.9c-0.5-1.1-1.1-2.2-1.6-3.3
	c-0.1-0.2,0-0.4,0-0.9c7.9,0.9,14.7,4.2,20.9,8.9c10.8,8.4,17.6,19.7,22.9,32.1c6,14,7.1,28.4,3.5,43.1c-2.5,9.9-7.7,17.6-18.2,20.7
	c-2.1,0.6-2,1.8-1.5,3.5c2.4,8.6,1.6,17-1.9,25.1c-0.5,1-1.5,1.8-2.7,3c1.3-6.1,3-11.3,3.5-16.6c0.4-3.8-0.7-7.7-1.2-11.5
	c-0.1-0.8-0.8-1.8-1.4-2.1c-5.9-2.3-10.2-6.5-14.5-10.9l0.1,0.1C-979.9-796.5-980.4-796.9-980.9-797.4
	C-980.8-797.4-980.9-797.4-980.9-797.4z M-977-798.3c-1.6-3.5-2.9-6.1-4.6-9.7c-0.6,1.8-1.4,3-1.1,3.5
	C-981.1-802.5-979.3-800.8-977-798.3z M-969.4-872.7c-0.3,0.1-0.6,0.2-0.9,0.3c1.2,3.5,2.4,6.9,3.6,10.4c0.2-0.1,0.5-0.2,0.7-0.2
	C-967.1-865.8-968.3-869.3-969.4-872.7z M-965.9-847.3c0.4,0,0.7,0,1.1,0c-0.3-3.1-0.5-6.2-0.8-9.4c-0.1,0-0.2,0-0.3,0
	C-965.9-853.5-965.9-850.4-965.9-847.3z M-969.1-806.1c0.2,0.3,0.4,0.7,0.7,1c2-1.1,4-2.2,6.1-3.3c-0.2-0.3-0.4-0.7-0.6-1
	C-965-808.3-967-807.2-969.1-806.1z M-972.5-829.5c0.3,0.1,0.6,0.1,1,0.2c0.5-2.2,1-4.4,1.6-6.5c-0.4-0.1-0.8-0.2-1.2-0.3
	C-971.7-833.9-972.1-831.7-972.5-829.5z"/>
<path d="M-1004.2-638.1c0.3,26.8-1.2,53.2-13.6,77.6c-9,17.7-23.2,29.2-42.5,34.4c-2.9,0.8-4.6,0-6.2-2.2c-3.5-4.7-4.5-9.9-3.5-15.5
	c1.4-8.1,5.1-15.2,10-21.6c3.6-4.8,7.4-9.5,11.8-13.6c17.4-16.2,31.2-35,42.3-55.9C-1005.4-636-1004.8-637.1-1004.2-638.1z"/>
<path d="M-1109.8-740.4c2.4-10.7,0-20.2-1.7-29.9c-1.2-7-1.9-13.9-0.4-20.9c2.3-10.7,11.5-15.9,21.8-11.8c4.2,1.7,8.1,4.4,12.3,6.8
	c0.7-8.6,4.4-16.2,12-21.8c2.1,1.2,1.1,2.1-0.1,3.2c-5.1,4.4-8.1,9.9-9.1,16.6c-0.6,4.1-0.4,3.9,3.5,4.9c4.4,1.1,8.7,2.8,12.6,4.8
	c3.4,1.8,5.4,11.7,3.6,16.4c-2.4,6.3-6.7,10.8-12.9,13.2c-4.2,1.7-8.6,3-13.1,3.9c-8.5,1.6-16,5.3-22.8,10.5
	C-1105.7-743.2-1107.5-742-1109.8-740.4z"/>
<path d="M-1166.6-557.2c2.1,4.1,4.3,8.2,6.4,12.4c2.1,4.2,4.1,8.4,6.4,13c-0.9-0.2-1.4-0.3-2-0.4c-0.4,1.7-0.8,3.4-1.1,5.1
	c-0.2,0-0.4,0-0.5,0c0-0.8-0.2-1.6,0-2.3c1.4-4.2-0.1-7.7-2-11.4c-4.7-8.8-9-17.8-13.9-27.5c5.9,1.6,11.1,3.1,16.3,4.5
	c7,2,13.9,3.9,20.8,6c3.1,1,5.8,1.4,8.5-0.8c0.5-0.4,1.2-0.4,2.1-0.3c-1,0.8-2,1.7-3,2.6c4.4,3.9,8.4-0.2,12.7,0.3
	c-1.7,0.6-3.3,1.1-6.1,2c5.4,1.6,9.8,3,14.2,4.3c-0.1,0.3-0.2,0.6-0.3,0.9c-10.1-2.8-20.2-5.7-30.3-8.5c-0.1,0.2-0.3,0.4-0.4,0.6
	c3.1,3.7,6.1,7.5,9.2,11.2c-0.2,0.2-0.3,0.4-0.5,0.6c-0.6-0.5-1.3-0.9-1.7-1.4c-2-2.4-4.3-4.6-5.9-7.2c-2.8-4.7-7.2-6.1-12.9-6.9
	c3.4,4,6.5,7.5,9.5,11.1c-0.2,0.2-0.4,0.4-0.7,0.6c-2.2-2.5-4.7-4.8-6.7-7.4c-2.9-4-6.6-6.3-11.5-7.2c-3.6-0.7-7.1-2-11.5-3.3
	c1.8,3.2,2,6.4,5.3,7.8c2.8,1.2,5.5,2.5,8.3,3.8c-0.1,0.3-0.3,0.6-0.4,0.9c-2.6-1.2-5.3-2.4-7.9-3.6
	C-1166.2-557.6-1166.4-557.4-1166.6-557.2z"/>
<path d="M-1195.8-536.4c-0.9-12.4,8-27.6,19.3-32.8c1.2,1.4,1.5,2.4-0.4,3.6c-9.9,6.5-14.9,15.9-16,27.6c-0.1,0.9-1.2,1.7-1.9,2.5
	C-1195.1-535.9-1195.5-536.2-1195.8-536.4z"/>
<path d="M-1079.6-814.7c-0.2-0.8-0.9-1.8-0.6-2.4c3.5-7.7,3.5-15.4,0.2-23.2c0.2-0.3,0.4-0.5,0.7-0.8c0.9,0.7,2.2,1.1,2.5,2
	c3.1,8.2,2.4,16.3-1.5,24C-1078.8-814.9-1079.2-814.8-1079.6-814.7z"/>
<path d="M-1172.9-574.8c2.8-8.3,5.5-16.7,8.3-25c3.9-11.5,7.9-22.9,11.9-34.4c0.5-1.4,1-2.8,1.5-4.2c0.3,0.1,0.6,0.2,0.9,0.3
	c-1.4,3.9-2.9,7.8-4,11.8c-0.3,1.2-2.4,2.7-0.1,4.1c0.1,0-0.2,0.8-0.4,1.1c-0.9,1.4-2.2,2.6-2.7,4.2c-4.5,12.8-8.9,25.7-13.4,38.5
	C-1171.3-577.1-1172.2-576-1172.9-574.8C-1173-574.9-1172.9-574.8-1172.9-574.8z"/>
<path d="M-1133.6-584.3c-0.6,0.6-1.1,1.4-1.8,1.7c-10.2,3.8-20.5,7.5-30.7,11.2c-0.3,0.1-0.6,0-1.2-0.4c0.8-0.3,1.5-0.8,2.3-1
	c9.2-3.4,18.4-6.7,27.5-10.1c1.1-0.4,2-1.5,2.8-2.4c4.3-5.4,8.6-10.9,12.9-16.4c0.3,0.2,0.6,0.4,0.9,0.7c-0.4,0.6-0.8,1.3-1.3,1.9
	c-3.4,4.1-6.8,8.2-10.1,12.4C-1133-586.2-1133.2-585.1-1133.6-584.3L-1133.6-584.3z"/>
<path d="M-1175-820.4c0.4,0.7,1.2,1.5,1.3,2.2c0.2,4,2.5,4.5,5.9,4.4c2.8-0.1,5.6,0.6,8.3,0.4c6.8-0.4,13.5-1,20.2-1.6
	c1.1-0.1,2.2-0.2,3.2-0.3c0,0.3,0.1,0.6,0.1,0.9c-5.3,0.6-10.6,1.6-15.9,1.8c-7.7,0.3-15.4,0-23-0.1c0,0,0.1,0.1,0.1,0.1
	C-1174.8-815.3-1174.9-817.9-1175-820.4L-1175-820.4z"/>
<path d="M-1186.3-601.2c0.6,0.9,1.3,1.6,1.7,2.6c3.3,8.4,6.6,16.9,10,25.7c0.8-0.8,1.3-1.3,1.8-1.9c0,0-0.1-0.1-0.1-0.1
	c-0.3,1.3-0.6,2.5-0.9,3.8c-0.3,0-0.7,0-1,0c-0.5-1.2-1.1-2.3-1.5-3.5C-1179.7-583.4-1183-592.4-1186.3-601.2L-1186.3-601.2z"/>
<path d="M-1181.5-804.6c5.1,0.9,10.2,1.8,15.3,2.6c0,0.1,0,0.1,0,0.2c-5.5-0.3-11-0.6-16.7-1c-0.4-5.7-5.9-7.6-8.5-11.8
	c0.2-0.2,0.5-0.4,0.7-0.6C-1187.6-811.6-1184.5-808.1-1181.5-804.6L-1181.5-804.6z"/>
<path d="M-1174.9-820.5c-5-5.6-10-11.3-14.9-17c-0.9-1-1.5-2.3-1.9-3.6c5,5.4,10.1,10.7,14.9,16.2
	C-1175.8-823.7-1175.6-821.9-1174.9-820.5C-1175-820.4-1174.9-820.5-1174.9-820.5z"/>
<path d="M-1153.4-839.5c0.1-1.8,0.5-3.7,0.3-5.5c-0.6-4.5-1.4-8.9-1.4-13.5c0.6,3.9,1.2,7.7,1.9,11.6c0.7,4,1.5,4.4,5.4,3.5
	c1.3-0.3,2.6-0.6,3.9-0.9c1.2-0.3,2.3-0.7,3.6-0.6C-1144.3-843.1-1148.9-841.3-1153.4-839.5
	C-1153.5-839.5-1153.4-839.5-1153.4-839.5z"/>
<path d="M-1133.6-584.3c7.7-3,15.5-5.9,23.2-8.9c0.1,0.4,0.3,0.8,0.4,1.2c-7.2,2.6-14.5,5.3-21.7,7.9
	C-1132.2-583.9-1133-584.2-1133.6-584.3C-1133.6-584.3-1133.6-584.3-1133.6-584.3z"/>
<path d="M-1186.3-601.3c-2.9-7-5.7-14.1-8.7-21.2c0.7-0.1,1-0.2,1-0.2c2.6,6.6,5.2,13.2,7.7,19.8
	C-1186-602.4-1186.3-601.8-1186.3-601.3C-1186.3-601.2-1186.3-601.3-1186.3-601.3z"/>
<path d="M-1158.5-829.1c-1.8,1.1-3.5,2.2-5.2,3.2c-0.9-6.8-1.7-13.2-2.5-19.6c0.2,0,0.5-0.1,0.7-0.1c0.7,4.9,1.3,9.8,2.1,14.7
	c0.1,0.8,0.8,1.4,1.3,2.1l-0.1-0.1C-1160.9-828.8-1159.7-828.9-1158.5-829.1L-1158.5-829.1z"/>
<path d="M-1131.8-583.1c5.2,1.5,10.5,3,15.7,4.5c-0.1,0.3-0.2,0.7-0.3,1c-5.2-1.5-10.4-3-15.6-4.6
	C-1131.9-582.5-1131.8-582.8-1131.8-583.1z"/>
<path d="M-1147.1-577.2c5.2,0.8,10.3,1.5,15.5,2.3c0,0.3-0.1,0.7-0.1,1c-5.2-0.8-10.3-1.5-15.5-2.2
	C-1147.2-576.5-1147.2-576.8-1147.1-577.2z"/>
<path d="M-1164.8-604.4c-0.8-4.9-1.6-9.9-2.5-14.8c0.3-0.1,0.7-0.1,1-0.2c0.8,4.9,1.6,9.9,2.4,14.8
	C-1164.1-604.5-1164.5-604.5-1164.8-604.4z"/>
<path d="M-1163.1-545.4c-0.4,4.7-0.8,9.4-1.2,14c-0.4,0-0.7-0.1-1.1-0.1c0.5-4.6,0.9-9.3,1.4-13.9
	C-1163.8-545.4-1163.5-545.4-1163.1-545.4z"/>
<path d="M-1151-540.2c-3.3-2.5-6.6-4.9-9.9-7.4c0.2-0.3,0.4-0.5,0.6-0.8c3.3,2.4,6.7,4.8,10,7.2
	C-1150.6-540.8-1150.8-540.5-1151-540.2z"/>
<path d="M-1169.6-607.9c0.7,4.1,1.3,8.2,2,12.3c-0.3,0.1-0.7,0.1-1,0.2c-0.7-4.1-1.3-8.2-2-12.3
	C-1170.2-607.8-1169.9-607.8-1169.6-607.9z"/>
<path d="M-1162.1-828.6c2.9-3.6,5.8-7.2,8.7-10.8c0,0-0.1-0.1-0.1-0.1C-1156.4-835.9-1159.3-832.3-1162.1-828.6L-1162.1-828.6z"/>
<path d="M-1103.2-595.4c3.7-1.4,7.3-2.8,11-4.2c0.1,0.3,0.2,0.6,0.4,0.9c-3.7,1.4-7.3,2.7-11,4.1
	C-1103-594.8-1103.1-595.1-1103.2-595.4z"/>
<path d="M-1158.5-829c4.5-0.7,9.1-1.4,13.6-2.1c0,0.4,0.1,0.8,0.1,1.3C-1149.3-829.6-1153.9-829.3-1158.5-829
	C-1158.5-829.1-1158.5-829-1158.5-829z"/>
<path d="M-1171.6-547.1c0.7-3.3,1.3-6.6,2-9.9c0.3,0.1,0.6,0.1,1,0.2c-0.7,3.3-1.4,6.6-2,9.9C-1171-546.9-1171.3-547-1171.6-547.1z"
	/>
<path d="M-1181.4-804.6c2.2-2.7,4.5-5.4,6.7-8.1c0,0-0.1-0.1-0.1-0.1C-1177.1-810.1-1179.3-807.4-1181.4-804.6
	C-1181.5-804.6-1181.4-804.6-1181.4-804.6z"/>
<path class="st1" d="M-979.4-796c0,0-0.1-0.1-0.1-0.1L-979.4-796z"/>
<path class="st1" d="M-980.9-797.4C-980.9-797.4-980.8-797.4-980.9-797.4C-980.8-797.4-980.9-797.4-980.9-797.4z"/>
<path class="st1" d="M-977-798.3c-2.3-2.5-4.1-4.2-5.7-6.2c-0.3-0.4,0.5-1.7,1.1-3.5C-979.9-804.4-978.6-801.7-977-798.3z"/>
<path class="st1" d="M-969.4-872.7c1.1,3.5,2.3,7,3.4,10.4c-0.2,0.1-0.5,0.2-0.7,0.2c-1.2-3.5-2.4-6.9-3.6-10.4
	C-970-872.5-969.7-872.6-969.4-872.7z"/>
<path class="st1" d="M-965.9-847.3c0-3.1,0-6.3,0-9.4c0.1,0,0.2,0,0.3,0c0.3,3.1,0.5,6.2,0.8,9.4
	C-965.2-847.3-965.5-847.3-965.9-847.3z"/>
<path class="st1" d="M-969.1-806.1c2.1-1.1,4.1-2.2,6.2-3.3c0.2,0.3,0.4,0.7,0.6,1c-2,1.1-4,2.2-6.1,3.3
	C-968.7-805.4-968.9-805.8-969.1-806.1z"/>
<path class="st1" d="M-972.5-829.5c0.4-2.2,0.9-4.4,1.3-6.6c0.4,0.1,0.8,0.2,1.2,0.3c-0.5,2.2-1,4.4-1.6,6.5
	C-971.9-829.4-972.2-829.5-972.5-829.5z"/>
<g>
	<path class="st2" d="M15.9,9c0.7,0,1.4,0.6,1.4,1.4v4.3c0,0.7-0.6,1.4-1.4,1.4H9.1c-0.7,0-1.4-0.6-1.4-1.4v-4.3
		C7.8,9.7,8.4,9,9.1,9H15.9 M15.9,8.6H9.1c-1,0-1.8,0.8-1.8,1.8v4.3c0,1,0.8,1.8,1.8,1.8h6.7c1,0,1.8-0.8,1.8-1.8v-4.3
		C17.7,9.4,16.8,8.6,15.9,8.6L15.9,8.6z"/>
</g>
<line class="st3" x1="14" y1="11.1" x2="16.3" y2="11.1"/>
<line class="st3" x1="14" y1="12" x2="16.3" y2="12"/>
<line class="st3" x1="14" y1="12.9" x2="16.3" y2="12.9"/>
<line class="st3" x1="14" y1="13.8" x2="16.3" y2="13.8"/>
<g>
	<g>
		<g>
			<g>
				<path class="st4" d="M13.3,12.7l-2.5,0v-0.2l0,0l1.7-1.7l0.1,0.1c0.4,0.4,0.7,1,0.7,1.6c0,0,0,0,0,0L13.3,12.7z M11.3,12.5
					l1.8,0c0-0.5-0.2-0.9-0.5-1.3L11.3,12.5z"/>
			</g>
		</g>
	</g>
</g>
<circle class="st5" cx="10.8" cy="12.5" r="2.4"/>
</svg>
