<?xml version="1.0" encoding="utf-8"?>
<!-- Generator: Adobe Illustrator 22.1.0, SVG Export Plug-In . SVG Version: 6.00 Build 0)  -->
<svg version="1.1" id="Layer_1" xmlns="http://www.w3.org/2000/svg" xmlns:xlink="http://www.w3.org/1999/xlink" x="0px" y="0px"
	 viewBox="0 0 25 25" style="enable-background:new 0 0 25 25;" xml:space="preserve">
<style type="text/css">
	.st0{fill:#FDBC14;}
	.st1{fill:#FFFFFF;}
	.st2{fill:#FC1A63;}
	.st3{fill:none;stroke:#FFFFFF;stroke-width:0.5;stroke-miterlimit:10;}
	.st4{fill:#FFFFFF;stroke:#FFFFFF;stroke-width:0.25;stroke-miterlimit:10;}
	.st5{fill:none;stroke:#FFFFFF;stroke-width:0.25;stroke-miterlimit:10;}
</style>
<g id="Layer_1_1_">
	<circle class="st0" cx="12.5" cy="12.5" r="6.9"/>
	<g>
		<path class="st1" d="M15.9,9c0.7,0,1.4,0.6,1.4,1.4v4.3c0,0.7-0.6,1.4-1.4,1.4H9.1c-0.7,0-1.4-0.6-1.4-1.4v-4.3
			C7.8,9.7,8.4,9,9.1,9H15.9 M15.9,8.6H9.1c-1,0-1.8,0.8-1.8,1.8v4.3c0,1,0.8,1.8,1.8,1.8h6.7c1,0,1.8-0.8,1.8-1.8v-4.3
			C17.7,9.4,16.8,8.6,15.9,8.6L15.9,8.6z"/>
	</g>
</g>
<g id="Layer_1_copy">
	<circle class="st0" cx="12.5" cy="12.5" r="6.9"/>
	<g>
		<path class="st1" d="M15.9,9c0.7,0,1.4,0.6,1.4,1.4v4.3c0,0.7-0.6,1.4-1.4,1.4H9.1c-0.7,0-1.4-0.6-1.4-1.4v-4.3
			C7.8,9.7,8.4,9,9.1,9H15.9 M15.9,8.6H9.1c-1,0-1.8,0.8-1.8,1.8v4.3c0,1,0.8,1.8,1.8,1.8h6.7c1,0,1.8-0.8,1.8-1.8v-4.3
			C17.7,9.4,16.8,8.6,15.9,8.6L15.9,8.6z"/>
	</g>
</g>
<g id="Layer_1_copy_2">
	<circle class="st2" cx="12.5" cy="12.5" r="6.9"/>
	<path class="st1" d="M14.2,15.6c0,0-0.1,0-0.1,0.1C14.1,15.6,14.1,15.6,14.2,15.6z"/>
	<rect x="8.8" y="7.8" class="st3" width="7.1" height="9.1"/>
	<polyline class="st3" points="14.3,7.8 14.3,9.5 15.8,9.5 	"/>
</g>
<g>
	<path class="st4" d="M14.7,14.7h-4.4c-0.3,0-0.5-0.2-0.5-0.5v-0.2H10v0.2c0,0.1,0.1,0.2,0.2,0.2h4.4c0.1,0,0.2-0.1,0.2-0.2v-0.2
		h0.2v0.2C15.1,14.4,14.9,14.7,14.7,14.7z"/>
</g>
<g>
	<path class="st5" d="M14.2,11h-1.9h-0.7h-0.9c-0.1,0-0.2,0.1-0.2,0.2v1.1v1.1h3.9v-1.1v-1.1C14.4,11.1,14.3,11,14.2,11z"/>
	<path class="st4" d="M14.2,10.7h-1.9h-0.7h-0.9c-0.3,0-0.5,0.2-0.5,0.5v1.1v1.3h4.4v-1.3v-1.1C14.6,10.9,14.4,10.7,14.2,10.7z
		 M14.4,12.3v1.1h-3.9v-1.1v-1.1c0-0.1,0.1-0.2,0.2-0.2h0.9h0.7h1.9c0.1,0,0.2,0.1,0.2,0.2V12.3z"/>
</g>
</svg>
